M48
; DRILL file {KiCad 9.0.6} date 2026-02-03T15:59:15-0800
; FORMAT={-:-/ absolute / metric / decimal}
; #@! TF.CreationDate,2026-02-03T15:59:15-08:00
; #@! TF.GenerationSoftware,Kicad,Pcbnew,9.0.6
; #@! TF.FileFunction,Plated,1,2,PTH
FMAT,2
METRIC
; #@! TA.AperFunction,Plated,PTH,ComponentDrill
T1C1.020
; #@! TA.AperFunction,Plated,PTH,ComponentDrill
T2C1.400
%
G90
G05
T1
X112.72Y-86.88
X112.72Y-89.42
X112.72Y-91.96
X112.72Y-94.5
X112.72Y-97.04
X112.72Y-99.58
X112.72Y-102.12
X112.72Y-104.66
X112.72Y-107.2
X112.72Y-109.74
X116.53Y-116.09
X119.07Y-116.09
X121.61Y-116.09
X124.15Y-116.09
X126.69Y-116.09
X130.5Y-86.88
X130.5Y-89.42
X130.5Y-91.96
X130.5Y-94.5
X130.5Y-97.04
X130.5Y-99.58
X130.5Y-102.12
X130.5Y-104.66
X130.5Y-107.2
X130.5Y-109.74
X137.53Y-86.79
X137.53Y-89.33
X137.53Y-91.87
X137.53Y-94.41
X137.53Y-96.95
X137.53Y-99.49
X137.53Y-102.03
X137.53Y-104.57
X137.53Y-107.11
X137.53Y-109.65
X141.34Y-116.0
X143.88Y-116.0
X146.42Y-116.0
X148.96Y-116.0
X151.5Y-116.0
X155.31Y-86.79
X155.31Y-89.33
X155.31Y-91.87
X155.31Y-94.41
X155.31Y-96.95
X155.31Y-99.49
X155.31Y-102.03
X155.31Y-104.57
X155.31Y-107.11
X155.31Y-109.65
T2
X103.5Y-56.44
X103.5Y-61.52
X103.5Y-66.6
X103.5Y-71.68
X103.5Y-76.76
X103.5Y-81.84
X103.5Y-86.92
X103.5Y-92.0
X103.5Y-98.94
X103.5Y-104.02
X103.5Y-109.1
X103.5Y-114.18
X103.5Y-119.26
X103.5Y-124.34
X103.5Y-129.42
X103.5Y-134.5
X127.5Y-59.5
X127.84Y-130.5
X132.58Y-59.5
X132.92Y-130.5
X137.66Y-59.5
X138.0Y-130.5
X142.74Y-59.5
X143.08Y-130.5
X168.0Y-56.18
X168.0Y-61.26
X168.0Y-66.34
X168.0Y-71.42
X168.0Y-76.5
X168.0Y-81.58
X168.0Y-86.66
X168.0Y-91.74
X168.0Y-98.42
X168.0Y-103.5
X168.0Y-108.58
X168.0Y-113.66
X168.0Y-118.74
X168.0Y-123.82
X168.0Y-128.9
X168.0Y-133.98
M30
