%TF.GenerationSoftware,KiCad,Pcbnew,9.0.6*%
%TF.CreationDate,2026-02-03T15:59:12-08:00*%
%TF.ProjectId,PCF8575_Breakout,50434638-3537-4355-9f42-7265616b6f75,rev?*%
%TF.SameCoordinates,Original*%
%TF.FileFunction,Soldermask,Top*%
%TF.FilePolarity,Negative*%
%FSLAX46Y46*%
G04 Gerber Fmt 4.6, Leading zero omitted, Abs format (unit mm)*
G04 Created by KiCad (PCBNEW 9.0.6) date 2026-02-03 15:59:12*
%MOMM*%
%LPD*%
G01*
G04 APERTURE LIST*
G04 Aperture macros list*
%AMRoundRect*
0 Rectangle with rounded corners*
0 $1 Rounding radius*
0 $2 $3 $4 $5 $6 $7 $8 $9 X,Y pos of 4 corners*
0 Add a 4 corners polygon primitive as box body*
4,1,4,$2,$3,$4,$5,$6,$7,$8,$9,$2,$3,0*
0 Add four circle primitives for the rounded corners*
1,1,$1+$1,$2,$3*
1,1,$1+$1,$4,$5*
1,1,$1+$1,$6,$7*
1,1,$1+$1,$8,$9*
0 Add four rect primitives between the rounded corners*
20,1,$1+$1,$2,$3,$4,$5,0*
20,1,$1+$1,$4,$5,$6,$7,0*
20,1,$1+$1,$6,$7,$8,$9,0*
20,1,$1+$1,$8,$9,$2,$3,0*%
G04 Aperture macros list end*
%ADD10C,1.734000*%
%ADD11RoundRect,0.249999X-1.550001X0.790001X-1.550001X-0.790001X1.550001X-0.790001X1.550001X0.790001X0*%
%ADD12O,3.600000X2.080000*%
%ADD13RoundRect,0.249999X1.550001X-0.790001X1.550001X0.790001X-1.550001X0.790001X-1.550001X-0.790001X0*%
%ADD14RoundRect,0.249999X-0.790001X-1.550001X0.790001X-1.550001X0.790001X1.550001X-0.790001X1.550001X0*%
%ADD15O,2.080000X3.600000*%
%ADD16RoundRect,0.249999X0.790001X1.550001X-0.790001X1.550001X-0.790001X-1.550001X0.790001X-1.550001X0*%
G04 APERTURE END LIST*
D10*
%TO.C,U3*%
X137530000Y-109650000D03*
X141340000Y-116000000D03*
X155310000Y-109650000D03*
X151500000Y-116000000D03*
X155310000Y-104570000D03*
X155310000Y-102030000D03*
X155310000Y-99490000D03*
X155310000Y-96950000D03*
X155310000Y-94410000D03*
X155310000Y-91870000D03*
X155310000Y-89330000D03*
X155310000Y-86790000D03*
X137530000Y-86790000D03*
X137530000Y-89330000D03*
X137530000Y-91870000D03*
X137530000Y-94410000D03*
X137530000Y-96950000D03*
X137530000Y-99490000D03*
X137530000Y-102030000D03*
X137530000Y-104570000D03*
X148960000Y-116000000D03*
X146420000Y-116000000D03*
X143880000Y-116000000D03*
X137530000Y-107110000D03*
X155310000Y-107110000D03*
%TD*%
D11*
%TO.C,J6*%
X168000000Y-98420000D03*
D12*
X168000000Y-103500000D03*
X168000000Y-108580000D03*
X168000000Y-113660000D03*
X168000000Y-118740000D03*
X168000000Y-123820000D03*
X168000000Y-128900000D03*
X168000000Y-133980000D03*
%TD*%
D13*
%TO.C,J2*%
X103500000Y-134500000D03*
D12*
X103500000Y-129420000D03*
X103500000Y-124340000D03*
X103500000Y-119260000D03*
X103500000Y-114180000D03*
X103500000Y-109100000D03*
X103500000Y-104020000D03*
X103500000Y-98940000D03*
%TD*%
D11*
%TO.C,J5*%
X168000000Y-56180000D03*
D12*
X168000000Y-61260000D03*
X168000000Y-66340000D03*
X168000000Y-71420000D03*
X168000000Y-76500000D03*
X168000000Y-81580000D03*
X168000000Y-86660000D03*
X168000000Y-91740000D03*
%TD*%
D13*
%TO.C,J1*%
X103500000Y-92000000D03*
D12*
X103500000Y-86920000D03*
X103500000Y-81840000D03*
X103500000Y-76760000D03*
X103500000Y-71680000D03*
X103500000Y-66600000D03*
X103500000Y-61520000D03*
X103500000Y-56440000D03*
%TD*%
D14*
%TO.C,J4*%
X127500000Y-59500000D03*
D15*
X132580000Y-59500000D03*
X137660000Y-59500000D03*
X142740000Y-59500000D03*
%TD*%
D10*
%TO.C,U1*%
X112720000Y-109740000D03*
X116530000Y-116090000D03*
X130500000Y-109740000D03*
X126690000Y-116090000D03*
X130500000Y-104660000D03*
X130500000Y-102120000D03*
X130500000Y-99580000D03*
X130500000Y-97040000D03*
X130500000Y-94500000D03*
X130500000Y-91960000D03*
X130500000Y-89420000D03*
X130500000Y-86880000D03*
X112720000Y-86880000D03*
X112720000Y-89420000D03*
X112720000Y-91960000D03*
X112720000Y-94500000D03*
X112720000Y-97040000D03*
X112720000Y-99580000D03*
X112720000Y-102120000D03*
X112720000Y-104660000D03*
X124150000Y-116090000D03*
X121610000Y-116090000D03*
X119070000Y-116090000D03*
X112720000Y-107200000D03*
X130500000Y-107200000D03*
%TD*%
D16*
%TO.C,J8*%
X143080000Y-130500000D03*
D15*
X138000000Y-130500000D03*
X132920000Y-130500000D03*
X127840000Y-130500000D03*
%TD*%
M02*
