%TF.GenerationSoftware,KiCad,Pcbnew,9.0.6*%
%TF.CreationDate,2026-02-03T15:59:12-08:00*%
%TF.ProjectId,PCF8575_Breakout,50434638-3537-4355-9f42-7265616b6f75,rev?*%
%TF.SameCoordinates,Original*%
%TF.FileFunction,Copper,L2,Bot*%
%TF.FilePolarity,Positive*%
%FSLAX46Y46*%
G04 Gerber Fmt 4.6, Leading zero omitted, Abs format (unit mm)*
G04 Created by KiCad (PCBNEW 9.0.6) date 2026-02-03 15:59:12*
%MOMM*%
%LPD*%
G01*
G04 APERTURE LIST*
G04 Aperture macros list*
%AMRoundRect*
0 Rectangle with rounded corners*
0 $1 Rounding radius*
0 $2 $3 $4 $5 $6 $7 $8 $9 X,Y pos of 4 corners*
0 Add a 4 corners polygon primitive as box body*
4,1,4,$2,$3,$4,$5,$6,$7,$8,$9,$2,$3,0*
0 Add four circle primitives for the rounded corners*
1,1,$1+$1,$2,$3*
1,1,$1+$1,$4,$5*
1,1,$1+$1,$6,$7*
1,1,$1+$1,$8,$9*
0 Add four rect primitives between the rounded corners*
20,1,$1+$1,$2,$3,$4,$5,0*
20,1,$1+$1,$4,$5,$6,$7,0*
20,1,$1+$1,$6,$7,$8,$9,0*
20,1,$1+$1,$8,$9,$2,$3,0*%
G04 Aperture macros list end*
%TA.AperFunction,ComponentPad*%
%ADD10C,1.530000*%
%TD*%
%TA.AperFunction,ComponentPad*%
%ADD11RoundRect,0.249999X-1.550001X0.790001X-1.550001X-0.790001X1.550001X-0.790001X1.550001X0.790001X0*%
%TD*%
%TA.AperFunction,ComponentPad*%
%ADD12O,3.600000X2.080000*%
%TD*%
%TA.AperFunction,ComponentPad*%
%ADD13RoundRect,0.249999X1.550001X-0.790001X1.550001X0.790001X-1.550001X0.790001X-1.550001X-0.790001X0*%
%TD*%
%TA.AperFunction,ComponentPad*%
%ADD14RoundRect,0.249999X-0.790001X-1.550001X0.790001X-1.550001X0.790001X1.550001X-0.790001X1.550001X0*%
%TD*%
%TA.AperFunction,ComponentPad*%
%ADD15O,2.080000X3.600000*%
%TD*%
%TA.AperFunction,ComponentPad*%
%ADD16RoundRect,0.249999X0.790001X1.550001X-0.790001X1.550001X-0.790001X-1.550001X0.790001X-1.550001X0*%
%TD*%
%TA.AperFunction,Conductor*%
%ADD17C,0.200000*%
%TD*%
G04 APERTURE END LIST*
D10*
%TO.P,U3,G1,GND*%
%TO.N,GND*%
X137530000Y-109650000D03*
%TO.P,U3,G2,GND*%
X141340000Y-116000000D03*
%TO.P,U3,G3,GND*%
X155310000Y-109650000D03*
%TO.P,U3,INT,INT*%
X151500000Y-116000000D03*
%TO.P,U3,P00,P00*%
%TO.N,Net-(J6-Pin_8)*%
X155310000Y-104570000D03*
%TO.P,U3,P01,P01*%
%TO.N,Net-(J6-Pin_7)*%
X155310000Y-102030000D03*
%TO.P,U3,P02,P02*%
%TO.N,Net-(J6-Pin_6)*%
X155310000Y-99490000D03*
%TO.P,U3,P03,P03*%
%TO.N,Net-(J6-Pin_5)*%
X155310000Y-96950000D03*
%TO.P,U3,P04,P04*%
%TO.N,Net-(J6-Pin_4)*%
X155310000Y-94410000D03*
%TO.P,U3,P05,P05*%
%TO.N,Net-(J6-Pin_3)*%
X155310000Y-91870000D03*
%TO.P,U3,P06,P06*%
%TO.N,Net-(J6-Pin_2)*%
X155310000Y-89330000D03*
%TO.P,U3,P07,P07*%
%TO.N,Net-(J6-Pin_1)*%
X155310000Y-86790000D03*
%TO.P,U3,P10,P10*%
%TO.N,Net-(J5-Pin_8)*%
X137530000Y-86790000D03*
%TO.P,U3,P11,P11*%
%TO.N,Net-(J5-Pin_7)*%
X137530000Y-89330000D03*
%TO.P,U3,P12,P12*%
%TO.N,Net-(J5-Pin_6)*%
X137530000Y-91870000D03*
%TO.P,U3,P13,P13*%
%TO.N,Net-(J5-Pin_5)*%
X137530000Y-94410000D03*
%TO.P,U3,P14,P14*%
%TO.N,Net-(J5-Pin_4)*%
X137530000Y-96950000D03*
%TO.P,U3,P15,P15*%
%TO.N,Net-(J5-Pin_3)*%
X137530000Y-99490000D03*
%TO.P,U3,P16,P16*%
%TO.N,Net-(J5-Pin_2)*%
X137530000Y-102030000D03*
%TO.P,U3,P17,P17*%
%TO.N,Net-(J5-Pin_1)*%
X137530000Y-104570000D03*
%TO.P,U3,SCL,SCL*%
%TO.N,Net-(J4-Pin_1)*%
X148960000Y-116000000D03*
%TO.P,U3,SDA,SDA*%
%TO.N,Net-(J4-Pin_2)*%
X146420000Y-116000000D03*
%TO.P,U3,VCC,VCC*%
%TO.N,+5V*%
X143880000Y-116000000D03*
%TO.P,U3,VD1,VDD*%
X137530000Y-107110000D03*
%TO.P,U3,VD2,VDD*%
X155310000Y-107110000D03*
%TD*%
D11*
%TO.P,J6,1,Pin_1*%
%TO.N,Net-(J6-Pin_1)*%
X168000000Y-98420000D03*
D12*
%TO.P,J6,2,Pin_2*%
%TO.N,Net-(J6-Pin_2)*%
X168000000Y-103500000D03*
%TO.P,J6,3,Pin_3*%
%TO.N,Net-(J6-Pin_3)*%
X168000000Y-108580000D03*
%TO.P,J6,4,Pin_4*%
%TO.N,Net-(J6-Pin_4)*%
X168000000Y-113660000D03*
%TO.P,J6,5,Pin_5*%
%TO.N,Net-(J6-Pin_5)*%
X168000000Y-118740000D03*
%TO.P,J6,6,Pin_6*%
%TO.N,Net-(J6-Pin_6)*%
X168000000Y-123820000D03*
%TO.P,J6,7,Pin_7*%
%TO.N,Net-(J6-Pin_7)*%
X168000000Y-128900000D03*
%TO.P,J6,8,Pin_8*%
%TO.N,Net-(J6-Pin_8)*%
X168000000Y-133980000D03*
%TD*%
D13*
%TO.P,J2,1,Pin_1*%
%TO.N,Net-(J2-Pin_1)*%
X103500000Y-134500000D03*
D12*
%TO.P,J2,2,Pin_2*%
%TO.N,Net-(J2-Pin_2)*%
X103500000Y-129420000D03*
%TO.P,J2,3,Pin_3*%
%TO.N,Net-(J2-Pin_3)*%
X103500000Y-124340000D03*
%TO.P,J2,4,Pin_4*%
%TO.N,Net-(J2-Pin_4)*%
X103500000Y-119260000D03*
%TO.P,J2,5,Pin_5*%
%TO.N,Net-(J2-Pin_5)*%
X103500000Y-114180000D03*
%TO.P,J2,6,Pin_6*%
%TO.N,Net-(J2-Pin_6)*%
X103500000Y-109100000D03*
%TO.P,J2,7,Pin_7*%
%TO.N,Net-(J2-Pin_7)*%
X103500000Y-104020000D03*
%TO.P,J2,8,Pin_8*%
%TO.N,Net-(J2-Pin_8)*%
X103500000Y-98940000D03*
%TD*%
D11*
%TO.P,J5,1,Pin_1*%
%TO.N,Net-(J5-Pin_1)*%
X168000000Y-56180000D03*
D12*
%TO.P,J5,2,Pin_2*%
%TO.N,Net-(J5-Pin_2)*%
X168000000Y-61260000D03*
%TO.P,J5,3,Pin_3*%
%TO.N,Net-(J5-Pin_3)*%
X168000000Y-66340000D03*
%TO.P,J5,4,Pin_4*%
%TO.N,Net-(J5-Pin_4)*%
X168000000Y-71420000D03*
%TO.P,J5,5,Pin_5*%
%TO.N,Net-(J5-Pin_5)*%
X168000000Y-76500000D03*
%TO.P,J5,6,Pin_6*%
%TO.N,Net-(J5-Pin_6)*%
X168000000Y-81580000D03*
%TO.P,J5,7,Pin_7*%
%TO.N,Net-(J5-Pin_7)*%
X168000000Y-86660000D03*
%TO.P,J5,8,Pin_8*%
%TO.N,Net-(J5-Pin_8)*%
X168000000Y-91740000D03*
%TD*%
D13*
%TO.P,J1,1,Pin_1*%
%TO.N,Net-(J1-Pin_1)*%
X103500000Y-92000000D03*
D12*
%TO.P,J1,2,Pin_2*%
%TO.N,Net-(J1-Pin_2)*%
X103500000Y-86920000D03*
%TO.P,J1,3,Pin_3*%
%TO.N,Net-(J1-Pin_3)*%
X103500000Y-81840000D03*
%TO.P,J1,4,Pin_4*%
%TO.N,Net-(J1-Pin_4)*%
X103500000Y-76760000D03*
%TO.P,J1,5,Pin_5*%
%TO.N,Net-(J1-Pin_5)*%
X103500000Y-71680000D03*
%TO.P,J1,6,Pin_6*%
%TO.N,Net-(J1-Pin_6)*%
X103500000Y-66600000D03*
%TO.P,J1,7,Pin_7*%
%TO.N,Net-(J1-Pin_7)*%
X103500000Y-61520000D03*
%TO.P,J1,8,Pin_8*%
%TO.N,Net-(J1-Pin_8)*%
X103500000Y-56440000D03*
%TD*%
D14*
%TO.P,J4,1,Pin_1*%
%TO.N,Net-(J4-Pin_1)*%
X127500000Y-59500000D03*
D15*
%TO.P,J4,2,Pin_2*%
%TO.N,Net-(J4-Pin_2)*%
X132580000Y-59500000D03*
%TO.P,J4,3,Pin_3*%
%TO.N,+5V*%
X137660000Y-59500000D03*
%TO.P,J4,4,Pin_4*%
%TO.N,GND*%
X142740000Y-59500000D03*
%TD*%
D10*
%TO.P,U1,G1,GND*%
%TO.N,GND*%
X112720000Y-109740000D03*
%TO.P,U1,G2,GND*%
X116530000Y-116090000D03*
%TO.P,U1,G3,GND*%
X130500000Y-109740000D03*
%TO.P,U1,INT,INT*%
X126690000Y-116090000D03*
%TO.P,U1,P00,P00*%
%TO.N,Net-(J2-Pin_1)*%
X130500000Y-104660000D03*
%TO.P,U1,P01,P01*%
%TO.N,Net-(J2-Pin_2)*%
X130500000Y-102120000D03*
%TO.P,U1,P02,P02*%
%TO.N,Net-(J2-Pin_3)*%
X130500000Y-99580000D03*
%TO.P,U1,P03,P03*%
%TO.N,Net-(J2-Pin_4)*%
X130500000Y-97040000D03*
%TO.P,U1,P04,P04*%
%TO.N,Net-(J2-Pin_5)*%
X130500000Y-94500000D03*
%TO.P,U1,P05,P05*%
%TO.N,Net-(J2-Pin_6)*%
X130500000Y-91960000D03*
%TO.P,U1,P06,P06*%
%TO.N,Net-(J2-Pin_7)*%
X130500000Y-89420000D03*
%TO.P,U1,P07,P07*%
%TO.N,Net-(J2-Pin_8)*%
X130500000Y-86880000D03*
%TO.P,U1,P10,P10*%
%TO.N,Net-(J1-Pin_1)*%
X112720000Y-86880000D03*
%TO.P,U1,P11,P11*%
%TO.N,Net-(J1-Pin_2)*%
X112720000Y-89420000D03*
%TO.P,U1,P12,P12*%
%TO.N,Net-(J1-Pin_3)*%
X112720000Y-91960000D03*
%TO.P,U1,P13,P13*%
%TO.N,Net-(J1-Pin_4)*%
X112720000Y-94500000D03*
%TO.P,U1,P14,P14*%
%TO.N,Net-(J1-Pin_5)*%
X112720000Y-97040000D03*
%TO.P,U1,P15,P15*%
%TO.N,Net-(J1-Pin_6)*%
X112720000Y-99580000D03*
%TO.P,U1,P16,P16*%
%TO.N,Net-(J1-Pin_7)*%
X112720000Y-102120000D03*
%TO.P,U1,P17,P17*%
%TO.N,Net-(J1-Pin_8)*%
X112720000Y-104660000D03*
%TO.P,U1,SCL,SCL*%
%TO.N,Net-(J4-Pin_1)*%
X124150000Y-116090000D03*
%TO.P,U1,SDA,SDA*%
%TO.N,Net-(J4-Pin_2)*%
X121610000Y-116090000D03*
%TO.P,U1,VCC,VCC*%
%TO.N,+5V*%
X119070000Y-116090000D03*
%TO.P,U1,VD1,VDD*%
X112720000Y-107200000D03*
%TO.P,U1,VD2,VDD*%
X130500000Y-107200000D03*
%TD*%
D16*
%TO.P,J8,1,Pin_1*%
%TO.N,GND*%
X143080000Y-130500000D03*
D15*
%TO.P,J8,2,Pin_2*%
%TO.N,+5V*%
X138000000Y-130500000D03*
%TO.P,J8,3,Pin_3*%
%TO.N,Net-(J4-Pin_2)*%
X132920000Y-130500000D03*
%TO.P,J8,4,Pin_4*%
%TO.N,Net-(J4-Pin_1)*%
X127840000Y-130500000D03*
%TD*%
D17*
%TO.N,Net-(J4-Pin_1)*%
X147894000Y-117066000D02*
X148960000Y-116000000D01*
X127500000Y-59500000D02*
X127500000Y-112740000D01*
X127840000Y-130500000D02*
X141274000Y-117066000D01*
X127500000Y-112740000D02*
X124150000Y-116090000D01*
X127840000Y-119780000D02*
X124150000Y-116090000D01*
X141274000Y-117066000D02*
X147894000Y-117066000D01*
X127840000Y-130500000D02*
X127840000Y-119780000D01*
%TO.N,Net-(J4-Pin_2)*%
X130479000Y-57399000D02*
X132580000Y-59500000D01*
X121610000Y-62263840D02*
X126474840Y-57399000D01*
X126474840Y-57399000D02*
X130479000Y-57399000D01*
X121610000Y-116090000D02*
X121610000Y-62263840D01*
%TO.N,+5V*%
X137530000Y-107110000D02*
X143880000Y-113460000D01*
X155310000Y-107110000D02*
X137530000Y-107110000D01*
X139000000Y-105640000D02*
X137530000Y-107110000D01*
X119070000Y-124386460D02*
X119070000Y-116090000D01*
X138000000Y-130500000D02*
X135899000Y-132601000D01*
X119070000Y-113550000D02*
X112720000Y-107200000D01*
X144946000Y-114934000D02*
X143880000Y-116000000D01*
X130500000Y-107200000D02*
X137440000Y-107200000D01*
X150026000Y-115558448D02*
X149401552Y-114934000D01*
X149401552Y-114934000D02*
X144946000Y-114934000D01*
X138420000Y-130500000D02*
X138507552Y-130500000D01*
X137660000Y-59500000D02*
X139000000Y-60840000D01*
X119070000Y-116090000D02*
X119070000Y-113550000D01*
X150026000Y-118474000D02*
X150026000Y-115558448D01*
X138000000Y-130500000D02*
X150026000Y-118474000D01*
X143880000Y-113460000D02*
X143880000Y-116000000D01*
X127284540Y-132601000D02*
X119070000Y-124386460D01*
X137440000Y-107200000D02*
X137530000Y-107110000D01*
X135899000Y-132601000D02*
X127284540Y-132601000D01*
X139000000Y-60840000D02*
X139000000Y-105640000D01*
%TD*%
%TA.AperFunction,Conductor*%
%TO.N,GND*%
G36*
X173442539Y-53020185D02*
G01*
X173488294Y-53072989D01*
X173499500Y-53124500D01*
X173499500Y-137875500D01*
X173479815Y-137942539D01*
X173427011Y-137988294D01*
X173375500Y-137999500D01*
X97124500Y-137999500D01*
X97057461Y-137979815D01*
X97011706Y-137927011D01*
X97000500Y-137875500D01*
X97000500Y-133659982D01*
X101199500Y-133659982D01*
X101199500Y-135340017D01*
X101210000Y-135442796D01*
X101210001Y-135442798D01*
X101265186Y-135609335D01*
X101357288Y-135758656D01*
X101481344Y-135882712D01*
X101630665Y-135974814D01*
X101797202Y-136029999D01*
X101899990Y-136040500D01*
X101899995Y-136040500D01*
X105100005Y-136040500D01*
X105100010Y-136040500D01*
X105202798Y-136029999D01*
X105369335Y-135974814D01*
X105518656Y-135882712D01*
X105642712Y-135758656D01*
X105734814Y-135609335D01*
X105789999Y-135442798D01*
X105800500Y-135340010D01*
X105800500Y-133858754D01*
X165699500Y-133858754D01*
X165699500Y-134101245D01*
X165737432Y-134340736D01*
X165812360Y-134571344D01*
X165922448Y-134787401D01*
X166064966Y-134983562D01*
X166064970Y-134983567D01*
X166236432Y-135155029D01*
X166236437Y-135155033D01*
X166407539Y-135279345D01*
X166432602Y-135297554D01*
X166648653Y-135407638D01*
X166648655Y-135407639D01*
X166756859Y-135442796D01*
X166879265Y-135482568D01*
X166990186Y-135500136D01*
X167118755Y-135520500D01*
X167118760Y-135520500D01*
X168881245Y-135520500D01*
X168997347Y-135502110D01*
X169120735Y-135482568D01*
X169351347Y-135407638D01*
X169567398Y-135297554D01*
X169763569Y-135155028D01*
X169935028Y-134983569D01*
X170077554Y-134787398D01*
X170187638Y-134571347D01*
X170262568Y-134340735D01*
X170282110Y-134217347D01*
X170300500Y-134101245D01*
X170300500Y-133858754D01*
X170269018Y-133659990D01*
X170262568Y-133619265D01*
X170225103Y-133503959D01*
X170187639Y-133388655D01*
X170187638Y-133388653D01*
X170077554Y-133172602D01*
X170037366Y-133117288D01*
X169935033Y-132976437D01*
X169935029Y-132976432D01*
X169763567Y-132804970D01*
X169763562Y-132804966D01*
X169567401Y-132662448D01*
X169567400Y-132662447D01*
X169567398Y-132662446D01*
X169400783Y-132577551D01*
X169351344Y-132552360D01*
X169120736Y-132477432D01*
X168881245Y-132439500D01*
X168881240Y-132439500D01*
X167118760Y-132439500D01*
X167118755Y-132439500D01*
X166879263Y-132477432D01*
X166648655Y-132552360D01*
X166432598Y-132662448D01*
X166236437Y-132804966D01*
X166236432Y-132804970D01*
X166064970Y-132976432D01*
X166064966Y-132976437D01*
X165922448Y-133172598D01*
X165812360Y-133388655D01*
X165737432Y-133619263D01*
X165699500Y-133858754D01*
X105800500Y-133858754D01*
X105800500Y-133659990D01*
X105789999Y-133557202D01*
X105734814Y-133390665D01*
X105642712Y-133241344D01*
X105518656Y-133117288D01*
X105369335Y-133025186D01*
X105202798Y-132970001D01*
X105202796Y-132970000D01*
X105100017Y-132959500D01*
X105100010Y-132959500D01*
X101899990Y-132959500D01*
X101899982Y-132959500D01*
X101797203Y-132970000D01*
X101797202Y-132970001D01*
X101714669Y-132997349D01*
X101630667Y-133025185D01*
X101630662Y-133025187D01*
X101481342Y-133117289D01*
X101357289Y-133241342D01*
X101265187Y-133390662D01*
X101265186Y-133390665D01*
X101210001Y-133557202D01*
X101210001Y-133557203D01*
X101210000Y-133557203D01*
X101199500Y-133659982D01*
X97000500Y-133659982D01*
X97000500Y-129298754D01*
X101199500Y-129298754D01*
X101199500Y-129541245D01*
X101237432Y-129780736D01*
X101312360Y-130011344D01*
X101344809Y-130075028D01*
X101417430Y-130217554D01*
X101422448Y-130227401D01*
X101564966Y-130423562D01*
X101564970Y-130423567D01*
X101736432Y-130595029D01*
X101736437Y-130595033D01*
X101816033Y-130652862D01*
X101932602Y-130737554D01*
X102117126Y-130831574D01*
X102148655Y-130847639D01*
X102263959Y-130885103D01*
X102379265Y-130922568D01*
X102490186Y-130940136D01*
X102618755Y-130960500D01*
X102618760Y-130960500D01*
X104381245Y-130960500D01*
X104497347Y-130942110D01*
X104620735Y-130922568D01*
X104851347Y-130847638D01*
X105067398Y-130737554D01*
X105263569Y-130595028D01*
X105435028Y-130423569D01*
X105577554Y-130227398D01*
X105687638Y-130011347D01*
X105722658Y-129903567D01*
X105739255Y-129852486D01*
X112749500Y-129852486D01*
X112749500Y-130147513D01*
X112773215Y-130327638D01*
X112788007Y-130439993D01*
X112829550Y-130595033D01*
X112864361Y-130724951D01*
X112864364Y-130724961D01*
X112977254Y-130997500D01*
X112977258Y-130997510D01*
X113124761Y-131252993D01*
X113304352Y-131487040D01*
X113304358Y-131487047D01*
X113512952Y-131695641D01*
X113512959Y-131695647D01*
X113747006Y-131875238D01*
X114002489Y-132022741D01*
X114002490Y-132022741D01*
X114002493Y-132022743D01*
X114275048Y-132135639D01*
X114560007Y-132211993D01*
X114852494Y-132250500D01*
X114852501Y-132250500D01*
X115147499Y-132250500D01*
X115147506Y-132250500D01*
X115439993Y-132211993D01*
X115724952Y-132135639D01*
X115997507Y-132022743D01*
X116252994Y-131875238D01*
X116487042Y-131695646D01*
X116695646Y-131487042D01*
X116875238Y-131252994D01*
X117022743Y-130997507D01*
X117135639Y-130724952D01*
X117211993Y-130439993D01*
X117250500Y-130147506D01*
X117250500Y-129852494D01*
X117211993Y-129560007D01*
X117135639Y-129275048D01*
X117022743Y-129002493D01*
X116963576Y-128900013D01*
X116875238Y-128747006D01*
X116695647Y-128512959D01*
X116695641Y-128512952D01*
X116487047Y-128304358D01*
X116487040Y-128304352D01*
X116252993Y-128124761D01*
X115997510Y-127977258D01*
X115997500Y-127977254D01*
X115724961Y-127864364D01*
X115724954Y-127864362D01*
X115724952Y-127864361D01*
X115439993Y-127788007D01*
X115391113Y-127781571D01*
X115147513Y-127749500D01*
X115147506Y-127749500D01*
X114852494Y-127749500D01*
X114852486Y-127749500D01*
X114574085Y-127786153D01*
X114560007Y-127788007D01*
X114275048Y-127864361D01*
X114275038Y-127864364D01*
X114002499Y-127977254D01*
X114002489Y-127977258D01*
X113747006Y-128124761D01*
X113512959Y-128304352D01*
X113512952Y-128304358D01*
X113304358Y-128512952D01*
X113304352Y-128512959D01*
X113124761Y-128747006D01*
X112977258Y-129002489D01*
X112977254Y-129002499D01*
X112864364Y-129275038D01*
X112864361Y-129275048D01*
X112788008Y-129560004D01*
X112788006Y-129560015D01*
X112749500Y-129852486D01*
X105739255Y-129852486D01*
X105753022Y-129810117D01*
X105753022Y-129810116D01*
X105762567Y-129780738D01*
X105762566Y-129780738D01*
X105762568Y-129780735D01*
X105788223Y-129618754D01*
X105800500Y-129541245D01*
X105800500Y-129298754D01*
X105776726Y-129148655D01*
X105762568Y-129059265D01*
X105687638Y-128828653D01*
X105577554Y-128612602D01*
X105542949Y-128564972D01*
X105435033Y-128416437D01*
X105435029Y-128416432D01*
X105263567Y-128244970D01*
X105263562Y-128244966D01*
X105067401Y-128102448D01*
X105067400Y-128102447D01*
X105067398Y-128102446D01*
X104959372Y-128047404D01*
X104851344Y-127992360D01*
X104620736Y-127917432D01*
X104381245Y-127879500D01*
X104381240Y-127879500D01*
X102618760Y-127879500D01*
X102618755Y-127879500D01*
X102379263Y-127917432D01*
X102148655Y-127992360D01*
X101932598Y-128102448D01*
X101736437Y-128244966D01*
X101736432Y-128244970D01*
X101564970Y-128416432D01*
X101564966Y-128416437D01*
X101422448Y-128612598D01*
X101312360Y-128828655D01*
X101237432Y-129059263D01*
X101199500Y-129298754D01*
X97000500Y-129298754D01*
X97000500Y-124218754D01*
X101199500Y-124218754D01*
X101199500Y-124461245D01*
X101237432Y-124700736D01*
X101312360Y-124931344D01*
X101312362Y-124931347D01*
X101417430Y-125137554D01*
X101422448Y-125147401D01*
X101564966Y-125343562D01*
X101564970Y-125343567D01*
X101736432Y-125515029D01*
X101736437Y-125515033D01*
X101907539Y-125639345D01*
X101932602Y-125657554D01*
X102148653Y-125767638D01*
X102148655Y-125767639D01*
X102263959Y-125805103D01*
X102379265Y-125842568D01*
X102490186Y-125860136D01*
X102618755Y-125880500D01*
X102618760Y-125880500D01*
X104381245Y-125880500D01*
X104497347Y-125862110D01*
X104620735Y-125842568D01*
X104851347Y-125767638D01*
X105067398Y-125657554D01*
X105263569Y-125515028D01*
X105435028Y-125343569D01*
X105577554Y-125147398D01*
X105687638Y-124931347D01*
X105762568Y-124700735D01*
X105799823Y-124465517D01*
X105800500Y-124461245D01*
X105800500Y-124218754D01*
X105778432Y-124079431D01*
X105762568Y-123979265D01*
X105687638Y-123748653D01*
X105577554Y-123532602D01*
X105524270Y-123459263D01*
X105435033Y-123336437D01*
X105435029Y-123336432D01*
X105263567Y-123164970D01*
X105263562Y-123164966D01*
X105067401Y-123022448D01*
X105067400Y-123022447D01*
X105067398Y-123022446D01*
X104959372Y-122967404D01*
X104851344Y-122912360D01*
X104620736Y-122837432D01*
X104381245Y-122799500D01*
X104381240Y-122799500D01*
X102618760Y-122799500D01*
X102618755Y-122799500D01*
X102379263Y-122837432D01*
X102148655Y-122912360D01*
X101932598Y-123022448D01*
X101736437Y-123164966D01*
X101736432Y-123164970D01*
X101564970Y-123336432D01*
X101564966Y-123336437D01*
X101422448Y-123532598D01*
X101312360Y-123748655D01*
X101237432Y-123979263D01*
X101199500Y-124218754D01*
X97000500Y-124218754D01*
X97000500Y-119138754D01*
X101199500Y-119138754D01*
X101199500Y-119381245D01*
X101237432Y-119620736D01*
X101312360Y-119851344D01*
X101344809Y-119915028D01*
X101417430Y-120057554D01*
X101422448Y-120067401D01*
X101564966Y-120263562D01*
X101564970Y-120263567D01*
X101736432Y-120435029D01*
X101736437Y-120435033D01*
X101907539Y-120559345D01*
X101932602Y-120577554D01*
X102148653Y-120687638D01*
X102148655Y-120687639D01*
X102263959Y-120725103D01*
X102379265Y-120762568D01*
X102490186Y-120780136D01*
X102618755Y-120800500D01*
X102618760Y-120800500D01*
X104381245Y-120800500D01*
X104497347Y-120782110D01*
X104620735Y-120762568D01*
X104851347Y-120687638D01*
X105067398Y-120577554D01*
X105263569Y-120435028D01*
X105435028Y-120263569D01*
X105577554Y-120067398D01*
X105687638Y-119851347D01*
X105762568Y-119620735D01*
X105782110Y-119497347D01*
X105800500Y-119381245D01*
X105800500Y-119138754D01*
X105772936Y-118964726D01*
X105762568Y-118899265D01*
X105719020Y-118765238D01*
X105687639Y-118668655D01*
X105640675Y-118576484D01*
X105577554Y-118452602D01*
X105559345Y-118427539D01*
X105435033Y-118256437D01*
X105435029Y-118256432D01*
X105263567Y-118084970D01*
X105263562Y-118084966D01*
X105067401Y-117942448D01*
X105067400Y-117942447D01*
X105067398Y-117942446D01*
X104959372Y-117887404D01*
X104851344Y-117832360D01*
X104620736Y-117757432D01*
X104381245Y-117719500D01*
X104381240Y-117719500D01*
X102618760Y-117719500D01*
X102618755Y-117719500D01*
X102379263Y-117757432D01*
X102148655Y-117832360D01*
X101932598Y-117942448D01*
X101736437Y-118084966D01*
X101736432Y-118084970D01*
X101564970Y-118256432D01*
X101564966Y-118256437D01*
X101422448Y-118452598D01*
X101312360Y-118668655D01*
X101237432Y-118899263D01*
X101199500Y-119138754D01*
X97000500Y-119138754D01*
X97000500Y-114058754D01*
X101199500Y-114058754D01*
X101199500Y-114301245D01*
X101237432Y-114540736D01*
X101312360Y-114771344D01*
X101344809Y-114835028D01*
X101417430Y-114977554D01*
X101422448Y-114987401D01*
X101564966Y-115183562D01*
X101564970Y-115183567D01*
X101736432Y-115355029D01*
X101736437Y-115355033D01*
X101835484Y-115426994D01*
X101932602Y-115497554D01*
X102094411Y-115580000D01*
X102148655Y-115607639D01*
X102240584Y-115637508D01*
X102379265Y-115682568D01*
X102490186Y-115700136D01*
X102618755Y-115720500D01*
X102618760Y-115720500D01*
X104381245Y-115720500D01*
X104497347Y-115702110D01*
X104620735Y-115682568D01*
X104851347Y-115607638D01*
X105067398Y-115497554D01*
X105263569Y-115355028D01*
X105435028Y-115183569D01*
X105509887Y-115080534D01*
X105561166Y-115009955D01*
X105561166Y-115009954D01*
X105564427Y-115005466D01*
X105577554Y-114987398D01*
X105687638Y-114771347D01*
X105762568Y-114540735D01*
X105784546Y-114401972D01*
X105800500Y-114301245D01*
X105800500Y-114058754D01*
X105767451Y-113850097D01*
X105762568Y-113819265D01*
X105687638Y-113588653D01*
X105577554Y-113372602D01*
X105538038Y-113318212D01*
X105435033Y-113176437D01*
X105435029Y-113176432D01*
X105263567Y-113004970D01*
X105263562Y-113004966D01*
X105067401Y-112862448D01*
X105067400Y-112862447D01*
X105067398Y-112862446D01*
X104959372Y-112807404D01*
X104851344Y-112752360D01*
X104620736Y-112677432D01*
X104381245Y-112639500D01*
X104381240Y-112639500D01*
X102618760Y-112639500D01*
X102618755Y-112639500D01*
X102379263Y-112677432D01*
X102148655Y-112752360D01*
X101932598Y-112862448D01*
X101736437Y-113004966D01*
X101736432Y-113004970D01*
X101564970Y-113176432D01*
X101564966Y-113176437D01*
X101422448Y-113372598D01*
X101312360Y-113588655D01*
X101237432Y-113819263D01*
X101199500Y-114058754D01*
X97000500Y-114058754D01*
X97000500Y-108978754D01*
X101199500Y-108978754D01*
X101199500Y-109221245D01*
X101237432Y-109460736D01*
X101312360Y-109691344D01*
X101344809Y-109755028D01*
X101417430Y-109897554D01*
X101422448Y-109907401D01*
X101564966Y-110103562D01*
X101564970Y-110103567D01*
X101736432Y-110275029D01*
X101736437Y-110275033D01*
X101907539Y-110399345D01*
X101932602Y-110417554D01*
X102148653Y-110527638D01*
X102148655Y-110527639D01*
X102263959Y-110565103D01*
X102379265Y-110602568D01*
X102490186Y-110620136D01*
X102618755Y-110640500D01*
X102618760Y-110640500D01*
X104381245Y-110640500D01*
X104481096Y-110624685D01*
X104534379Y-110616245D01*
X104620735Y-110602568D01*
X104851347Y-110527638D01*
X105067398Y-110417554D01*
X105263569Y-110275028D01*
X105435028Y-110103569D01*
X105577554Y-109907398D01*
X105687638Y-109691347D01*
X105693646Y-109672857D01*
X105718212Y-109597252D01*
X105748147Y-109505119D01*
X105762568Y-109460735D01*
X105793608Y-109264755D01*
X105800500Y-109221245D01*
X105800500Y-108978754D01*
X105778432Y-108839431D01*
X105762568Y-108739265D01*
X105725103Y-108623959D01*
X105687639Y-108508655D01*
X105687638Y-108508653D01*
X105577554Y-108292602D01*
X105504719Y-108192353D01*
X105435033Y-108096437D01*
X105435029Y-108096432D01*
X105263567Y-107924970D01*
X105263562Y-107924966D01*
X105067401Y-107782448D01*
X105067400Y-107782447D01*
X105067398Y-107782446D01*
X104926197Y-107710500D01*
X104851344Y-107672360D01*
X104620736Y-107597432D01*
X104381245Y-107559500D01*
X104381240Y-107559500D01*
X102618760Y-107559500D01*
X102618755Y-107559500D01*
X102379263Y-107597432D01*
X102148655Y-107672360D01*
X101932598Y-107782448D01*
X101736437Y-107924966D01*
X101736432Y-107924970D01*
X101564970Y-108096432D01*
X101564966Y-108096437D01*
X101422448Y-108292598D01*
X101312360Y-108508655D01*
X101237432Y-108739263D01*
X101199500Y-108978754D01*
X97000500Y-108978754D01*
X97000500Y-103898754D01*
X101199500Y-103898754D01*
X101199500Y-104141245D01*
X101237432Y-104380736D01*
X101312360Y-104611344D01*
X101312362Y-104611347D01*
X101417430Y-104817554D01*
X101422448Y-104827401D01*
X101564966Y-105023562D01*
X101564970Y-105023567D01*
X101736432Y-105195029D01*
X101736437Y-105195033D01*
X101789061Y-105233266D01*
X101932602Y-105337554D01*
X102148653Y-105447638D01*
X102148655Y-105447639D01*
X102261851Y-105484418D01*
X102379265Y-105522568D01*
X102490186Y-105540136D01*
X102618755Y-105560500D01*
X102618760Y-105560500D01*
X104381245Y-105560500D01*
X104497347Y-105542110D01*
X104620735Y-105522568D01*
X104851347Y-105447638D01*
X105067398Y-105337554D01*
X105263569Y-105195028D01*
X105435028Y-105023569D01*
X105577554Y-104827398D01*
X105687638Y-104611347D01*
X105762568Y-104380735D01*
X105795277Y-104174219D01*
X105800500Y-104141245D01*
X105800500Y-103898754D01*
X105776239Y-103745579D01*
X105762568Y-103659265D01*
X105706666Y-103487215D01*
X105687639Y-103428655D01*
X105640256Y-103335661D01*
X105577554Y-103212602D01*
X105504719Y-103112353D01*
X105435033Y-103016437D01*
X105435029Y-103016432D01*
X105263567Y-102844970D01*
X105263562Y-102844966D01*
X105067401Y-102702448D01*
X105067400Y-102702447D01*
X105067398Y-102702446D01*
X104959372Y-102647404D01*
X104851344Y-102592360D01*
X104620736Y-102517432D01*
X104381245Y-102479500D01*
X104381240Y-102479500D01*
X102618760Y-102479500D01*
X102618755Y-102479500D01*
X102379263Y-102517432D01*
X102148655Y-102592360D01*
X101932598Y-102702448D01*
X101736437Y-102844966D01*
X101736432Y-102844970D01*
X101564970Y-103016432D01*
X101564966Y-103016437D01*
X101422448Y-103212598D01*
X101312360Y-103428655D01*
X101237432Y-103659263D01*
X101199500Y-103898754D01*
X97000500Y-103898754D01*
X97000500Y-98818754D01*
X101199500Y-98818754D01*
X101199500Y-99061245D01*
X101237432Y-99300736D01*
X101312360Y-99531344D01*
X101422448Y-99747401D01*
X101564966Y-99943562D01*
X101564970Y-99943567D01*
X101736432Y-100115029D01*
X101736437Y-100115033D01*
X101789061Y-100153266D01*
X101932602Y-100257554D01*
X102148653Y-100367638D01*
X102148655Y-100367639D01*
X102261851Y-100404418D01*
X102379265Y-100442568D01*
X102490186Y-100460136D01*
X102618755Y-100480500D01*
X102618760Y-100480500D01*
X104381245Y-100480500D01*
X104497347Y-100462110D01*
X104620735Y-100442568D01*
X104851347Y-100367638D01*
X105067398Y-100257554D01*
X105263569Y-100115028D01*
X105435028Y-99943569D01*
X105577554Y-99747398D01*
X105687638Y-99531347D01*
X105762568Y-99300735D01*
X105795277Y-99094219D01*
X105800500Y-99061245D01*
X105800500Y-98818754D01*
X105776239Y-98665579D01*
X105762568Y-98579265D01*
X105687638Y-98348653D01*
X105577554Y-98132602D01*
X105504719Y-98032353D01*
X105435033Y-97936437D01*
X105435029Y-97936432D01*
X105263567Y-97764970D01*
X105263562Y-97764966D01*
X105067401Y-97622448D01*
X105067400Y-97622447D01*
X105067398Y-97622446D01*
X104959372Y-97567404D01*
X104851344Y-97512360D01*
X104620736Y-97437432D01*
X104381245Y-97399500D01*
X104381240Y-97399500D01*
X102618760Y-97399500D01*
X102618755Y-97399500D01*
X102379263Y-97437432D01*
X102148655Y-97512360D01*
X101932598Y-97622448D01*
X101736437Y-97764966D01*
X101736432Y-97764970D01*
X101564970Y-97936432D01*
X101564966Y-97936437D01*
X101422448Y-98132598D01*
X101312360Y-98348655D01*
X101237432Y-98579263D01*
X101199500Y-98818754D01*
X97000500Y-98818754D01*
X97000500Y-91159982D01*
X101199500Y-91159982D01*
X101199500Y-92840017D01*
X101210000Y-92942796D01*
X101210001Y-92942798D01*
X101265186Y-93109335D01*
X101357288Y-93258656D01*
X101481344Y-93382712D01*
X101630665Y-93474814D01*
X101797202Y-93529999D01*
X101899990Y-93540500D01*
X101899995Y-93540500D01*
X105100005Y-93540500D01*
X105100010Y-93540500D01*
X105202798Y-93529999D01*
X105369335Y-93474814D01*
X105518656Y-93382712D01*
X105642712Y-93258656D01*
X105734814Y-93109335D01*
X105789999Y-92942798D01*
X105800500Y-92840010D01*
X105800500Y-91159990D01*
X105789999Y-91057202D01*
X105734814Y-90890665D01*
X105642712Y-90741344D01*
X105518656Y-90617288D01*
X105389283Y-90537490D01*
X105369337Y-90525187D01*
X105369332Y-90525185D01*
X105301733Y-90502785D01*
X105202798Y-90470001D01*
X105202796Y-90470000D01*
X105100017Y-90459500D01*
X105100010Y-90459500D01*
X101899990Y-90459500D01*
X101899982Y-90459500D01*
X101797203Y-90470000D01*
X101797202Y-90470001D01*
X101738313Y-90489515D01*
X101630667Y-90525185D01*
X101630662Y-90525187D01*
X101481342Y-90617289D01*
X101357289Y-90741342D01*
X101265187Y-90890662D01*
X101265186Y-90890665D01*
X101210001Y-91057202D01*
X101210001Y-91057203D01*
X101210000Y-91057203D01*
X101199500Y-91159982D01*
X97000500Y-91159982D01*
X97000500Y-86798754D01*
X101199500Y-86798754D01*
X101199500Y-87041245D01*
X101237432Y-87280736D01*
X101312360Y-87511344D01*
X101364880Y-87614418D01*
X101389923Y-87663569D01*
X101422448Y-87727401D01*
X101564966Y-87923562D01*
X101564970Y-87923567D01*
X101736432Y-88095029D01*
X101736437Y-88095033D01*
X101829392Y-88162568D01*
X101932602Y-88237554D01*
X102129045Y-88337647D01*
X102148655Y-88347639D01*
X102201260Y-88364731D01*
X102379265Y-88422568D01*
X102490186Y-88440136D01*
X102618755Y-88460500D01*
X102618760Y-88460500D01*
X104381245Y-88460500D01*
X104497347Y-88442110D01*
X104620735Y-88422568D01*
X104851347Y-88347638D01*
X105067398Y-88237554D01*
X105263569Y-88095028D01*
X105435028Y-87923569D01*
X105577554Y-87727398D01*
X105687638Y-87511347D01*
X105762568Y-87280735D01*
X105782110Y-87157347D01*
X105800500Y-87041245D01*
X105800500Y-86798755D01*
X105799894Y-86794930D01*
X105799894Y-86794929D01*
X105797593Y-86780403D01*
X111454500Y-86780403D01*
X111454500Y-86979596D01*
X111485661Y-87176340D01*
X111485661Y-87176343D01*
X111547213Y-87365780D01*
X111547215Y-87365783D01*
X111637647Y-87543266D01*
X111754731Y-87704418D01*
X111895582Y-87845269D01*
X112056734Y-87962353D01*
X112125694Y-87997490D01*
X112208172Y-88039515D01*
X112258968Y-88087490D01*
X112275763Y-88155311D01*
X112253225Y-88221446D01*
X112208172Y-88260485D01*
X112056733Y-88337647D01*
X112019456Y-88364731D01*
X111895582Y-88454731D01*
X111895580Y-88454733D01*
X111895579Y-88454733D01*
X111754733Y-88595579D01*
X111754733Y-88595580D01*
X111754731Y-88595582D01*
X111704447Y-88664790D01*
X111637647Y-88756733D01*
X111547213Y-88934219D01*
X111485661Y-89123656D01*
X111485661Y-89123659D01*
X111454500Y-89320403D01*
X111454500Y-89519596D01*
X111485661Y-89716340D01*
X111485661Y-89716343D01*
X111547213Y-89905780D01*
X111547215Y-89905783D01*
X111637647Y-90083266D01*
X111754731Y-90244418D01*
X111895582Y-90385269D01*
X112056734Y-90502353D01*
X112125694Y-90537490D01*
X112208172Y-90579515D01*
X112258968Y-90627490D01*
X112275763Y-90695311D01*
X112253225Y-90761446D01*
X112208172Y-90800485D01*
X112056733Y-90877647D01*
X111981095Y-90932602D01*
X111895582Y-90994731D01*
X111895580Y-90994733D01*
X111895579Y-90994733D01*
X111754733Y-91135579D01*
X111754733Y-91135580D01*
X111754731Y-91135582D01*
X111736998Y-91159990D01*
X111637647Y-91296733D01*
X111547213Y-91474219D01*
X111485661Y-91663656D01*
X111485661Y-91663659D01*
X111454500Y-91860403D01*
X111454500Y-92059596D01*
X111485661Y-92256340D01*
X111485661Y-92256343D01*
X111547213Y-92445780D01*
X111547215Y-92445783D01*
X111637647Y-92623266D01*
X111754731Y-92784418D01*
X111895582Y-92925269D01*
X112056734Y-93042353D01*
X112125694Y-93077490D01*
X112208172Y-93119515D01*
X112258968Y-93167490D01*
X112275763Y-93235311D01*
X112253225Y-93301446D01*
X112208172Y-93340485D01*
X112056733Y-93417647D01*
X111964790Y-93484447D01*
X111895582Y-93534731D01*
X111895580Y-93534733D01*
X111895579Y-93534733D01*
X111754733Y-93675579D01*
X111754733Y-93675580D01*
X111754731Y-93675582D01*
X111704447Y-93744790D01*
X111637647Y-93836733D01*
X111547213Y-94014219D01*
X111485661Y-94203656D01*
X111485661Y-94203659D01*
X111454500Y-94400403D01*
X111454500Y-94599596D01*
X111485661Y-94796340D01*
X111485661Y-94796343D01*
X111547213Y-94985780D01*
X111547215Y-94985783D01*
X111637647Y-95163266D01*
X111754731Y-95324418D01*
X111895582Y-95465269D01*
X112056734Y-95582353D01*
X112125694Y-95617490D01*
X112208172Y-95659515D01*
X112258968Y-95707490D01*
X112275763Y-95775311D01*
X112253225Y-95841446D01*
X112208172Y-95880485D01*
X112056733Y-95957647D01*
X112019456Y-95984731D01*
X111895582Y-96074731D01*
X111895580Y-96074733D01*
X111895579Y-96074733D01*
X111754733Y-96215579D01*
X111754733Y-96215580D01*
X111754731Y-96215582D01*
X111704447Y-96284790D01*
X111637647Y-96376733D01*
X111547213Y-96554219D01*
X111485661Y-96743656D01*
X111485661Y-96743659D01*
X111485661Y-96743661D01*
X111454500Y-96940403D01*
X111454500Y-97139597D01*
X111470080Y-97237968D01*
X111485661Y-97336340D01*
X111485661Y-97336343D01*
X111547213Y-97525780D01*
X111574837Y-97579995D01*
X111637647Y-97703266D01*
X111754731Y-97864418D01*
X111895582Y-98005269D01*
X112056734Y-98122353D01*
X112125694Y-98157490D01*
X112208172Y-98199515D01*
X112258968Y-98247490D01*
X112275763Y-98315311D01*
X112253225Y-98381446D01*
X112208172Y-98420485D01*
X112056733Y-98497647D01*
X112019456Y-98524731D01*
X111895582Y-98614731D01*
X111895580Y-98614733D01*
X111895579Y-98614733D01*
X111754733Y-98755579D01*
X111754733Y-98755580D01*
X111754731Y-98755582D01*
X111708834Y-98818754D01*
X111637647Y-98916733D01*
X111547213Y-99094219D01*
X111485661Y-99283656D01*
X111485661Y-99283659D01*
X111454500Y-99480403D01*
X111454500Y-99679596D01*
X111485661Y-99876340D01*
X111485661Y-99876343D01*
X111547213Y-100065780D01*
X111572307Y-100115029D01*
X111637647Y-100243266D01*
X111754731Y-100404418D01*
X111895582Y-100545269D01*
X112056734Y-100662353D01*
X112125694Y-100697490D01*
X112208172Y-100739515D01*
X112258968Y-100787490D01*
X112275763Y-100855311D01*
X112253225Y-100921446D01*
X112208172Y-100960485D01*
X112056733Y-101037647D01*
X112019456Y-101064731D01*
X111895582Y-101154731D01*
X111895580Y-101154733D01*
X111895579Y-101154733D01*
X111754733Y-101295579D01*
X111754733Y-101295580D01*
X111754731Y-101295582D01*
X111704447Y-101364790D01*
X111637647Y-101456733D01*
X111547213Y-101634219D01*
X111485661Y-101823656D01*
X111485661Y-101823659D01*
X111454500Y-102020403D01*
X111454500Y-102219596D01*
X111485661Y-102416340D01*
X111485661Y-102416343D01*
X111547213Y-102605780D01*
X111547215Y-102605783D01*
X111637647Y-102783266D01*
X111754731Y-102944418D01*
X111895582Y-103085269D01*
X112056734Y-103202353D01*
X112125694Y-103237490D01*
X112208172Y-103279515D01*
X112258968Y-103327490D01*
X112275763Y-103395311D01*
X112253225Y-103461446D01*
X112208172Y-103500485D01*
X112056733Y-103577647D01*
X111964790Y-103644447D01*
X111895582Y-103694731D01*
X111895580Y-103694733D01*
X111895579Y-103694733D01*
X111754733Y-103835579D01*
X111754733Y-103835580D01*
X111754731Y-103835582D01*
X111736456Y-103860736D01*
X111637647Y-103996733D01*
X111547213Y-104174219D01*
X111485661Y-104363656D01*
X111485661Y-104363659D01*
X111454500Y-104560403D01*
X111454500Y-104759596D01*
X111485661Y-104956340D01*
X111485661Y-104956343D01*
X111547213Y-105145780D01*
X111572307Y-105195029D01*
X111637647Y-105323266D01*
X111754731Y-105484418D01*
X111895582Y-105625269D01*
X112056734Y-105742353D01*
X112125694Y-105777490D01*
X112208172Y-105819515D01*
X112258968Y-105867490D01*
X112275763Y-105935311D01*
X112253225Y-106001446D01*
X112208172Y-106040485D01*
X112056733Y-106117647D01*
X112019456Y-106144731D01*
X111895582Y-106234731D01*
X111895580Y-106234733D01*
X111895579Y-106234733D01*
X111754733Y-106375579D01*
X111754733Y-106375580D01*
X111754731Y-106375582D01*
X111726024Y-106415094D01*
X111637647Y-106536733D01*
X111547213Y-106714219D01*
X111485661Y-106903656D01*
X111485661Y-106903659D01*
X111454500Y-107100403D01*
X111454500Y-107299596D01*
X111485661Y-107496340D01*
X111485661Y-107496343D01*
X111547213Y-107685780D01*
X111635834Y-107859707D01*
X111637647Y-107863266D01*
X111754731Y-108024418D01*
X111895582Y-108165269D01*
X112056734Y-108282353D01*
X112146909Y-108328299D01*
X112208722Y-108359795D01*
X112259518Y-108407770D01*
X112276313Y-108475591D01*
X112253776Y-108541726D01*
X112208723Y-108580764D01*
X112056993Y-108658075D01*
X112019135Y-108685580D01*
X112019135Y-108685581D01*
X112582425Y-109248871D01*
X112523147Y-109264755D01*
X112406853Y-109331898D01*
X112311898Y-109426853D01*
X112244755Y-109543147D01*
X112228871Y-109602425D01*
X111665581Y-109039135D01*
X111665580Y-109039135D01*
X111638077Y-109076990D01*
X111547679Y-109254405D01*
X111486147Y-109443777D01*
X111455000Y-109640436D01*
X111455000Y-109839563D01*
X111486147Y-110036222D01*
X111547679Y-110225594D01*
X111638077Y-110403008D01*
X111665580Y-110440863D01*
X111665581Y-110440864D01*
X112228871Y-109877574D01*
X112244755Y-109936853D01*
X112311898Y-110053147D01*
X112406853Y-110148102D01*
X112523147Y-110215245D01*
X112582425Y-110231128D01*
X112019134Y-110794417D01*
X112056994Y-110821924D01*
X112234405Y-110912320D01*
X112423777Y-110973852D01*
X112620437Y-111005000D01*
X112819563Y-111005000D01*
X113016222Y-110973852D01*
X113205594Y-110912320D01*
X113383005Y-110821924D01*
X113420863Y-110794418D01*
X113420863Y-110794417D01*
X112857574Y-110231128D01*
X112916853Y-110215245D01*
X113033147Y-110148102D01*
X113128102Y-110053147D01*
X113195245Y-109936853D01*
X113211128Y-109877574D01*
X113774417Y-110440863D01*
X113774418Y-110440863D01*
X113801924Y-110403005D01*
X113892320Y-110225594D01*
X113953852Y-110036222D01*
X113985000Y-109839563D01*
X113985000Y-109640437D01*
X113983312Y-109629781D01*
X113992266Y-109560488D01*
X114037262Y-109507035D01*
X114104013Y-109486395D01*
X114171327Y-109505119D01*
X114193466Y-109522701D01*
X118433181Y-113762416D01*
X118466666Y-113823739D01*
X118469500Y-113850097D01*
X118469500Y-114899740D01*
X118449815Y-114966779D01*
X118410293Y-115005466D01*
X118406733Y-115007647D01*
X118368286Y-115035581D01*
X118245582Y-115124731D01*
X118245580Y-115124733D01*
X118245579Y-115124733D01*
X118104733Y-115265579D01*
X118104733Y-115265580D01*
X118104731Y-115265582D01*
X118080354Y-115299134D01*
X117987645Y-115426735D01*
X117910203Y-115578723D01*
X117862229Y-115629518D01*
X117794408Y-115646313D01*
X117728273Y-115623775D01*
X117689234Y-115578722D01*
X117611924Y-115426994D01*
X117584417Y-115389135D01*
X117584417Y-115389134D01*
X117021128Y-115952424D01*
X117005245Y-115893147D01*
X116938102Y-115776853D01*
X116843147Y-115681898D01*
X116726853Y-115614755D01*
X116667574Y-115598871D01*
X117230864Y-115035581D01*
X117230863Y-115035580D01*
X117193008Y-115008077D01*
X117015594Y-114917679D01*
X116826222Y-114856147D01*
X116629563Y-114825000D01*
X116430437Y-114825000D01*
X116233777Y-114856147D01*
X116044405Y-114917679D01*
X115866990Y-115008077D01*
X115829135Y-115035580D01*
X115829135Y-115035581D01*
X116392425Y-115598871D01*
X116333147Y-115614755D01*
X116216853Y-115681898D01*
X116121898Y-115776853D01*
X116054755Y-115893147D01*
X116038871Y-115952425D01*
X115475581Y-115389135D01*
X115475580Y-115389135D01*
X115448077Y-115426990D01*
X115357679Y-115604405D01*
X115296147Y-115793777D01*
X115265000Y-115990436D01*
X115265000Y-116189563D01*
X115296147Y-116386222D01*
X115357679Y-116575594D01*
X115448077Y-116753008D01*
X115475580Y-116790863D01*
X115475581Y-116790864D01*
X116038871Y-116227574D01*
X116054755Y-116286853D01*
X116121898Y-116403147D01*
X116216853Y-116498102D01*
X116333147Y-116565245D01*
X116392425Y-116581128D01*
X115829134Y-117144417D01*
X115866994Y-117171924D01*
X116044405Y-117262320D01*
X116233777Y-117323852D01*
X116430437Y-117355000D01*
X116629563Y-117355000D01*
X116826222Y-117323852D01*
X117015594Y-117262320D01*
X117193005Y-117171924D01*
X117230863Y-117144418D01*
X117230863Y-117144417D01*
X116667574Y-116581128D01*
X116726853Y-116565245D01*
X116843147Y-116498102D01*
X116938102Y-116403147D01*
X117005245Y-116286853D01*
X117021128Y-116227574D01*
X117584417Y-116790863D01*
X117584418Y-116790863D01*
X117611924Y-116753005D01*
X117689234Y-116601277D01*
X117737208Y-116550481D01*
X117805029Y-116533686D01*
X117871164Y-116556223D01*
X117910204Y-116601277D01*
X117960946Y-116700863D01*
X117987647Y-116753266D01*
X118104731Y-116914418D01*
X118245582Y-117055269D01*
X118406734Y-117172353D01*
X118406744Y-117172358D01*
X118410273Y-117174520D01*
X118457157Y-117226325D01*
X118469500Y-117280258D01*
X118469500Y-124299790D01*
X118469499Y-124299808D01*
X118469499Y-124465516D01*
X118510422Y-124618243D01*
X118512083Y-124621120D01*
X118512082Y-124621120D01*
X118512086Y-124621125D01*
X118589477Y-124755172D01*
X118589481Y-124755177D01*
X118708349Y-124874045D01*
X118708355Y-124874050D01*
X126799679Y-132965374D01*
X126799689Y-132965385D01*
X126804019Y-132969715D01*
X126804020Y-132969716D01*
X126915824Y-133081520D01*
X126977777Y-133117288D01*
X127052755Y-133160577D01*
X127205483Y-133201501D01*
X127205486Y-133201501D01*
X127371193Y-133201501D01*
X127371209Y-133201500D01*
X135812331Y-133201500D01*
X135812347Y-133201501D01*
X135819943Y-133201501D01*
X135978054Y-133201501D01*
X135978057Y-133201501D01*
X136130785Y-133160577D01*
X136205763Y-133117288D01*
X136267716Y-133081520D01*
X136379520Y-132969716D01*
X136379520Y-132969714D01*
X136389724Y-132959511D01*
X136389727Y-132959506D01*
X136873921Y-132475312D01*
X136935243Y-132441829D01*
X137004935Y-132446813D01*
X137034486Y-132462677D01*
X137111106Y-132518344D01*
X137192602Y-132577554D01*
X137408653Y-132687638D01*
X137408655Y-132687639D01*
X137523959Y-132725103D01*
X137639265Y-132762568D01*
X137750186Y-132780136D01*
X137878755Y-132800500D01*
X137878760Y-132800500D01*
X138121245Y-132800500D01*
X138237347Y-132782110D01*
X138360735Y-132762568D01*
X138591347Y-132687638D01*
X138807398Y-132577554D01*
X139003569Y-132435028D01*
X139175028Y-132263569D01*
X139317554Y-132067398D01*
X139427638Y-131851347D01*
X139502568Y-131620735D01*
X139523743Y-131487040D01*
X139540500Y-131381245D01*
X139540500Y-129860096D01*
X139560185Y-129793057D01*
X139576814Y-129772420D01*
X140449221Y-128900013D01*
X141540000Y-128900013D01*
X141540000Y-130250000D01*
X142425879Y-130250000D01*
X142406901Y-130295818D01*
X142380000Y-130431056D01*
X142380000Y-130568944D01*
X142406901Y-130704182D01*
X142425879Y-130750000D01*
X141540001Y-130750000D01*
X141540001Y-132099986D01*
X141550494Y-132202696D01*
X141550494Y-132202698D01*
X141605640Y-132369119D01*
X141605645Y-132369130D01*
X141697680Y-132518340D01*
X141697683Y-132518344D01*
X141821655Y-132642316D01*
X141821659Y-132642319D01*
X141970869Y-132734354D01*
X141970880Y-132734359D01*
X142137302Y-132789505D01*
X142240019Y-132799999D01*
X142829999Y-132799999D01*
X142830000Y-132799998D01*
X142830000Y-131154120D01*
X142875818Y-131173099D01*
X143011056Y-131200000D01*
X143148944Y-131200000D01*
X143284182Y-131173099D01*
X143330000Y-131154120D01*
X143330000Y-132799999D01*
X143919972Y-132799999D01*
X143919986Y-132799998D01*
X144022696Y-132789505D01*
X144022698Y-132789505D01*
X144189119Y-132734359D01*
X144189130Y-132734354D01*
X144338340Y-132642319D01*
X144338344Y-132642316D01*
X144462316Y-132518344D01*
X144462319Y-132518340D01*
X144554354Y-132369130D01*
X144554359Y-132369119D01*
X144609505Y-132202697D01*
X144619999Y-132099986D01*
X144620000Y-132099973D01*
X144620000Y-130750000D01*
X143734121Y-130750000D01*
X143753099Y-130704182D01*
X143780000Y-130568944D01*
X143780000Y-130431056D01*
X143753099Y-130295818D01*
X143734121Y-130250000D01*
X144619999Y-130250000D01*
X144619999Y-129852486D01*
X152749500Y-129852486D01*
X152749500Y-130147513D01*
X152773215Y-130327638D01*
X152788007Y-130439993D01*
X152829550Y-130595033D01*
X152864361Y-130724951D01*
X152864364Y-130724961D01*
X152977254Y-130997500D01*
X152977258Y-130997510D01*
X153124761Y-131252993D01*
X153304352Y-131487040D01*
X153304358Y-131487047D01*
X153512952Y-131695641D01*
X153512959Y-131695647D01*
X153747006Y-131875238D01*
X154002489Y-132022741D01*
X154002490Y-132022741D01*
X154002493Y-132022743D01*
X154275048Y-132135639D01*
X154560007Y-132211993D01*
X154852494Y-132250500D01*
X154852501Y-132250500D01*
X155147499Y-132250500D01*
X155147506Y-132250500D01*
X155439993Y-132211993D01*
X155724952Y-132135639D01*
X155997507Y-132022743D01*
X156252994Y-131875238D01*
X156487042Y-131695646D01*
X156695646Y-131487042D01*
X156875238Y-131252994D01*
X157022743Y-130997507D01*
X157135639Y-130724952D01*
X157211993Y-130439993D01*
X157250500Y-130147506D01*
X157250500Y-129852494D01*
X157211993Y-129560007D01*
X157135639Y-129275048D01*
X157022743Y-129002493D01*
X156963576Y-128900013D01*
X156926554Y-128835888D01*
X156893568Y-128778754D01*
X165699500Y-128778754D01*
X165699500Y-129021245D01*
X165737432Y-129260736D01*
X165812360Y-129491344D01*
X165847346Y-129560007D01*
X165877282Y-129618760D01*
X165922448Y-129707401D01*
X166064966Y-129903562D01*
X166064970Y-129903567D01*
X166236432Y-130075029D01*
X166236437Y-130075033D01*
X166336198Y-130147513D01*
X166432602Y-130217554D01*
X166648653Y-130327638D01*
X166648655Y-130327639D01*
X166763959Y-130365103D01*
X166879265Y-130402568D01*
X166990186Y-130420136D01*
X167118755Y-130440500D01*
X167118760Y-130440500D01*
X168881245Y-130440500D01*
X168997347Y-130422110D01*
X169120735Y-130402568D01*
X169351347Y-130327638D01*
X169567398Y-130217554D01*
X169763569Y-130075028D01*
X169935028Y-129903569D01*
X170077554Y-129707398D01*
X170187638Y-129491347D01*
X170262568Y-129260735D01*
X170282110Y-129137347D01*
X170300500Y-129021245D01*
X170300500Y-128778754D01*
X170277078Y-128630880D01*
X170262568Y-128539265D01*
X170201567Y-128351521D01*
X170187639Y-128308655D01*
X170185448Y-128304354D01*
X170077554Y-128092602D01*
X169993752Y-127977258D01*
X169935033Y-127896437D01*
X169935029Y-127896432D01*
X169763567Y-127724970D01*
X169763562Y-127724966D01*
X169567401Y-127582448D01*
X169567400Y-127582447D01*
X169567398Y-127582446D01*
X169459372Y-127527404D01*
X169351344Y-127472360D01*
X169120736Y-127397432D01*
X168881245Y-127359500D01*
X168881240Y-127359500D01*
X167118760Y-127359500D01*
X167118755Y-127359500D01*
X166879263Y-127397432D01*
X166648655Y-127472360D01*
X166432598Y-127582448D01*
X166236437Y-127724966D01*
X166236432Y-127724970D01*
X166064970Y-127896432D01*
X166064966Y-127896437D01*
X165922448Y-128092598D01*
X165812360Y-128308655D01*
X165737432Y-128539263D01*
X165699500Y-128778754D01*
X156893568Y-128778754D01*
X156875238Y-128747006D01*
X156695647Y-128512959D01*
X156695641Y-128512952D01*
X156487047Y-128304358D01*
X156487040Y-128304352D01*
X156252993Y-128124761D01*
X155997510Y-127977258D01*
X155997500Y-127977254D01*
X155724961Y-127864364D01*
X155724954Y-127864362D01*
X155724952Y-127864361D01*
X155439993Y-127788007D01*
X155391113Y-127781571D01*
X155147513Y-127749500D01*
X155147506Y-127749500D01*
X154852494Y-127749500D01*
X154852486Y-127749500D01*
X154574085Y-127786153D01*
X154560007Y-127788007D01*
X154275048Y-127864361D01*
X154275038Y-127864364D01*
X154002499Y-127977254D01*
X154002489Y-127977258D01*
X153747006Y-128124761D01*
X153512959Y-128304352D01*
X153512952Y-128304358D01*
X153304358Y-128512952D01*
X153304352Y-128512959D01*
X153124761Y-128747006D01*
X152977258Y-129002489D01*
X152977254Y-129002499D01*
X152864364Y-129275038D01*
X152864361Y-129275048D01*
X152788008Y-129560004D01*
X152788006Y-129560015D01*
X152749500Y-129852486D01*
X144619999Y-129852486D01*
X144619999Y-128900028D01*
X144619998Y-128900013D01*
X144609505Y-128797303D01*
X144609505Y-128797301D01*
X144554359Y-128630880D01*
X144554354Y-128630869D01*
X144462319Y-128481659D01*
X144462316Y-128481655D01*
X144338344Y-128357683D01*
X144338340Y-128357680D01*
X144189130Y-128265645D01*
X144189119Y-128265640D01*
X144022697Y-128210494D01*
X143919986Y-128200000D01*
X143330000Y-128200000D01*
X143330000Y-129845879D01*
X143284182Y-129826901D01*
X143148944Y-129800000D01*
X143011056Y-129800000D01*
X142875818Y-129826901D01*
X142830000Y-129845879D01*
X142830000Y-128200000D01*
X142240028Y-128200000D01*
X142240012Y-128200001D01*
X142137303Y-128210494D01*
X142137301Y-128210494D01*
X141970880Y-128265640D01*
X141970869Y-128265645D01*
X141821659Y-128357680D01*
X141821655Y-128357683D01*
X141697683Y-128481655D01*
X141697680Y-128481659D01*
X141605645Y-128630869D01*
X141605640Y-128630880D01*
X141550494Y-128797302D01*
X141540000Y-128900013D01*
X140449221Y-128900013D01*
X145650480Y-123698754D01*
X165699500Y-123698754D01*
X165699500Y-123941245D01*
X165737432Y-124180736D01*
X165812360Y-124411344D01*
X165839963Y-124465517D01*
X165919247Y-124621120D01*
X165922448Y-124627401D01*
X166064966Y-124823562D01*
X166064970Y-124823567D01*
X166236432Y-124995029D01*
X166236437Y-124995033D01*
X166407539Y-125119345D01*
X166432602Y-125137554D01*
X166648653Y-125247638D01*
X166648655Y-125247639D01*
X166763959Y-125285103D01*
X166879265Y-125322568D01*
X166990186Y-125340136D01*
X167118755Y-125360500D01*
X167118760Y-125360500D01*
X168881245Y-125360500D01*
X168997347Y-125342110D01*
X169120735Y-125322568D01*
X169351347Y-125247638D01*
X169567398Y-125137554D01*
X169763569Y-124995028D01*
X169935028Y-124823569D01*
X170077554Y-124627398D01*
X170187638Y-124411347D01*
X170262568Y-124180735D01*
X170282110Y-124057347D01*
X170300500Y-123941245D01*
X170300500Y-123698754D01*
X170274183Y-123532598D01*
X170262568Y-123459265D01*
X170187638Y-123228653D01*
X170077554Y-123012602D01*
X170004724Y-122912360D01*
X169935033Y-122816437D01*
X169935029Y-122816432D01*
X169763567Y-122644970D01*
X169763562Y-122644966D01*
X169567401Y-122502448D01*
X169567400Y-122502447D01*
X169567398Y-122502446D01*
X169459372Y-122447404D01*
X169351344Y-122392360D01*
X169120736Y-122317432D01*
X168881245Y-122279500D01*
X168881240Y-122279500D01*
X167118760Y-122279500D01*
X167118755Y-122279500D01*
X166879263Y-122317432D01*
X166648655Y-122392360D01*
X166432598Y-122502448D01*
X166236437Y-122644966D01*
X166236432Y-122644970D01*
X166064970Y-122816432D01*
X166064966Y-122816437D01*
X165922448Y-123012598D01*
X165812360Y-123228655D01*
X165737432Y-123459263D01*
X165699500Y-123698754D01*
X145650480Y-123698754D01*
X150394713Y-118954521D01*
X150394716Y-118954520D01*
X150506520Y-118842716D01*
X150556639Y-118755904D01*
X150585577Y-118705785D01*
X150608897Y-118618754D01*
X165699500Y-118618754D01*
X165699500Y-118861245D01*
X165737432Y-119100736D01*
X165812360Y-119331344D01*
X165922448Y-119547401D01*
X166064966Y-119743562D01*
X166064970Y-119743567D01*
X166236432Y-119915029D01*
X166236437Y-119915033D01*
X166342947Y-119992416D01*
X166432602Y-120057554D01*
X166648653Y-120167638D01*
X166648655Y-120167639D01*
X166763959Y-120205103D01*
X166879265Y-120242568D01*
X166990186Y-120260136D01*
X167118755Y-120280500D01*
X167118760Y-120280500D01*
X168881245Y-120280500D01*
X168997347Y-120262110D01*
X169120735Y-120242568D01*
X169351347Y-120167638D01*
X169567398Y-120057554D01*
X169763569Y-119915028D01*
X169935028Y-119743569D01*
X170077554Y-119547398D01*
X170187638Y-119331347D01*
X170262568Y-119100735D01*
X170285726Y-118954520D01*
X170300500Y-118861245D01*
X170300500Y-118618754D01*
X170265051Y-118394943D01*
X170262568Y-118379265D01*
X170187638Y-118148653D01*
X170077554Y-117932602D01*
X170004724Y-117832360D01*
X169935033Y-117736437D01*
X169935029Y-117736432D01*
X169763567Y-117564970D01*
X169763562Y-117564966D01*
X169567401Y-117422448D01*
X169567400Y-117422447D01*
X169567398Y-117422446D01*
X169459372Y-117367404D01*
X169351344Y-117312360D01*
X169120736Y-117237432D01*
X168881245Y-117199500D01*
X168881240Y-117199500D01*
X167118760Y-117199500D01*
X167118755Y-117199500D01*
X166879263Y-117237432D01*
X166648655Y-117312360D01*
X166432598Y-117422448D01*
X166236437Y-117564966D01*
X166236432Y-117564970D01*
X166064970Y-117736432D01*
X166064966Y-117736437D01*
X165922448Y-117932598D01*
X165812360Y-118148655D01*
X165737432Y-118379263D01*
X165699500Y-118618754D01*
X150608897Y-118618754D01*
X150626500Y-118553058D01*
X150626500Y-118394943D01*
X150626500Y-117172355D01*
X150646185Y-117105316D01*
X150698989Y-117059561D01*
X150768147Y-117049617D01*
X150823387Y-117072038D01*
X150836993Y-117081924D01*
X151014405Y-117172320D01*
X151203777Y-117233852D01*
X151400437Y-117265000D01*
X151599563Y-117265000D01*
X151796222Y-117233852D01*
X151985594Y-117172320D01*
X152163005Y-117081924D01*
X152200863Y-117054418D01*
X152200863Y-117054417D01*
X151637574Y-116491128D01*
X151696853Y-116475245D01*
X151813147Y-116408102D01*
X151908102Y-116313147D01*
X151975245Y-116196853D01*
X151991128Y-116137574D01*
X152554417Y-116700863D01*
X152554418Y-116700863D01*
X152581924Y-116663005D01*
X152672320Y-116485594D01*
X152733852Y-116296222D01*
X152765000Y-116099563D01*
X152765000Y-115900436D01*
X152733852Y-115703777D01*
X152672320Y-115514405D01*
X152581924Y-115336994D01*
X152554417Y-115299135D01*
X152554417Y-115299134D01*
X151991128Y-115862424D01*
X151975245Y-115803147D01*
X151908102Y-115686853D01*
X151813147Y-115591898D01*
X151696853Y-115524755D01*
X151637574Y-115508871D01*
X152200864Y-114945581D01*
X152200863Y-114945580D01*
X152163008Y-114918077D01*
X151985594Y-114827679D01*
X151796222Y-114766147D01*
X151599563Y-114735000D01*
X151400437Y-114735000D01*
X151203777Y-114766147D01*
X151014405Y-114827679D01*
X150836990Y-114918077D01*
X150799135Y-114945580D01*
X150799135Y-114945581D01*
X151362425Y-115508871D01*
X151303147Y-115524755D01*
X151186853Y-115591898D01*
X151091898Y-115686853D01*
X151024755Y-115803147D01*
X151008871Y-115862425D01*
X150650237Y-115503791D01*
X150644249Y-115494416D01*
X150638235Y-115489861D01*
X150628661Y-115470011D01*
X150621494Y-115458790D01*
X150619586Y-115453587D01*
X150585577Y-115326663D01*
X150556639Y-115276543D01*
X150506520Y-115189732D01*
X150394716Y-115077928D01*
X150394713Y-115077926D01*
X150390384Y-115073597D01*
X150390383Y-115073595D01*
X150390374Y-115073587D01*
X149889142Y-114572355D01*
X149889140Y-114572352D01*
X149770269Y-114453481D01*
X149770268Y-114453480D01*
X149683456Y-114403360D01*
X149683456Y-114403359D01*
X149683452Y-114403358D01*
X149633337Y-114374423D01*
X149480609Y-114333499D01*
X149322495Y-114333499D01*
X149314899Y-114333499D01*
X149314883Y-114333500D01*
X145032670Y-114333500D01*
X145032654Y-114333499D01*
X145025058Y-114333499D01*
X144866943Y-114333499D01*
X144765125Y-114360781D01*
X144714215Y-114374423D01*
X144666499Y-114401972D01*
X144598598Y-114418443D01*
X144532572Y-114395591D01*
X144489382Y-114340669D01*
X144480500Y-114294584D01*
X144480500Y-113538754D01*
X165699500Y-113538754D01*
X165699500Y-113781245D01*
X165737432Y-114020736D01*
X165812360Y-114251344D01*
X165812362Y-114251347D01*
X165915354Y-114453480D01*
X165922448Y-114467401D01*
X166064966Y-114663562D01*
X166064970Y-114663567D01*
X166236432Y-114835029D01*
X166236437Y-114835033D01*
X166388593Y-114945580D01*
X166432602Y-114977554D01*
X166621092Y-115073595D01*
X166648655Y-115087639D01*
X166762814Y-115124731D01*
X166879265Y-115162568D01*
X166990186Y-115180136D01*
X167118755Y-115200500D01*
X167118760Y-115200500D01*
X168881245Y-115200500D01*
X168997347Y-115182110D01*
X169120735Y-115162568D01*
X169351347Y-115087638D01*
X169567398Y-114977554D01*
X169763569Y-114835028D01*
X169935028Y-114663569D01*
X170077554Y-114467398D01*
X170187638Y-114251347D01*
X170262568Y-114020735D01*
X170282110Y-113897347D01*
X170300500Y-113781245D01*
X170300500Y-113538754D01*
X170265569Y-113318215D01*
X170262568Y-113299265D01*
X170194992Y-113091286D01*
X170187639Y-113068655D01*
X170185853Y-113065149D01*
X170077554Y-112852602D01*
X170004724Y-112752360D01*
X169935033Y-112656437D01*
X169935029Y-112656432D01*
X169763567Y-112484970D01*
X169763562Y-112484966D01*
X169567401Y-112342448D01*
X169567400Y-112342447D01*
X169567398Y-112342446D01*
X169459372Y-112287404D01*
X169351344Y-112232360D01*
X169120736Y-112157432D01*
X168881245Y-112119500D01*
X168881240Y-112119500D01*
X167118760Y-112119500D01*
X167118755Y-112119500D01*
X166879263Y-112157432D01*
X166648655Y-112232360D01*
X166432598Y-112342448D01*
X166236437Y-112484966D01*
X166236432Y-112484970D01*
X166064970Y-112656432D01*
X166064966Y-112656437D01*
X165922448Y-112852598D01*
X165812360Y-113068655D01*
X165737432Y-113299263D01*
X165699500Y-113538754D01*
X144480500Y-113538754D01*
X144480500Y-113380945D01*
X144480500Y-113380943D01*
X144458698Y-113299577D01*
X144439577Y-113228215D01*
X144396290Y-113153240D01*
X144360520Y-113091284D01*
X144248716Y-112979480D01*
X144248715Y-112979479D01*
X144244385Y-112975149D01*
X144244374Y-112975139D01*
X139191416Y-107922181D01*
X139157931Y-107860858D01*
X139162915Y-107791166D01*
X139204787Y-107735233D01*
X139270251Y-107710816D01*
X139279097Y-107710500D01*
X154119740Y-107710500D01*
X154186779Y-107730185D01*
X154225466Y-107769707D01*
X154227647Y-107773266D01*
X154344731Y-107934418D01*
X154485582Y-108075269D01*
X154646734Y-108192353D01*
X154699548Y-108219263D01*
X154798722Y-108269795D01*
X154849518Y-108317770D01*
X154866313Y-108385591D01*
X154843776Y-108451726D01*
X154798723Y-108490764D01*
X154646993Y-108568075D01*
X154609135Y-108595580D01*
X154609135Y-108595581D01*
X155172425Y-109158871D01*
X155113147Y-109174755D01*
X154996853Y-109241898D01*
X154901898Y-109336853D01*
X154834755Y-109453147D01*
X154818871Y-109512425D01*
X154255581Y-108949135D01*
X154255580Y-108949135D01*
X154228077Y-108986990D01*
X154137679Y-109164405D01*
X154076147Y-109353777D01*
X154045000Y-109550436D01*
X154045000Y-109749563D01*
X154076147Y-109946222D01*
X154137679Y-110135594D01*
X154228077Y-110313008D01*
X154255580Y-110350863D01*
X154255581Y-110350864D01*
X154818871Y-109787574D01*
X154834755Y-109846853D01*
X154901898Y-109963147D01*
X154996853Y-110058102D01*
X155113147Y-110125245D01*
X155172425Y-110141128D01*
X154609134Y-110704417D01*
X154646994Y-110731924D01*
X154824405Y-110822320D01*
X155013777Y-110883852D01*
X155210437Y-110915000D01*
X155409563Y-110915000D01*
X155606222Y-110883852D01*
X155795594Y-110822320D01*
X155973005Y-110731924D01*
X156010863Y-110704418D01*
X156010863Y-110704417D01*
X155447574Y-110141128D01*
X155506853Y-110125245D01*
X155623147Y-110058102D01*
X155718102Y-109963147D01*
X155785245Y-109846853D01*
X155801128Y-109787574D01*
X156364417Y-110350863D01*
X156364418Y-110350863D01*
X156391924Y-110313005D01*
X156482320Y-110135594D01*
X156543852Y-109946222D01*
X156575000Y-109749563D01*
X156575000Y-109550436D01*
X156543852Y-109353777D01*
X156482320Y-109164405D01*
X156391924Y-108986994D01*
X156364417Y-108949135D01*
X156364417Y-108949134D01*
X155801128Y-109512424D01*
X155785245Y-109453147D01*
X155718102Y-109336853D01*
X155623147Y-109241898D01*
X155506853Y-109174755D01*
X155447574Y-109158871D01*
X156010864Y-108595581D01*
X156010863Y-108595580D01*
X155973006Y-108568075D01*
X155965740Y-108564373D01*
X155965739Y-108564373D01*
X155821277Y-108490765D01*
X155787384Y-108458754D01*
X165699500Y-108458754D01*
X165699500Y-108701245D01*
X165737432Y-108940736D01*
X165812360Y-109171344D01*
X165922448Y-109387401D01*
X166064966Y-109583562D01*
X166064970Y-109583567D01*
X166236432Y-109755029D01*
X166236437Y-109755033D01*
X166308161Y-109807143D01*
X166432602Y-109897554D01*
X166640638Y-110003554D01*
X166648655Y-110007639D01*
X166736626Y-110036222D01*
X166879265Y-110082568D01*
X166990186Y-110100136D01*
X167118755Y-110120500D01*
X167118760Y-110120500D01*
X168881245Y-110120500D01*
X168997347Y-110102110D01*
X169120735Y-110082568D01*
X169351347Y-110007638D01*
X169567398Y-109897554D01*
X169763569Y-109755028D01*
X169935028Y-109583569D01*
X170077554Y-109387398D01*
X170187638Y-109171347D01*
X170262568Y-108940735D01*
X170282110Y-108817347D01*
X170300500Y-108701245D01*
X170300500Y-108458754D01*
X170274183Y-108292598D01*
X170262568Y-108219265D01*
X170215780Y-108075266D01*
X170187639Y-107988655D01*
X170160004Y-107934418D01*
X170077554Y-107772602D01*
X170032664Y-107710816D01*
X169935033Y-107576437D01*
X169935029Y-107576432D01*
X169763567Y-107404970D01*
X169763562Y-107404966D01*
X169567401Y-107262448D01*
X169567400Y-107262447D01*
X169567398Y-107262446D01*
X169459372Y-107207404D01*
X169351344Y-107152360D01*
X169120736Y-107077432D01*
X168881245Y-107039500D01*
X168881240Y-107039500D01*
X167118760Y-107039500D01*
X167118755Y-107039500D01*
X166879263Y-107077432D01*
X166648655Y-107152360D01*
X166432598Y-107262448D01*
X166236437Y-107404966D01*
X166236432Y-107404970D01*
X166064970Y-107576432D01*
X166064966Y-107576437D01*
X165922448Y-107772598D01*
X165812360Y-107988655D01*
X165737432Y-108219263D01*
X165699500Y-108458754D01*
X155787384Y-108458754D01*
X155770481Y-108442790D01*
X155753686Y-108374969D01*
X155776224Y-108308834D01*
X155821277Y-108269795D01*
X155973266Y-108192353D01*
X156134418Y-108075269D01*
X156275269Y-107934418D01*
X156392353Y-107773266D01*
X156482785Y-107595783D01*
X156544339Y-107406339D01*
X156575500Y-107209597D01*
X156575500Y-107010403D01*
X156544339Y-106813661D01*
X156544338Y-106813657D01*
X156544338Y-106813656D01*
X156482786Y-106624219D01*
X156470191Y-106599500D01*
X156392353Y-106446734D01*
X156275269Y-106285582D01*
X156134418Y-106144731D01*
X155973266Y-106027647D01*
X155904306Y-105992510D01*
X155821827Y-105950485D01*
X155771031Y-105902510D01*
X155754236Y-105834689D01*
X155776773Y-105768554D01*
X155821827Y-105729515D01*
X155861428Y-105709337D01*
X155973266Y-105652353D01*
X156134418Y-105535269D01*
X156275269Y-105394418D01*
X156392353Y-105233266D01*
X156482785Y-105055783D01*
X156515096Y-104956339D01*
X156544338Y-104866343D01*
X156544338Y-104866342D01*
X156544339Y-104866339D01*
X156575500Y-104669597D01*
X156575500Y-104470403D01*
X156544339Y-104273661D01*
X156544338Y-104273657D01*
X156544338Y-104273656D01*
X156482786Y-104084219D01*
X156438210Y-103996734D01*
X156392353Y-103906734D01*
X156275269Y-103745582D01*
X156134418Y-103604731D01*
X156053842Y-103546189D01*
X155973264Y-103487645D01*
X155966841Y-103484373D01*
X155966840Y-103484373D01*
X155921843Y-103461446D01*
X155856656Y-103428231D01*
X155821827Y-103410485D01*
X155788230Y-103378754D01*
X165699500Y-103378754D01*
X165699500Y-103621245D01*
X165737432Y-103860736D01*
X165812360Y-104091344D01*
X165922448Y-104307401D01*
X166064966Y-104503562D01*
X166064970Y-104503567D01*
X166236432Y-104675029D01*
X166236437Y-104675033D01*
X166407539Y-104799345D01*
X166432602Y-104817554D01*
X166648653Y-104927638D01*
X166648655Y-104927639D01*
X166736986Y-104956339D01*
X166879265Y-105002568D01*
X166990186Y-105020136D01*
X167118755Y-105040500D01*
X167118760Y-105040500D01*
X168881245Y-105040500D01*
X168997347Y-105022110D01*
X169120735Y-105002568D01*
X169351347Y-104927638D01*
X169567398Y-104817554D01*
X169763569Y-104675028D01*
X169935028Y-104503569D01*
X170077554Y-104307398D01*
X170187638Y-104091347D01*
X170262568Y-103860735D01*
X170288860Y-103694733D01*
X170300500Y-103621245D01*
X170300500Y-103378754D01*
X170274183Y-103212598D01*
X170262568Y-103139265D01*
X170201133Y-102950187D01*
X170187639Y-102908655D01*
X170160004Y-102854418D01*
X170077554Y-102692602D01*
X170014477Y-102605783D01*
X169935033Y-102496437D01*
X169935029Y-102496432D01*
X169763567Y-102324970D01*
X169763562Y-102324966D01*
X169567401Y-102182448D01*
X169567400Y-102182447D01*
X169567398Y-102182446D01*
X169459372Y-102127404D01*
X169351344Y-102072360D01*
X169120736Y-101997432D01*
X168881245Y-101959500D01*
X168881240Y-101959500D01*
X167118760Y-101959500D01*
X167118755Y-101959500D01*
X166879263Y-101997432D01*
X166648655Y-102072360D01*
X166432598Y-102182448D01*
X166236437Y-102324966D01*
X166236432Y-102324970D01*
X166064970Y-102496432D01*
X166064966Y-102496437D01*
X165922448Y-102692598D01*
X165812360Y-102908655D01*
X165737432Y-103139263D01*
X165699500Y-103378754D01*
X155788230Y-103378754D01*
X155771031Y-103362510D01*
X155754236Y-103294689D01*
X155776773Y-103228554D01*
X155821827Y-103189515D01*
X155831116Y-103184781D01*
X155973266Y-103112353D01*
X156134418Y-102995269D01*
X156275269Y-102854418D01*
X156392353Y-102693266D01*
X156482785Y-102515783D01*
X156544339Y-102326339D01*
X156575500Y-102129597D01*
X156575500Y-101930403D01*
X156544339Y-101733661D01*
X156544338Y-101733657D01*
X156544338Y-101733656D01*
X156482786Y-101544219D01*
X156438210Y-101456734D01*
X156392353Y-101366734D01*
X156275269Y-101205582D01*
X156134418Y-101064731D01*
X155973266Y-100947647D01*
X155904306Y-100912510D01*
X155821827Y-100870485D01*
X155771031Y-100822510D01*
X155754236Y-100754689D01*
X155776773Y-100688554D01*
X155821827Y-100649515D01*
X155831116Y-100644781D01*
X155973266Y-100572353D01*
X156134418Y-100455269D01*
X156275269Y-100314418D01*
X156392353Y-100153266D01*
X156482785Y-99975783D01*
X156493254Y-99943562D01*
X156544338Y-99786343D01*
X156544338Y-99786342D01*
X156544339Y-99786339D01*
X156575500Y-99589597D01*
X156575500Y-99390403D01*
X156544339Y-99193661D01*
X156544338Y-99193657D01*
X156544338Y-99193656D01*
X156482786Y-99004219D01*
X156438210Y-98916734D01*
X156392353Y-98826734D01*
X156275269Y-98665582D01*
X156134418Y-98524731D01*
X155973266Y-98407647D01*
X155857484Y-98348653D01*
X155821827Y-98330485D01*
X155771031Y-98282510D01*
X155754236Y-98214689D01*
X155776773Y-98148554D01*
X155821827Y-98109515D01*
X155831116Y-98104781D01*
X155973266Y-98032353D01*
X156134418Y-97915269D01*
X156275269Y-97774418D01*
X156392353Y-97613266D01*
X156409312Y-97579982D01*
X165699500Y-97579982D01*
X165699500Y-99260017D01*
X165710000Y-99362796D01*
X165765185Y-99529332D01*
X165765186Y-99529335D01*
X165857288Y-99678656D01*
X165981344Y-99802712D01*
X166130665Y-99894814D01*
X166297202Y-99949999D01*
X166399990Y-99960500D01*
X166399995Y-99960500D01*
X169600005Y-99960500D01*
X169600010Y-99960500D01*
X169702798Y-99949999D01*
X169869335Y-99894814D01*
X170018656Y-99802712D01*
X170142712Y-99678656D01*
X170234814Y-99529335D01*
X170289999Y-99362798D01*
X170300500Y-99260010D01*
X170300500Y-97579990D01*
X170289999Y-97477202D01*
X170234814Y-97310665D01*
X170142712Y-97161344D01*
X170018656Y-97037288D01*
X169869335Y-96945186D01*
X169702798Y-96890001D01*
X169702796Y-96890000D01*
X169600017Y-96879500D01*
X169600010Y-96879500D01*
X166399990Y-96879500D01*
X166399982Y-96879500D01*
X166297203Y-96890000D01*
X166297202Y-96890001D01*
X166214669Y-96917349D01*
X166130667Y-96945185D01*
X166130662Y-96945187D01*
X165981342Y-97037289D01*
X165857289Y-97161342D01*
X165765187Y-97310662D01*
X165765186Y-97310665D01*
X165710001Y-97477202D01*
X165710001Y-97477203D01*
X165710000Y-97477203D01*
X165699500Y-97579982D01*
X156409312Y-97579982D01*
X156482785Y-97435783D01*
X156544339Y-97246339D01*
X156575500Y-97049597D01*
X156575500Y-96850403D01*
X156544339Y-96653661D01*
X156544338Y-96653657D01*
X156544338Y-96653656D01*
X156482786Y-96464219D01*
X156438210Y-96376734D01*
X156392353Y-96286734D01*
X156275269Y-96125582D01*
X156134418Y-95984731D01*
X155973266Y-95867647D01*
X155904306Y-95832510D01*
X155821827Y-95790485D01*
X155771031Y-95742510D01*
X155754236Y-95674689D01*
X155776773Y-95608554D01*
X155821827Y-95569515D01*
X155831116Y-95564781D01*
X155973266Y-95492353D01*
X156134418Y-95375269D01*
X156275269Y-95234418D01*
X156392353Y-95073266D01*
X156482785Y-94895783D01*
X156544339Y-94706339D01*
X156575500Y-94509597D01*
X156575500Y-94310403D01*
X156544339Y-94113661D01*
X156544338Y-94113657D01*
X156544338Y-94113656D01*
X156482786Y-93924219D01*
X156438210Y-93836734D01*
X156392353Y-93746734D01*
X156275269Y-93585582D01*
X156134418Y-93444731D01*
X155973266Y-93327647D01*
X155880735Y-93280500D01*
X155821827Y-93250485D01*
X155771031Y-93202510D01*
X155754236Y-93134689D01*
X155776773Y-93068554D01*
X155821827Y-93029515D01*
X155831116Y-93024781D01*
X155973266Y-92952353D01*
X156134418Y-92835269D01*
X156275269Y-92694418D01*
X156392353Y-92533266D01*
X156482785Y-92355783D01*
X156544339Y-92166339D01*
X156575500Y-91969597D01*
X156575500Y-91770403D01*
X156558594Y-91663661D01*
X156553783Y-91633286D01*
X156551481Y-91618754D01*
X165699500Y-91618754D01*
X165699500Y-91861245D01*
X165737432Y-92100736D01*
X165812360Y-92331344D01*
X165867404Y-92439372D01*
X165915245Y-92533266D01*
X165922448Y-92547401D01*
X166064966Y-92743562D01*
X166064970Y-92743567D01*
X166236432Y-92915029D01*
X166236437Y-92915033D01*
X166394009Y-93029515D01*
X166432602Y-93057554D01*
X166604834Y-93145311D01*
X166648655Y-93167639D01*
X166763959Y-93205103D01*
X166879265Y-93242568D01*
X166980848Y-93258657D01*
X167118755Y-93280500D01*
X167118760Y-93280500D01*
X168881245Y-93280500D01*
X168997347Y-93262110D01*
X169120735Y-93242568D01*
X169351347Y-93167638D01*
X169567398Y-93057554D01*
X169763569Y-92915028D01*
X169935028Y-92743569D01*
X170077554Y-92547398D01*
X170187638Y-92331347D01*
X170262568Y-92100735D01*
X170283338Y-91969596D01*
X170300500Y-91861245D01*
X170300500Y-91618754D01*
X170277607Y-91474217D01*
X170262568Y-91379265D01*
X170206509Y-91206733D01*
X170187639Y-91148655D01*
X170180976Y-91135579D01*
X170077554Y-90932602D01*
X169981566Y-90800485D01*
X169935033Y-90736437D01*
X169935029Y-90736432D01*
X169763567Y-90564970D01*
X169763562Y-90564966D01*
X169567401Y-90422448D01*
X169567400Y-90422447D01*
X169567398Y-90422446D01*
X169459372Y-90367404D01*
X169351344Y-90312360D01*
X169120736Y-90237432D01*
X168881245Y-90199500D01*
X168881240Y-90199500D01*
X167118760Y-90199500D01*
X167118755Y-90199500D01*
X166879263Y-90237432D01*
X166648655Y-90312360D01*
X166432598Y-90422448D01*
X166236437Y-90564966D01*
X166236432Y-90564970D01*
X166064970Y-90736432D01*
X166064966Y-90736437D01*
X165922448Y-90932598D01*
X165812360Y-91148655D01*
X165737432Y-91379263D01*
X165699500Y-91618754D01*
X156551481Y-91618754D01*
X156550976Y-91615569D01*
X156544339Y-91573661D01*
X156544338Y-91573657D01*
X156544338Y-91573656D01*
X156482786Y-91384219D01*
X156438210Y-91296734D01*
X156392353Y-91206734D01*
X156275269Y-91045582D01*
X156134418Y-90904731D01*
X155973266Y-90787647D01*
X155872749Y-90736431D01*
X155821827Y-90710485D01*
X155771031Y-90662510D01*
X155754236Y-90594689D01*
X155776773Y-90528554D01*
X155821827Y-90489515D01*
X155860127Y-90470000D01*
X155973266Y-90412353D01*
X156134418Y-90295269D01*
X156275269Y-90154418D01*
X156392353Y-89993266D01*
X156482785Y-89815783D01*
X156544339Y-89626339D01*
X156575500Y-89429597D01*
X156575500Y-89230403D01*
X156544339Y-89033661D01*
X156544338Y-89033657D01*
X156544338Y-89033656D01*
X156482786Y-88844219D01*
X156438210Y-88756734D01*
X156392353Y-88666734D01*
X156275269Y-88505582D01*
X156134418Y-88364731D01*
X155973266Y-88247647D01*
X155880735Y-88200500D01*
X155821827Y-88170485D01*
X155771031Y-88122510D01*
X155754236Y-88054689D01*
X155776773Y-87988554D01*
X155821827Y-87949515D01*
X155831116Y-87944781D01*
X155973266Y-87872353D01*
X156134418Y-87755269D01*
X156275269Y-87614418D01*
X156392353Y-87453266D01*
X156482785Y-87275783D01*
X156544339Y-87086339D01*
X156575500Y-86889597D01*
X156575500Y-86690403D01*
X156558594Y-86583661D01*
X156553783Y-86553286D01*
X156551481Y-86538754D01*
X165699500Y-86538754D01*
X165699500Y-86781245D01*
X165737432Y-87020736D01*
X165812360Y-87251344D01*
X165867404Y-87359372D01*
X165915245Y-87453266D01*
X165922448Y-87467401D01*
X166064966Y-87663562D01*
X166064970Y-87663567D01*
X166236432Y-87835029D01*
X166236437Y-87835033D01*
X166394009Y-87949515D01*
X166432602Y-87977554D01*
X166604834Y-88065311D01*
X166648655Y-88087639D01*
X166763959Y-88125103D01*
X166879265Y-88162568D01*
X166990186Y-88180136D01*
X167118755Y-88200500D01*
X167118760Y-88200500D01*
X168881245Y-88200500D01*
X168997347Y-88182110D01*
X169120735Y-88162568D01*
X169351347Y-88087638D01*
X169567398Y-87977554D01*
X169763569Y-87835028D01*
X169935028Y-87663569D01*
X170077554Y-87467398D01*
X170187638Y-87251347D01*
X170262568Y-87020735D01*
X170283338Y-86889596D01*
X170300500Y-86781245D01*
X170300500Y-86538754D01*
X170277607Y-86394217D01*
X170262568Y-86299265D01*
X170187638Y-86068653D01*
X170077554Y-85852602D01*
X169999352Y-85744966D01*
X169935033Y-85656437D01*
X169935029Y-85656432D01*
X169763567Y-85484970D01*
X169763562Y-85484966D01*
X169567401Y-85342448D01*
X169567400Y-85342447D01*
X169567398Y-85342446D01*
X169459372Y-85287404D01*
X169351344Y-85232360D01*
X169120736Y-85157432D01*
X168881245Y-85119500D01*
X168881240Y-85119500D01*
X167118760Y-85119500D01*
X167118755Y-85119500D01*
X166879263Y-85157432D01*
X166648655Y-85232360D01*
X166432598Y-85342448D01*
X166236437Y-85484966D01*
X166236432Y-85484970D01*
X166064970Y-85656432D01*
X166064966Y-85656437D01*
X165922448Y-85852598D01*
X165812360Y-86068655D01*
X165737432Y-86299263D01*
X165699500Y-86538754D01*
X156551481Y-86538754D01*
X156550976Y-86535569D01*
X156544339Y-86493661D01*
X156544338Y-86493657D01*
X156544338Y-86493656D01*
X156482786Y-86304219D01*
X156438210Y-86216734D01*
X156392353Y-86126734D01*
X156275269Y-85965582D01*
X156134418Y-85824731D01*
X155973266Y-85707647D01*
X155972414Y-85707213D01*
X155795780Y-85617213D01*
X155606342Y-85555661D01*
X155458782Y-85532290D01*
X155409597Y-85524500D01*
X155210403Y-85524500D01*
X155144822Y-85534887D01*
X155013659Y-85555661D01*
X155013656Y-85555661D01*
X154824219Y-85617213D01*
X154646733Y-85707647D01*
X154554790Y-85774447D01*
X154485582Y-85824731D01*
X154485580Y-85824733D01*
X154485579Y-85824733D01*
X154344733Y-85965579D01*
X154344733Y-85965580D01*
X154344731Y-85965582D01*
X154294447Y-86034790D01*
X154227647Y-86126733D01*
X154137213Y-86304219D01*
X154075661Y-86493656D01*
X154075661Y-86493659D01*
X154044500Y-86690403D01*
X154044500Y-86889596D01*
X154075661Y-87086340D01*
X154075661Y-87086343D01*
X154137213Y-87275780D01*
X154183072Y-87365783D01*
X154227647Y-87453266D01*
X154344731Y-87614418D01*
X154485582Y-87755269D01*
X154646734Y-87872353D01*
X154716453Y-87907877D01*
X154798172Y-87949515D01*
X154848968Y-87997490D01*
X154865763Y-88065311D01*
X154843225Y-88131446D01*
X154798172Y-88170485D01*
X154646733Y-88247647D01*
X154554790Y-88314447D01*
X154485582Y-88364731D01*
X154485580Y-88364733D01*
X154485579Y-88364733D01*
X154344733Y-88505579D01*
X154344733Y-88505580D01*
X154344731Y-88505582D01*
X154294447Y-88574790D01*
X154227647Y-88666733D01*
X154137213Y-88844219D01*
X154075661Y-89033656D01*
X154075661Y-89033659D01*
X154044500Y-89230403D01*
X154044500Y-89429596D01*
X154075661Y-89626340D01*
X154075661Y-89626343D01*
X154137213Y-89815780D01*
X154183072Y-89905783D01*
X154227647Y-89993266D01*
X154344731Y-90154418D01*
X154485582Y-90295269D01*
X154646734Y-90412353D01*
X154666543Y-90422446D01*
X154798172Y-90489515D01*
X154848968Y-90537490D01*
X154865763Y-90605311D01*
X154843225Y-90671446D01*
X154798172Y-90710485D01*
X154646733Y-90787647D01*
X154554790Y-90854447D01*
X154485582Y-90904731D01*
X154485580Y-90904733D01*
X154485579Y-90904733D01*
X154344733Y-91045579D01*
X154344733Y-91045580D01*
X154344731Y-91045582D01*
X154336289Y-91057202D01*
X154227647Y-91206733D01*
X154137213Y-91384219D01*
X154075661Y-91573656D01*
X154075661Y-91573659D01*
X154044500Y-91770403D01*
X154044500Y-91969596D01*
X154075661Y-92166340D01*
X154075661Y-92166343D01*
X154137213Y-92355780D01*
X154183072Y-92445783D01*
X154227647Y-92533266D01*
X154344731Y-92694418D01*
X154485582Y-92835269D01*
X154646734Y-92952353D01*
X154716453Y-92987877D01*
X154798172Y-93029515D01*
X154848968Y-93077490D01*
X154865763Y-93145311D01*
X154843225Y-93211446D01*
X154798172Y-93250485D01*
X154646733Y-93327647D01*
X154554790Y-93394447D01*
X154485582Y-93444731D01*
X154485580Y-93444733D01*
X154485579Y-93444733D01*
X154344733Y-93585579D01*
X154344733Y-93585580D01*
X154344731Y-93585582D01*
X154294447Y-93654790D01*
X154227647Y-93746733D01*
X154137213Y-93924219D01*
X154075661Y-94113656D01*
X154075661Y-94113659D01*
X154044500Y-94310403D01*
X154044500Y-94509596D01*
X154075661Y-94706340D01*
X154075661Y-94706343D01*
X154137213Y-94895780D01*
X154183072Y-94985783D01*
X154227647Y-95073266D01*
X154344731Y-95234418D01*
X154485582Y-95375269D01*
X154646734Y-95492353D01*
X154716453Y-95527877D01*
X154798172Y-95569515D01*
X154848968Y-95617490D01*
X154865763Y-95685311D01*
X154843225Y-95751446D01*
X154798172Y-95790485D01*
X154646733Y-95867647D01*
X154554790Y-95934447D01*
X154485582Y-95984731D01*
X154485580Y-95984733D01*
X154485579Y-95984733D01*
X154344733Y-96125579D01*
X154344733Y-96125580D01*
X154344731Y-96125582D01*
X154294447Y-96194790D01*
X154227647Y-96286733D01*
X154137213Y-96464219D01*
X154075661Y-96653656D01*
X154075661Y-96653659D01*
X154044500Y-96850403D01*
X154044500Y-97049596D01*
X154075661Y-97246340D01*
X154075661Y-97246343D01*
X154137213Y-97435780D01*
X154183072Y-97525783D01*
X154227647Y-97613266D01*
X154344731Y-97774418D01*
X154485582Y-97915269D01*
X154646734Y-98032353D01*
X154716453Y-98067877D01*
X154798172Y-98109515D01*
X154848968Y-98157490D01*
X154865763Y-98225311D01*
X154843225Y-98291446D01*
X154798172Y-98330485D01*
X154646733Y-98407647D01*
X154554790Y-98474447D01*
X154485582Y-98524731D01*
X154485580Y-98524733D01*
X154485579Y-98524733D01*
X154344733Y-98665579D01*
X154344733Y-98665580D01*
X154344731Y-98665582D01*
X154294447Y-98734790D01*
X154227647Y-98826733D01*
X154137213Y-99004219D01*
X154075661Y-99193656D01*
X154075661Y-99193659D01*
X154044500Y-99390403D01*
X154044500Y-99589596D01*
X154075661Y-99786340D01*
X154075661Y-99786343D01*
X154137213Y-99975780D01*
X154183072Y-100065783D01*
X154227647Y-100153266D01*
X154344731Y-100314418D01*
X154485582Y-100455269D01*
X154646734Y-100572353D01*
X154716453Y-100607877D01*
X154798172Y-100649515D01*
X154848968Y-100697490D01*
X154865763Y-100765311D01*
X154843225Y-100831446D01*
X154798172Y-100870485D01*
X154646733Y-100947647D01*
X154554790Y-101014447D01*
X154485582Y-101064731D01*
X154485580Y-101064733D01*
X154485579Y-101064733D01*
X154344733Y-101205579D01*
X154344733Y-101205580D01*
X154344731Y-101205582D01*
X154294447Y-101274790D01*
X154227647Y-101366733D01*
X154137213Y-101544219D01*
X154075661Y-101733656D01*
X154075661Y-101733659D01*
X154061406Y-101823661D01*
X154044500Y-101930403D01*
X154044500Y-102129597D01*
X154052871Y-102182448D01*
X154075661Y-102326340D01*
X154075661Y-102326343D01*
X154137213Y-102515780D01*
X154183072Y-102605783D01*
X154227647Y-102693266D01*
X154344731Y-102854418D01*
X154485582Y-102995269D01*
X154646734Y-103112353D01*
X154699548Y-103139263D01*
X154798172Y-103189515D01*
X154848968Y-103237490D01*
X154865763Y-103305311D01*
X154843225Y-103371446D01*
X154798172Y-103410485D01*
X154646733Y-103487647D01*
X154554790Y-103554447D01*
X154485582Y-103604731D01*
X154485580Y-103604733D01*
X154485579Y-103604733D01*
X154344733Y-103745579D01*
X154344733Y-103745580D01*
X154344731Y-103745582D01*
X154294447Y-103814790D01*
X154227647Y-103906733D01*
X154137213Y-104084219D01*
X154075661Y-104273656D01*
X154075661Y-104273659D01*
X154044500Y-104470403D01*
X154044500Y-104669596D01*
X154075661Y-104866340D01*
X154075661Y-104866343D01*
X154137213Y-105055780D01*
X154183072Y-105145783D01*
X154227647Y-105233266D01*
X154344731Y-105394418D01*
X154485582Y-105535269D01*
X154646734Y-105652353D01*
X154716453Y-105687877D01*
X154798172Y-105729515D01*
X154848968Y-105777490D01*
X154865763Y-105845311D01*
X154843225Y-105911446D01*
X154798172Y-105950485D01*
X154646733Y-106027647D01*
X154554790Y-106094447D01*
X154485582Y-106144731D01*
X154485580Y-106144733D01*
X154485579Y-106144733D01*
X154344733Y-106285579D01*
X154344733Y-106285580D01*
X154344731Y-106285582D01*
X154331134Y-106304297D01*
X154227647Y-106446733D01*
X154225466Y-106450293D01*
X154173652Y-106497167D01*
X154119740Y-106509500D01*
X139279096Y-106509500D01*
X139257850Y-106503261D01*
X139235763Y-106501682D01*
X139224979Y-106493609D01*
X139212057Y-106489815D01*
X139197558Y-106473083D01*
X139179829Y-106459811D01*
X139175121Y-106447188D01*
X139166302Y-106437011D01*
X139163150Y-106415094D01*
X139155412Y-106394346D01*
X139158274Y-106381185D01*
X139156358Y-106367853D01*
X139165557Y-106347709D01*
X139170264Y-106326073D01*
X139183533Y-106308345D01*
X139185383Y-106304297D01*
X139191394Y-106297840D01*
X139358509Y-106130724D01*
X139358514Y-106130721D01*
X139368714Y-106120520D01*
X139368716Y-106120520D01*
X139480520Y-106008716D01*
X139541838Y-105902510D01*
X139557337Y-105875665D01*
X139557338Y-105875663D01*
X139557684Y-105875063D01*
X139559577Y-105871785D01*
X139600501Y-105719057D01*
X139600501Y-105560943D01*
X139600501Y-105553348D01*
X139600500Y-105553330D01*
X139600500Y-81458754D01*
X165699500Y-81458754D01*
X165699500Y-81701245D01*
X165737432Y-81940736D01*
X165812360Y-82171344D01*
X165922448Y-82387401D01*
X166064966Y-82583562D01*
X166064970Y-82583567D01*
X166236432Y-82755029D01*
X166236437Y-82755033D01*
X166407539Y-82879345D01*
X166432602Y-82897554D01*
X166648653Y-83007638D01*
X166648655Y-83007639D01*
X166763959Y-83045103D01*
X166879265Y-83082568D01*
X166990186Y-83100136D01*
X167118755Y-83120500D01*
X167118760Y-83120500D01*
X168881245Y-83120500D01*
X168997347Y-83102110D01*
X169120735Y-83082568D01*
X169351347Y-83007638D01*
X169567398Y-82897554D01*
X169763569Y-82755028D01*
X169935028Y-82583569D01*
X170077554Y-82387398D01*
X170187638Y-82171347D01*
X170262568Y-81940735D01*
X170282110Y-81817347D01*
X170300500Y-81701245D01*
X170300500Y-81458754D01*
X170278432Y-81319431D01*
X170262568Y-81219265D01*
X170187638Y-80988653D01*
X170077554Y-80772602D01*
X169999352Y-80664966D01*
X169935033Y-80576437D01*
X169935029Y-80576432D01*
X169763567Y-80404970D01*
X169763562Y-80404966D01*
X169567401Y-80262448D01*
X169567400Y-80262447D01*
X169567398Y-80262446D01*
X169459372Y-80207404D01*
X169351344Y-80152360D01*
X169120736Y-80077432D01*
X168881245Y-80039500D01*
X168881240Y-80039500D01*
X167118760Y-80039500D01*
X167118755Y-80039500D01*
X166879263Y-80077432D01*
X166648655Y-80152360D01*
X166432598Y-80262448D01*
X166236437Y-80404966D01*
X166236432Y-80404970D01*
X166064970Y-80576432D01*
X166064966Y-80576437D01*
X165922448Y-80772598D01*
X165812360Y-80988655D01*
X165737432Y-81219263D01*
X165699500Y-81458754D01*
X139600500Y-81458754D01*
X139600500Y-76378754D01*
X165699500Y-76378754D01*
X165699500Y-76621245D01*
X165737432Y-76860736D01*
X165812360Y-77091344D01*
X165922448Y-77307401D01*
X166064966Y-77503562D01*
X166064970Y-77503567D01*
X166236432Y-77675029D01*
X166236437Y-77675033D01*
X166407539Y-77799345D01*
X166432602Y-77817554D01*
X166648653Y-77927638D01*
X166648655Y-77927639D01*
X166763959Y-77965103D01*
X166879265Y-78002568D01*
X166990186Y-78020136D01*
X167118755Y-78040500D01*
X167118760Y-78040500D01*
X168881245Y-78040500D01*
X168997347Y-78022110D01*
X169120735Y-78002568D01*
X169351347Y-77927638D01*
X169567398Y-77817554D01*
X169763569Y-77675028D01*
X169935028Y-77503569D01*
X170077554Y-77307398D01*
X170187638Y-77091347D01*
X170262568Y-76860735D01*
X170282110Y-76737347D01*
X170300500Y-76621245D01*
X170300500Y-76378754D01*
X170278432Y-76239431D01*
X170262568Y-76139265D01*
X170187638Y-75908653D01*
X170077554Y-75692602D01*
X169999352Y-75584966D01*
X169935033Y-75496437D01*
X169935029Y-75496432D01*
X169763567Y-75324970D01*
X169763562Y-75324966D01*
X169567401Y-75182448D01*
X169567400Y-75182447D01*
X169567398Y-75182446D01*
X169459372Y-75127404D01*
X169351344Y-75072360D01*
X169120736Y-74997432D01*
X168881245Y-74959500D01*
X168881240Y-74959500D01*
X167118760Y-74959500D01*
X167118755Y-74959500D01*
X166879263Y-74997432D01*
X166648655Y-75072360D01*
X166432598Y-75182448D01*
X166236437Y-75324966D01*
X166236432Y-75324970D01*
X166064970Y-75496432D01*
X166064966Y-75496437D01*
X165922448Y-75692598D01*
X165812360Y-75908655D01*
X165737432Y-76139263D01*
X165699500Y-76378754D01*
X139600500Y-76378754D01*
X139600500Y-69852486D01*
X152749500Y-69852486D01*
X152749500Y-70147513D01*
X152768482Y-70291690D01*
X152788007Y-70439993D01*
X152805418Y-70504972D01*
X152864361Y-70724951D01*
X152864364Y-70724961D01*
X152977254Y-70997500D01*
X152977258Y-70997510D01*
X153124761Y-71252993D01*
X153304352Y-71487040D01*
X153304358Y-71487047D01*
X153512952Y-71695641D01*
X153512959Y-71695647D01*
X153747006Y-71875238D01*
X154002489Y-72022741D01*
X154002490Y-72022741D01*
X154002493Y-72022743D01*
X154275048Y-72135639D01*
X154560007Y-72211993D01*
X154852494Y-72250500D01*
X154852501Y-72250500D01*
X155147499Y-72250500D01*
X155147506Y-72250500D01*
X155439993Y-72211993D01*
X155724952Y-72135639D01*
X155997507Y-72022743D01*
X156252994Y-71875238D01*
X156487042Y-71695646D01*
X156695646Y-71487042D01*
X156840125Y-71298754D01*
X165699500Y-71298754D01*
X165699500Y-71541245D01*
X165737432Y-71780736D01*
X165812360Y-72011344D01*
X165922448Y-72227401D01*
X166064966Y-72423562D01*
X166064970Y-72423567D01*
X166236432Y-72595029D01*
X166236437Y-72595033D01*
X166407539Y-72719345D01*
X166432602Y-72737554D01*
X166648653Y-72847638D01*
X166648655Y-72847639D01*
X166763959Y-72885103D01*
X166879265Y-72922568D01*
X166990186Y-72940136D01*
X167118755Y-72960500D01*
X167118760Y-72960500D01*
X168881245Y-72960500D01*
X168997347Y-72942110D01*
X169120735Y-72922568D01*
X169351347Y-72847638D01*
X169567398Y-72737554D01*
X169763569Y-72595028D01*
X169935028Y-72423569D01*
X170077554Y-72227398D01*
X170187638Y-72011347D01*
X170262568Y-71780735D01*
X170282110Y-71657347D01*
X170300500Y-71541245D01*
X170300500Y-71298754D01*
X170277634Y-71154387D01*
X170262568Y-71059265D01*
X170187638Y-70828653D01*
X170077554Y-70612602D01*
X169979879Y-70478163D01*
X169935033Y-70416437D01*
X169935029Y-70416432D01*
X169763567Y-70244970D01*
X169763562Y-70244966D01*
X169567401Y-70102448D01*
X169567400Y-70102447D01*
X169567398Y-70102446D01*
X169459372Y-70047404D01*
X169351344Y-69992360D01*
X169120736Y-69917432D01*
X168881245Y-69879500D01*
X168881240Y-69879500D01*
X167118760Y-69879500D01*
X167118755Y-69879500D01*
X166879263Y-69917432D01*
X166648655Y-69992360D01*
X166432598Y-70102448D01*
X166236437Y-70244966D01*
X166236432Y-70244970D01*
X166064970Y-70416432D01*
X166064966Y-70416437D01*
X165922448Y-70612598D01*
X165812360Y-70828655D01*
X165737432Y-71059263D01*
X165699500Y-71298754D01*
X156840125Y-71298754D01*
X156875238Y-71252994D01*
X157022743Y-70997507D01*
X157135639Y-70724952D01*
X157211993Y-70439993D01*
X157250500Y-70147506D01*
X157250500Y-69852494D01*
X157211993Y-69560007D01*
X157135639Y-69275048D01*
X157022743Y-69002493D01*
X156875238Y-68747006D01*
X156695646Y-68512958D01*
X156695641Y-68512952D01*
X156487047Y-68304358D01*
X156487040Y-68304352D01*
X156252993Y-68124761D01*
X155997510Y-67977258D01*
X155997500Y-67977254D01*
X155724961Y-67864364D01*
X155724954Y-67864362D01*
X155724952Y-67864361D01*
X155439993Y-67788007D01*
X155391113Y-67781571D01*
X155147513Y-67749500D01*
X155147506Y-67749500D01*
X154852494Y-67749500D01*
X154852486Y-67749500D01*
X154574085Y-67786153D01*
X154560007Y-67788007D01*
X154356385Y-67842567D01*
X154275048Y-67864361D01*
X154275038Y-67864364D01*
X154002499Y-67977254D01*
X154002489Y-67977258D01*
X153747006Y-68124761D01*
X153512959Y-68304352D01*
X153512952Y-68304358D01*
X153304358Y-68512952D01*
X153304352Y-68512959D01*
X153124761Y-68747006D01*
X152977258Y-69002489D01*
X152977254Y-69002499D01*
X152864364Y-69275038D01*
X152864361Y-69275048D01*
X152788008Y-69560004D01*
X152788006Y-69560015D01*
X152749500Y-69852486D01*
X139600500Y-69852486D01*
X139600500Y-66218754D01*
X165699500Y-66218754D01*
X165699500Y-66461245D01*
X165737432Y-66700736D01*
X165812360Y-66931344D01*
X165922448Y-67147401D01*
X166064966Y-67343562D01*
X166064970Y-67343567D01*
X166236432Y-67515029D01*
X166236437Y-67515033D01*
X166407539Y-67639345D01*
X166432602Y-67657554D01*
X166648653Y-67767638D01*
X166648655Y-67767639D01*
X166763959Y-67805103D01*
X166879265Y-67842568D01*
X166990186Y-67860136D01*
X167118755Y-67880500D01*
X167118760Y-67880500D01*
X168881245Y-67880500D01*
X168997347Y-67862110D01*
X169120735Y-67842568D01*
X169351347Y-67767638D01*
X169567398Y-67657554D01*
X169763569Y-67515028D01*
X169935028Y-67343569D01*
X170077554Y-67147398D01*
X170187638Y-66931347D01*
X170262568Y-66700735D01*
X170282110Y-66577347D01*
X170300500Y-66461245D01*
X170300500Y-66218754D01*
X170278432Y-66079431D01*
X170262568Y-65979265D01*
X170187638Y-65748653D01*
X170077554Y-65532602D01*
X169999352Y-65424966D01*
X169935033Y-65336437D01*
X169935029Y-65336432D01*
X169763567Y-65164970D01*
X169763562Y-65164966D01*
X169567401Y-65022448D01*
X169567400Y-65022447D01*
X169567398Y-65022446D01*
X169459372Y-64967404D01*
X169351344Y-64912360D01*
X169120736Y-64837432D01*
X168881245Y-64799500D01*
X168881240Y-64799500D01*
X167118760Y-64799500D01*
X167118755Y-64799500D01*
X166879263Y-64837432D01*
X166648655Y-64912360D01*
X166432598Y-65022448D01*
X166236437Y-65164966D01*
X166236432Y-65164970D01*
X166064970Y-65336432D01*
X166064966Y-65336437D01*
X165922448Y-65532598D01*
X165812360Y-65748655D01*
X165737432Y-65979263D01*
X165699500Y-66218754D01*
X139600500Y-66218754D01*
X139600500Y-60760945D01*
X139600500Y-60760943D01*
X139565629Y-60630801D01*
X139565629Y-60630800D01*
X139565629Y-60630799D01*
X139559578Y-60608217D01*
X139559577Y-60608216D01*
X139559577Y-60608215D01*
X139530639Y-60558095D01*
X139480520Y-60471284D01*
X139368716Y-60359480D01*
X139368715Y-60359479D01*
X139364385Y-60355149D01*
X139364374Y-60355139D01*
X139236819Y-60227584D01*
X139203334Y-60166261D01*
X139200500Y-60139903D01*
X139200500Y-58618799D01*
X141200000Y-58618799D01*
X141200000Y-59250000D01*
X142085879Y-59250000D01*
X142066901Y-59295818D01*
X142040000Y-59431056D01*
X142040000Y-59568944D01*
X142066901Y-59704182D01*
X142085879Y-59750000D01*
X141200000Y-59750000D01*
X141200000Y-60381200D01*
X141237920Y-60620618D01*
X141312827Y-60851159D01*
X141422874Y-61067136D01*
X141565356Y-61263245D01*
X141736754Y-61434643D01*
X141932863Y-61577125D01*
X142148840Y-61687172D01*
X142379381Y-61762080D01*
X142490000Y-61779600D01*
X142490000Y-60154120D01*
X142535818Y-60173099D01*
X142671056Y-60200000D01*
X142808944Y-60200000D01*
X142944182Y-60173099D01*
X142990000Y-60154120D01*
X142990000Y-61779599D01*
X143100618Y-61762080D01*
X143331159Y-61687172D01*
X143547136Y-61577125D01*
X143743245Y-61434643D01*
X143914643Y-61263245D01*
X144005091Y-61138754D01*
X165699500Y-61138754D01*
X165699500Y-61381245D01*
X165737432Y-61620736D01*
X165812360Y-61851344D01*
X165834669Y-61895127D01*
X165904437Y-62032054D01*
X165922448Y-62067401D01*
X166064966Y-62263562D01*
X166064970Y-62263567D01*
X166236432Y-62435029D01*
X166236437Y-62435033D01*
X166407539Y-62559345D01*
X166432602Y-62577554D01*
X166648653Y-62687638D01*
X166648655Y-62687639D01*
X166763959Y-62725103D01*
X166879265Y-62762568D01*
X166990186Y-62780136D01*
X167118755Y-62800500D01*
X167118760Y-62800500D01*
X168881245Y-62800500D01*
X168997347Y-62782110D01*
X169120735Y-62762568D01*
X169351347Y-62687638D01*
X169567398Y-62577554D01*
X169763569Y-62435028D01*
X169935028Y-62263569D01*
X170077554Y-62067398D01*
X170187638Y-61851347D01*
X170262568Y-61620735D01*
X170282110Y-61497347D01*
X170300500Y-61381245D01*
X170300500Y-61138754D01*
X170278432Y-60999431D01*
X170262568Y-60899265D01*
X170187638Y-60668653D01*
X170077554Y-60452602D01*
X170006751Y-60355149D01*
X169935033Y-60256437D01*
X169935029Y-60256432D01*
X169763567Y-60084970D01*
X169763562Y-60084966D01*
X169567401Y-59942448D01*
X169567400Y-59942447D01*
X169567398Y-59942446D01*
X169459372Y-59887404D01*
X169351344Y-59832360D01*
X169120736Y-59757432D01*
X168881245Y-59719500D01*
X168881240Y-59719500D01*
X167118760Y-59719500D01*
X167118755Y-59719500D01*
X166879263Y-59757432D01*
X166648655Y-59832360D01*
X166432598Y-59942448D01*
X166236437Y-60084966D01*
X166236432Y-60084970D01*
X166064970Y-60256432D01*
X166064966Y-60256437D01*
X165922448Y-60452598D01*
X165812360Y-60668655D01*
X165737432Y-60899263D01*
X165699500Y-61138754D01*
X144005091Y-61138754D01*
X144057124Y-61067137D01*
X144057126Y-61067134D01*
X144167172Y-60851159D01*
X144242079Y-60620618D01*
X144280000Y-60381200D01*
X144280000Y-59750000D01*
X143394121Y-59750000D01*
X143413099Y-59704182D01*
X143440000Y-59568944D01*
X143440000Y-59431056D01*
X143413099Y-59295818D01*
X143394121Y-59250000D01*
X144280000Y-59250000D01*
X144280000Y-58618799D01*
X144242079Y-58379381D01*
X144167172Y-58148840D01*
X144057125Y-57932863D01*
X143914643Y-57736754D01*
X143743245Y-57565356D01*
X143547136Y-57422874D01*
X143331157Y-57312827D01*
X143100614Y-57237919D01*
X142990000Y-57220399D01*
X142990000Y-58845879D01*
X142944182Y-58826901D01*
X142808944Y-58800000D01*
X142671056Y-58800000D01*
X142535818Y-58826901D01*
X142490000Y-58845879D01*
X142490000Y-57220399D01*
X142489999Y-57220399D01*
X142379385Y-57237919D01*
X142148842Y-57312827D01*
X141932863Y-57422874D01*
X141736754Y-57565356D01*
X141565356Y-57736754D01*
X141422874Y-57932863D01*
X141312827Y-58148840D01*
X141237920Y-58379381D01*
X141200000Y-58618799D01*
X139200500Y-58618799D01*
X139200500Y-58618754D01*
X139162586Y-58379381D01*
X139162568Y-58379265D01*
X139087638Y-58148653D01*
X138977554Y-57932602D01*
X138835263Y-57736754D01*
X138835033Y-57736437D01*
X138835029Y-57736432D01*
X138663567Y-57564970D01*
X138663562Y-57564966D01*
X138467401Y-57422448D01*
X138467400Y-57422447D01*
X138467398Y-57422446D01*
X138359372Y-57367404D01*
X138251344Y-57312360D01*
X138020736Y-57237432D01*
X137781245Y-57199500D01*
X137781240Y-57199500D01*
X137538760Y-57199500D01*
X137538755Y-57199500D01*
X137299263Y-57237432D01*
X137068655Y-57312360D01*
X136852598Y-57422448D01*
X136656437Y-57564966D01*
X136656432Y-57564970D01*
X136484970Y-57736432D01*
X136484966Y-57736437D01*
X136342448Y-57932598D01*
X136232360Y-58148655D01*
X136157432Y-58379263D01*
X136119500Y-58618754D01*
X136119500Y-60381245D01*
X136157432Y-60620736D01*
X136232360Y-60851344D01*
X136287404Y-60959372D01*
X136342311Y-61067134D01*
X136342448Y-61067401D01*
X136484966Y-61263562D01*
X136484970Y-61263567D01*
X136656432Y-61435029D01*
X136656437Y-61435033D01*
X136771537Y-61518657D01*
X136852602Y-61577554D01*
X137067738Y-61687172D01*
X137068655Y-61687639D01*
X137183959Y-61725103D01*
X137299265Y-61762568D01*
X137406795Y-61779599D01*
X137538755Y-61800500D01*
X137538760Y-61800500D01*
X137781245Y-61800500D01*
X138020735Y-61762568D01*
X138106153Y-61734814D01*
X138237183Y-61692239D01*
X138307023Y-61690245D01*
X138366856Y-61726325D01*
X138397684Y-61789026D01*
X138399500Y-61810171D01*
X138399500Y-85614120D01*
X138379815Y-85681159D01*
X138327011Y-85726914D01*
X138257853Y-85736858D01*
X138202618Y-85714441D01*
X138193267Y-85707647D01*
X138015780Y-85617213D01*
X137826342Y-85555661D01*
X137678782Y-85532290D01*
X137629597Y-85524500D01*
X137430403Y-85524500D01*
X137364822Y-85534887D01*
X137233659Y-85555661D01*
X137233656Y-85555661D01*
X137044219Y-85617213D01*
X136866733Y-85707647D01*
X136774790Y-85774447D01*
X136705582Y-85824731D01*
X136705580Y-85824733D01*
X136705579Y-85824733D01*
X136564733Y-85965579D01*
X136564733Y-85965580D01*
X136564731Y-85965582D01*
X136514447Y-86034790D01*
X136447647Y-86126733D01*
X136357213Y-86304219D01*
X136295661Y-86493656D01*
X136295661Y-86493659D01*
X136264500Y-86690403D01*
X136264500Y-86889596D01*
X136295661Y-87086340D01*
X136295661Y-87086343D01*
X136357213Y-87275780D01*
X136403072Y-87365783D01*
X136447647Y-87453266D01*
X136564731Y-87614418D01*
X136705582Y-87755269D01*
X136866734Y-87872353D01*
X136936453Y-87907877D01*
X137018172Y-87949515D01*
X137068968Y-87997490D01*
X137085763Y-88065311D01*
X137063225Y-88131446D01*
X137018172Y-88170485D01*
X136866733Y-88247647D01*
X136774790Y-88314447D01*
X136705582Y-88364731D01*
X136705580Y-88364733D01*
X136705579Y-88364733D01*
X136564733Y-88505579D01*
X136564733Y-88505580D01*
X136564731Y-88505582D01*
X136514447Y-88574790D01*
X136447647Y-88666733D01*
X136357213Y-88844219D01*
X136295661Y-89033656D01*
X136295661Y-89033659D01*
X136264500Y-89230403D01*
X136264500Y-89429596D01*
X136295661Y-89626340D01*
X136295661Y-89626343D01*
X136357213Y-89815780D01*
X136403072Y-89905783D01*
X136447647Y-89993266D01*
X136564731Y-90154418D01*
X136705582Y-90295269D01*
X136866734Y-90412353D01*
X136886543Y-90422446D01*
X137018172Y-90489515D01*
X137068968Y-90537490D01*
X137085763Y-90605311D01*
X137063225Y-90671446D01*
X137018172Y-90710485D01*
X136866733Y-90787647D01*
X136774790Y-90854447D01*
X136705582Y-90904731D01*
X136705580Y-90904733D01*
X136705579Y-90904733D01*
X136564733Y-91045579D01*
X136564733Y-91045580D01*
X136564731Y-91045582D01*
X136556289Y-91057202D01*
X136447647Y-91206733D01*
X136357213Y-91384219D01*
X136295661Y-91573656D01*
X136295661Y-91573659D01*
X136264500Y-91770403D01*
X136264500Y-91969596D01*
X136295661Y-92166340D01*
X136295661Y-92166343D01*
X136357213Y-92355780D01*
X136403072Y-92445783D01*
X136447647Y-92533266D01*
X136564731Y-92694418D01*
X136705582Y-92835269D01*
X136866734Y-92952353D01*
X136936453Y-92987877D01*
X137018172Y-93029515D01*
X137068968Y-93077490D01*
X137085763Y-93145311D01*
X137063225Y-93211446D01*
X137018172Y-93250485D01*
X136866733Y-93327647D01*
X136774790Y-93394447D01*
X136705582Y-93444731D01*
X136705580Y-93444733D01*
X136705579Y-93444733D01*
X136564733Y-93585579D01*
X136564733Y-93585580D01*
X136564731Y-93585582D01*
X136514447Y-93654790D01*
X136447647Y-93746733D01*
X136357213Y-93924219D01*
X136295661Y-94113656D01*
X136295661Y-94113659D01*
X136264500Y-94310403D01*
X136264500Y-94509596D01*
X136295661Y-94706340D01*
X136295661Y-94706343D01*
X136357213Y-94895780D01*
X136403072Y-94985783D01*
X136447647Y-95073266D01*
X136564731Y-95234418D01*
X136705582Y-95375269D01*
X136866734Y-95492353D01*
X136936453Y-95527877D01*
X137018172Y-95569515D01*
X137068968Y-95617490D01*
X137085763Y-95685311D01*
X137063225Y-95751446D01*
X137018172Y-95790485D01*
X136866733Y-95867647D01*
X136774790Y-95934447D01*
X136705582Y-95984731D01*
X136705580Y-95984733D01*
X136705579Y-95984733D01*
X136564733Y-96125579D01*
X136564733Y-96125580D01*
X136564731Y-96125582D01*
X136514447Y-96194790D01*
X136447647Y-96286733D01*
X136357213Y-96464219D01*
X136295661Y-96653656D01*
X136295661Y-96653659D01*
X136264500Y-96850403D01*
X136264500Y-97049596D01*
X136295661Y-97246340D01*
X136295661Y-97246343D01*
X136357213Y-97435780D01*
X136403072Y-97525783D01*
X136447647Y-97613266D01*
X136564731Y-97774418D01*
X136705582Y-97915269D01*
X136866734Y-98032353D01*
X136936453Y-98067877D01*
X137018172Y-98109515D01*
X137068968Y-98157490D01*
X137085763Y-98225311D01*
X137063225Y-98291446D01*
X137018172Y-98330485D01*
X136866733Y-98407647D01*
X136774790Y-98474447D01*
X136705582Y-98524731D01*
X136705580Y-98524733D01*
X136705579Y-98524733D01*
X136564733Y-98665579D01*
X136564733Y-98665580D01*
X136564731Y-98665582D01*
X136514447Y-98734790D01*
X136447647Y-98826733D01*
X136357213Y-99004219D01*
X136295661Y-99193656D01*
X136295661Y-99193659D01*
X136264500Y-99390403D01*
X136264500Y-99589596D01*
X136295661Y-99786340D01*
X136295661Y-99786343D01*
X136357213Y-99975780D01*
X136403072Y-100065783D01*
X136447647Y-100153266D01*
X136564731Y-100314418D01*
X136705582Y-100455269D01*
X136866734Y-100572353D01*
X136936453Y-100607877D01*
X137018172Y-100649515D01*
X137068968Y-100697490D01*
X137085763Y-100765311D01*
X137063225Y-100831446D01*
X137018172Y-100870485D01*
X136866733Y-100947647D01*
X136774790Y-101014447D01*
X136705582Y-101064731D01*
X136705580Y-101064733D01*
X136705579Y-101064733D01*
X136564733Y-101205579D01*
X136564733Y-101205580D01*
X136564731Y-101205582D01*
X136514447Y-101274790D01*
X136447647Y-101366733D01*
X136357213Y-101544219D01*
X136295661Y-101733656D01*
X136295661Y-101733659D01*
X136281406Y-101823661D01*
X136264500Y-101930403D01*
X136264500Y-102129597D01*
X136272871Y-102182448D01*
X136295661Y-102326340D01*
X136295661Y-102326343D01*
X136357213Y-102515780D01*
X136403072Y-102605783D01*
X136447647Y-102693266D01*
X136564731Y-102854418D01*
X136705582Y-102995269D01*
X136866734Y-103112353D01*
X136919548Y-103139263D01*
X137018172Y-103189515D01*
X137068968Y-103237490D01*
X137085763Y-103305311D01*
X137063225Y-103371446D01*
X137018172Y-103410485D01*
X136866733Y-103487647D01*
X136774790Y-103554447D01*
X136705582Y-103604731D01*
X136705580Y-103604733D01*
X136705579Y-103604733D01*
X136564733Y-103745579D01*
X136564733Y-103745580D01*
X136564731Y-103745582D01*
X136514447Y-103814790D01*
X136447647Y-103906733D01*
X136357213Y-104084219D01*
X136295661Y-104273656D01*
X136295661Y-104273659D01*
X136264500Y-104470403D01*
X136264500Y-104669596D01*
X136295661Y-104866340D01*
X136295661Y-104866343D01*
X136357213Y-105055780D01*
X136403072Y-105145783D01*
X136447647Y-105233266D01*
X136564731Y-105394418D01*
X136705582Y-105535269D01*
X136866734Y-105652353D01*
X136936453Y-105687877D01*
X137018172Y-105729515D01*
X137068968Y-105777490D01*
X137085763Y-105845311D01*
X137063225Y-105911446D01*
X137018172Y-105950485D01*
X136866733Y-106027647D01*
X136774790Y-106094447D01*
X136705582Y-106144731D01*
X136705580Y-106144733D01*
X136705579Y-106144733D01*
X136564733Y-106285579D01*
X136564733Y-106285580D01*
X136564731Y-106285582D01*
X136551134Y-106304297D01*
X136447647Y-106446733D01*
X136404306Y-106531795D01*
X136356331Y-106582591D01*
X136293821Y-106599500D01*
X131690260Y-106599500D01*
X131623221Y-106579815D01*
X131584534Y-106540293D01*
X131582352Y-106536733D01*
X131465269Y-106375582D01*
X131324418Y-106234731D01*
X131163266Y-106117647D01*
X131011827Y-106040485D01*
X130961031Y-105992510D01*
X130944236Y-105924689D01*
X130966773Y-105858554D01*
X131011827Y-105819515D01*
X131041611Y-105804339D01*
X131163266Y-105742353D01*
X131324418Y-105625269D01*
X131465269Y-105484418D01*
X131582353Y-105323266D01*
X131672785Y-105145783D01*
X131702029Y-105055780D01*
X131734338Y-104956343D01*
X131734338Y-104956342D01*
X131734339Y-104956339D01*
X131765500Y-104759597D01*
X131765500Y-104560403D01*
X131734339Y-104363661D01*
X131734338Y-104363657D01*
X131734338Y-104363656D01*
X131672786Y-104174219D01*
X131655982Y-104141240D01*
X131582353Y-103996734D01*
X131465269Y-103835582D01*
X131324418Y-103694731D01*
X131163266Y-103577647D01*
X131011827Y-103500485D01*
X130961031Y-103452510D01*
X130944236Y-103384689D01*
X130966773Y-103318554D01*
X131011827Y-103279515D01*
X131041611Y-103264339D01*
X131163266Y-103202353D01*
X131324418Y-103085269D01*
X131465269Y-102944418D01*
X131582353Y-102783266D01*
X131672785Y-102605783D01*
X131734339Y-102416339D01*
X131765500Y-102219597D01*
X131765500Y-102020403D01*
X131734339Y-101823661D01*
X131734338Y-101823657D01*
X131734338Y-101823656D01*
X131672786Y-101634219D01*
X131582352Y-101456733D01*
X131465269Y-101295582D01*
X131324418Y-101154731D01*
X131163266Y-101037647D01*
X131011827Y-100960485D01*
X130961031Y-100912510D01*
X130944236Y-100844689D01*
X130966773Y-100778554D01*
X131011827Y-100739515D01*
X131041611Y-100724339D01*
X131163266Y-100662353D01*
X131324418Y-100545269D01*
X131465269Y-100404418D01*
X131582353Y-100243266D01*
X131672785Y-100065783D01*
X131702029Y-99975780D01*
X131734338Y-99876343D01*
X131734338Y-99876342D01*
X131734339Y-99876339D01*
X131765500Y-99679597D01*
X131765500Y-99480403D01*
X131734339Y-99283661D01*
X131734338Y-99283657D01*
X131734338Y-99283656D01*
X131672786Y-99094219D01*
X131582352Y-98916733D01*
X131465269Y-98755582D01*
X131324418Y-98614731D01*
X131163266Y-98497647D01*
X131011827Y-98420485D01*
X130961031Y-98372510D01*
X130944236Y-98304689D01*
X130966773Y-98238554D01*
X131011827Y-98199515D01*
X131041611Y-98184339D01*
X131163266Y-98122353D01*
X131324418Y-98005269D01*
X131465269Y-97864418D01*
X131582353Y-97703266D01*
X131672785Y-97525783D01*
X131734339Y-97336339D01*
X131765500Y-97139597D01*
X131765500Y-96940403D01*
X131734339Y-96743661D01*
X131734338Y-96743657D01*
X131734338Y-96743656D01*
X131672786Y-96554219D01*
X131582352Y-96376733D01*
X131465269Y-96215582D01*
X131324418Y-96074731D01*
X131163266Y-95957647D01*
X131011827Y-95880485D01*
X130961031Y-95832510D01*
X130944236Y-95764689D01*
X130966773Y-95698554D01*
X131011827Y-95659515D01*
X131041611Y-95644339D01*
X131163266Y-95582353D01*
X131324418Y-95465269D01*
X131465269Y-95324418D01*
X131582353Y-95163266D01*
X131672785Y-94985783D01*
X131734339Y-94796339D01*
X131765500Y-94599597D01*
X131765500Y-94400403D01*
X131734339Y-94203661D01*
X131734338Y-94203657D01*
X131734338Y-94203656D01*
X131672786Y-94014219D01*
X131582352Y-93836733D01*
X131465269Y-93675582D01*
X131324418Y-93534731D01*
X131163266Y-93417647D01*
X131011827Y-93340485D01*
X130961031Y-93292510D01*
X130944236Y-93224689D01*
X130966773Y-93158554D01*
X131011827Y-93119515D01*
X131041611Y-93104339D01*
X131163266Y-93042353D01*
X131324418Y-92925269D01*
X131465269Y-92784418D01*
X131582353Y-92623266D01*
X131672785Y-92445783D01*
X131702029Y-92355780D01*
X131734338Y-92256343D01*
X131734338Y-92256342D01*
X131734339Y-92256339D01*
X131765500Y-92059597D01*
X131765500Y-91860403D01*
X131734339Y-91663661D01*
X131734338Y-91663657D01*
X131734338Y-91663656D01*
X131672786Y-91474219D01*
X131626928Y-91384217D01*
X131582353Y-91296734D01*
X131465269Y-91135582D01*
X131324418Y-90994731D01*
X131163266Y-90877647D01*
X131011827Y-90800485D01*
X130961031Y-90752510D01*
X130944236Y-90684689D01*
X130966773Y-90618554D01*
X131011827Y-90579515D01*
X131041611Y-90564339D01*
X131163266Y-90502353D01*
X131324418Y-90385269D01*
X131465269Y-90244418D01*
X131582353Y-90083266D01*
X131672785Y-89905783D01*
X131734339Y-89716339D01*
X131765500Y-89519597D01*
X131765500Y-89320403D01*
X131734339Y-89123661D01*
X131734338Y-89123657D01*
X131734338Y-89123656D01*
X131672786Y-88934219D01*
X131582352Y-88756733D01*
X131465269Y-88595582D01*
X131324418Y-88454731D01*
X131163266Y-88337647D01*
X131011827Y-88260485D01*
X130961031Y-88212510D01*
X130944236Y-88144689D01*
X130966773Y-88078554D01*
X131011827Y-88039515D01*
X131041611Y-88024339D01*
X131163266Y-87962353D01*
X131324418Y-87845269D01*
X131465269Y-87704418D01*
X131582353Y-87543266D01*
X131672785Y-87365783D01*
X131672786Y-87365780D01*
X131734338Y-87176343D01*
X131734338Y-87176342D01*
X131734339Y-87176339D01*
X131765500Y-86979597D01*
X131765500Y-86780403D01*
X131734339Y-86583661D01*
X131734338Y-86583657D01*
X131734338Y-86583656D01*
X131672786Y-86394219D01*
X131672785Y-86394217D01*
X131582353Y-86216734D01*
X131465269Y-86055582D01*
X131324418Y-85914731D01*
X131163266Y-85797647D01*
X130985780Y-85707213D01*
X130796342Y-85645661D01*
X130648782Y-85622290D01*
X130599597Y-85614500D01*
X130400403Y-85614500D01*
X130334822Y-85624887D01*
X130203659Y-85645661D01*
X130203656Y-85645661D01*
X130014219Y-85707213D01*
X129836733Y-85797647D01*
X129761095Y-85852602D01*
X129675582Y-85914731D01*
X129675580Y-85914733D01*
X129675579Y-85914733D01*
X129534733Y-86055579D01*
X129534733Y-86055580D01*
X129534731Y-86055582D01*
X129484447Y-86124790D01*
X129417647Y-86216733D01*
X129327213Y-86394219D01*
X129265661Y-86583656D01*
X129265661Y-86583659D01*
X129234500Y-86780403D01*
X129234500Y-86979596D01*
X129265661Y-87176340D01*
X129265661Y-87176343D01*
X129327213Y-87365780D01*
X129327215Y-87365783D01*
X129417647Y-87543266D01*
X129534731Y-87704418D01*
X129675582Y-87845269D01*
X129836734Y-87962353D01*
X129905694Y-87997490D01*
X129988172Y-88039515D01*
X130038968Y-88087490D01*
X130055763Y-88155311D01*
X130033225Y-88221446D01*
X129988172Y-88260485D01*
X129836733Y-88337647D01*
X129799456Y-88364731D01*
X129675582Y-88454731D01*
X129675580Y-88454733D01*
X129675579Y-88454733D01*
X129534733Y-88595579D01*
X129534733Y-88595580D01*
X129534731Y-88595582D01*
X129484447Y-88664790D01*
X129417647Y-88756733D01*
X129327213Y-88934219D01*
X129265661Y-89123656D01*
X129265661Y-89123659D01*
X129234500Y-89320403D01*
X129234500Y-89519596D01*
X129265661Y-89716340D01*
X129265661Y-89716343D01*
X129327213Y-89905780D01*
X129327215Y-89905783D01*
X129417647Y-90083266D01*
X129534731Y-90244418D01*
X129675582Y-90385269D01*
X129836734Y-90502353D01*
X129905694Y-90537490D01*
X129988172Y-90579515D01*
X130038968Y-90627490D01*
X130055763Y-90695311D01*
X130033225Y-90761446D01*
X129988172Y-90800485D01*
X129836733Y-90877647D01*
X129761095Y-90932602D01*
X129675582Y-90994731D01*
X129675580Y-90994733D01*
X129675579Y-90994733D01*
X129534733Y-91135579D01*
X129534733Y-91135580D01*
X129534731Y-91135582D01*
X129516998Y-91159990D01*
X129417647Y-91296733D01*
X129327213Y-91474219D01*
X129265661Y-91663656D01*
X129265661Y-91663659D01*
X129234500Y-91860403D01*
X129234500Y-92059596D01*
X129265661Y-92256340D01*
X129265661Y-92256343D01*
X129327213Y-92445780D01*
X129327215Y-92445783D01*
X129417647Y-92623266D01*
X129534731Y-92784418D01*
X129675582Y-92925269D01*
X129836734Y-93042353D01*
X129905694Y-93077490D01*
X129988172Y-93119515D01*
X130038968Y-93167490D01*
X130055763Y-93235311D01*
X130033225Y-93301446D01*
X129988172Y-93340485D01*
X129836733Y-93417647D01*
X129744790Y-93484447D01*
X129675582Y-93534731D01*
X129675580Y-93534733D01*
X129675579Y-93534733D01*
X129534733Y-93675579D01*
X129534733Y-93675580D01*
X129534731Y-93675582D01*
X129484447Y-93744790D01*
X129417647Y-93836733D01*
X129327213Y-94014219D01*
X129265661Y-94203656D01*
X129265661Y-94203659D01*
X129234500Y-94400403D01*
X129234500Y-94599596D01*
X129265661Y-94796340D01*
X129265661Y-94796343D01*
X129327213Y-94985780D01*
X129327215Y-94985783D01*
X129417647Y-95163266D01*
X129534731Y-95324418D01*
X129675582Y-95465269D01*
X129836734Y-95582353D01*
X129905694Y-95617490D01*
X129988172Y-95659515D01*
X130038968Y-95707490D01*
X130055763Y-95775311D01*
X130033225Y-95841446D01*
X129988172Y-95880485D01*
X129836733Y-95957647D01*
X129799456Y-95984731D01*
X129675582Y-96074731D01*
X129675580Y-96074733D01*
X129675579Y-96074733D01*
X129534733Y-96215579D01*
X129534733Y-96215580D01*
X129534731Y-96215582D01*
X129484447Y-96284790D01*
X129417647Y-96376733D01*
X129327213Y-96554219D01*
X129265661Y-96743656D01*
X129265661Y-96743659D01*
X129265661Y-96743661D01*
X129234500Y-96940403D01*
X129234500Y-97139597D01*
X129250080Y-97237968D01*
X129265661Y-97336340D01*
X129265661Y-97336343D01*
X129327213Y-97525780D01*
X129354837Y-97579995D01*
X129417647Y-97703266D01*
X129534731Y-97864418D01*
X129675582Y-98005269D01*
X129836734Y-98122353D01*
X129905694Y-98157490D01*
X129988172Y-98199515D01*
X130038968Y-98247490D01*
X130055763Y-98315311D01*
X130033225Y-98381446D01*
X129988172Y-98420485D01*
X129836733Y-98497647D01*
X129799456Y-98524731D01*
X129675582Y-98614731D01*
X129675580Y-98614733D01*
X129675579Y-98614733D01*
X129534733Y-98755579D01*
X129534733Y-98755580D01*
X129534731Y-98755582D01*
X129488834Y-98818754D01*
X129417647Y-98916733D01*
X129327213Y-99094219D01*
X129265661Y-99283656D01*
X129265661Y-99283659D01*
X129234500Y-99480403D01*
X129234500Y-99679596D01*
X129265661Y-99876340D01*
X129265661Y-99876343D01*
X129327213Y-100065780D01*
X129352307Y-100115029D01*
X129417647Y-100243266D01*
X129534731Y-100404418D01*
X129675582Y-100545269D01*
X129836734Y-100662353D01*
X129905694Y-100697490D01*
X129988172Y-100739515D01*
X130038968Y-100787490D01*
X130055763Y-100855311D01*
X130033225Y-100921446D01*
X129988172Y-100960485D01*
X129836733Y-101037647D01*
X129799456Y-101064731D01*
X129675582Y-101154731D01*
X129675580Y-101154733D01*
X129675579Y-101154733D01*
X129534733Y-101295579D01*
X129534733Y-101295580D01*
X129534731Y-101295582D01*
X129484447Y-101364790D01*
X129417647Y-101456733D01*
X129327213Y-101634219D01*
X129265661Y-101823656D01*
X129265661Y-101823659D01*
X129234500Y-102020403D01*
X129234500Y-102219596D01*
X129265661Y-102416340D01*
X129265661Y-102416343D01*
X129327213Y-102605780D01*
X129327215Y-102605783D01*
X129417647Y-102783266D01*
X129534731Y-102944418D01*
X129675582Y-103085269D01*
X129836734Y-103202353D01*
X129905694Y-103237490D01*
X129988172Y-103279515D01*
X130038968Y-103327490D01*
X130055763Y-103395311D01*
X130033225Y-103461446D01*
X129988172Y-103500485D01*
X129836733Y-103577647D01*
X129744790Y-103644447D01*
X129675582Y-103694731D01*
X129675580Y-103694733D01*
X129675579Y-103694733D01*
X129534733Y-103835579D01*
X129534733Y-103835580D01*
X129534731Y-103835582D01*
X129516456Y-103860736D01*
X129417647Y-103996733D01*
X129327213Y-104174219D01*
X129265661Y-104363656D01*
X129265661Y-104363659D01*
X129234500Y-104560403D01*
X129234500Y-104759596D01*
X129265661Y-104956340D01*
X129265661Y-104956343D01*
X129327213Y-105145780D01*
X129352307Y-105195029D01*
X129417647Y-105323266D01*
X129534731Y-105484418D01*
X129675582Y-105625269D01*
X129836734Y-105742353D01*
X129905694Y-105777490D01*
X129988172Y-105819515D01*
X130038968Y-105867490D01*
X130055763Y-105935311D01*
X130033225Y-106001446D01*
X129988172Y-106040485D01*
X129836733Y-106117647D01*
X129799456Y-106144731D01*
X129675582Y-106234731D01*
X129675580Y-106234733D01*
X129675579Y-106234733D01*
X129534733Y-106375579D01*
X129534733Y-106375580D01*
X129534731Y-106375582D01*
X129506024Y-106415094D01*
X129417647Y-106536733D01*
X129327213Y-106714219D01*
X129265661Y-106903656D01*
X129265661Y-106903659D01*
X129234500Y-107100403D01*
X129234500Y-107299596D01*
X129265661Y-107496340D01*
X129265661Y-107496343D01*
X129327213Y-107685780D01*
X129415834Y-107859707D01*
X129417647Y-107863266D01*
X129534731Y-108024418D01*
X129675582Y-108165269D01*
X129836734Y-108282353D01*
X129926909Y-108328299D01*
X129988722Y-108359795D01*
X130039518Y-108407770D01*
X130056313Y-108475591D01*
X130033776Y-108541726D01*
X129988723Y-108580764D01*
X129836993Y-108658075D01*
X129799135Y-108685580D01*
X129799135Y-108685581D01*
X130362425Y-109248871D01*
X130303147Y-109264755D01*
X130186853Y-109331898D01*
X130091898Y-109426853D01*
X130024755Y-109543147D01*
X130008871Y-109602425D01*
X129445581Y-109039135D01*
X129445580Y-109039135D01*
X129418077Y-109076990D01*
X129327679Y-109254405D01*
X129266147Y-109443777D01*
X129235000Y-109640436D01*
X129235000Y-109839563D01*
X129266147Y-110036222D01*
X129327679Y-110225594D01*
X129418077Y-110403008D01*
X129445580Y-110440863D01*
X129445581Y-110440864D01*
X130008871Y-109877574D01*
X130024755Y-109936853D01*
X130091898Y-110053147D01*
X130186853Y-110148102D01*
X130303147Y-110215245D01*
X130362425Y-110231128D01*
X129799134Y-110794417D01*
X129836994Y-110821924D01*
X130014405Y-110912320D01*
X130203777Y-110973852D01*
X130400437Y-111005000D01*
X130599563Y-111005000D01*
X130796222Y-110973852D01*
X130985594Y-110912320D01*
X131163005Y-110821924D01*
X131200863Y-110794418D01*
X131200863Y-110794417D01*
X131151285Y-110744839D01*
X130637574Y-110231128D01*
X130696853Y-110215245D01*
X130813147Y-110148102D01*
X130908102Y-110053147D01*
X130975245Y-109936853D01*
X130991128Y-109877574D01*
X131554417Y-110440863D01*
X131554418Y-110440863D01*
X131581924Y-110403005D01*
X131672320Y-110225594D01*
X131733852Y-110036222D01*
X131765000Y-109839563D01*
X131765000Y-109640436D01*
X131753047Y-109564968D01*
X131733852Y-109443777D01*
X131672320Y-109254405D01*
X131581924Y-109076994D01*
X131554417Y-109039135D01*
X131554417Y-109039134D01*
X130991128Y-109602424D01*
X130975245Y-109543147D01*
X130908102Y-109426853D01*
X130813147Y-109331898D01*
X130696853Y-109264755D01*
X130637574Y-109248871D01*
X131200864Y-108685581D01*
X131200863Y-108685580D01*
X131163008Y-108658077D01*
X131011277Y-108580765D01*
X130960481Y-108532790D01*
X130943686Y-108464969D01*
X130966224Y-108398834D01*
X131011277Y-108359795D01*
X131041611Y-108344339D01*
X131163266Y-108282353D01*
X131324418Y-108165269D01*
X131465269Y-108024418D01*
X131582353Y-107863266D01*
X131582357Y-107863256D01*
X131584534Y-107859707D01*
X131636348Y-107812833D01*
X131690260Y-107800500D01*
X136404253Y-107800500D01*
X136471292Y-107820185D01*
X136504571Y-107851615D01*
X136513036Y-107863266D01*
X136564731Y-107934418D01*
X136705582Y-108075269D01*
X136866734Y-108192353D01*
X136919548Y-108219263D01*
X137018722Y-108269795D01*
X137069518Y-108317770D01*
X137086313Y-108385591D01*
X137063776Y-108451726D01*
X137018723Y-108490764D01*
X136866993Y-108568075D01*
X136829135Y-108595580D01*
X136829135Y-108595581D01*
X137392425Y-109158871D01*
X137333147Y-109174755D01*
X137216853Y-109241898D01*
X137121898Y-109336853D01*
X137054755Y-109453147D01*
X137038871Y-109512425D01*
X136475581Y-108949135D01*
X136475580Y-108949135D01*
X136448077Y-108986990D01*
X136357679Y-109164405D01*
X136296147Y-109353777D01*
X136265000Y-109550436D01*
X136265000Y-109749563D01*
X136296147Y-109946222D01*
X136357679Y-110135594D01*
X136448077Y-110313008D01*
X136475580Y-110350863D01*
X136475581Y-110350864D01*
X137038871Y-109787574D01*
X137054755Y-109846853D01*
X137121898Y-109963147D01*
X137216853Y-110058102D01*
X137333147Y-110125245D01*
X137392425Y-110141128D01*
X136829134Y-110704417D01*
X136866994Y-110731924D01*
X137044405Y-110822320D01*
X137233777Y-110883852D01*
X137430437Y-110915000D01*
X137629563Y-110915000D01*
X137826222Y-110883852D01*
X138015594Y-110822320D01*
X138193005Y-110731924D01*
X138230863Y-110704418D01*
X138230863Y-110704417D01*
X137667574Y-110141128D01*
X137726853Y-110125245D01*
X137843147Y-110058102D01*
X137938102Y-109963147D01*
X138005245Y-109846853D01*
X138021128Y-109787574D01*
X138584417Y-110350863D01*
X138584418Y-110350863D01*
X138611924Y-110313005D01*
X138702320Y-110135594D01*
X138763852Y-109946222D01*
X138795000Y-109749563D01*
X138795000Y-109550437D01*
X138793312Y-109539781D01*
X138802266Y-109470488D01*
X138847262Y-109417035D01*
X138914013Y-109396395D01*
X138981327Y-109415119D01*
X139003466Y-109432701D01*
X143243181Y-113672416D01*
X143276666Y-113733739D01*
X143279500Y-113760097D01*
X143279500Y-114809740D01*
X143259815Y-114876779D01*
X143220293Y-114915466D01*
X143216733Y-114917647D01*
X143136878Y-114975666D01*
X143055582Y-115034731D01*
X143055580Y-115034733D01*
X143055579Y-115034733D01*
X142914733Y-115175579D01*
X142914733Y-115175580D01*
X142914731Y-115175582D01*
X142904450Y-115189733D01*
X142797645Y-115336735D01*
X142720203Y-115488723D01*
X142672229Y-115539518D01*
X142604408Y-115556313D01*
X142538273Y-115533775D01*
X142499234Y-115488722D01*
X142421924Y-115336994D01*
X142394417Y-115299135D01*
X142394417Y-115299134D01*
X141831128Y-115862424D01*
X141815245Y-115803147D01*
X141748102Y-115686853D01*
X141653147Y-115591898D01*
X141536853Y-115524755D01*
X141477574Y-115508871D01*
X142040864Y-114945581D01*
X142040863Y-114945580D01*
X142003008Y-114918077D01*
X141825594Y-114827679D01*
X141636222Y-114766147D01*
X141439563Y-114735000D01*
X141240437Y-114735000D01*
X141043777Y-114766147D01*
X140854405Y-114827679D01*
X140676990Y-114918077D01*
X140639135Y-114945580D01*
X140639135Y-114945581D01*
X141202425Y-115508871D01*
X141143147Y-115524755D01*
X141026853Y-115591898D01*
X140931898Y-115686853D01*
X140864755Y-115803147D01*
X140848871Y-115862425D01*
X140285581Y-115299135D01*
X140285580Y-115299135D01*
X140258077Y-115336990D01*
X140167679Y-115514405D01*
X140106147Y-115703777D01*
X140075000Y-115900436D01*
X140075000Y-116099563D01*
X140106147Y-116296222D01*
X140167679Y-116485594D01*
X140258077Y-116663008D01*
X140285580Y-116700863D01*
X140285581Y-116700864D01*
X140848871Y-116137574D01*
X140864755Y-116196853D01*
X140931898Y-116313147D01*
X141026853Y-116408102D01*
X141143147Y-116475245D01*
X141150858Y-116477311D01*
X141042210Y-116506424D01*
X141042209Y-116506425D01*
X140992096Y-116535359D01*
X140992095Y-116535360D01*
X140964952Y-116551031D01*
X140905285Y-116585479D01*
X140905282Y-116585481D01*
X128966079Y-128524685D01*
X128904756Y-128558170D01*
X128835064Y-128553186D01*
X128805513Y-128537322D01*
X128647399Y-128422446D01*
X128508204Y-128351521D01*
X128457409Y-128303546D01*
X128440500Y-128241037D01*
X128440500Y-119869059D01*
X128440501Y-119869046D01*
X128440501Y-119700945D01*
X128440501Y-119700943D01*
X128399577Y-119548215D01*
X128370639Y-119498095D01*
X128320520Y-119411284D01*
X128208716Y-119299480D01*
X128208715Y-119299479D01*
X128204385Y-119295149D01*
X128204374Y-119295139D01*
X126472701Y-117563466D01*
X126439216Y-117502143D01*
X126444200Y-117432451D01*
X126486072Y-117376518D01*
X126551536Y-117352101D01*
X126579781Y-117353312D01*
X126590438Y-117355000D01*
X126789563Y-117355000D01*
X126986222Y-117323852D01*
X127175594Y-117262320D01*
X127353005Y-117171924D01*
X127390863Y-117144418D01*
X127390863Y-117144417D01*
X126827574Y-116581128D01*
X126886853Y-116565245D01*
X127003147Y-116498102D01*
X127098102Y-116403147D01*
X127165245Y-116286853D01*
X127181128Y-116227574D01*
X127744417Y-116790863D01*
X127744418Y-116790863D01*
X127771924Y-116753005D01*
X127862320Y-116575594D01*
X127923852Y-116386222D01*
X127955000Y-116189563D01*
X127955000Y-115990436D01*
X127943047Y-115914968D01*
X127923852Y-115793777D01*
X127862320Y-115604405D01*
X127771924Y-115426994D01*
X127744417Y-115389135D01*
X127744417Y-115389134D01*
X127181128Y-115952424D01*
X127165245Y-115893147D01*
X127098102Y-115776853D01*
X127003147Y-115681898D01*
X126886853Y-115614755D01*
X126827572Y-115598871D01*
X127390864Y-115035580D01*
X127353008Y-115008077D01*
X127175594Y-114917679D01*
X126986222Y-114856147D01*
X126789563Y-114825000D01*
X126590442Y-114825000D01*
X126579777Y-114826689D01*
X126510483Y-114817733D01*
X126457032Y-114772736D01*
X126436393Y-114705984D01*
X126455119Y-114638671D01*
X126472695Y-114616538D01*
X127858506Y-113230728D01*
X127858511Y-113230724D01*
X127868714Y-113220520D01*
X127868716Y-113220520D01*
X127980520Y-113108716D01*
X128059577Y-112971784D01*
X128100500Y-112819057D01*
X128100500Y-61924500D01*
X128120185Y-61857461D01*
X128172989Y-61811706D01*
X128224500Y-61800500D01*
X128340005Y-61800500D01*
X128340010Y-61800500D01*
X128442798Y-61789999D01*
X128609335Y-61734814D01*
X128758656Y-61642712D01*
X128882712Y-61518656D01*
X128974814Y-61369335D01*
X129029999Y-61202798D01*
X129040500Y-61100010D01*
X129040500Y-58123500D01*
X129060185Y-58056461D01*
X129112989Y-58010706D01*
X129164500Y-57999500D01*
X130178903Y-57999500D01*
X130245942Y-58019185D01*
X130266584Y-58035819D01*
X131003181Y-58772416D01*
X131036666Y-58833739D01*
X131039500Y-58860097D01*
X131039500Y-60381245D01*
X131077432Y-60620736D01*
X131152360Y-60851344D01*
X131207404Y-60959372D01*
X131262311Y-61067134D01*
X131262448Y-61067401D01*
X131404966Y-61263562D01*
X131404970Y-61263567D01*
X131576432Y-61435029D01*
X131576437Y-61435033D01*
X131691537Y-61518657D01*
X131772602Y-61577554D01*
X131987738Y-61687172D01*
X131988655Y-61687639D01*
X132103959Y-61725103D01*
X132219265Y-61762568D01*
X132326795Y-61779599D01*
X132458755Y-61800500D01*
X132458760Y-61800500D01*
X132701245Y-61800500D01*
X132833198Y-61779600D01*
X132940735Y-61762568D01*
X133171347Y-61687638D01*
X133387398Y-61577554D01*
X133583569Y-61435028D01*
X133755028Y-61263569D01*
X133897554Y-61067398D01*
X134007638Y-60851347D01*
X134082568Y-60620735D01*
X134102110Y-60497347D01*
X134120500Y-60381245D01*
X134120500Y-58618754D01*
X134082586Y-58379381D01*
X134082568Y-58379265D01*
X134007638Y-58148653D01*
X133897554Y-57932602D01*
X133755263Y-57736754D01*
X133755033Y-57736437D01*
X133755029Y-57736432D01*
X133583567Y-57564970D01*
X133583562Y-57564966D01*
X133387401Y-57422448D01*
X133387400Y-57422447D01*
X133387398Y-57422446D01*
X133279372Y-57367404D01*
X133171344Y-57312360D01*
X132940736Y-57237432D01*
X132701245Y-57199500D01*
X132701240Y-57199500D01*
X132458760Y-57199500D01*
X132458755Y-57199500D01*
X132219263Y-57237432D01*
X131988655Y-57312360D01*
X131772598Y-57422448D01*
X131614487Y-57537322D01*
X131548681Y-57560802D01*
X131480627Y-57544976D01*
X131453921Y-57524685D01*
X130966590Y-57037355D01*
X130966588Y-57037352D01*
X130847717Y-56918481D01*
X130847716Y-56918480D01*
X130760904Y-56868360D01*
X130760904Y-56868359D01*
X130760900Y-56868358D01*
X130710785Y-56839423D01*
X130558057Y-56798499D01*
X130399943Y-56798499D01*
X130392347Y-56798499D01*
X130392331Y-56798500D01*
X126561510Y-56798500D01*
X126561494Y-56798499D01*
X126553898Y-56798499D01*
X126395783Y-56798499D01*
X126319419Y-56818961D01*
X126243054Y-56839423D01*
X126243049Y-56839426D01*
X126106130Y-56918475D01*
X126106122Y-56918481D01*
X121129481Y-61895122D01*
X121129477Y-61895127D01*
X121079997Y-61980831D01*
X121079997Y-61980832D01*
X121050423Y-62032054D01*
X121050423Y-62032055D01*
X121009499Y-62184783D01*
X121009499Y-62184785D01*
X121009499Y-62352886D01*
X121009500Y-62352899D01*
X121009500Y-114899740D01*
X120989815Y-114966779D01*
X120950293Y-115005466D01*
X120946733Y-115007647D01*
X120908286Y-115035581D01*
X120785582Y-115124731D01*
X120785580Y-115124733D01*
X120785579Y-115124733D01*
X120644733Y-115265579D01*
X120644733Y-115265580D01*
X120644731Y-115265582D01*
X120600353Y-115326663D01*
X120527647Y-115426733D01*
X120450485Y-115578172D01*
X120402510Y-115628968D01*
X120334689Y-115645763D01*
X120268554Y-115623225D01*
X120229515Y-115578172D01*
X120152483Y-115426990D01*
X120152353Y-115426734D01*
X120035269Y-115265582D01*
X119894418Y-115124731D01*
X119733266Y-115007647D01*
X119729707Y-115005466D01*
X119682833Y-114953652D01*
X119670500Y-114899740D01*
X119670500Y-113470945D01*
X119670500Y-113470943D01*
X119629577Y-113318215D01*
X119598455Y-113264310D01*
X119550520Y-113181284D01*
X119438716Y-113069480D01*
X119438715Y-113069479D01*
X119434385Y-113065149D01*
X119434374Y-113065139D01*
X113986257Y-107617022D01*
X113952772Y-107555699D01*
X113953368Y-107500378D01*
X113954332Y-107496358D01*
X113954339Y-107496339D01*
X113985500Y-107299597D01*
X113985500Y-107100403D01*
X113954339Y-106903661D01*
X113954338Y-106903657D01*
X113954338Y-106903656D01*
X113892786Y-106714219D01*
X113825718Y-106582591D01*
X113802353Y-106536734D01*
X113685269Y-106375582D01*
X113544418Y-106234731D01*
X113383266Y-106117647D01*
X113231827Y-106040485D01*
X113181031Y-105992510D01*
X113164236Y-105924689D01*
X113186773Y-105858554D01*
X113231827Y-105819515D01*
X113261611Y-105804339D01*
X113383266Y-105742353D01*
X113544418Y-105625269D01*
X113685269Y-105484418D01*
X113802353Y-105323266D01*
X113892785Y-105145783D01*
X113922029Y-105055780D01*
X113954338Y-104956343D01*
X113954338Y-104956342D01*
X113954339Y-104956339D01*
X113985500Y-104759597D01*
X113985500Y-104560403D01*
X113954339Y-104363661D01*
X113954338Y-104363657D01*
X113954338Y-104363656D01*
X113892786Y-104174219D01*
X113875982Y-104141240D01*
X113802353Y-103996734D01*
X113685269Y-103835582D01*
X113544418Y-103694731D01*
X113383266Y-103577647D01*
X113231827Y-103500485D01*
X113181031Y-103452510D01*
X113164236Y-103384689D01*
X113186773Y-103318554D01*
X113231827Y-103279515D01*
X113261611Y-103264339D01*
X113383266Y-103202353D01*
X113544418Y-103085269D01*
X113685269Y-102944418D01*
X113802353Y-102783266D01*
X113892785Y-102605783D01*
X113954339Y-102416339D01*
X113985500Y-102219597D01*
X113985500Y-102020403D01*
X113954339Y-101823661D01*
X113954338Y-101823657D01*
X113954338Y-101823656D01*
X113892786Y-101634219D01*
X113802352Y-101456733D01*
X113685269Y-101295582D01*
X113544418Y-101154731D01*
X113383266Y-101037647D01*
X113231827Y-100960485D01*
X113181031Y-100912510D01*
X113164236Y-100844689D01*
X113186773Y-100778554D01*
X113231827Y-100739515D01*
X113261611Y-100724339D01*
X113383266Y-100662353D01*
X113544418Y-100545269D01*
X113685269Y-100404418D01*
X113802353Y-100243266D01*
X113892785Y-100065783D01*
X113922029Y-99975780D01*
X113954338Y-99876343D01*
X113954338Y-99876342D01*
X113954339Y-99876339D01*
X113985500Y-99679597D01*
X113985500Y-99480403D01*
X113954339Y-99283661D01*
X113954338Y-99283657D01*
X113954338Y-99283656D01*
X113892786Y-99094219D01*
X113802352Y-98916733D01*
X113685269Y-98755582D01*
X113544418Y-98614731D01*
X113383266Y-98497647D01*
X113231827Y-98420485D01*
X113181031Y-98372510D01*
X113164236Y-98304689D01*
X113186773Y-98238554D01*
X113231827Y-98199515D01*
X113261611Y-98184339D01*
X113383266Y-98122353D01*
X113544418Y-98005269D01*
X113685269Y-97864418D01*
X113802353Y-97703266D01*
X113892785Y-97525783D01*
X113954339Y-97336339D01*
X113985500Y-97139597D01*
X113985500Y-96940403D01*
X113954339Y-96743661D01*
X113954338Y-96743657D01*
X113954338Y-96743656D01*
X113892786Y-96554219D01*
X113802352Y-96376733D01*
X113685269Y-96215582D01*
X113544418Y-96074731D01*
X113383266Y-95957647D01*
X113231827Y-95880485D01*
X113181031Y-95832510D01*
X113164236Y-95764689D01*
X113186773Y-95698554D01*
X113231827Y-95659515D01*
X113261611Y-95644339D01*
X113383266Y-95582353D01*
X113544418Y-95465269D01*
X113685269Y-95324418D01*
X113802353Y-95163266D01*
X113892785Y-94985783D01*
X113954339Y-94796339D01*
X113985500Y-94599597D01*
X113985500Y-94400403D01*
X113954339Y-94203661D01*
X113954338Y-94203657D01*
X113954338Y-94203656D01*
X113892786Y-94014219D01*
X113802352Y-93836733D01*
X113685269Y-93675582D01*
X113544418Y-93534731D01*
X113383266Y-93417647D01*
X113231827Y-93340485D01*
X113181031Y-93292510D01*
X113164236Y-93224689D01*
X113186773Y-93158554D01*
X113231827Y-93119515D01*
X113261611Y-93104339D01*
X113383266Y-93042353D01*
X113544418Y-92925269D01*
X113685269Y-92784418D01*
X113802353Y-92623266D01*
X113892785Y-92445783D01*
X113922029Y-92355780D01*
X113954338Y-92256343D01*
X113954338Y-92256342D01*
X113954339Y-92256339D01*
X113985500Y-92059597D01*
X113985500Y-91860403D01*
X113954339Y-91663661D01*
X113954338Y-91663657D01*
X113954338Y-91663656D01*
X113892786Y-91474219D01*
X113846928Y-91384217D01*
X113802353Y-91296734D01*
X113685269Y-91135582D01*
X113544418Y-90994731D01*
X113383266Y-90877647D01*
X113231827Y-90800485D01*
X113181031Y-90752510D01*
X113164236Y-90684689D01*
X113186773Y-90618554D01*
X113231827Y-90579515D01*
X113261611Y-90564339D01*
X113383266Y-90502353D01*
X113544418Y-90385269D01*
X113685269Y-90244418D01*
X113802353Y-90083266D01*
X113892785Y-89905783D01*
X113954339Y-89716339D01*
X113985500Y-89519597D01*
X113985500Y-89320403D01*
X113954339Y-89123661D01*
X113954338Y-89123657D01*
X113954338Y-89123656D01*
X113892786Y-88934219D01*
X113802352Y-88756733D01*
X113685269Y-88595582D01*
X113544418Y-88454731D01*
X113383266Y-88337647D01*
X113231827Y-88260485D01*
X113181031Y-88212510D01*
X113164236Y-88144689D01*
X113186773Y-88078554D01*
X113231827Y-88039515D01*
X113261611Y-88024339D01*
X113383266Y-87962353D01*
X113544418Y-87845269D01*
X113685269Y-87704418D01*
X113802353Y-87543266D01*
X113892785Y-87365783D01*
X113892786Y-87365780D01*
X113954338Y-87176343D01*
X113954338Y-87176342D01*
X113954339Y-87176339D01*
X113985500Y-86979597D01*
X113985500Y-86780403D01*
X113954339Y-86583661D01*
X113954338Y-86583657D01*
X113954338Y-86583656D01*
X113892786Y-86394219D01*
X113892785Y-86394217D01*
X113802353Y-86216734D01*
X113685269Y-86055582D01*
X113544418Y-85914731D01*
X113383266Y-85797647D01*
X113205780Y-85707213D01*
X113016342Y-85645661D01*
X112868782Y-85622290D01*
X112819597Y-85614500D01*
X112620403Y-85614500D01*
X112554822Y-85624887D01*
X112423659Y-85645661D01*
X112423656Y-85645661D01*
X112234219Y-85707213D01*
X112056733Y-85797647D01*
X111981095Y-85852602D01*
X111895582Y-85914731D01*
X111895580Y-85914733D01*
X111895579Y-85914733D01*
X111754733Y-86055579D01*
X111754733Y-86055580D01*
X111754731Y-86055582D01*
X111704447Y-86124790D01*
X111637647Y-86216733D01*
X111547213Y-86394219D01*
X111485661Y-86583656D01*
X111485661Y-86583659D01*
X111454500Y-86780403D01*
X105797593Y-86780403D01*
X105780161Y-86670344D01*
X105762568Y-86559265D01*
X105687638Y-86328653D01*
X105577554Y-86112602D01*
X105536125Y-86055579D01*
X105435033Y-85916437D01*
X105435029Y-85916432D01*
X105263567Y-85744970D01*
X105263562Y-85744966D01*
X105067401Y-85602448D01*
X105067400Y-85602447D01*
X105067398Y-85602446D01*
X104914421Y-85524500D01*
X104851344Y-85492360D01*
X104620736Y-85417432D01*
X104381245Y-85379500D01*
X104381240Y-85379500D01*
X102618760Y-85379500D01*
X102618755Y-85379500D01*
X102379263Y-85417432D01*
X102148655Y-85492360D01*
X101932598Y-85602448D01*
X101736437Y-85744966D01*
X101736432Y-85744970D01*
X101564970Y-85916432D01*
X101564966Y-85916437D01*
X101422448Y-86112598D01*
X101312360Y-86328655D01*
X101237432Y-86559263D01*
X101199500Y-86798754D01*
X97000500Y-86798754D01*
X97000500Y-81718754D01*
X101199500Y-81718754D01*
X101199500Y-81961245D01*
X101237432Y-82200736D01*
X101312360Y-82431344D01*
X101312362Y-82431347D01*
X101389923Y-82583569D01*
X101422448Y-82647401D01*
X101564966Y-82843562D01*
X101564970Y-82843567D01*
X101736432Y-83015029D01*
X101736437Y-83015033D01*
X101829392Y-83082568D01*
X101932602Y-83157554D01*
X102148653Y-83267638D01*
X102148655Y-83267639D01*
X102263959Y-83305103D01*
X102379265Y-83342568D01*
X102490186Y-83360136D01*
X102618755Y-83380500D01*
X102618760Y-83380500D01*
X104381245Y-83380500D01*
X104497347Y-83362110D01*
X104620735Y-83342568D01*
X104851347Y-83267638D01*
X105067398Y-83157554D01*
X105263569Y-83015028D01*
X105435028Y-82843569D01*
X105577554Y-82647398D01*
X105687638Y-82431347D01*
X105762568Y-82200735D01*
X105782110Y-82077347D01*
X105800500Y-81961245D01*
X105800500Y-81718754D01*
X105778432Y-81579431D01*
X105762568Y-81479265D01*
X105687638Y-81248653D01*
X105577554Y-81032602D01*
X105545623Y-80988653D01*
X105435033Y-80836437D01*
X105435029Y-80836432D01*
X105263567Y-80664970D01*
X105263562Y-80664966D01*
X105067401Y-80522448D01*
X105067400Y-80522447D01*
X105067398Y-80522446D01*
X104959372Y-80467404D01*
X104851344Y-80412360D01*
X104620736Y-80337432D01*
X104381245Y-80299500D01*
X104381240Y-80299500D01*
X102618760Y-80299500D01*
X102618755Y-80299500D01*
X102379263Y-80337432D01*
X102148655Y-80412360D01*
X101932598Y-80522448D01*
X101736437Y-80664966D01*
X101736432Y-80664970D01*
X101564970Y-80836432D01*
X101564966Y-80836437D01*
X101422448Y-81032598D01*
X101312360Y-81248655D01*
X101237432Y-81479263D01*
X101199500Y-81718754D01*
X97000500Y-81718754D01*
X97000500Y-76638754D01*
X101199500Y-76638754D01*
X101199500Y-76881245D01*
X101237432Y-77120736D01*
X101312360Y-77351344D01*
X101312362Y-77351347D01*
X101389923Y-77503569D01*
X101422448Y-77567401D01*
X101564966Y-77763562D01*
X101564970Y-77763567D01*
X101736432Y-77935029D01*
X101736437Y-77935033D01*
X101829392Y-78002568D01*
X101932602Y-78077554D01*
X102148653Y-78187638D01*
X102148655Y-78187639D01*
X102263959Y-78225103D01*
X102379265Y-78262568D01*
X102490186Y-78280136D01*
X102618755Y-78300500D01*
X102618760Y-78300500D01*
X104381245Y-78300500D01*
X104497347Y-78282110D01*
X104620735Y-78262568D01*
X104851347Y-78187638D01*
X105067398Y-78077554D01*
X105263569Y-77935028D01*
X105435028Y-77763569D01*
X105577554Y-77567398D01*
X105687638Y-77351347D01*
X105762568Y-77120735D01*
X105782110Y-76997347D01*
X105800500Y-76881245D01*
X105800500Y-76638754D01*
X105778432Y-76499431D01*
X105762568Y-76399265D01*
X105687638Y-76168653D01*
X105577554Y-75952602D01*
X105545623Y-75908653D01*
X105435033Y-75756437D01*
X105435029Y-75756432D01*
X105263567Y-75584970D01*
X105263562Y-75584966D01*
X105067401Y-75442448D01*
X105067400Y-75442447D01*
X105067398Y-75442446D01*
X104959372Y-75387404D01*
X104851344Y-75332360D01*
X104620736Y-75257432D01*
X104381245Y-75219500D01*
X104381240Y-75219500D01*
X102618760Y-75219500D01*
X102618755Y-75219500D01*
X102379263Y-75257432D01*
X102148655Y-75332360D01*
X101932598Y-75442448D01*
X101736437Y-75584966D01*
X101736432Y-75584970D01*
X101564970Y-75756432D01*
X101564966Y-75756437D01*
X101422448Y-75952598D01*
X101312360Y-76168655D01*
X101237432Y-76399263D01*
X101199500Y-76638754D01*
X97000500Y-76638754D01*
X97000500Y-71558754D01*
X101199500Y-71558754D01*
X101199500Y-71801245D01*
X101237432Y-72040736D01*
X101312360Y-72271344D01*
X101312362Y-72271347D01*
X101389923Y-72423569D01*
X101422448Y-72487401D01*
X101564966Y-72683562D01*
X101564970Y-72683567D01*
X101736432Y-72855029D01*
X101736437Y-72855033D01*
X101829392Y-72922568D01*
X101932602Y-72997554D01*
X102148653Y-73107638D01*
X102148655Y-73107639D01*
X102263959Y-73145103D01*
X102379265Y-73182568D01*
X102490186Y-73200136D01*
X102618755Y-73220500D01*
X102618760Y-73220500D01*
X104381245Y-73220500D01*
X104497347Y-73202110D01*
X104620735Y-73182568D01*
X104851347Y-73107638D01*
X105067398Y-72997554D01*
X105263569Y-72855028D01*
X105435028Y-72683569D01*
X105577554Y-72487398D01*
X105687638Y-72271347D01*
X105762568Y-72040735D01*
X105788780Y-71875238D01*
X105800500Y-71801245D01*
X105800500Y-71558754D01*
X105778432Y-71419431D01*
X105762568Y-71319265D01*
X105687638Y-71088653D01*
X105577554Y-70872602D01*
X105470287Y-70724961D01*
X105435033Y-70676437D01*
X105435029Y-70676432D01*
X105263567Y-70504970D01*
X105263562Y-70504966D01*
X105067401Y-70362448D01*
X105067400Y-70362447D01*
X105067398Y-70362446D01*
X104928532Y-70291690D01*
X104851344Y-70252360D01*
X104620736Y-70177432D01*
X104381245Y-70139500D01*
X104381240Y-70139500D01*
X102618760Y-70139500D01*
X102618755Y-70139500D01*
X102379263Y-70177432D01*
X102148655Y-70252360D01*
X101932598Y-70362448D01*
X101736437Y-70504966D01*
X101736432Y-70504970D01*
X101564970Y-70676432D01*
X101564966Y-70676437D01*
X101422448Y-70872598D01*
X101312360Y-71088655D01*
X101237432Y-71319263D01*
X101199500Y-71558754D01*
X97000500Y-71558754D01*
X97000500Y-69852486D01*
X112749500Y-69852486D01*
X112749500Y-70147513D01*
X112768482Y-70291690D01*
X112788007Y-70439993D01*
X112805418Y-70504972D01*
X112864361Y-70724951D01*
X112864364Y-70724961D01*
X112977254Y-70997500D01*
X112977258Y-70997510D01*
X113124761Y-71252993D01*
X113304352Y-71487040D01*
X113304358Y-71487047D01*
X113512952Y-71695641D01*
X113512959Y-71695647D01*
X113747006Y-71875238D01*
X114002489Y-72022741D01*
X114002490Y-72022741D01*
X114002493Y-72022743D01*
X114275048Y-72135639D01*
X114560007Y-72211993D01*
X114852494Y-72250500D01*
X114852501Y-72250500D01*
X115147499Y-72250500D01*
X115147506Y-72250500D01*
X115439993Y-72211993D01*
X115724952Y-72135639D01*
X115997507Y-72022743D01*
X116252994Y-71875238D01*
X116487042Y-71695646D01*
X116695646Y-71487042D01*
X116875238Y-71252994D01*
X117022743Y-70997507D01*
X117135639Y-70724952D01*
X117211993Y-70439993D01*
X117250500Y-70147506D01*
X117250500Y-69852494D01*
X117211993Y-69560007D01*
X117135639Y-69275048D01*
X117022743Y-69002493D01*
X116875238Y-68747006D01*
X116695646Y-68512958D01*
X116695641Y-68512952D01*
X116487047Y-68304358D01*
X116487040Y-68304352D01*
X116252993Y-68124761D01*
X115997510Y-67977258D01*
X115997500Y-67977254D01*
X115724961Y-67864364D01*
X115724954Y-67864362D01*
X115724952Y-67864361D01*
X115439993Y-67788007D01*
X115391113Y-67781571D01*
X115147513Y-67749500D01*
X115147506Y-67749500D01*
X114852494Y-67749500D01*
X114852486Y-67749500D01*
X114574085Y-67786153D01*
X114560007Y-67788007D01*
X114356385Y-67842567D01*
X114275048Y-67864361D01*
X114275038Y-67864364D01*
X114002499Y-67977254D01*
X114002489Y-67977258D01*
X113747006Y-68124761D01*
X113512959Y-68304352D01*
X113512952Y-68304358D01*
X113304358Y-68512952D01*
X113304352Y-68512959D01*
X113124761Y-68747006D01*
X112977258Y-69002489D01*
X112977254Y-69002499D01*
X112864364Y-69275038D01*
X112864361Y-69275048D01*
X112788008Y-69560004D01*
X112788006Y-69560015D01*
X112749500Y-69852486D01*
X97000500Y-69852486D01*
X97000500Y-66478754D01*
X101199500Y-66478754D01*
X101199500Y-66721245D01*
X101237432Y-66960736D01*
X101312360Y-67191344D01*
X101312362Y-67191347D01*
X101389923Y-67343569D01*
X101422448Y-67407401D01*
X101564966Y-67603562D01*
X101564970Y-67603567D01*
X101736432Y-67775029D01*
X101736437Y-67775033D01*
X101829392Y-67842568D01*
X101932602Y-67917554D01*
X102148653Y-68027638D01*
X102148655Y-68027639D01*
X102263959Y-68065103D01*
X102379265Y-68102568D01*
X102490186Y-68120136D01*
X102618755Y-68140500D01*
X102618760Y-68140500D01*
X104381245Y-68140500D01*
X104497347Y-68122110D01*
X104620735Y-68102568D01*
X104851347Y-68027638D01*
X105067398Y-67917554D01*
X105263569Y-67775028D01*
X105435028Y-67603569D01*
X105577554Y-67407398D01*
X105687638Y-67191347D01*
X105762568Y-66960735D01*
X105782110Y-66837347D01*
X105800500Y-66721245D01*
X105800500Y-66478754D01*
X105778432Y-66339431D01*
X105762568Y-66239265D01*
X105687638Y-66008653D01*
X105577554Y-65792602D01*
X105545623Y-65748653D01*
X105435033Y-65596437D01*
X105435029Y-65596432D01*
X105263567Y-65424970D01*
X105263562Y-65424966D01*
X105067401Y-65282448D01*
X105067400Y-65282447D01*
X105067398Y-65282446D01*
X104959372Y-65227404D01*
X104851344Y-65172360D01*
X104620736Y-65097432D01*
X104381245Y-65059500D01*
X104381240Y-65059500D01*
X102618760Y-65059500D01*
X102618755Y-65059500D01*
X102379263Y-65097432D01*
X102148655Y-65172360D01*
X101932598Y-65282448D01*
X101736437Y-65424966D01*
X101736432Y-65424970D01*
X101564970Y-65596432D01*
X101564966Y-65596437D01*
X101422448Y-65792598D01*
X101312360Y-66008655D01*
X101237432Y-66239263D01*
X101199500Y-66478754D01*
X97000500Y-66478754D01*
X97000500Y-61398754D01*
X101199500Y-61398754D01*
X101199500Y-61641245D01*
X101237432Y-61880736D01*
X101312360Y-62111344D01*
X101312362Y-62111347D01*
X101389923Y-62263569D01*
X101422448Y-62327401D01*
X101564966Y-62523562D01*
X101564970Y-62523567D01*
X101736432Y-62695029D01*
X101736437Y-62695033D01*
X101829392Y-62762568D01*
X101932602Y-62837554D01*
X102148653Y-62947638D01*
X102148655Y-62947639D01*
X102263959Y-62985103D01*
X102379265Y-63022568D01*
X102490186Y-63040136D01*
X102618755Y-63060500D01*
X102618760Y-63060500D01*
X104381245Y-63060500D01*
X104497347Y-63042110D01*
X104620735Y-63022568D01*
X104851347Y-62947638D01*
X105067398Y-62837554D01*
X105263569Y-62695028D01*
X105435028Y-62523569D01*
X105577554Y-62327398D01*
X105687638Y-62111347D01*
X105762568Y-61880735D01*
X105782110Y-61757347D01*
X105800500Y-61641245D01*
X105800500Y-61398754D01*
X105769463Y-61202798D01*
X105762568Y-61159265D01*
X105687638Y-60928653D01*
X105577554Y-60712602D01*
X105545623Y-60668653D01*
X105435033Y-60516437D01*
X105435029Y-60516432D01*
X105263567Y-60344970D01*
X105263562Y-60344966D01*
X105067401Y-60202448D01*
X105067400Y-60202447D01*
X105067398Y-60202446D01*
X104906241Y-60120332D01*
X104851344Y-60092360D01*
X104620736Y-60017432D01*
X104381245Y-59979500D01*
X104381240Y-59979500D01*
X102618760Y-59979500D01*
X102618755Y-59979500D01*
X102379263Y-60017432D01*
X102148655Y-60092360D01*
X101932598Y-60202448D01*
X101736437Y-60344966D01*
X101736432Y-60344970D01*
X101564970Y-60516432D01*
X101564966Y-60516437D01*
X101422448Y-60712598D01*
X101312360Y-60928655D01*
X101237432Y-61159263D01*
X101199500Y-61398754D01*
X97000500Y-61398754D01*
X97000500Y-56318754D01*
X101199500Y-56318754D01*
X101199500Y-56561245D01*
X101237432Y-56800736D01*
X101312360Y-57031344D01*
X101315423Y-57037355D01*
X101417616Y-57237919D01*
X101422448Y-57247401D01*
X101564966Y-57443562D01*
X101564970Y-57443567D01*
X101736432Y-57615029D01*
X101736437Y-57615033D01*
X101867148Y-57709999D01*
X101932602Y-57757554D01*
X102148653Y-57867638D01*
X102148655Y-57867639D01*
X102263959Y-57905103D01*
X102379265Y-57942568D01*
X102490186Y-57960136D01*
X102618755Y-57980500D01*
X102618760Y-57980500D01*
X104381245Y-57980500D01*
X104497347Y-57962110D01*
X104620735Y-57942568D01*
X104851347Y-57867638D01*
X105067398Y-57757554D01*
X105263569Y-57615028D01*
X105435028Y-57443569D01*
X105577554Y-57247398D01*
X105687638Y-57031347D01*
X105762568Y-56800735D01*
X105782110Y-56677347D01*
X105800500Y-56561245D01*
X105800500Y-56318754D01*
X105778432Y-56179431D01*
X105762568Y-56079265D01*
X105687638Y-55848653D01*
X105577554Y-55632602D01*
X105559345Y-55607539D01*
X105435033Y-55436437D01*
X105435029Y-55436432D01*
X105338579Y-55339982D01*
X165699500Y-55339982D01*
X165699500Y-57020017D01*
X165710000Y-57122796D01*
X165742343Y-57220399D01*
X165765186Y-57289335D01*
X165857288Y-57438656D01*
X165981344Y-57562712D01*
X166130665Y-57654814D01*
X166297202Y-57709999D01*
X166399990Y-57720500D01*
X166399995Y-57720500D01*
X169600005Y-57720500D01*
X169600010Y-57720500D01*
X169702798Y-57709999D01*
X169869335Y-57654814D01*
X170018656Y-57562712D01*
X170142712Y-57438656D01*
X170234814Y-57289335D01*
X170289999Y-57122798D01*
X170300500Y-57020010D01*
X170300500Y-55339990D01*
X170289999Y-55237202D01*
X170234814Y-55070665D01*
X170142712Y-54921344D01*
X170018656Y-54797288D01*
X169869335Y-54705186D01*
X169702798Y-54650001D01*
X169702796Y-54650000D01*
X169600017Y-54639500D01*
X169600010Y-54639500D01*
X166399990Y-54639500D01*
X166399982Y-54639500D01*
X166297203Y-54650000D01*
X166297202Y-54650001D01*
X166214669Y-54677349D01*
X166130667Y-54705185D01*
X166130662Y-54705187D01*
X165981342Y-54797289D01*
X165857289Y-54921342D01*
X165765187Y-55070662D01*
X165765186Y-55070665D01*
X165710001Y-55237202D01*
X165710001Y-55237203D01*
X165710000Y-55237203D01*
X165699500Y-55339982D01*
X105338579Y-55339982D01*
X105263567Y-55264970D01*
X105263562Y-55264966D01*
X105067401Y-55122448D01*
X105067400Y-55122447D01*
X105067398Y-55122446D01*
X104959372Y-55067404D01*
X104851344Y-55012360D01*
X104620736Y-54937432D01*
X104381245Y-54899500D01*
X104381240Y-54899500D01*
X102618760Y-54899500D01*
X102618755Y-54899500D01*
X102379263Y-54937432D01*
X102148655Y-55012360D01*
X101932598Y-55122448D01*
X101736437Y-55264966D01*
X101736432Y-55264970D01*
X101564970Y-55436432D01*
X101564966Y-55436437D01*
X101422448Y-55632598D01*
X101312360Y-55848655D01*
X101237432Y-56079263D01*
X101199500Y-56318754D01*
X97000500Y-56318754D01*
X97000500Y-53124500D01*
X97020185Y-53057461D01*
X97072989Y-53011706D01*
X97124500Y-53000500D01*
X173375500Y-53000500D01*
X173442539Y-53020185D01*
G37*
%TD.AperFunction*%
%TD*%
M02*
