M48
; DRILL file {KiCad 9.0.6} date 2026-02-03T15:32:41-0800
; FORMAT={-:-/ absolute / metric / decimal}
; #@! TF.CreationDate,2026-02-03T15:32:41-08:00
; #@! TF.GenerationSoftware,Kicad,Pcbnew,9.0.6
; #@! TF.FileFunction,Plated,1,2,PTH
FMAT,2
METRIC
; #@! TA.AperFunction,Plated,PTH,ComponentDrill
T1C1.020
; #@! TA.AperFunction,Plated,PTH,ComponentDrill
T2C1.100
; #@! TA.AperFunction,Plated,PTH,ComponentDrill
T3C1.400
%
G90
G05
T1
X93.88Y-81.95
X93.88Y-84.49
X93.88Y-87.03
X93.88Y-89.57
X93.88Y-92.11
X93.88Y-94.65
X93.88Y-97.19
X93.88Y-99.73
X93.88Y-102.27
X93.88Y-104.81
X93.88Y-107.35
X93.88Y-109.89
X93.88Y-112.43
X93.88Y-114.97
X93.88Y-117.51
X93.88Y-120.05
X109.12Y-92.11
X109.12Y-94.65
X109.12Y-97.19
X109.12Y-99.73
X109.12Y-102.27
X109.12Y-104.81
X109.12Y-107.35
X109.12Y-109.89
X137.53Y-86.79
X137.53Y-89.33
X137.53Y-91.87
X137.53Y-94.41
X137.53Y-96.95
X137.53Y-99.49
X137.53Y-102.03
X137.53Y-104.57
X137.53Y-107.11
X137.53Y-109.65
X141.34Y-116.0
X143.88Y-116.0
X146.42Y-116.0
X148.96Y-116.0
X151.5Y-116.0
X155.31Y-86.79
X155.31Y-89.33
X155.31Y-91.87
X155.31Y-94.41
X155.31Y-96.95
X155.31Y-99.49
X155.31Y-102.03
X155.31Y-104.57
X155.31Y-107.11
X155.31Y-109.65
T2
X115.88Y-86.76
X115.88Y-89.3
X115.88Y-91.84
X115.88Y-94.38
X115.88Y-96.92
X115.88Y-99.46
X115.88Y-102.0
X115.88Y-104.54
X115.88Y-107.08
X115.88Y-109.62
X115.88Y-112.16
X115.88Y-114.7
X124.0Y-75.0
X124.0Y-79.5
X130.5Y-75.0
X130.5Y-79.5
X131.12Y-86.76
X131.12Y-89.3
X131.12Y-91.84
X131.12Y-94.38
X131.12Y-96.92
X131.12Y-99.46
X131.12Y-102.0
X131.12Y-104.54
X131.12Y-107.08
X131.12Y-109.62
X131.12Y-112.16
X131.12Y-114.7
T3
X85.5Y-56.68
X85.5Y-61.76
X85.5Y-66.84
X85.5Y-71.92
X85.5Y-77.0
X85.5Y-82.08
X85.5Y-87.16
X85.5Y-92.24
X85.5Y-98.94
X85.5Y-104.02
X85.5Y-109.1
X85.5Y-114.18
X85.5Y-119.26
X85.5Y-124.34
X85.5Y-129.42
X85.5Y-134.5
X95.84Y-59.0
X100.92Y-59.0
X106.0Y-59.0
X111.08Y-59.0
X116.16Y-59.0
X121.24Y-59.0
X126.32Y-59.0
X131.4Y-59.0
X135.26Y-130.0
X140.34Y-130.0
X142.34Y-59.0
X145.42Y-130.0
X147.42Y-59.0
X150.5Y-130.0
X152.5Y-59.0
X157.58Y-59.0
X168.0Y-56.18
X168.0Y-61.26
X168.0Y-66.34
X168.0Y-71.42
X168.0Y-76.5
X168.0Y-81.58
X168.0Y-86.66
X168.0Y-91.74
X168.0Y-98.42
X168.0Y-103.5
X168.0Y-108.58
X168.0Y-113.66
X168.0Y-118.74
X168.0Y-123.82
X168.0Y-128.9
X168.0Y-133.98
M30
