%TF.GenerationSoftware,KiCad,Pcbnew,9.0.6*%
%TF.CreationDate,2026-02-03T15:32:43-08:00*%
%TF.ProjectId,FlightSimIOBoard,466c6967-6874-4536-996d-494f426f6172,rev?*%
%TF.SameCoordinates,Original*%
%TF.FileFunction,Copper,L1,Top*%
%TF.FilePolarity,Positive*%
%FSLAX46Y46*%
G04 Gerber Fmt 4.6, Leading zero omitted, Abs format (unit mm)*
G04 Created by KiCad (PCBNEW 9.0.6) date 2026-02-03 15:32:43*
%MOMM*%
%LPD*%
G01*
G04 APERTURE LIST*
G04 Aperture macros list*
%AMRoundRect*
0 Rectangle with rounded corners*
0 $1 Rounding radius*
0 $2 $3 $4 $5 $6 $7 $8 $9 X,Y pos of 4 corners*
0 Add a 4 corners polygon primitive as box body*
4,1,4,$2,$3,$4,$5,$6,$7,$8,$9,$2,$3,0*
0 Add four circle primitives for the rounded corners*
1,1,$1+$1,$2,$3*
1,1,$1+$1,$4,$5*
1,1,$1+$1,$6,$7*
1,1,$1+$1,$8,$9*
0 Add four rect primitives between the rounded corners*
20,1,$1+$1,$2,$3,$4,$5,0*
20,1,$1+$1,$4,$5,$6,$7,0*
20,1,$1+$1,$6,$7,$8,$9,0*
20,1,$1+$1,$8,$9,$2,$3,0*%
G04 Aperture macros list end*
%TA.AperFunction,ComponentPad*%
%ADD10C,1.530000*%
%TD*%
%TA.AperFunction,ComponentPad*%
%ADD11RoundRect,0.249999X-1.550001X0.790001X-1.550001X-0.790001X1.550001X-0.790001X1.550001X0.790001X0*%
%TD*%
%TA.AperFunction,ComponentPad*%
%ADD12O,3.600000X2.080000*%
%TD*%
%TA.AperFunction,ComponentPad*%
%ADD13R,1.530000X1.530000*%
%TD*%
%TA.AperFunction,ComponentPad*%
%ADD14RoundRect,0.249999X1.550001X-0.790001X1.550001X0.790001X-1.550001X0.790001X-1.550001X-0.790001X0*%
%TD*%
%TA.AperFunction,SMDPad,CuDef*%
%ADD15RoundRect,0.500000X-0.500000X-1.500000X0.500000X-1.500000X0.500000X1.500000X-0.500000X1.500000X0*%
%TD*%
%TA.AperFunction,SMDPad,CuDef*%
%ADD16R,0.635000X1.270000*%
%TD*%
%TA.AperFunction,ComponentPad*%
%ADD17R,1.600000X1.600000*%
%TD*%
%TA.AperFunction,ComponentPad*%
%ADD18C,1.600000*%
%TD*%
%TA.AperFunction,ComponentPad*%
%ADD19RoundRect,0.249999X-0.790001X-1.550001X0.790001X-1.550001X0.790001X1.550001X-0.790001X1.550001X0*%
%TD*%
%TA.AperFunction,ComponentPad*%
%ADD20O,2.080000X3.600000*%
%TD*%
%TA.AperFunction,ComponentPad*%
%ADD21C,2.000000*%
%TD*%
%TA.AperFunction,ComponentPad*%
%ADD22RoundRect,0.249999X0.790001X1.550001X-0.790001X1.550001X-0.790001X-1.550001X0.790001X-1.550001X0*%
%TD*%
%TA.AperFunction,Conductor*%
%ADD23C,0.200000*%
%TD*%
G04 APERTURE END LIST*
D10*
%TO.P,U3,G1,GND*%
%TO.N,GND*%
X137530000Y-109650000D03*
%TO.P,U3,G2,GND*%
X141340000Y-116000000D03*
%TO.P,U3,G3,GND*%
X155310000Y-109650000D03*
%TO.P,U3,INT,INT*%
X151500000Y-116000000D03*
%TO.P,U3,P00,P00*%
%TO.N,Net-(J6-Pin_8)*%
X155310000Y-104570000D03*
%TO.P,U3,P01,P01*%
%TO.N,Net-(J6-Pin_7)*%
X155310000Y-102030000D03*
%TO.P,U3,P02,P02*%
%TO.N,Net-(J6-Pin_6)*%
X155310000Y-99490000D03*
%TO.P,U3,P03,P03*%
%TO.N,Net-(J6-Pin_5)*%
X155310000Y-96950000D03*
%TO.P,U3,P04,P04*%
%TO.N,Net-(J6-Pin_4)*%
X155310000Y-94410000D03*
%TO.P,U3,P05,P05*%
%TO.N,Net-(J6-Pin_3)*%
X155310000Y-91870000D03*
%TO.P,U3,P06,P06*%
%TO.N,Net-(J6-Pin_2)*%
X155310000Y-89330000D03*
%TO.P,U3,P07,P07*%
%TO.N,Net-(J6-Pin_1)*%
X155310000Y-86790000D03*
%TO.P,U3,P10,P10*%
%TO.N,Net-(J5-Pin_8)*%
X137530000Y-86790000D03*
%TO.P,U3,P11,P11*%
%TO.N,Net-(J5-Pin_7)*%
X137530000Y-89330000D03*
%TO.P,U3,P12,P12*%
%TO.N,Net-(J5-Pin_6)*%
X137530000Y-91870000D03*
%TO.P,U3,P13,P13*%
%TO.N,Net-(J5-Pin_5)*%
X137530000Y-94410000D03*
%TO.P,U3,P14,P14*%
%TO.N,Net-(J5-Pin_4)*%
X137530000Y-96950000D03*
%TO.P,U3,P15,P15*%
%TO.N,Net-(J5-Pin_3)*%
X137530000Y-99490000D03*
%TO.P,U3,P16,P16*%
%TO.N,Net-(J5-Pin_2)*%
X137530000Y-102030000D03*
%TO.P,U3,P17,P17*%
%TO.N,Net-(J5-Pin_1)*%
X137530000Y-104570000D03*
%TO.P,U3,SCL,SCL*%
%TO.N,SCL*%
X148960000Y-116000000D03*
%TO.P,U3,SDA,SDA*%
%TO.N,SDA*%
X146420000Y-116000000D03*
%TO.P,U3,VCC,VCC*%
%TO.N,+5V*%
X143880000Y-116000000D03*
%TO.P,U3,VD1,VDD*%
X137530000Y-107110000D03*
%TO.P,U3,VD2,VDD*%
X155310000Y-107110000D03*
%TD*%
D11*
%TO.P,J6,1,Pin_1*%
%TO.N,Net-(J6-Pin_1)*%
X168000000Y-98420000D03*
D12*
%TO.P,J6,2,Pin_2*%
%TO.N,Net-(J6-Pin_2)*%
X168000000Y-103500000D03*
%TO.P,J6,3,Pin_3*%
%TO.N,Net-(J6-Pin_3)*%
X168000000Y-108580000D03*
%TO.P,J6,4,Pin_4*%
%TO.N,Net-(J6-Pin_4)*%
X168000000Y-113660000D03*
%TO.P,J6,5,Pin_5*%
%TO.N,Net-(J6-Pin_5)*%
X168000000Y-118740000D03*
%TO.P,J6,6,Pin_6*%
%TO.N,Net-(J6-Pin_6)*%
X168000000Y-123820000D03*
%TO.P,J6,7,Pin_7*%
%TO.N,Net-(J6-Pin_7)*%
X168000000Y-128900000D03*
%TO.P,J6,8,Pin_8*%
%TO.N,Net-(J6-Pin_8)*%
X168000000Y-133980000D03*
%TD*%
D10*
%TO.P,U2,JP1-1,C0*%
%TO.N,Net-(J1-Pin_1)*%
X93880000Y-120050000D03*
%TO.P,U2,JP1-2,C1*%
%TO.N,Net-(J1-Pin_2)*%
X93880000Y-117510000D03*
%TO.P,U2,JP1-3,C2*%
%TO.N,Net-(J1-Pin_3)*%
X93880000Y-114970000D03*
%TO.P,U2,JP1-4,C3*%
%TO.N,Net-(J1-Pin_4)*%
X93880000Y-112430000D03*
%TO.P,U2,JP1-5,C4*%
%TO.N,Net-(J1-Pin_5)*%
X93880000Y-109890000D03*
%TO.P,U2,JP1-6,C5*%
%TO.N,Net-(J1-Pin_6)*%
X93880000Y-107350000D03*
%TO.P,U2,JP1-7,C6*%
%TO.N,Net-(J1-Pin_7)*%
X93880000Y-104810000D03*
%TO.P,U2,JP1-8,C7*%
%TO.N,Net-(J1-Pin_8)*%
X93880000Y-102270000D03*
%TO.P,U2,JP1-9,C8*%
%TO.N,Net-(J2-Pin_1)*%
X93880000Y-99730000D03*
%TO.P,U2,JP1-10,C9*%
%TO.N,Net-(J2-Pin_2)*%
X93880000Y-97190000D03*
%TO.P,U2,JP1-11,C10*%
%TO.N,Net-(J2-Pin_3)*%
X93880000Y-94650000D03*
%TO.P,U2,JP1-12,C11*%
%TO.N,Net-(J2-Pin_4)*%
X93880000Y-92110000D03*
%TO.P,U2,JP1-13,C12*%
%TO.N,Net-(J2-Pin_5)*%
X93880000Y-89570000D03*
%TO.P,U2,JP1-14,C13*%
%TO.N,Net-(J2-Pin_6)*%
X93880000Y-87030000D03*
%TO.P,U2,JP1-15,C14*%
%TO.N,Net-(J2-Pin_7)*%
X93880000Y-84490000D03*
%TO.P,U2,JP1-16,C15*%
%TO.N,Net-(J2-Pin_8)*%
X93880000Y-81950000D03*
D13*
%TO.P,U2,JP3-1,GND*%
%TO.N,GND*%
X109120000Y-109890000D03*
D10*
%TO.P,U2,JP3-2,VCC*%
%TO.N,+5V*%
X109120000Y-107350000D03*
%TO.P,U2,JP3-3,EN*%
%TO.N,GND*%
X109120000Y-104810000D03*
%TO.P,U2,JP3-4,S0*%
%TO.N,Net-(J3-Pin_1)*%
X109120000Y-102270000D03*
%TO.P,U2,JP3-5,S1*%
%TO.N,Net-(J3-Pin_2)*%
X109120000Y-99730000D03*
%TO.P,U2,JP3-6,S2*%
%TO.N,Net-(J3-Pin_3)*%
X109120000Y-97190000D03*
%TO.P,U2,JP3-7,S3*%
%TO.N,Net-(J3-Pin_4)*%
X109120000Y-94650000D03*
%TO.P,U2,JP3-8,COM*%
%TO.N,Net-(J7-Pin_1)*%
X109120000Y-92110000D03*
%TD*%
D14*
%TO.P,J2,1,Pin_1*%
%TO.N,Net-(J2-Pin_1)*%
X85500000Y-92240000D03*
D12*
%TO.P,J2,2,Pin_2*%
%TO.N,Net-(J2-Pin_2)*%
X85500000Y-87160000D03*
%TO.P,J2,3,Pin_3*%
%TO.N,Net-(J2-Pin_3)*%
X85500000Y-82080000D03*
%TO.P,J2,4,Pin_4*%
%TO.N,Net-(J2-Pin_4)*%
X85500000Y-77000000D03*
%TO.P,J2,5,Pin_5*%
%TO.N,Net-(J2-Pin_5)*%
X85500000Y-71920000D03*
%TO.P,J2,6,Pin_6*%
%TO.N,Net-(J2-Pin_6)*%
X85500000Y-66840000D03*
%TO.P,J2,7,Pin_7*%
%TO.N,Net-(J2-Pin_7)*%
X85500000Y-61760000D03*
%TO.P,J2,8,Pin_8*%
%TO.N,Net-(J2-Pin_8)*%
X85500000Y-56680000D03*
%TD*%
D11*
%TO.P,J5,1,Pin_1*%
%TO.N,Net-(J5-Pin_1)*%
X168000000Y-56180000D03*
D12*
%TO.P,J5,2,Pin_2*%
%TO.N,Net-(J5-Pin_2)*%
X168000000Y-61260000D03*
%TO.P,J5,3,Pin_3*%
%TO.N,Net-(J5-Pin_3)*%
X168000000Y-66340000D03*
%TO.P,J5,4,Pin_4*%
%TO.N,Net-(J5-Pin_4)*%
X168000000Y-71420000D03*
%TO.P,J5,5,Pin_5*%
%TO.N,Net-(J5-Pin_5)*%
X168000000Y-76500000D03*
%TO.P,J5,6,Pin_6*%
%TO.N,Net-(J5-Pin_6)*%
X168000000Y-81580000D03*
%TO.P,J5,7,Pin_7*%
%TO.N,Net-(J5-Pin_7)*%
X168000000Y-86660000D03*
%TO.P,J5,8,Pin_8*%
%TO.N,Net-(J5-Pin_8)*%
X168000000Y-91740000D03*
%TD*%
D15*
%TO.P,J7,1,Pin_1*%
%TO.N,Net-(J7-Pin_1)*%
X137000000Y-58500000D03*
%TD*%
D16*
%TO.P,JP1,1,A*%
%TO.N,Net-(J7-Pin_1)*%
X115500000Y-69946800D03*
%TO.P,JP1,2,B*%
%TO.N,A1*%
X116312800Y-69946800D03*
%TD*%
D17*
%TO.P,U1,1,TX*%
%TO.N,unconnected-(U1-TX-Pad1)*%
X131120000Y-114700000D03*
D18*
%TO.P,U1,2,RX*%
%TO.N,unconnected-(U1-RX-Pad2)*%
X131120000Y-112160000D03*
%TO.P,U1,3,GND*%
%TO.N,GND*%
X131120000Y-109620000D03*
%TO.P,U1,4,GND*%
X131120000Y-107080000D03*
%TO.P,U1,5,SDA*%
%TO.N,SDA*%
X131120000Y-104540000D03*
%TO.P,U1,6,SCL*%
%TO.N,SCL*%
X131120000Y-102000000D03*
%TO.P,U1,7,D4*%
%TO.N,A6*%
X131120000Y-99460000D03*
%TO.P,U1,8,C6*%
%TO.N,unconnected-(U1-C6-Pad8)*%
X131120000Y-96920000D03*
%TO.P,U1,9,D7*%
%TO.N,unconnected-(U1-D7-Pad9)*%
X131120000Y-94380000D03*
%TO.P,U1,10,E6*%
%TO.N,unconnected-(U1-E6-Pad10)*%
X131120000Y-91840000D03*
%TO.P,U1,11,B4*%
%TO.N,unconnected-(U1-B4-Pad11)*%
X131120000Y-89300000D03*
%TO.P,U1,12,B5*%
%TO.N,unconnected-(U1-B5-Pad12)*%
X131120000Y-86760000D03*
%TO.P,U1,13,B6*%
%TO.N,Net-(J3-Pin_4)*%
X115880000Y-86760000D03*
%TO.P,U1,14,B2*%
%TO.N,Net-(J3-Pin_3)*%
X115880000Y-89300000D03*
%TO.P,U1,15,B3*%
%TO.N,Net-(J3-Pin_2)*%
X115880000Y-91840000D03*
%TO.P,U1,16,B1*%
%TO.N,Net-(J3-Pin_1)*%
X115880000Y-94380000D03*
%TO.P,U1,17,F7*%
%TO.N,Net-(J7-Pin_1)*%
X115880000Y-96920000D03*
%TO.P,U1,18,F6*%
%TO.N,A1*%
X115880000Y-99460000D03*
%TO.P,U1,19,F5*%
%TO.N,A2*%
X115880000Y-102000000D03*
%TO.P,U1,20,F4*%
%TO.N,A3*%
X115880000Y-104540000D03*
%TO.P,U1,21,VCC*%
%TO.N,+5V*%
X115880000Y-107080000D03*
%TO.P,U1,22,RST*%
%TO.N,Net-(U1-RST)*%
X115880000Y-109620000D03*
%TO.P,U1,23,GND*%
%TO.N,GND*%
X115880000Y-112160000D03*
%TO.P,U1,24,RAW*%
%TO.N,unconnected-(U1-RAW-Pad24)*%
X115880000Y-114700000D03*
%TD*%
D19*
%TO.P,J4,1,Pin_1*%
%TO.N,SCL*%
X142340000Y-59000000D03*
D20*
%TO.P,J4,2,Pin_2*%
%TO.N,SDA*%
X147420000Y-59000000D03*
%TO.P,J4,3,Pin_3*%
%TO.N,+5V*%
X152500000Y-59000000D03*
%TO.P,J4,4,Pin_4*%
%TO.N,GND*%
X157580000Y-59000000D03*
%TD*%
D16*
%TO.P,JP3,1,A*%
%TO.N,Net-(J7-Pin_1)*%
X115500000Y-76315600D03*
%TO.P,JP3,2,B*%
%TO.N,A3*%
X116312800Y-76315600D03*
%TD*%
D19*
%TO.P,J3,1,Pin_1*%
%TO.N,Net-(J3-Pin_1)*%
X95840000Y-59000000D03*
D20*
%TO.P,J3,2,Pin_2*%
%TO.N,Net-(J3-Pin_2)*%
X100920000Y-59000000D03*
%TO.P,J3,3,Pin_3*%
%TO.N,Net-(J3-Pin_3)*%
X106000000Y-59000000D03*
%TO.P,J3,4,Pin_4*%
%TO.N,Net-(J3-Pin_4)*%
X111080000Y-59000000D03*
%TO.P,J3,5,Pin_5*%
%TO.N,A1*%
X116160000Y-59000000D03*
%TO.P,J3,6,Pin_6*%
%TO.N,A2*%
X121240000Y-59000000D03*
%TO.P,J3,7,Pin_7*%
%TO.N,A3*%
X126320000Y-59000000D03*
%TO.P,J3,8,Pin_8*%
%TO.N,A6*%
X131400000Y-59000000D03*
%TD*%
D21*
%TO.P,RESET_SW,1,1*%
%TO.N,Net-(U1-RST)*%
X124000000Y-75000000D03*
X130500000Y-75000000D03*
%TO.P,RESET_SW,2,2*%
%TO.N,GND*%
X124000000Y-79500000D03*
X130500000Y-79500000D03*
%TD*%
D16*
%TO.P,JP4,1,A*%
%TO.N,Net-(J7-Pin_1)*%
X115500000Y-79500000D03*
%TO.P,JP4,2,B*%
%TO.N,A6*%
X116312800Y-79500000D03*
%TD*%
D14*
%TO.P,J1,1,Pin_1*%
%TO.N,Net-(J1-Pin_1)*%
X85500000Y-134500000D03*
D12*
%TO.P,J1,2,Pin_2*%
%TO.N,Net-(J1-Pin_2)*%
X85500000Y-129420000D03*
%TO.P,J1,3,Pin_3*%
%TO.N,Net-(J1-Pin_3)*%
X85500000Y-124340000D03*
%TO.P,J1,4,Pin_4*%
%TO.N,Net-(J1-Pin_4)*%
X85500000Y-119260000D03*
%TO.P,J1,5,Pin_5*%
%TO.N,Net-(J1-Pin_5)*%
X85500000Y-114180000D03*
%TO.P,J1,6,Pin_6*%
%TO.N,Net-(J1-Pin_6)*%
X85500000Y-109100000D03*
%TO.P,J1,7,Pin_7*%
%TO.N,Net-(J1-Pin_7)*%
X85500000Y-104020000D03*
%TO.P,J1,8,Pin_8*%
%TO.N,Net-(J1-Pin_8)*%
X85500000Y-98940000D03*
%TD*%
D16*
%TO.P,JP2,1,A*%
%TO.N,Net-(J7-Pin_1)*%
X115500000Y-73131200D03*
%TO.P,JP2,2,B*%
%TO.N,A2*%
X116312800Y-73131200D03*
%TD*%
D22*
%TO.P,J8,1,Pin_1*%
%TO.N,GND*%
X150500000Y-130000000D03*
D20*
%TO.P,J8,2,Pin_2*%
%TO.N,+5V*%
X145420000Y-130000000D03*
%TO.P,J8,3,Pin_3*%
%TO.N,SDA*%
X140340000Y-130000000D03*
%TO.P,J8,4,Pin_4*%
%TO.N,SCL*%
X135260000Y-130000000D03*
%TD*%
D23*
%TO.N,SCL*%
X135260000Y-130000000D02*
X130019000Y-124759000D01*
X130019000Y-124759000D02*
X130019000Y-103101000D01*
X130019000Y-103101000D02*
X131120000Y-102000000D01*
%TO.N,Net-(J3-Pin_1)*%
X105198000Y-98348000D02*
X109120000Y-102270000D01*
X109120000Y-102270000D02*
X114779000Y-96611000D01*
X114779000Y-95481000D02*
X115880000Y-94380000D01*
X114779000Y-96611000D02*
X114779000Y-95481000D01*
X105198000Y-68358000D02*
X105198000Y-98348000D01*
X95840000Y-59000000D02*
X105198000Y-68358000D01*
%TO.N,A2*%
X121240000Y-68204000D02*
X121240000Y-59000000D01*
X116312800Y-73131200D02*
X121240000Y-68204000D01*
%TO.N,Net-(J5-Pin_3)*%
X160977976Y-75522024D02*
X145022024Y-75522024D01*
X168000000Y-68500000D02*
X160977976Y-75522024D01*
X145022024Y-75522024D02*
X134860000Y-85684048D01*
X168000000Y-66340000D02*
X168000000Y-68500000D01*
X134860000Y-85684048D02*
X134860000Y-96820000D01*
X134860000Y-96820000D02*
X137530000Y-99490000D01*
%TO.N,A6*%
X116312800Y-79500000D02*
X131400000Y-64412800D01*
X131400000Y-64412800D02*
X131400000Y-59000000D01*
%TO.N,Net-(J3-Pin_3)*%
X114779000Y-90401000D02*
X114779000Y-91531000D01*
X106000000Y-59000000D02*
X106000000Y-94070000D01*
X106000000Y-94070000D02*
X109120000Y-97190000D01*
X114779000Y-91531000D02*
X109120000Y-97190000D01*
X115880000Y-89300000D02*
X114779000Y-90401000D01*
%TO.N,Net-(J7-Pin_1)*%
X115500000Y-76315600D02*
X115500000Y-79500000D01*
X115500000Y-69946800D02*
X114819000Y-69265800D01*
X115604540Y-56899000D02*
X135399000Y-56899000D01*
X135399000Y-56899000D02*
X137000000Y-58500000D01*
X115500000Y-73131200D02*
X115500000Y-76315600D01*
X114819000Y-69265800D02*
X114819000Y-57684540D01*
X114819000Y-57684540D02*
X115604540Y-56899000D01*
X115500000Y-79500000D02*
X115500000Y-82000000D01*
X115500000Y-69946800D02*
X115500000Y-73131200D01*
X115500000Y-82000000D02*
X112500000Y-85000000D01*
X112500000Y-88730000D02*
X112500000Y-85000000D01*
X109120000Y-92110000D02*
X112500000Y-88730000D01*
%TO.N,Net-(J3-Pin_4)*%
X109120000Y-94502950D02*
X115880000Y-87742950D01*
X109120000Y-94650000D02*
X109120000Y-94502950D01*
X111080000Y-59000000D02*
X108054000Y-62026000D01*
X115880000Y-87742950D02*
X115880000Y-86760000D01*
X108054000Y-93584000D02*
X109120000Y-94650000D01*
X108054000Y-62026000D02*
X108054000Y-93584000D01*
%TO.N,A1*%
X116312800Y-59152800D02*
X116160000Y-59000000D01*
X116312800Y-69946800D02*
X116312800Y-59152800D01*
%TO.N,SDA*%
X140340000Y-130000000D02*
X140340000Y-122080000D01*
X135164000Y-108584000D02*
X131120000Y-104540000D01*
X146420000Y-116000000D02*
X139004000Y-108584000D01*
X139004000Y-108584000D02*
X135164000Y-108584000D01*
X131120000Y-104540000D02*
X133657000Y-102003000D01*
X133657000Y-102003000D02*
X133657000Y-72763000D01*
X140340000Y-122080000D02*
X146420000Y-116000000D01*
X133657000Y-72763000D02*
X147420000Y-59000000D01*
%TO.N,Net-(J3-Pin_2)*%
X114779000Y-92941000D02*
X115880000Y-91840000D01*
X100920000Y-59000000D02*
X105599000Y-63679000D01*
X114779000Y-94071000D02*
X114779000Y-92941000D01*
X105599000Y-63679000D02*
X105599000Y-96209000D01*
X105599000Y-96209000D02*
X109120000Y-99730000D01*
X109120000Y-99730000D02*
X114779000Y-94071000D01*
%TO.N,SCL*%
X140895460Y-132101000D02*
X144079000Y-128917460D01*
X136069127Y-129989000D02*
X136229127Y-130149000D01*
X131120000Y-102000000D02*
X133256000Y-99864000D01*
X137361000Y-132101000D02*
X140895460Y-132101000D01*
X133256000Y-68084000D02*
X142340000Y-59000000D01*
X135260000Y-130000000D02*
X137361000Y-132101000D01*
X144079000Y-128917460D02*
X144079000Y-120881000D01*
X133256000Y-99864000D02*
X133256000Y-68084000D01*
X148960000Y-116000000D02*
X149000000Y-116040000D01*
X144079000Y-120881000D02*
X148960000Y-116000000D01*
%TO.N,+5V*%
X150026000Y-125394000D02*
X150026000Y-112394000D01*
X145420000Y-130000000D02*
X150026000Y-125394000D01*
X150026000Y-112394000D02*
X155310000Y-107110000D01*
%TO.N,A3*%
X116312800Y-76315600D02*
X126320000Y-66308400D01*
X126320000Y-66308400D02*
X126320000Y-59000000D01*
%TO.N,Net-(J2-Pin_5)*%
X92012000Y-78432000D02*
X85500000Y-71920000D01*
X93880000Y-89570000D02*
X92012000Y-87702000D01*
X92012000Y-87702000D02*
X92012000Y-78432000D01*
%TO.N,Net-(J2-Pin_1)*%
X86390000Y-92240000D02*
X85500000Y-92240000D01*
X93880000Y-99730000D02*
X86390000Y-92240000D01*
%TO.N,Net-(J1-Pin_6)*%
X87250000Y-107350000D02*
X85500000Y-109100000D01*
X93880000Y-107350000D02*
X87250000Y-107350000D01*
%TO.N,Net-(J2-Pin_8)*%
X93880000Y-81950000D02*
X93880000Y-67483540D01*
X85500000Y-59103540D02*
X85500000Y-56680000D01*
X93880000Y-67483540D02*
X85500000Y-59103540D01*
%TO.N,Net-(J1-Pin_7)*%
X93880000Y-104810000D02*
X86290000Y-104810000D01*
X86290000Y-104810000D02*
X85500000Y-104020000D01*
%TO.N,Net-(J1-Pin_2)*%
X87601000Y-123789000D02*
X87601000Y-127319000D01*
X87601000Y-127319000D02*
X85500000Y-129420000D01*
X93880000Y-117510000D02*
X87601000Y-123789000D01*
%TO.N,Net-(J2-Pin_3)*%
X91210000Y-91980000D02*
X91210000Y-87790000D01*
X91210000Y-87790000D02*
X85500000Y-82080000D01*
X93880000Y-94650000D02*
X91210000Y-91980000D01*
%TO.N,Net-(J1-Pin_4)*%
X93880000Y-112430000D02*
X92330000Y-112430000D01*
X92330000Y-112430000D02*
X85500000Y-119260000D01*
%TO.N,Net-(J2-Pin_2)*%
X93880000Y-97190000D02*
X85500000Y-88810000D01*
X85500000Y-88810000D02*
X85500000Y-87160000D01*
%TO.N,Net-(J2-Pin_6)*%
X92413000Y-85563000D02*
X92413000Y-73753000D01*
X92413000Y-73753000D02*
X85500000Y-66840000D01*
X93880000Y-87030000D02*
X92413000Y-85563000D01*
%TO.N,Net-(J2-Pin_7)*%
X92814000Y-83424000D02*
X92814000Y-69074000D01*
X93880000Y-84490000D02*
X92814000Y-83424000D01*
X92814000Y-69074000D02*
X85500000Y-61760000D01*
%TO.N,Net-(J2-Pin_4)*%
X91611000Y-83111000D02*
X85500000Y-77000000D01*
X91611000Y-89841000D02*
X91611000Y-83111000D01*
X93880000Y-92110000D02*
X91611000Y-89841000D01*
%TO.N,Net-(J1-Pin_5)*%
X89790000Y-109890000D02*
X85500000Y-114180000D01*
X93880000Y-109890000D02*
X89790000Y-109890000D01*
%TO.N,Net-(J1-Pin_1)*%
X93880000Y-126120000D02*
X93880000Y-120050000D01*
X85500000Y-134500000D02*
X93880000Y-126120000D01*
%TO.N,Net-(J1-Pin_8)*%
X88830000Y-102270000D02*
X85500000Y-98940000D01*
X93880000Y-102270000D02*
X88830000Y-102270000D01*
%TO.N,Net-(J5-Pin_7)*%
X166663000Y-85323000D02*
X168000000Y-86660000D01*
X136464000Y-86348448D02*
X137489448Y-85323000D01*
X137530000Y-89330000D02*
X136464000Y-88264000D01*
X136464000Y-88264000D02*
X136464000Y-86348448D01*
X137489448Y-85323000D02*
X166663000Y-85323000D01*
%TO.N,Net-(J5-Pin_1)*%
X134058000Y-101098000D02*
X134058000Y-85351848D01*
X137530000Y-104570000D02*
X134058000Y-101098000D01*
X163229848Y-56180000D02*
X168000000Y-56180000D01*
X134058000Y-85351848D02*
X163229848Y-56180000D01*
%TO.N,Net-(J5-Pin_2)*%
X158716948Y-61260000D02*
X168000000Y-61260000D01*
X134459000Y-98959000D02*
X134459000Y-85517948D01*
X134459000Y-85517948D02*
X158716948Y-61260000D01*
X137530000Y-102030000D02*
X134459000Y-98959000D01*
%TO.N,Net-(J5-Pin_8)*%
X137530000Y-86790000D02*
X138596000Y-85724000D01*
X138596000Y-85724000D02*
X161984000Y-85724000D01*
X161984000Y-85724000D02*
X168000000Y-91740000D01*
%TO.N,Net-(J5-Pin_5)*%
X135662000Y-86016248D02*
X145178248Y-76500000D01*
X145178248Y-76500000D02*
X168000000Y-76500000D01*
X135662000Y-92542000D02*
X135662000Y-86016248D01*
X137530000Y-94410000D02*
X135662000Y-92542000D01*
%TO.N,Net-(J5-Pin_6)*%
X136063000Y-90403000D02*
X136063000Y-86182348D01*
X136063000Y-86182348D02*
X140665348Y-81580000D01*
X137530000Y-91870000D02*
X136063000Y-90403000D01*
X140665348Y-81580000D02*
X168000000Y-81580000D01*
%TO.N,Net-(J5-Pin_4)*%
X135261000Y-94681000D02*
X135261000Y-85850148D01*
X163321000Y-76099000D02*
X145012148Y-76099000D01*
X145012148Y-76099000D02*
X135261000Y-85850148D01*
X137530000Y-96950000D02*
X135261000Y-94681000D01*
X168000000Y-71420000D02*
X163321000Y-76099000D01*
%TO.N,Net-(J6-Pin_1)*%
X155310000Y-86790000D02*
X166940000Y-98420000D01*
X166940000Y-98420000D02*
X168000000Y-98420000D01*
%TO.N,Net-(J6-Pin_8)*%
X156599000Y-105859000D02*
X156599000Y-120599000D01*
X168000000Y-132000000D02*
X168000000Y-133980000D01*
X155310000Y-104570000D02*
X156599000Y-105859000D01*
X156599000Y-120599000D02*
X168000000Y-132000000D01*
%TO.N,Net-(J6-Pin_7)*%
X157000000Y-117900000D02*
X168000000Y-128900000D01*
X155310000Y-102030000D02*
X157000000Y-103720000D01*
X157000000Y-103720000D02*
X157000000Y-117900000D01*
%TO.N,Net-(J6-Pin_4)*%
X155310000Y-94410000D02*
X158203000Y-97303000D01*
X158203000Y-97303000D02*
X158203000Y-103863000D01*
X158203000Y-103863000D02*
X168000000Y-113660000D01*
%TO.N,Net-(J6-Pin_3)*%
X155310000Y-91870000D02*
X158604000Y-95164000D01*
X158604000Y-99184000D02*
X168000000Y-108580000D01*
X158604000Y-95164000D02*
X158604000Y-99184000D01*
%TO.N,Net-(J6-Pin_6)*%
X155310000Y-99490000D02*
X157401000Y-101581000D01*
X157401000Y-113221000D02*
X168000000Y-123820000D01*
X157401000Y-101581000D02*
X157401000Y-113221000D01*
%TO.N,Net-(J6-Pin_2)*%
X168000000Y-102020000D02*
X168000000Y-103500000D01*
X155310000Y-89330000D02*
X168000000Y-102020000D01*
%TO.N,Net-(J6-Pin_5)*%
X157802000Y-99442000D02*
X155310000Y-96950000D01*
X157802000Y-108542000D02*
X157802000Y-99442000D01*
X168000000Y-118740000D02*
X157802000Y-108542000D01*
%TO.N,Net-(U1-RST)*%
X128500000Y-77000000D02*
X130500000Y-75000000D01*
X124000000Y-75000000D02*
X130500000Y-75000000D01*
X130500000Y-75000000D02*
X123100000Y-82400000D01*
X123100000Y-82400000D02*
X123100000Y-102400000D01*
X123100000Y-102400000D02*
X115880000Y-109620000D01*
%TO.N,Net-(J1-Pin_3)*%
X93880000Y-114970000D02*
X85500000Y-123350000D01*
X85500000Y-123350000D02*
X85500000Y-124340000D01*
%TD*%
%TA.AperFunction,Conductor*%
%TO.N,GND*%
G36*
X132625203Y-106894884D02*
G01*
X132631676Y-106900911D01*
X134795284Y-109064520D01*
X134795286Y-109064521D01*
X134795290Y-109064524D01*
X134926020Y-109140000D01*
X134932216Y-109143577D01*
X135084943Y-109184501D01*
X135084945Y-109184501D01*
X135250654Y-109184501D01*
X135250670Y-109184500D01*
X136180478Y-109184500D01*
X136247517Y-109204185D01*
X136293272Y-109256989D01*
X136303216Y-109326147D01*
X136298408Y-109346820D01*
X136296149Y-109353770D01*
X136296148Y-109353776D01*
X136265000Y-109550436D01*
X136265000Y-109749563D01*
X136296147Y-109946222D01*
X136357679Y-110135594D01*
X136448077Y-110313008D01*
X136475580Y-110350863D01*
X136475580Y-110350864D01*
X137038871Y-109787572D01*
X137054755Y-109846853D01*
X137121898Y-109963147D01*
X137216853Y-110058102D01*
X137333147Y-110125245D01*
X137392425Y-110141128D01*
X136829134Y-110704417D01*
X136866994Y-110731924D01*
X137044405Y-110822320D01*
X137233777Y-110883852D01*
X137430437Y-110915000D01*
X137629563Y-110915000D01*
X137826222Y-110883852D01*
X138015594Y-110822320D01*
X138193005Y-110731924D01*
X138230863Y-110704418D01*
X138230863Y-110704417D01*
X137667574Y-110141128D01*
X137726853Y-110125245D01*
X137843147Y-110058102D01*
X137938102Y-109963147D01*
X138005245Y-109846853D01*
X138021128Y-109787574D01*
X138584417Y-110350863D01*
X138584418Y-110350863D01*
X138611924Y-110313005D01*
X138702320Y-110135594D01*
X138763852Y-109946222D01*
X138795000Y-109749563D01*
X138795000Y-109550437D01*
X138793312Y-109539781D01*
X138802266Y-109470488D01*
X138847262Y-109417035D01*
X138914013Y-109396395D01*
X138981327Y-109415119D01*
X139003466Y-109432701D01*
X144096697Y-114525933D01*
X144130182Y-114587256D01*
X144125198Y-114656948D01*
X144083326Y-114712881D01*
X144017862Y-114737298D01*
X143989624Y-114736088D01*
X143979597Y-114734500D01*
X143780403Y-114734500D01*
X143714822Y-114744887D01*
X143583659Y-114765661D01*
X143583656Y-114765661D01*
X143394219Y-114827213D01*
X143216733Y-114917647D01*
X143178286Y-114945581D01*
X143055582Y-115034731D01*
X143055580Y-115034733D01*
X143055579Y-115034733D01*
X142914733Y-115175579D01*
X142914733Y-115175580D01*
X142914731Y-115175582D01*
X142897558Y-115199219D01*
X142797645Y-115336735D01*
X142720203Y-115488723D01*
X142672229Y-115539518D01*
X142604408Y-115556313D01*
X142538273Y-115533775D01*
X142499234Y-115488722D01*
X142421924Y-115336994D01*
X142394417Y-115299135D01*
X142394417Y-115299134D01*
X141831128Y-115862424D01*
X141815245Y-115803147D01*
X141748102Y-115686853D01*
X141653147Y-115591898D01*
X141536853Y-115524755D01*
X141477574Y-115508871D01*
X142040864Y-114945581D01*
X142040863Y-114945580D01*
X142003008Y-114918077D01*
X141825594Y-114827679D01*
X141636222Y-114766147D01*
X141439563Y-114735000D01*
X141240437Y-114735000D01*
X141043777Y-114766147D01*
X140854405Y-114827679D01*
X140676990Y-114918077D01*
X140639135Y-114945580D01*
X140639135Y-114945581D01*
X141202425Y-115508871D01*
X141143147Y-115524755D01*
X141026853Y-115591898D01*
X140931898Y-115686853D01*
X140864755Y-115803147D01*
X140848871Y-115862425D01*
X140285581Y-115299135D01*
X140285580Y-115299135D01*
X140258077Y-115336990D01*
X140167679Y-115514405D01*
X140106147Y-115703777D01*
X140075000Y-115900436D01*
X140075000Y-116099563D01*
X140106147Y-116296222D01*
X140167679Y-116485594D01*
X140258077Y-116663008D01*
X140285580Y-116700863D01*
X140285581Y-116700864D01*
X140848871Y-116137574D01*
X140864755Y-116196853D01*
X140931898Y-116313147D01*
X141026853Y-116408102D01*
X141143147Y-116475245D01*
X141202425Y-116491128D01*
X140639134Y-117054417D01*
X140676994Y-117081924D01*
X140854405Y-117172320D01*
X141043777Y-117233852D01*
X141240437Y-117265000D01*
X141439563Y-117265000D01*
X141636222Y-117233852D01*
X141825594Y-117172320D01*
X142003005Y-117081924D01*
X142040863Y-117054418D01*
X142040863Y-117054417D01*
X141477574Y-116491128D01*
X141536853Y-116475245D01*
X141653147Y-116408102D01*
X141748102Y-116313147D01*
X141815245Y-116196853D01*
X141831128Y-116137574D01*
X142394417Y-116700863D01*
X142394418Y-116700863D01*
X142421924Y-116663005D01*
X142499234Y-116511277D01*
X142547208Y-116460481D01*
X142615029Y-116443686D01*
X142681164Y-116466223D01*
X142720204Y-116511277D01*
X142737250Y-116544731D01*
X142797647Y-116663266D01*
X142914731Y-116824418D01*
X143055582Y-116965269D01*
X143216734Y-117082353D01*
X143328572Y-117139337D01*
X143394219Y-117172786D01*
X143583657Y-117234338D01*
X143583658Y-117234338D01*
X143583661Y-117234339D01*
X143780403Y-117265500D01*
X143780404Y-117265500D01*
X143979596Y-117265500D01*
X143979597Y-117265500D01*
X143989615Y-117263913D01*
X144058906Y-117272864D01*
X144112360Y-117317858D01*
X144133003Y-117384609D01*
X144114281Y-117451923D01*
X144096697Y-117474066D01*
X139971286Y-121599478D01*
X139859481Y-121711282D01*
X139859479Y-121711285D01*
X139809361Y-121798094D01*
X139809359Y-121798096D01*
X139780425Y-121848209D01*
X139780424Y-121848210D01*
X139780423Y-121848215D01*
X139739499Y-122000943D01*
X139739499Y-122000945D01*
X139739499Y-122169046D01*
X139739500Y-122169059D01*
X139739500Y-127741037D01*
X139719815Y-127808076D01*
X139671796Y-127851521D01*
X139532600Y-127922446D01*
X139336437Y-128064966D01*
X139336432Y-128064970D01*
X139164970Y-128236432D01*
X139164966Y-128236437D01*
X139022448Y-128432598D01*
X138912360Y-128648655D01*
X138837432Y-128879263D01*
X138799500Y-129118754D01*
X138799500Y-130881245D01*
X138837431Y-131120735D01*
X138878018Y-131245648D01*
X138908085Y-131338183D01*
X138910080Y-131408023D01*
X138874000Y-131467856D01*
X138811299Y-131498684D01*
X138790154Y-131500500D01*
X137661098Y-131500500D01*
X137594059Y-131480815D01*
X137573417Y-131464181D01*
X136836819Y-130727583D01*
X136803334Y-130666260D01*
X136800500Y-130639902D01*
X136800500Y-130353085D01*
X136804725Y-130320992D01*
X136829627Y-130228057D01*
X136829627Y-130069943D01*
X136804725Y-129977006D01*
X136800500Y-129944913D01*
X136800500Y-129118754D01*
X136771336Y-128934626D01*
X136762568Y-128879265D01*
X136719595Y-128747006D01*
X136687639Y-128648655D01*
X136669267Y-128612598D01*
X136577554Y-128432602D01*
X136487502Y-128308655D01*
X136435033Y-128236437D01*
X136435029Y-128236432D01*
X136263567Y-128064970D01*
X136263562Y-128064966D01*
X136067401Y-127922448D01*
X136067400Y-127922447D01*
X136067398Y-127922446D01*
X135940288Y-127857680D01*
X135851344Y-127812360D01*
X135620736Y-127737432D01*
X135381245Y-127699500D01*
X135381240Y-127699500D01*
X135138760Y-127699500D01*
X135138755Y-127699500D01*
X134899263Y-127737432D01*
X134668655Y-127812360D01*
X134452598Y-127922448D01*
X134294486Y-128037322D01*
X134228679Y-128060802D01*
X134160626Y-128044976D01*
X134133920Y-128024685D01*
X130655819Y-124546584D01*
X130622334Y-124485261D01*
X130619500Y-124458903D01*
X130619500Y-116124499D01*
X130639185Y-116057460D01*
X130691989Y-116011705D01*
X130743500Y-116000499D01*
X131967871Y-116000499D01*
X131967872Y-116000499D01*
X132027483Y-115994091D01*
X132162331Y-115943796D01*
X132277546Y-115857546D01*
X132290622Y-115840078D01*
X132304711Y-115821259D01*
X132363793Y-115742335D01*
X132363792Y-115742335D01*
X132363796Y-115742331D01*
X132414091Y-115607483D01*
X132420500Y-115547873D01*
X132420499Y-114673661D01*
X132420499Y-113852129D01*
X132420498Y-113852123D01*
X132416022Y-113810485D01*
X132414091Y-113792517D01*
X132381565Y-113705311D01*
X132363797Y-113657671D01*
X132363793Y-113657664D01*
X132277547Y-113542455D01*
X132277544Y-113542452D01*
X132162335Y-113456206D01*
X132162328Y-113456202D01*
X132027482Y-113405908D01*
X132027483Y-113405908D01*
X131990560Y-113401939D01*
X131926009Y-113375201D01*
X131886160Y-113317809D01*
X131883667Y-113247984D01*
X131919319Y-113187895D01*
X131930930Y-113178331D01*
X131933544Y-113176432D01*
X131967219Y-113151966D01*
X132111966Y-113007219D01*
X132111968Y-113007215D01*
X132111971Y-113007213D01*
X132174678Y-112920902D01*
X132232287Y-112841610D01*
X132325220Y-112659219D01*
X132388477Y-112464534D01*
X132420500Y-112262352D01*
X132420500Y-112057648D01*
X132402534Y-111944219D01*
X132388477Y-111855465D01*
X132344426Y-111719890D01*
X132325220Y-111660781D01*
X132325218Y-111660778D01*
X132325218Y-111660776D01*
X132232419Y-111478650D01*
X132232287Y-111478390D01*
X132200092Y-111434077D01*
X132111971Y-111312786D01*
X131967213Y-111168028D01*
X131801611Y-111047713D01*
X131708369Y-111000203D01*
X131657574Y-110952229D01*
X131640779Y-110884407D01*
X131663317Y-110818273D01*
X131708371Y-110779234D01*
X131801346Y-110731861D01*
X131801347Y-110731861D01*
X131845921Y-110699474D01*
X131845922Y-110699474D01*
X131290234Y-110143787D01*
X131332292Y-110132518D01*
X131457708Y-110060110D01*
X131560110Y-109957708D01*
X131632518Y-109832292D01*
X131643787Y-109790234D01*
X132199474Y-110345921D01*
X132231859Y-110301349D01*
X132324755Y-110119031D01*
X132387990Y-109924417D01*
X132420000Y-109722317D01*
X132420000Y-109517682D01*
X132387990Y-109315582D01*
X132324755Y-109120968D01*
X132231859Y-108938650D01*
X132199474Y-108894077D01*
X132199474Y-108894076D01*
X131643787Y-109449764D01*
X131632518Y-109407708D01*
X131560110Y-109282292D01*
X131457708Y-109179890D01*
X131332292Y-109107482D01*
X131290233Y-109096212D01*
X131845922Y-108540524D01*
X131845921Y-108540523D01*
X131801359Y-108508147D01*
X131801350Y-108508141D01*
X131707819Y-108460485D01*
X131657023Y-108412511D01*
X131640228Y-108344690D01*
X131662765Y-108278555D01*
X131707820Y-108239515D01*
X131801346Y-108191861D01*
X131801347Y-108191861D01*
X131845921Y-108159474D01*
X131290234Y-107603787D01*
X131332292Y-107592518D01*
X131457708Y-107520110D01*
X131560110Y-107417708D01*
X131632518Y-107292292D01*
X131643787Y-107250234D01*
X132199474Y-107805921D01*
X132231859Y-107761349D01*
X132324755Y-107579031D01*
X132387990Y-107384417D01*
X132420000Y-107182317D01*
X132420000Y-106988597D01*
X132439685Y-106921558D01*
X132492489Y-106875803D01*
X132561647Y-106865859D01*
X132625203Y-106894884D01*
G37*
%TD.AperFunction*%
%TA.AperFunction,Conductor*%
G36*
X122572681Y-74191866D02*
G01*
X122628614Y-74233738D01*
X122653031Y-74299202D01*
X122639832Y-74364342D01*
X122609434Y-74424000D01*
X122536446Y-74648631D01*
X122499500Y-74881902D01*
X122499500Y-75118097D01*
X122536446Y-75351368D01*
X122609433Y-75575996D01*
X122669711Y-75694297D01*
X122716657Y-75786433D01*
X122855483Y-75977510D01*
X123022490Y-76144517D01*
X123213567Y-76283343D01*
X123307407Y-76331157D01*
X123424003Y-76390566D01*
X123424005Y-76390566D01*
X123424008Y-76390568D01*
X123512476Y-76419313D01*
X123648631Y-76463553D01*
X123881903Y-76500500D01*
X123881908Y-76500500D01*
X124118097Y-76500500D01*
X124351368Y-76463553D01*
X124384468Y-76452798D01*
X124575992Y-76390568D01*
X124786433Y-76283343D01*
X124977510Y-76144517D01*
X125144517Y-75977510D01*
X125283343Y-75786433D01*
X125343583Y-75668204D01*
X125391558Y-75617409D01*
X125454068Y-75600500D01*
X128750903Y-75600500D01*
X128817942Y-75620185D01*
X128863697Y-75672989D01*
X128873641Y-75742147D01*
X128844616Y-75805703D01*
X128838584Y-75812181D01*
X125615698Y-79035064D01*
X125554375Y-79068549D01*
X125484683Y-79063565D01*
X125428750Y-79021693D01*
X125410086Y-78985700D01*
X125390103Y-78924198D01*
X125282914Y-78713828D01*
X125222658Y-78630894D01*
X125222658Y-78630893D01*
X124523787Y-79329765D01*
X124512518Y-79287708D01*
X124440110Y-79162292D01*
X124337708Y-79059890D01*
X124212292Y-78987482D01*
X124170234Y-78976212D01*
X124869105Y-78277340D01*
X124869104Y-78277338D01*
X124786174Y-78217087D01*
X124575802Y-78109897D01*
X124351247Y-78036934D01*
X124351248Y-78036934D01*
X124118052Y-78000000D01*
X123881948Y-78000000D01*
X123648752Y-78036934D01*
X123424197Y-78109897D01*
X123213830Y-78217084D01*
X123130894Y-78277340D01*
X123829766Y-78976212D01*
X123787708Y-78987482D01*
X123662292Y-79059890D01*
X123559890Y-79162292D01*
X123487482Y-79287708D01*
X123476212Y-79329765D01*
X122777340Y-78630894D01*
X122717084Y-78713830D01*
X122609897Y-78924197D01*
X122536934Y-79148752D01*
X122500000Y-79381947D01*
X122500000Y-79618052D01*
X122536934Y-79851247D01*
X122609897Y-80075802D01*
X122717087Y-80286174D01*
X122777338Y-80369104D01*
X122777340Y-80369105D01*
X123476212Y-79670233D01*
X123487482Y-79712292D01*
X123559890Y-79837708D01*
X123662292Y-79940110D01*
X123787708Y-80012518D01*
X123829765Y-80023787D01*
X123130893Y-80722658D01*
X123213828Y-80782914D01*
X123424198Y-80890103D01*
X123485700Y-80910086D01*
X123543376Y-80949523D01*
X123570575Y-81013881D01*
X123558661Y-81082728D01*
X123535064Y-81115698D01*
X122731286Y-81919478D01*
X122619481Y-82031282D01*
X122619479Y-82031285D01*
X122569361Y-82118094D01*
X122569359Y-82118096D01*
X122540425Y-82168209D01*
X122540424Y-82168210D01*
X122531574Y-82201240D01*
X122499499Y-82320943D01*
X122499499Y-82320945D01*
X122499499Y-82489046D01*
X122499500Y-82489059D01*
X122499500Y-102099902D01*
X122479815Y-102166941D01*
X122463181Y-102187583D01*
X117392181Y-107258583D01*
X117330858Y-107292068D01*
X117261166Y-107287084D01*
X117205233Y-107245212D01*
X117180816Y-107179748D01*
X117180500Y-107170902D01*
X117180500Y-106977648D01*
X117148477Y-106775465D01*
X117085218Y-106580776D01*
X117051503Y-106514607D01*
X116992287Y-106398390D01*
X116982363Y-106384731D01*
X116871971Y-106232786D01*
X116727213Y-106088028D01*
X116561614Y-105967715D01*
X116501754Y-105937215D01*
X116468917Y-105920483D01*
X116418123Y-105872511D01*
X116401328Y-105804690D01*
X116423865Y-105738555D01*
X116468917Y-105699516D01*
X116561610Y-105652287D01*
X116586205Y-105634418D01*
X116727213Y-105531971D01*
X116727215Y-105531968D01*
X116727219Y-105531966D01*
X116871966Y-105387219D01*
X116871968Y-105387215D01*
X116871971Y-105387213D01*
X116924732Y-105314590D01*
X116992287Y-105221610D01*
X117085220Y-105039219D01*
X117148477Y-104844534D01*
X117180500Y-104642352D01*
X117180500Y-104437648D01*
X117154526Y-104273656D01*
X117148477Y-104235465D01*
X117116487Y-104137011D01*
X117085220Y-104040781D01*
X117085218Y-104040778D01*
X117085218Y-104040776D01*
X117051503Y-103974607D01*
X116992287Y-103858390D01*
X116982363Y-103844731D01*
X116871971Y-103692786D01*
X116727213Y-103548028D01*
X116561614Y-103427715D01*
X116501754Y-103397215D01*
X116468917Y-103380483D01*
X116418123Y-103332511D01*
X116401328Y-103264690D01*
X116423865Y-103198555D01*
X116468917Y-103159516D01*
X116561610Y-103112287D01*
X116586205Y-103094418D01*
X116727213Y-102991971D01*
X116727215Y-102991968D01*
X116727219Y-102991966D01*
X116871966Y-102847219D01*
X116871968Y-102847215D01*
X116871971Y-102847213D01*
X116929006Y-102768709D01*
X116992287Y-102681610D01*
X117085220Y-102499219D01*
X117148477Y-102304534D01*
X117180500Y-102102352D01*
X117180500Y-101897648D01*
X117170134Y-101832202D01*
X117148477Y-101695465D01*
X117119127Y-101605137D01*
X117085220Y-101500781D01*
X117085218Y-101500778D01*
X117085218Y-101500776D01*
X117051503Y-101434607D01*
X116992287Y-101318390D01*
X116915061Y-101212096D01*
X116871971Y-101152786D01*
X116727213Y-101008028D01*
X116561614Y-100887715D01*
X116501754Y-100857215D01*
X116468917Y-100840483D01*
X116418123Y-100792511D01*
X116401328Y-100724690D01*
X116423865Y-100658555D01*
X116468917Y-100619516D01*
X116561610Y-100572287D01*
X116586205Y-100554418D01*
X116727213Y-100451971D01*
X116727215Y-100451968D01*
X116727219Y-100451966D01*
X116871966Y-100307219D01*
X116871968Y-100307215D01*
X116871971Y-100307213D01*
X116935758Y-100219416D01*
X116992287Y-100141610D01*
X117085220Y-99959219D01*
X117148477Y-99764534D01*
X117180500Y-99562352D01*
X117180500Y-99357648D01*
X117165035Y-99260010D01*
X117148477Y-99155465D01*
X117099333Y-99004217D01*
X117085220Y-98960781D01*
X117085218Y-98960778D01*
X117085218Y-98960776D01*
X117039100Y-98870265D01*
X116992287Y-98778390D01*
X116969179Y-98746584D01*
X116871971Y-98612786D01*
X116727213Y-98468028D01*
X116561614Y-98347715D01*
X116501754Y-98317215D01*
X116468917Y-98300483D01*
X116418123Y-98252511D01*
X116401328Y-98184690D01*
X116423865Y-98118555D01*
X116468917Y-98079516D01*
X116561610Y-98032287D01*
X116616488Y-97992416D01*
X116727213Y-97911971D01*
X116727215Y-97911968D01*
X116727219Y-97911966D01*
X116871966Y-97767219D01*
X116871968Y-97767215D01*
X116871971Y-97767213D01*
X116924732Y-97694590D01*
X116992287Y-97601610D01*
X117085220Y-97419219D01*
X117148477Y-97224534D01*
X117180500Y-97022352D01*
X117180500Y-96817648D01*
X117154526Y-96653656D01*
X117148477Y-96615465D01*
X117085218Y-96420776D01*
X117029233Y-96310901D01*
X116992287Y-96238390D01*
X116982363Y-96224731D01*
X116871971Y-96072786D01*
X116727213Y-95928028D01*
X116561614Y-95807715D01*
X116501754Y-95777215D01*
X116468917Y-95760483D01*
X116418123Y-95712511D01*
X116401328Y-95644690D01*
X116423865Y-95578555D01*
X116468917Y-95539516D01*
X116561610Y-95492287D01*
X116600411Y-95464097D01*
X116727213Y-95371971D01*
X116727215Y-95371968D01*
X116727219Y-95371966D01*
X116871966Y-95227219D01*
X116871968Y-95227215D01*
X116871971Y-95227213D01*
X116924732Y-95154590D01*
X116992287Y-95061610D01*
X117085220Y-94879219D01*
X117148477Y-94684534D01*
X117180500Y-94482352D01*
X117180500Y-94277648D01*
X117154526Y-94113656D01*
X117148477Y-94075465D01*
X117085218Y-93880776D01*
X117044154Y-93800185D01*
X116992287Y-93698390D01*
X116982363Y-93684731D01*
X116871971Y-93532786D01*
X116727213Y-93388028D01*
X116561614Y-93267715D01*
X116501754Y-93237215D01*
X116468917Y-93220483D01*
X116418123Y-93172511D01*
X116401328Y-93104690D01*
X116423865Y-93038555D01*
X116468917Y-92999516D01*
X116561610Y-92952287D01*
X116612893Y-92915028D01*
X116727213Y-92831971D01*
X116727215Y-92831968D01*
X116727219Y-92831966D01*
X116871966Y-92687219D01*
X116871968Y-92687215D01*
X116871971Y-92687213D01*
X116924732Y-92614590D01*
X116992287Y-92521610D01*
X117085220Y-92339219D01*
X117148477Y-92144534D01*
X117180500Y-91942352D01*
X117180500Y-91737648D01*
X117148477Y-91535466D01*
X117085220Y-91340781D01*
X117085218Y-91340778D01*
X117085218Y-91340776D01*
X117029233Y-91230901D01*
X116992287Y-91158390D01*
X116972142Y-91130662D01*
X116871971Y-90992786D01*
X116727213Y-90848028D01*
X116561614Y-90727715D01*
X116525547Y-90709338D01*
X116468917Y-90680483D01*
X116418123Y-90632511D01*
X116401328Y-90564690D01*
X116423865Y-90498555D01*
X116468917Y-90459516D01*
X116561610Y-90412287D01*
X116685959Y-90321943D01*
X116727213Y-90291971D01*
X116727215Y-90291968D01*
X116727219Y-90291966D01*
X116871966Y-90147219D01*
X116871968Y-90147215D01*
X116871971Y-90147213D01*
X116924732Y-90074590D01*
X116992287Y-89981610D01*
X117085220Y-89799219D01*
X117148477Y-89604534D01*
X117180500Y-89402352D01*
X117180500Y-89197648D01*
X117164831Y-89098717D01*
X117148477Y-88995465D01*
X117099333Y-88844217D01*
X117085220Y-88800781D01*
X117085218Y-88800778D01*
X117085218Y-88800776D01*
X117034124Y-88700500D01*
X116992287Y-88618390D01*
X116969945Y-88587638D01*
X116871971Y-88452786D01*
X116727213Y-88308028D01*
X116561613Y-88187715D01*
X116561612Y-88187714D01*
X116561610Y-88187713D01*
X116511795Y-88162331D01*
X116488729Y-88150578D01*
X116483534Y-88145671D01*
X116476706Y-88143575D01*
X116458472Y-88122001D01*
X116437933Y-88102603D01*
X116436215Y-88095668D01*
X116431604Y-88090212D01*
X116427928Y-88062202D01*
X116421138Y-88034782D01*
X116423221Y-88026333D01*
X116422513Y-88020936D01*
X116429275Y-88001783D01*
X116432872Y-87987197D01*
X116435060Y-87982556D01*
X116439577Y-87974734D01*
X116440664Y-87970674D01*
X116445406Y-87960622D01*
X116461494Y-87942509D01*
X116474088Y-87921819D01*
X116489081Y-87911454D01*
X116491808Y-87908385D01*
X116494690Y-87907577D01*
X116501254Y-87903038D01*
X116561610Y-87872287D01*
X116727219Y-87751966D01*
X116871966Y-87607219D01*
X116871968Y-87607215D01*
X116871971Y-87607213D01*
X116934800Y-87520735D01*
X116992287Y-87441610D01*
X117085220Y-87259219D01*
X117148477Y-87064534D01*
X117180500Y-86862352D01*
X117180500Y-86657648D01*
X117154527Y-86493661D01*
X117148477Y-86455465D01*
X117106844Y-86327333D01*
X117085220Y-86260781D01*
X117085218Y-86260778D01*
X117085218Y-86260776D01*
X117032051Y-86156431D01*
X116992287Y-86078390D01*
X116932420Y-85995989D01*
X116871971Y-85912786D01*
X116727213Y-85768028D01*
X116561613Y-85647715D01*
X116561612Y-85647714D01*
X116561610Y-85647713D01*
X116504653Y-85618691D01*
X116379223Y-85554781D01*
X116184534Y-85491522D01*
X116009995Y-85463878D01*
X115982352Y-85459500D01*
X115777648Y-85459500D01*
X115753329Y-85463351D01*
X115575465Y-85491522D01*
X115380776Y-85554781D01*
X115198386Y-85647715D01*
X115032786Y-85768028D01*
X114888028Y-85912786D01*
X114767715Y-86078386D01*
X114674781Y-86260776D01*
X114611522Y-86455465D01*
X114579500Y-86657648D01*
X114579500Y-86862351D01*
X114611522Y-87064534D01*
X114674781Y-87259223D01*
X114767715Y-87441613D01*
X114888028Y-87607213D01*
X114939583Y-87658768D01*
X114973068Y-87720091D01*
X114968084Y-87789783D01*
X114939583Y-87834130D01*
X110597181Y-92176532D01*
X110535858Y-92210017D01*
X110466166Y-92205033D01*
X110410233Y-92163161D01*
X110385816Y-92097697D01*
X110385500Y-92088851D01*
X110385500Y-92010403D01*
X110370504Y-91915720D01*
X110354339Y-91813661D01*
X110354333Y-91813644D01*
X110353366Y-91809614D01*
X110356851Y-91739831D01*
X110386255Y-91692978D01*
X112858506Y-89220728D01*
X112858511Y-89220724D01*
X112868714Y-89210520D01*
X112868716Y-89210520D01*
X112980520Y-89098716D01*
X113041220Y-88993580D01*
X113059577Y-88961785D01*
X113100501Y-88809057D01*
X113100501Y-88650943D01*
X113100501Y-88643348D01*
X113100500Y-88643330D01*
X113100500Y-85300097D01*
X113120185Y-85233058D01*
X113136819Y-85212416D01*
X114522502Y-83826733D01*
X115980520Y-82368716D01*
X116059577Y-82231784D01*
X116100501Y-82079057D01*
X116100501Y-81920942D01*
X116100501Y-81913347D01*
X116100500Y-81913329D01*
X116100500Y-80759499D01*
X116120185Y-80692460D01*
X116172989Y-80646705D01*
X116224500Y-80635499D01*
X116678171Y-80635499D01*
X116678172Y-80635499D01*
X116737783Y-80629091D01*
X116872631Y-80578796D01*
X116987846Y-80492546D01*
X117074096Y-80377331D01*
X117124391Y-80242483D01*
X117130800Y-80182873D01*
X117130799Y-79582595D01*
X117150483Y-79515557D01*
X117167113Y-79494920D01*
X122441668Y-74220365D01*
X122502989Y-74186882D01*
X122572681Y-74191866D01*
G37*
%TD.AperFunction*%
%TA.AperFunction,Conductor*%
G36*
X173442539Y-53020185D02*
G01*
X173488294Y-53072989D01*
X173499500Y-53124500D01*
X173499500Y-137875500D01*
X173479815Y-137942539D01*
X173427011Y-137988294D01*
X173375500Y-137999500D01*
X79624500Y-137999500D01*
X79557461Y-137979815D01*
X79511706Y-137927011D01*
X79500500Y-137875500D01*
X79500500Y-56558754D01*
X83199500Y-56558754D01*
X83199500Y-56801245D01*
X83237432Y-57040736D01*
X83312360Y-57271344D01*
X83325536Y-57297203D01*
X83404794Y-57452755D01*
X83422448Y-57487401D01*
X83564966Y-57683562D01*
X83564970Y-57683567D01*
X83736432Y-57855029D01*
X83736437Y-57855033D01*
X83798463Y-57900097D01*
X83932602Y-57997554D01*
X84148653Y-58107638D01*
X84148655Y-58107639D01*
X84263959Y-58145103D01*
X84379265Y-58182568D01*
X84490186Y-58200136D01*
X84618755Y-58220500D01*
X84618760Y-58220500D01*
X84775500Y-58220500D01*
X84842539Y-58240185D01*
X84888294Y-58292989D01*
X84899500Y-58344500D01*
X84899500Y-59016870D01*
X84899499Y-59016888D01*
X84899499Y-59182594D01*
X84899498Y-59182594D01*
X84940423Y-59335325D01*
X84959700Y-59368712D01*
X84959701Y-59368716D01*
X85019475Y-59472249D01*
X85019481Y-59472257D01*
X85138349Y-59591125D01*
X85138355Y-59591130D01*
X85555044Y-60007819D01*
X85588529Y-60069142D01*
X85583545Y-60138834D01*
X85541673Y-60194767D01*
X85476209Y-60219184D01*
X85467363Y-60219500D01*
X84618755Y-60219500D01*
X84379263Y-60257432D01*
X84148655Y-60332360D01*
X83932598Y-60442448D01*
X83736437Y-60584966D01*
X83736432Y-60584970D01*
X83564970Y-60756432D01*
X83564966Y-60756437D01*
X83422448Y-60952598D01*
X83312360Y-61168655D01*
X83237432Y-61399263D01*
X83199500Y-61638754D01*
X83199500Y-61881245D01*
X83237432Y-62120736D01*
X83312360Y-62351344D01*
X83422448Y-62567401D01*
X83564966Y-62763562D01*
X83564970Y-62763567D01*
X83736432Y-62935029D01*
X83736437Y-62935033D01*
X83907539Y-63059345D01*
X83932602Y-63077554D01*
X84148653Y-63187638D01*
X84148655Y-63187639D01*
X84263959Y-63225103D01*
X84379265Y-63262568D01*
X84490186Y-63280136D01*
X84618755Y-63300500D01*
X84618760Y-63300500D01*
X86139903Y-63300500D01*
X86206942Y-63320185D01*
X86227584Y-63336819D01*
X92177181Y-69286416D01*
X92210666Y-69347739D01*
X92213500Y-69374097D01*
X92213500Y-72404903D01*
X92193815Y-72471942D01*
X92141011Y-72517697D01*
X92071853Y-72527641D01*
X92008297Y-72498616D01*
X92001819Y-72492584D01*
X87475314Y-67966079D01*
X87441829Y-67904756D01*
X87446813Y-67835064D01*
X87462674Y-67805516D01*
X87577554Y-67647398D01*
X87687638Y-67431347D01*
X87762568Y-67200735D01*
X87792793Y-67009902D01*
X87800500Y-66961245D01*
X87800500Y-66718754D01*
X87772217Y-66540186D01*
X87762568Y-66479265D01*
X87687638Y-66248653D01*
X87577554Y-66032602D01*
X87538801Y-65979263D01*
X87435033Y-65836437D01*
X87435029Y-65836432D01*
X87263567Y-65664970D01*
X87263562Y-65664966D01*
X87067401Y-65522448D01*
X87067400Y-65522447D01*
X87067398Y-65522446D01*
X86959372Y-65467404D01*
X86851344Y-65412360D01*
X86620736Y-65337432D01*
X86381245Y-65299500D01*
X86381240Y-65299500D01*
X84618760Y-65299500D01*
X84618755Y-65299500D01*
X84379263Y-65337432D01*
X84148655Y-65412360D01*
X83932598Y-65522448D01*
X83736437Y-65664966D01*
X83736432Y-65664970D01*
X83564970Y-65836432D01*
X83564966Y-65836437D01*
X83422448Y-66032598D01*
X83312360Y-66248655D01*
X83237432Y-66479263D01*
X83199500Y-66718754D01*
X83199500Y-66961245D01*
X83237432Y-67200736D01*
X83312360Y-67431344D01*
X83422448Y-67647401D01*
X83564966Y-67843562D01*
X83564970Y-67843567D01*
X83736432Y-68015029D01*
X83736437Y-68015033D01*
X83887717Y-68124943D01*
X83932602Y-68157554D01*
X84147285Y-68266941D01*
X84148655Y-68267639D01*
X84237220Y-68296415D01*
X84379265Y-68342568D01*
X84490186Y-68360136D01*
X84618755Y-68380500D01*
X84618760Y-68380500D01*
X86139903Y-68380500D01*
X86206942Y-68400185D01*
X86227584Y-68416819D01*
X91776181Y-73965416D01*
X91809666Y-74026739D01*
X91812500Y-74053097D01*
X91812500Y-77083902D01*
X91792815Y-77150941D01*
X91740011Y-77196696D01*
X91670853Y-77206640D01*
X91607297Y-77177615D01*
X91600819Y-77171583D01*
X87475314Y-73046078D01*
X87441829Y-72984755D01*
X87446813Y-72915063D01*
X87462672Y-72885519D01*
X87577554Y-72727398D01*
X87687638Y-72511347D01*
X87762568Y-72280735D01*
X87785549Y-72135638D01*
X87800500Y-72041245D01*
X87800500Y-71798754D01*
X87774547Y-71634901D01*
X87762568Y-71559265D01*
X87687638Y-71328653D01*
X87577554Y-71112602D01*
X87537317Y-71057220D01*
X87435033Y-70916437D01*
X87435029Y-70916432D01*
X87263567Y-70744970D01*
X87263562Y-70744966D01*
X87067401Y-70602448D01*
X87067400Y-70602447D01*
X87067398Y-70602446D01*
X86959372Y-70547404D01*
X86851344Y-70492360D01*
X86620736Y-70417432D01*
X86381245Y-70379500D01*
X86381240Y-70379500D01*
X84618760Y-70379500D01*
X84618755Y-70379500D01*
X84379263Y-70417432D01*
X84148655Y-70492360D01*
X83932598Y-70602448D01*
X83736437Y-70744966D01*
X83736432Y-70744970D01*
X83564970Y-70916432D01*
X83564966Y-70916437D01*
X83422448Y-71112598D01*
X83312360Y-71328655D01*
X83237432Y-71559263D01*
X83199500Y-71798754D01*
X83199500Y-72041245D01*
X83237432Y-72280736D01*
X83312360Y-72511344D01*
X83422448Y-72727401D01*
X83564966Y-72923562D01*
X83564970Y-72923567D01*
X83736432Y-73095029D01*
X83736437Y-73095033D01*
X83807630Y-73146757D01*
X83932602Y-73237554D01*
X84148653Y-73347638D01*
X84148655Y-73347639D01*
X84263959Y-73385103D01*
X84379265Y-73422568D01*
X84490186Y-73440136D01*
X84618755Y-73460500D01*
X84618760Y-73460500D01*
X86139903Y-73460500D01*
X86206942Y-73480185D01*
X86227584Y-73496819D01*
X91375181Y-78644416D01*
X91408666Y-78705739D01*
X91411500Y-78732097D01*
X91411500Y-81762903D01*
X91391815Y-81829942D01*
X91339011Y-81875697D01*
X91269853Y-81885641D01*
X91206297Y-81856616D01*
X91199819Y-81850584D01*
X87475314Y-78126079D01*
X87441829Y-78064756D01*
X87446813Y-77995064D01*
X87462674Y-77965516D01*
X87577554Y-77807398D01*
X87687638Y-77591347D01*
X87762568Y-77360735D01*
X87789145Y-77192935D01*
X87800500Y-77121245D01*
X87800500Y-76878754D01*
X87778432Y-76739431D01*
X87762568Y-76639265D01*
X87687638Y-76408653D01*
X87577554Y-76192602D01*
X87538801Y-76139263D01*
X87435033Y-75996437D01*
X87435029Y-75996432D01*
X87263567Y-75824970D01*
X87263562Y-75824966D01*
X87067401Y-75682448D01*
X87067400Y-75682447D01*
X87067398Y-75682446D01*
X86959372Y-75627404D01*
X86851344Y-75572360D01*
X86620736Y-75497432D01*
X86381245Y-75459500D01*
X86381240Y-75459500D01*
X84618760Y-75459500D01*
X84618755Y-75459500D01*
X84379263Y-75497432D01*
X84148655Y-75572360D01*
X83932598Y-75682448D01*
X83736437Y-75824966D01*
X83736432Y-75824970D01*
X83564970Y-75996432D01*
X83564966Y-75996437D01*
X83422448Y-76192598D01*
X83312360Y-76408655D01*
X83237432Y-76639263D01*
X83199500Y-76878754D01*
X83199500Y-77121245D01*
X83237432Y-77360736D01*
X83312360Y-77591344D01*
X83422448Y-77807401D01*
X83564966Y-78003562D01*
X83564970Y-78003567D01*
X83736432Y-78175029D01*
X83736437Y-78175033D01*
X83877249Y-78277338D01*
X83932602Y-78317554D01*
X84148653Y-78427638D01*
X84148655Y-78427639D01*
X84263959Y-78465103D01*
X84379265Y-78502568D01*
X84490186Y-78520136D01*
X84618755Y-78540500D01*
X84618760Y-78540500D01*
X86139903Y-78540500D01*
X86206942Y-78560185D01*
X86227584Y-78576819D01*
X90974181Y-83323416D01*
X91007666Y-83384739D01*
X91010500Y-83411097D01*
X91010500Y-86441903D01*
X90990815Y-86508942D01*
X90938011Y-86554697D01*
X90868853Y-86564641D01*
X90805297Y-86535616D01*
X90798819Y-86529584D01*
X87475314Y-83206079D01*
X87441829Y-83144756D01*
X87446813Y-83075064D01*
X87462674Y-83045516D01*
X87577554Y-82887398D01*
X87687638Y-82671347D01*
X87762568Y-82440735D01*
X87793062Y-82248205D01*
X87800500Y-82201245D01*
X87800500Y-81958754D01*
X87770119Y-81766941D01*
X87762568Y-81719265D01*
X87687638Y-81488653D01*
X87577554Y-81272602D01*
X87538801Y-81219263D01*
X87435033Y-81076437D01*
X87435029Y-81076432D01*
X87263567Y-80904970D01*
X87263562Y-80904966D01*
X87067401Y-80762448D01*
X87067400Y-80762447D01*
X87067398Y-80762446D01*
X86959372Y-80707404D01*
X86851344Y-80652360D01*
X86620736Y-80577432D01*
X86381245Y-80539500D01*
X86381240Y-80539500D01*
X84618760Y-80539500D01*
X84618755Y-80539500D01*
X84379263Y-80577432D01*
X84148655Y-80652360D01*
X83932598Y-80762448D01*
X83736437Y-80904966D01*
X83736432Y-80904970D01*
X83564970Y-81076432D01*
X83564966Y-81076437D01*
X83422448Y-81272598D01*
X83312360Y-81488655D01*
X83237432Y-81719263D01*
X83199500Y-81958754D01*
X83199500Y-82201245D01*
X83237432Y-82440736D01*
X83312360Y-82671344D01*
X83422448Y-82887401D01*
X83564966Y-83083562D01*
X83564970Y-83083567D01*
X83736432Y-83255029D01*
X83736437Y-83255033D01*
X83822024Y-83317215D01*
X83932602Y-83397554D01*
X84148653Y-83507638D01*
X84148655Y-83507639D01*
X84201260Y-83524731D01*
X84379265Y-83582568D01*
X84490186Y-83600136D01*
X84618755Y-83620500D01*
X84618760Y-83620500D01*
X86139903Y-83620500D01*
X86206942Y-83640185D01*
X86227584Y-83656819D01*
X90573181Y-88002416D01*
X90606666Y-88063739D01*
X90609500Y-88090097D01*
X90609500Y-91893330D01*
X90609499Y-91893348D01*
X90609499Y-92059054D01*
X90609498Y-92059054D01*
X90609499Y-92059057D01*
X90650423Y-92211785D01*
X90662865Y-92233335D01*
X90665971Y-92238714D01*
X90665971Y-92238717D01*
X90665973Y-92238717D01*
X90726917Y-92344277D01*
X90729479Y-92348714D01*
X90729481Y-92348717D01*
X90848349Y-92467585D01*
X90848355Y-92467590D01*
X92613741Y-94232976D01*
X92647226Y-94294299D01*
X92646638Y-94349588D01*
X92645661Y-94353659D01*
X92633211Y-94432264D01*
X92614500Y-94550403D01*
X92614500Y-94749597D01*
X92616086Y-94759610D01*
X92616088Y-94759621D01*
X92607131Y-94828914D01*
X92562134Y-94882365D01*
X92495382Y-94903003D01*
X92428069Y-94884277D01*
X92405933Y-94866697D01*
X86431167Y-88891932D01*
X86397682Y-88830609D01*
X86402666Y-88760917D01*
X86444538Y-88704984D01*
X86499450Y-88681778D01*
X86543833Y-88674747D01*
X86620735Y-88662568D01*
X86851347Y-88587638D01*
X87067398Y-88477554D01*
X87263569Y-88335028D01*
X87435028Y-88163569D01*
X87577554Y-87967398D01*
X87687638Y-87751347D01*
X87762568Y-87520735D01*
X87782110Y-87397347D01*
X87800500Y-87281245D01*
X87800500Y-87038754D01*
X87772560Y-86862351D01*
X87762568Y-86799265D01*
X87716554Y-86657648D01*
X87687639Y-86568655D01*
X87672407Y-86538760D01*
X87577554Y-86352602D01*
X87538801Y-86299263D01*
X87435033Y-86156437D01*
X87435029Y-86156432D01*
X87263567Y-85984970D01*
X87263562Y-85984966D01*
X87067401Y-85842448D01*
X87067400Y-85842447D01*
X87067398Y-85842446D01*
X86896758Y-85755500D01*
X86851344Y-85732360D01*
X86620736Y-85657432D01*
X86381245Y-85619500D01*
X86381240Y-85619500D01*
X84618760Y-85619500D01*
X84618755Y-85619500D01*
X84379263Y-85657432D01*
X84148655Y-85732360D01*
X83932598Y-85842448D01*
X83736437Y-85984966D01*
X83736432Y-85984970D01*
X83564970Y-86156432D01*
X83564966Y-86156437D01*
X83422448Y-86352598D01*
X83312360Y-86568655D01*
X83237432Y-86799263D01*
X83199500Y-87038754D01*
X83199500Y-87281245D01*
X83237432Y-87520736D01*
X83312360Y-87751344D01*
X83314360Y-87755269D01*
X83421336Y-87965220D01*
X83422448Y-87967401D01*
X83564966Y-88163562D01*
X83564970Y-88163567D01*
X83736432Y-88335029D01*
X83736437Y-88335033D01*
X83822024Y-88397215D01*
X83932602Y-88477554D01*
X84148653Y-88587638D01*
X84148655Y-88587639D01*
X84201260Y-88604731D01*
X84379265Y-88662568D01*
X84490186Y-88680136D01*
X84618755Y-88700500D01*
X84618760Y-88700500D01*
X84775499Y-88700500D01*
X84842538Y-88720185D01*
X84888293Y-88772989D01*
X84899499Y-88824500D01*
X84899499Y-88889054D01*
X84899498Y-88889054D01*
X84918987Y-88961785D01*
X84940423Y-89041785D01*
X84955683Y-89068215D01*
X84977390Y-89105813D01*
X85019479Y-89178715D01*
X85138349Y-89297585D01*
X85138355Y-89297590D01*
X86328584Y-90487819D01*
X86362069Y-90549142D01*
X86357085Y-90618834D01*
X86315213Y-90674767D01*
X86249749Y-90699184D01*
X86240903Y-90699500D01*
X83899982Y-90699500D01*
X83797203Y-90710000D01*
X83797202Y-90710001D01*
X83717442Y-90736431D01*
X83630667Y-90765185D01*
X83630662Y-90765187D01*
X83481342Y-90857289D01*
X83357289Y-90981342D01*
X83265187Y-91130662D01*
X83265185Y-91130667D01*
X83239979Y-91206734D01*
X83210001Y-91297202D01*
X83210001Y-91297203D01*
X83210000Y-91297203D01*
X83199500Y-91399982D01*
X83199500Y-93080017D01*
X83210000Y-93182796D01*
X83229807Y-93242568D01*
X83265186Y-93349335D01*
X83357288Y-93498656D01*
X83481344Y-93622712D01*
X83630665Y-93714814D01*
X83797202Y-93769999D01*
X83899990Y-93780500D01*
X87029903Y-93780500D01*
X87096942Y-93800185D01*
X87117584Y-93816819D01*
X92613741Y-99312977D01*
X92647226Y-99374300D01*
X92646637Y-99429592D01*
X92645661Y-99433657D01*
X92620963Y-99589596D01*
X92614500Y-99630403D01*
X92614500Y-99829597D01*
X92624829Y-99894812D01*
X92645661Y-100026340D01*
X92645661Y-100026343D01*
X92707213Y-100215780D01*
X92773409Y-100345696D01*
X92797647Y-100393266D01*
X92914731Y-100554418D01*
X93055582Y-100695269D01*
X93216734Y-100812353D01*
X93271946Y-100840485D01*
X93368172Y-100889515D01*
X93418968Y-100937490D01*
X93435763Y-101005311D01*
X93413225Y-101071446D01*
X93368172Y-101110485D01*
X93216733Y-101187647D01*
X93124790Y-101254447D01*
X93055582Y-101304731D01*
X93055580Y-101304733D01*
X93055579Y-101304733D01*
X92914733Y-101445579D01*
X92914733Y-101445580D01*
X92914731Y-101445582D01*
X92890762Y-101478573D01*
X92797647Y-101606733D01*
X92795466Y-101610293D01*
X92743652Y-101657167D01*
X92689740Y-101669500D01*
X89130097Y-101669500D01*
X89063058Y-101649815D01*
X89042416Y-101633181D01*
X87475314Y-100066079D01*
X87441829Y-100004756D01*
X87446813Y-99935064D01*
X87462674Y-99905516D01*
X87577554Y-99747398D01*
X87687638Y-99531347D01*
X87762568Y-99300735D01*
X87790138Y-99126664D01*
X87800500Y-99061245D01*
X87800500Y-98818754D01*
X87775131Y-98658584D01*
X87762568Y-98579265D01*
X87687638Y-98348653D01*
X87577554Y-98132602D01*
X87504719Y-98032353D01*
X87435033Y-97936437D01*
X87435029Y-97936432D01*
X87263567Y-97764970D01*
X87263562Y-97764966D01*
X87067401Y-97622448D01*
X87067400Y-97622447D01*
X87067398Y-97622446D01*
X86928621Y-97551735D01*
X86851344Y-97512360D01*
X86620736Y-97437432D01*
X86381245Y-97399500D01*
X86381240Y-97399500D01*
X84618760Y-97399500D01*
X84618755Y-97399500D01*
X84379263Y-97437432D01*
X84148655Y-97512360D01*
X83932598Y-97622448D01*
X83736437Y-97764966D01*
X83736432Y-97764970D01*
X83564970Y-97936432D01*
X83564966Y-97936437D01*
X83422448Y-98132598D01*
X83312360Y-98348655D01*
X83237432Y-98579263D01*
X83199500Y-98818754D01*
X83199500Y-99061245D01*
X83237432Y-99300736D01*
X83312360Y-99531344D01*
X83362834Y-99630403D01*
X83420207Y-99743004D01*
X83422448Y-99747401D01*
X83564966Y-99943562D01*
X83564970Y-99943567D01*
X83736432Y-100115029D01*
X83736437Y-100115033D01*
X83831857Y-100184359D01*
X83932602Y-100257554D01*
X84105590Y-100345696D01*
X84148655Y-100367639D01*
X84227528Y-100393266D01*
X84379265Y-100442568D01*
X84490186Y-100460136D01*
X84618755Y-100480500D01*
X84618760Y-100480500D01*
X86139903Y-100480500D01*
X86206942Y-100500185D01*
X86227584Y-100516819D01*
X88345139Y-102634374D01*
X88345149Y-102634385D01*
X88349479Y-102638715D01*
X88349480Y-102638716D01*
X88461284Y-102750520D01*
X88548095Y-102800639D01*
X88548097Y-102800641D01*
X88572803Y-102814905D01*
X88598215Y-102829577D01*
X88750943Y-102870500D01*
X92689740Y-102870500D01*
X92756779Y-102890185D01*
X92795466Y-102929707D01*
X92797647Y-102933266D01*
X92914731Y-103094418D01*
X93055582Y-103235269D01*
X93216734Y-103352353D01*
X93268549Y-103378754D01*
X93368172Y-103429515D01*
X93418968Y-103477490D01*
X93435763Y-103545311D01*
X93413225Y-103611446D01*
X93368172Y-103650485D01*
X93216733Y-103727647D01*
X93178286Y-103755581D01*
X93055582Y-103844731D01*
X93055580Y-103844733D01*
X93055579Y-103844733D01*
X92914733Y-103985579D01*
X92914733Y-103985580D01*
X92914731Y-103985582D01*
X92874630Y-104040776D01*
X92797647Y-104146733D01*
X92795466Y-104150293D01*
X92743652Y-104197167D01*
X92689740Y-104209500D01*
X87924500Y-104209500D01*
X87857461Y-104189815D01*
X87811706Y-104137011D01*
X87800500Y-104085500D01*
X87800500Y-103898754D01*
X87776239Y-103745579D01*
X87762568Y-103659265D01*
X87687638Y-103428653D01*
X87577554Y-103212602D01*
X87504719Y-103112353D01*
X87435033Y-103016437D01*
X87435029Y-103016432D01*
X87263567Y-102844970D01*
X87263562Y-102844966D01*
X87067401Y-102702448D01*
X87067400Y-102702447D01*
X87067398Y-102702446D01*
X86959372Y-102647404D01*
X86851344Y-102592360D01*
X86620736Y-102517432D01*
X86381245Y-102479500D01*
X86381240Y-102479500D01*
X84618760Y-102479500D01*
X84618755Y-102479500D01*
X84379263Y-102517432D01*
X84148655Y-102592360D01*
X83932598Y-102702448D01*
X83736437Y-102844966D01*
X83736432Y-102844970D01*
X83564970Y-103016432D01*
X83564966Y-103016437D01*
X83422448Y-103212598D01*
X83312360Y-103428655D01*
X83237432Y-103659263D01*
X83199500Y-103898754D01*
X83199500Y-104141245D01*
X83237432Y-104380736D01*
X83312360Y-104611344D01*
X83312362Y-104611347D01*
X83417430Y-104817554D01*
X83422448Y-104827401D01*
X83564966Y-105023562D01*
X83564970Y-105023567D01*
X83736432Y-105195029D01*
X83736437Y-105195033D01*
X83874849Y-105295594D01*
X83932602Y-105337554D01*
X84114400Y-105430185D01*
X84148655Y-105447639D01*
X84226725Y-105473005D01*
X84379265Y-105522568D01*
X84490186Y-105540136D01*
X84618755Y-105560500D01*
X84618760Y-105560500D01*
X86381245Y-105560500D01*
X86497347Y-105542110D01*
X86620735Y-105522568D01*
X86851347Y-105447638D01*
X86885600Y-105430185D01*
X86897710Y-105424015D01*
X86954005Y-105410500D01*
X92689740Y-105410500D01*
X92756779Y-105430185D01*
X92795466Y-105469707D01*
X92797647Y-105473266D01*
X92914731Y-105634418D01*
X93055582Y-105775269D01*
X93216734Y-105892353D01*
X93271946Y-105920485D01*
X93368172Y-105969515D01*
X93418968Y-106017490D01*
X93435763Y-106085311D01*
X93413225Y-106151446D01*
X93368172Y-106190485D01*
X93216733Y-106267647D01*
X93124790Y-106334447D01*
X93055582Y-106384731D01*
X93055580Y-106384733D01*
X93055579Y-106384733D01*
X92914733Y-106525579D01*
X92914733Y-106525580D01*
X92914731Y-106525582D01*
X92884289Y-106567482D01*
X92797647Y-106686733D01*
X92795466Y-106690293D01*
X92743652Y-106737167D01*
X92689740Y-106749500D01*
X87336670Y-106749500D01*
X87336654Y-106749499D01*
X87329058Y-106749499D01*
X87170943Y-106749499D01*
X87094579Y-106769961D01*
X87018214Y-106790423D01*
X87018209Y-106790426D01*
X86881290Y-106869475D01*
X86881282Y-106869481D01*
X86227583Y-107523181D01*
X86166260Y-107556666D01*
X86139902Y-107559500D01*
X84618755Y-107559500D01*
X84379263Y-107597432D01*
X84148655Y-107672360D01*
X83932598Y-107782448D01*
X83736437Y-107924966D01*
X83736432Y-107924970D01*
X83564970Y-108096432D01*
X83564966Y-108096437D01*
X83422448Y-108292598D01*
X83312360Y-108508655D01*
X83237432Y-108739263D01*
X83199500Y-108978754D01*
X83199500Y-109221245D01*
X83237432Y-109460736D01*
X83312360Y-109691344D01*
X83344809Y-109755028D01*
X83417430Y-109897554D01*
X83422448Y-109907401D01*
X83564966Y-110103562D01*
X83564970Y-110103567D01*
X83736432Y-110275029D01*
X83736437Y-110275033D01*
X83875105Y-110375780D01*
X83932602Y-110417554D01*
X84114400Y-110510185D01*
X84148655Y-110527639D01*
X84227528Y-110553266D01*
X84379265Y-110602568D01*
X84490186Y-110620136D01*
X84618755Y-110640500D01*
X84618760Y-110640500D01*
X86381245Y-110640500D01*
X86497347Y-110622110D01*
X86620735Y-110602568D01*
X86851347Y-110527638D01*
X87067398Y-110417554D01*
X87263569Y-110275028D01*
X87435028Y-110103569D01*
X87577554Y-109907398D01*
X87687638Y-109691347D01*
X87762568Y-109460735D01*
X87783207Y-109330423D01*
X87800500Y-109221245D01*
X87800500Y-108978754D01*
X87778432Y-108839431D01*
X87762568Y-108739265D01*
X87700603Y-108548554D01*
X87687639Y-108508655D01*
X87648761Y-108432353D01*
X87577554Y-108292602D01*
X87524272Y-108219265D01*
X87472049Y-108147385D01*
X87448569Y-108081579D01*
X87464395Y-108013525D01*
X87514501Y-107964830D01*
X87572367Y-107950500D01*
X92689740Y-107950500D01*
X92756779Y-107970185D01*
X92795466Y-108009707D01*
X92797647Y-108013266D01*
X92914731Y-108174418D01*
X93055582Y-108315269D01*
X93216734Y-108432353D01*
X93268549Y-108458754D01*
X93368172Y-108509515D01*
X93418968Y-108557490D01*
X93435763Y-108625311D01*
X93413225Y-108691446D01*
X93368172Y-108730485D01*
X93216733Y-108807647D01*
X93124790Y-108874447D01*
X93055582Y-108924731D01*
X93055580Y-108924733D01*
X93055579Y-108924733D01*
X92914733Y-109065579D01*
X92914733Y-109065580D01*
X92914731Y-109065582D01*
X92884289Y-109107482D01*
X92797647Y-109226733D01*
X92795466Y-109230293D01*
X92743652Y-109277167D01*
X92689740Y-109289500D01*
X89869057Y-109289500D01*
X89710943Y-109289500D01*
X89558215Y-109330423D01*
X89558214Y-109330423D01*
X89558212Y-109330424D01*
X89558209Y-109330425D01*
X89508096Y-109359359D01*
X89508095Y-109359360D01*
X89472345Y-109380000D01*
X89421285Y-109409479D01*
X89421282Y-109409481D01*
X89361183Y-109469581D01*
X89309480Y-109521284D01*
X89309478Y-109521286D01*
X87767980Y-111062785D01*
X86227584Y-112603181D01*
X86166261Y-112636666D01*
X86139903Y-112639500D01*
X84618755Y-112639500D01*
X84379263Y-112677432D01*
X84148655Y-112752360D01*
X83932598Y-112862448D01*
X83736437Y-113004966D01*
X83736432Y-113004970D01*
X83564970Y-113176432D01*
X83564966Y-113176437D01*
X83422448Y-113372598D01*
X83312360Y-113588655D01*
X83237432Y-113819263D01*
X83199500Y-114058754D01*
X83199500Y-114301245D01*
X83237432Y-114540736D01*
X83312360Y-114771344D01*
X83344809Y-114835028D01*
X83417430Y-114977554D01*
X83422448Y-114987401D01*
X83564966Y-115183562D01*
X83564970Y-115183567D01*
X83736432Y-115355029D01*
X83736437Y-115355033D01*
X83875105Y-115455780D01*
X83932602Y-115497554D01*
X84117762Y-115591898D01*
X84148655Y-115607639D01*
X84227528Y-115633266D01*
X84379265Y-115682568D01*
X84490186Y-115700136D01*
X84618755Y-115720500D01*
X84618760Y-115720500D01*
X86381245Y-115720500D01*
X86497347Y-115702110D01*
X86620735Y-115682568D01*
X86851347Y-115607638D01*
X87067398Y-115497554D01*
X87263569Y-115355028D01*
X87435028Y-115183569D01*
X87577554Y-114987398D01*
X87687638Y-114771347D01*
X87762568Y-114540735D01*
X87785576Y-114395465D01*
X87800500Y-114301245D01*
X87800500Y-114058754D01*
X87778432Y-113919431D01*
X87762568Y-113819265D01*
X87687638Y-113588653D01*
X87577554Y-113372602D01*
X87524272Y-113299265D01*
X87462677Y-113214486D01*
X87439197Y-113148680D01*
X87455023Y-113080626D01*
X87475310Y-113053924D01*
X90002416Y-110526819D01*
X90063739Y-110493334D01*
X90090097Y-110490500D01*
X92689740Y-110490500D01*
X92756779Y-110510185D01*
X92795466Y-110549707D01*
X92797647Y-110553266D01*
X92914731Y-110714418D01*
X93055582Y-110855269D01*
X93216734Y-110972353D01*
X93271393Y-111000203D01*
X93368172Y-111049515D01*
X93418968Y-111097490D01*
X93435763Y-111165311D01*
X93413225Y-111231446D01*
X93368172Y-111270485D01*
X93216733Y-111347647D01*
X93124790Y-111414447D01*
X93055582Y-111464731D01*
X93055580Y-111464733D01*
X93055579Y-111464733D01*
X92914733Y-111605579D01*
X92914733Y-111605580D01*
X92914731Y-111605582D01*
X92884289Y-111647482D01*
X92797647Y-111766733D01*
X92795466Y-111770293D01*
X92743652Y-111817167D01*
X92689740Y-111829500D01*
X92416670Y-111829500D01*
X92416654Y-111829499D01*
X92409058Y-111829499D01*
X92250943Y-111829499D01*
X92174579Y-111849961D01*
X92098214Y-111870423D01*
X92098209Y-111870426D01*
X91961290Y-111949475D01*
X91961282Y-111949481D01*
X86227584Y-117683181D01*
X86166261Y-117716666D01*
X86139903Y-117719500D01*
X84618755Y-117719500D01*
X84379263Y-117757432D01*
X84148655Y-117832360D01*
X83932598Y-117942448D01*
X83736437Y-118084966D01*
X83736432Y-118084970D01*
X83564970Y-118256432D01*
X83564966Y-118256437D01*
X83422448Y-118452598D01*
X83312360Y-118668655D01*
X83237432Y-118899263D01*
X83199500Y-119138754D01*
X83199500Y-119381245D01*
X83237432Y-119620736D01*
X83312360Y-119851344D01*
X83312362Y-119851347D01*
X83417430Y-120057554D01*
X83422448Y-120067401D01*
X83564966Y-120263562D01*
X83564970Y-120263567D01*
X83736432Y-120435029D01*
X83736437Y-120435033D01*
X83842853Y-120512348D01*
X83932602Y-120577554D01*
X84148653Y-120687638D01*
X84148655Y-120687639D01*
X84227528Y-120713266D01*
X84379265Y-120762568D01*
X84490186Y-120780136D01*
X84618755Y-120800500D01*
X84618760Y-120800500D01*
X86381245Y-120800500D01*
X86497347Y-120782110D01*
X86620735Y-120762568D01*
X86851347Y-120687638D01*
X87067398Y-120577554D01*
X87093895Y-120558302D01*
X87159700Y-120534821D01*
X87227754Y-120550645D01*
X87276450Y-120600750D01*
X87290327Y-120669228D01*
X87264980Y-120734337D01*
X87254463Y-120746300D01*
X85237584Y-122763181D01*
X85176261Y-122796666D01*
X85149903Y-122799500D01*
X84618755Y-122799500D01*
X84379263Y-122837432D01*
X84148655Y-122912360D01*
X83932598Y-123022448D01*
X83736437Y-123164966D01*
X83736432Y-123164970D01*
X83564970Y-123336432D01*
X83564966Y-123336437D01*
X83422448Y-123532598D01*
X83312360Y-123748655D01*
X83237432Y-123979263D01*
X83199500Y-124218754D01*
X83199500Y-124461245D01*
X83237432Y-124700736D01*
X83312360Y-124931344D01*
X83312362Y-124931347D01*
X83417430Y-125137554D01*
X83422448Y-125147401D01*
X83564966Y-125343562D01*
X83564970Y-125343567D01*
X83736432Y-125515029D01*
X83736437Y-125515033D01*
X83888882Y-125625790D01*
X83932602Y-125657554D01*
X84138979Y-125762709D01*
X84148655Y-125767639D01*
X84263959Y-125805103D01*
X84379265Y-125842568D01*
X84490186Y-125860136D01*
X84618755Y-125880500D01*
X84618760Y-125880500D01*
X86381245Y-125880500D01*
X86620735Y-125842568D01*
X86690494Y-125819902D01*
X86838183Y-125771914D01*
X86908023Y-125769920D01*
X86967856Y-125806000D01*
X86998684Y-125868701D01*
X87000500Y-125889846D01*
X87000500Y-127018902D01*
X86980815Y-127085941D01*
X86964181Y-127106583D01*
X86227583Y-127843181D01*
X86166260Y-127876666D01*
X86139902Y-127879500D01*
X84618755Y-127879500D01*
X84379263Y-127917432D01*
X84148655Y-127992360D01*
X83932598Y-128102448D01*
X83736437Y-128244966D01*
X83736432Y-128244970D01*
X83564970Y-128416432D01*
X83564966Y-128416437D01*
X83422448Y-128612598D01*
X83312360Y-128828655D01*
X83237432Y-129059263D01*
X83199500Y-129298754D01*
X83199500Y-129541245D01*
X83237432Y-129780736D01*
X83312360Y-130011344D01*
X83312362Y-130011347D01*
X83417430Y-130217554D01*
X83422448Y-130227401D01*
X83564966Y-130423562D01*
X83564970Y-130423567D01*
X83736432Y-130595029D01*
X83736437Y-130595033D01*
X83843887Y-130673099D01*
X83932602Y-130737554D01*
X84148653Y-130847638D01*
X84148655Y-130847639D01*
X84252070Y-130881240D01*
X84379265Y-130922568D01*
X84490186Y-130940136D01*
X84618755Y-130960500D01*
X84618760Y-130960500D01*
X86381245Y-130960500D01*
X86497347Y-130942110D01*
X86620735Y-130922568D01*
X86851347Y-130847638D01*
X87067398Y-130737554D01*
X87263569Y-130595028D01*
X87435028Y-130423569D01*
X87577554Y-130227398D01*
X87687638Y-130011347D01*
X87762568Y-129780735D01*
X87782110Y-129657347D01*
X87800500Y-129541245D01*
X87800500Y-129298754D01*
X87771990Y-129118754D01*
X87762568Y-129059265D01*
X87687638Y-128828653D01*
X87577554Y-128612602D01*
X87524272Y-128539265D01*
X87462677Y-128454486D01*
X87439197Y-128388680D01*
X87455023Y-128320626D01*
X87475310Y-128293924D01*
X88081520Y-127687716D01*
X88160577Y-127550784D01*
X88201501Y-127398057D01*
X88201501Y-127239942D01*
X88201501Y-127232347D01*
X88201500Y-127232329D01*
X88201500Y-124089096D01*
X88221185Y-124022057D01*
X88237814Y-124001420D01*
X92405935Y-119833298D01*
X92467256Y-119799815D01*
X92536948Y-119804799D01*
X92592881Y-119846671D01*
X92617298Y-119912135D01*
X92616088Y-119940372D01*
X92614500Y-119950400D01*
X92614500Y-119950403D01*
X92614500Y-120149597D01*
X92617358Y-120167639D01*
X92645661Y-120346340D01*
X92645661Y-120346343D01*
X92707213Y-120535780D01*
X92779706Y-120678054D01*
X92797647Y-120713266D01*
X92914731Y-120874418D01*
X93055582Y-121015269D01*
X93216734Y-121132353D01*
X93216744Y-121132358D01*
X93220273Y-121134520D01*
X93267157Y-121186325D01*
X93279500Y-121240258D01*
X93279500Y-125819902D01*
X93259815Y-125886941D01*
X93243181Y-125907583D01*
X86227584Y-132923181D01*
X86166261Y-132956666D01*
X86139903Y-132959500D01*
X83899982Y-132959500D01*
X83797203Y-132970000D01*
X83797202Y-132970001D01*
X83714669Y-132997349D01*
X83630667Y-133025185D01*
X83630662Y-133025187D01*
X83481342Y-133117289D01*
X83357289Y-133241342D01*
X83265187Y-133390662D01*
X83265186Y-133390665D01*
X83210001Y-133557202D01*
X83210001Y-133557203D01*
X83210000Y-133557203D01*
X83199500Y-133659982D01*
X83199500Y-135340017D01*
X83210000Y-135442796D01*
X83210001Y-135442798D01*
X83265186Y-135609335D01*
X83357288Y-135758656D01*
X83481344Y-135882712D01*
X83630665Y-135974814D01*
X83797202Y-136029999D01*
X83899990Y-136040500D01*
X83899995Y-136040500D01*
X87100005Y-136040500D01*
X87100010Y-136040500D01*
X87202798Y-136029999D01*
X87369335Y-135974814D01*
X87518656Y-135882712D01*
X87642712Y-135758656D01*
X87734814Y-135609335D01*
X87789999Y-135442798D01*
X87800500Y-135340010D01*
X87800500Y-133659990D01*
X87789999Y-133557202D01*
X87734814Y-133390665D01*
X87734810Y-133390659D01*
X87734809Y-133390656D01*
X87680899Y-133303255D01*
X87662458Y-133235863D01*
X87683380Y-133169199D01*
X87698751Y-133150482D01*
X90996748Y-129852486D01*
X95749500Y-129852486D01*
X95749500Y-130147513D01*
X95768482Y-130291690D01*
X95788007Y-130439993D01*
X95857675Y-130700000D01*
X95864361Y-130724951D01*
X95864364Y-130724961D01*
X95977254Y-130997500D01*
X95977258Y-130997510D01*
X96124761Y-131252993D01*
X96304352Y-131487040D01*
X96304358Y-131487047D01*
X96512955Y-131695644D01*
X96747006Y-131875238D01*
X97002489Y-132022741D01*
X97002490Y-132022741D01*
X97002493Y-132022743D01*
X97275048Y-132135639D01*
X97560007Y-132211993D01*
X97852494Y-132250500D01*
X97852501Y-132250500D01*
X98147499Y-132250500D01*
X98147506Y-132250500D01*
X98439993Y-132211993D01*
X98724952Y-132135639D01*
X98997507Y-132022743D01*
X99252994Y-131875238D01*
X99477853Y-131702697D01*
X99487045Y-131695644D01*
X99487047Y-131695641D01*
X99695641Y-131487047D01*
X99695646Y-131487042D01*
X99875238Y-131252994D01*
X100022743Y-130997507D01*
X100135639Y-130724952D01*
X100211993Y-130439993D01*
X100250500Y-130147506D01*
X100250500Y-129852494D01*
X100211993Y-129560007D01*
X100135639Y-129275048D01*
X100022743Y-129002493D01*
X99951596Y-128879263D01*
X99875238Y-128747006D01*
X99695647Y-128512959D01*
X99695641Y-128512952D01*
X99487047Y-128304358D01*
X99487040Y-128304352D01*
X99252993Y-128124761D01*
X98997510Y-127977258D01*
X98997500Y-127977254D01*
X98724961Y-127864364D01*
X98724954Y-127864362D01*
X98724952Y-127864361D01*
X98439993Y-127788007D01*
X98391113Y-127781571D01*
X98147513Y-127749500D01*
X98147506Y-127749500D01*
X97852494Y-127749500D01*
X97852486Y-127749500D01*
X97574085Y-127786153D01*
X97560007Y-127788007D01*
X97299982Y-127857680D01*
X97275048Y-127864361D01*
X97275038Y-127864364D01*
X97002499Y-127977254D01*
X97002489Y-127977258D01*
X96747006Y-128124761D01*
X96512959Y-128304352D01*
X96512952Y-128304358D01*
X96304358Y-128512952D01*
X96304352Y-128512959D01*
X96124761Y-128747006D01*
X95977258Y-129002489D01*
X95977254Y-129002499D01*
X95864364Y-129275038D01*
X95864361Y-129275048D01*
X95788008Y-129560004D01*
X95788006Y-129560015D01*
X95749500Y-129852486D01*
X90996748Y-129852486D01*
X94360520Y-126488716D01*
X94439577Y-126351784D01*
X94480501Y-126199057D01*
X94480501Y-126040942D01*
X94480501Y-126033347D01*
X94480500Y-126033329D01*
X94480500Y-124838054D01*
X129418498Y-124838054D01*
X129459423Y-124990785D01*
X129459424Y-124990788D01*
X129461873Y-124995029D01*
X129461876Y-124995034D01*
X129538477Y-125127712D01*
X129538481Y-125127717D01*
X129657349Y-125246585D01*
X129657355Y-125246590D01*
X133683181Y-129272416D01*
X133716666Y-129333739D01*
X133719500Y-129360097D01*
X133719500Y-130881245D01*
X133757432Y-131120736D01*
X133832360Y-131351344D01*
X133832362Y-131351347D01*
X133918030Y-131519480D01*
X133942448Y-131567401D01*
X134084966Y-131763562D01*
X134084970Y-131763567D01*
X134256432Y-131935029D01*
X134256437Y-131935033D01*
X134427539Y-132059345D01*
X134452602Y-132077554D01*
X134668653Y-132187638D01*
X134668655Y-132187639D01*
X134743604Y-132211991D01*
X134899265Y-132262568D01*
X135010186Y-132280136D01*
X135138755Y-132300500D01*
X135138760Y-132300500D01*
X135381245Y-132300500D01*
X135497347Y-132282110D01*
X135620735Y-132262568D01*
X135851347Y-132187638D01*
X136067398Y-132077554D01*
X136225515Y-131962675D01*
X136291317Y-131939197D01*
X136359371Y-131955022D01*
X136386078Y-131975314D01*
X136992284Y-132581520D01*
X136992286Y-132581521D01*
X136992290Y-132581524D01*
X137129209Y-132660573D01*
X137129216Y-132660577D01*
X137281943Y-132701501D01*
X137281945Y-132701501D01*
X137447654Y-132701501D01*
X137447670Y-132701500D01*
X140808791Y-132701500D01*
X140808807Y-132701501D01*
X140816403Y-132701501D01*
X140974514Y-132701501D01*
X140974517Y-132701501D01*
X141127245Y-132660577D01*
X141177364Y-132631639D01*
X141264176Y-132581520D01*
X141375980Y-132469716D01*
X141375980Y-132469714D01*
X141386188Y-132459507D01*
X141386189Y-132459504D01*
X143667821Y-130177873D01*
X143729142Y-130144390D01*
X143798834Y-130149374D01*
X143854767Y-130191246D01*
X143879184Y-130256710D01*
X143879500Y-130265556D01*
X143879500Y-130881245D01*
X143917432Y-131120736D01*
X143992360Y-131351344D01*
X143992362Y-131351347D01*
X144078030Y-131519480D01*
X144102448Y-131567401D01*
X144244966Y-131763562D01*
X144244970Y-131763567D01*
X144416432Y-131935029D01*
X144416437Y-131935033D01*
X144587539Y-132059345D01*
X144612602Y-132077554D01*
X144828653Y-132187638D01*
X144828655Y-132187639D01*
X144903604Y-132211991D01*
X145059265Y-132262568D01*
X145170186Y-132280136D01*
X145298755Y-132300500D01*
X145298760Y-132300500D01*
X145541245Y-132300500D01*
X145657347Y-132282110D01*
X145780735Y-132262568D01*
X146011347Y-132187638D01*
X146227398Y-132077554D01*
X146423569Y-131935028D01*
X146595028Y-131763569D01*
X146737554Y-131567398D01*
X146847638Y-131351347D01*
X146922568Y-131120735D01*
X146947947Y-130960500D01*
X146960500Y-130881245D01*
X146960500Y-129360097D01*
X146980185Y-129293058D01*
X146996819Y-129272416D01*
X147869222Y-128400013D01*
X148960000Y-128400013D01*
X148960000Y-129750000D01*
X149845879Y-129750000D01*
X149826901Y-129795818D01*
X149800000Y-129931056D01*
X149800000Y-130068944D01*
X149826901Y-130204182D01*
X149845879Y-130250000D01*
X148960001Y-130250000D01*
X148960001Y-131599986D01*
X148970494Y-131702696D01*
X148970494Y-131702698D01*
X149025640Y-131869119D01*
X149025645Y-131869130D01*
X149117680Y-132018340D01*
X149117683Y-132018344D01*
X149241655Y-132142316D01*
X149241659Y-132142319D01*
X149390869Y-132234354D01*
X149390880Y-132234359D01*
X149557302Y-132289505D01*
X149660019Y-132299999D01*
X150249999Y-132299999D01*
X150250000Y-132299998D01*
X150250000Y-130654120D01*
X150295818Y-130673099D01*
X150431056Y-130700000D01*
X150568944Y-130700000D01*
X150704182Y-130673099D01*
X150750000Y-130654120D01*
X150750000Y-132299999D01*
X151339972Y-132299999D01*
X151339986Y-132299998D01*
X151442696Y-132289505D01*
X151442698Y-132289505D01*
X151609119Y-132234359D01*
X151609130Y-132234354D01*
X151758340Y-132142319D01*
X151758344Y-132142316D01*
X151882316Y-132018344D01*
X151882319Y-132018340D01*
X151974354Y-131869130D01*
X151974359Y-131869119D01*
X152029505Y-131702697D01*
X152039999Y-131599986D01*
X152040000Y-131599973D01*
X152040000Y-130250000D01*
X151154121Y-130250000D01*
X151173099Y-130204182D01*
X151200000Y-130068944D01*
X151200000Y-129931056D01*
X151184371Y-129852486D01*
X155749500Y-129852486D01*
X155749500Y-130147513D01*
X155768482Y-130291690D01*
X155788007Y-130439993D01*
X155857675Y-130700000D01*
X155864361Y-130724951D01*
X155864364Y-130724961D01*
X155977254Y-130997500D01*
X155977258Y-130997510D01*
X156124761Y-131252993D01*
X156304352Y-131487040D01*
X156304358Y-131487047D01*
X156512955Y-131695644D01*
X156747006Y-131875238D01*
X157002489Y-132022741D01*
X157002490Y-132022741D01*
X157002493Y-132022743D01*
X157275048Y-132135639D01*
X157560007Y-132211993D01*
X157852494Y-132250500D01*
X157852501Y-132250500D01*
X158147499Y-132250500D01*
X158147506Y-132250500D01*
X158439993Y-132211993D01*
X158724952Y-132135639D01*
X158997507Y-132022743D01*
X159252994Y-131875238D01*
X159477853Y-131702697D01*
X159487045Y-131695644D01*
X159487047Y-131695641D01*
X159695641Y-131487047D01*
X159695646Y-131487042D01*
X159875238Y-131252994D01*
X160022743Y-130997507D01*
X160135639Y-130724952D01*
X160211993Y-130439993D01*
X160250500Y-130147506D01*
X160250500Y-129852494D01*
X160211993Y-129560007D01*
X160135639Y-129275048D01*
X160022743Y-129002493D01*
X159951596Y-128879263D01*
X159875238Y-128747006D01*
X159695647Y-128512959D01*
X159695641Y-128512952D01*
X159487047Y-128304358D01*
X159487040Y-128304352D01*
X159252993Y-128124761D01*
X158997510Y-127977258D01*
X158997500Y-127977254D01*
X158724961Y-127864364D01*
X158724954Y-127864362D01*
X158724952Y-127864361D01*
X158439993Y-127788007D01*
X158391113Y-127781571D01*
X158147513Y-127749500D01*
X158147506Y-127749500D01*
X157852494Y-127749500D01*
X157852486Y-127749500D01*
X157574085Y-127786153D01*
X157560007Y-127788007D01*
X157299982Y-127857680D01*
X157275048Y-127864361D01*
X157275038Y-127864364D01*
X157002499Y-127977254D01*
X157002489Y-127977258D01*
X156747006Y-128124761D01*
X156512959Y-128304352D01*
X156512952Y-128304358D01*
X156304358Y-128512952D01*
X156304352Y-128512959D01*
X156124761Y-128747006D01*
X155977258Y-129002489D01*
X155977254Y-129002499D01*
X155864364Y-129275038D01*
X155864361Y-129275048D01*
X155788008Y-129560004D01*
X155788006Y-129560015D01*
X155749500Y-129852486D01*
X151184371Y-129852486D01*
X151173099Y-129795818D01*
X151154121Y-129750000D01*
X152039999Y-129750000D01*
X152039999Y-128400028D01*
X152039998Y-128400013D01*
X152029505Y-128297303D01*
X152029505Y-128297301D01*
X151974359Y-128130880D01*
X151974354Y-128130869D01*
X151882319Y-127981659D01*
X151882316Y-127981655D01*
X151758344Y-127857683D01*
X151758340Y-127857680D01*
X151609130Y-127765645D01*
X151609119Y-127765640D01*
X151442697Y-127710494D01*
X151339986Y-127700000D01*
X150750000Y-127700000D01*
X150750000Y-129345879D01*
X150704182Y-129326901D01*
X150568944Y-129300000D01*
X150431056Y-129300000D01*
X150295818Y-129326901D01*
X150250000Y-129345879D01*
X150250000Y-127700000D01*
X149660028Y-127700000D01*
X149660012Y-127700001D01*
X149557303Y-127710494D01*
X149557301Y-127710494D01*
X149390880Y-127765640D01*
X149390869Y-127765645D01*
X149241659Y-127857680D01*
X149241655Y-127857683D01*
X149117683Y-127981655D01*
X149117680Y-127981659D01*
X149025645Y-128130869D01*
X149025640Y-128130880D01*
X148970494Y-128297302D01*
X148960000Y-128400013D01*
X147869222Y-128400013D01*
X148718451Y-127550784D01*
X150506520Y-125762716D01*
X150585577Y-125625784D01*
X150626501Y-125473057D01*
X150626501Y-125314942D01*
X150626501Y-125307347D01*
X150626500Y-125307329D01*
X150626500Y-117172355D01*
X150646185Y-117105316D01*
X150698989Y-117059561D01*
X150768147Y-117049617D01*
X150823387Y-117072038D01*
X150836993Y-117081924D01*
X151014405Y-117172320D01*
X151203777Y-117233852D01*
X151400437Y-117265000D01*
X151599563Y-117265000D01*
X151796222Y-117233852D01*
X151985594Y-117172320D01*
X152163005Y-117081924D01*
X152200863Y-117054418D01*
X152200863Y-117054417D01*
X151637574Y-116491128D01*
X151696853Y-116475245D01*
X151813147Y-116408102D01*
X151908102Y-116313147D01*
X151975245Y-116196853D01*
X151991128Y-116137574D01*
X152554417Y-116700863D01*
X152554418Y-116700863D01*
X152581924Y-116663005D01*
X152672320Y-116485594D01*
X152733852Y-116296222D01*
X152765000Y-116099563D01*
X152765000Y-115900436D01*
X152733852Y-115703777D01*
X152672320Y-115514405D01*
X152581924Y-115336994D01*
X152554417Y-115299135D01*
X152554417Y-115299134D01*
X151991128Y-115862424D01*
X151975245Y-115803147D01*
X151908102Y-115686853D01*
X151813147Y-115591898D01*
X151696853Y-115524755D01*
X151637572Y-115508871D01*
X152200864Y-114945580D01*
X152163008Y-114918077D01*
X151985594Y-114827679D01*
X151796222Y-114766147D01*
X151599563Y-114735000D01*
X151400437Y-114735000D01*
X151203777Y-114766147D01*
X151014405Y-114827679D01*
X150836993Y-114918076D01*
X150823383Y-114927964D01*
X150757576Y-114951442D01*
X150689523Y-114935615D01*
X150640829Y-114885509D01*
X150626500Y-114827644D01*
X150626500Y-112694096D01*
X150646185Y-112627057D01*
X150662814Y-112606420D01*
X153836536Y-109432697D01*
X153897857Y-109399214D01*
X153967549Y-109404198D01*
X154023482Y-109446070D01*
X154047899Y-109511534D01*
X154046689Y-109539777D01*
X154045000Y-109550441D01*
X154045000Y-109749563D01*
X154076147Y-109946222D01*
X154137679Y-110135594D01*
X154228077Y-110313008D01*
X154255580Y-110350863D01*
X154255580Y-110350864D01*
X154818871Y-109787572D01*
X154834755Y-109846853D01*
X154901898Y-109963147D01*
X154996853Y-110058102D01*
X155113147Y-110125245D01*
X155172423Y-110141127D01*
X154609134Y-110704417D01*
X154646994Y-110731924D01*
X154824405Y-110822320D01*
X155013777Y-110883852D01*
X155210437Y-110915000D01*
X155409563Y-110915000D01*
X155606222Y-110883852D01*
X155795596Y-110822320D01*
X155818204Y-110810801D01*
X155886873Y-110797904D01*
X155951614Y-110824180D01*
X155991872Y-110881286D01*
X155998500Y-110921285D01*
X155998500Y-120512330D01*
X155998499Y-120512348D01*
X155998499Y-120678054D01*
X155998498Y-120678054D01*
X156039422Y-120830783D01*
X156064614Y-120874416D01*
X156064616Y-120874419D01*
X156118479Y-120967714D01*
X156118481Y-120967717D01*
X156237349Y-121086585D01*
X156237355Y-121086590D01*
X167363181Y-132212416D01*
X167377884Y-132239343D01*
X167394477Y-132265162D01*
X167395368Y-132271362D01*
X167396666Y-132273739D01*
X167399500Y-132300097D01*
X167399500Y-132315500D01*
X167379815Y-132382539D01*
X167327011Y-132428294D01*
X167275500Y-132439500D01*
X167118755Y-132439500D01*
X166879263Y-132477432D01*
X166648655Y-132552360D01*
X166432598Y-132662448D01*
X166236437Y-132804966D01*
X166236432Y-132804970D01*
X166064970Y-132976432D01*
X166064966Y-132976437D01*
X165922448Y-133172598D01*
X165812360Y-133388655D01*
X165737432Y-133619263D01*
X165699500Y-133858754D01*
X165699500Y-134101245D01*
X165737432Y-134340736D01*
X165812360Y-134571344D01*
X165922448Y-134787401D01*
X166064966Y-134983562D01*
X166064970Y-134983567D01*
X166236432Y-135155029D01*
X166236437Y-135155033D01*
X166407539Y-135279345D01*
X166432602Y-135297554D01*
X166648653Y-135407638D01*
X166648655Y-135407639D01*
X166756859Y-135442796D01*
X166879265Y-135482568D01*
X166990186Y-135500136D01*
X167118755Y-135520500D01*
X167118760Y-135520500D01*
X168881245Y-135520500D01*
X168997347Y-135502110D01*
X169120735Y-135482568D01*
X169351347Y-135407638D01*
X169567398Y-135297554D01*
X169763569Y-135155028D01*
X169935028Y-134983569D01*
X170077554Y-134787398D01*
X170187638Y-134571347D01*
X170262568Y-134340735D01*
X170282110Y-134217347D01*
X170300500Y-134101245D01*
X170300500Y-133858754D01*
X170269018Y-133659990D01*
X170262568Y-133619265D01*
X170225103Y-133503959D01*
X170187639Y-133388655D01*
X170144125Y-133303255D01*
X170077554Y-133172602D01*
X170037366Y-133117288D01*
X169935033Y-132976437D01*
X169935029Y-132976432D01*
X169763567Y-132804970D01*
X169763562Y-132804966D01*
X169567401Y-132662448D01*
X169567400Y-132662447D01*
X169567398Y-132662446D01*
X169459372Y-132607404D01*
X169351344Y-132552360D01*
X169120736Y-132477432D01*
X168881245Y-132439500D01*
X168881240Y-132439500D01*
X168724500Y-132439500D01*
X168715814Y-132436949D01*
X168706853Y-132438238D01*
X168682812Y-132427259D01*
X168657461Y-132419815D01*
X168651533Y-132412974D01*
X168643297Y-132409213D01*
X168629007Y-132386978D01*
X168611706Y-132367011D01*
X168609418Y-132356496D01*
X168605523Y-132350435D01*
X168600500Y-132315500D01*
X168600500Y-132089059D01*
X168600501Y-132089046D01*
X168600501Y-131920945D01*
X168600501Y-131920943D01*
X168559577Y-131768215D01*
X168517679Y-131695646D01*
X168480520Y-131631284D01*
X168368716Y-131519480D01*
X168368715Y-131519479D01*
X168364385Y-131515149D01*
X168364374Y-131515139D01*
X167501416Y-130652181D01*
X167467931Y-130590858D01*
X167472915Y-130521166D01*
X167514787Y-130465233D01*
X167580251Y-130440816D01*
X167589097Y-130440500D01*
X168881245Y-130440500D01*
X168997347Y-130422110D01*
X169120735Y-130402568D01*
X169351347Y-130327638D01*
X169567398Y-130217554D01*
X169763569Y-130075028D01*
X169935028Y-129903569D01*
X170077554Y-129707398D01*
X170187638Y-129491347D01*
X170262568Y-129260735D01*
X170282110Y-129137347D01*
X170300500Y-129021245D01*
X170300500Y-128778754D01*
X170274183Y-128612598D01*
X170262568Y-128539265D01*
X170209299Y-128375319D01*
X170187639Y-128308655D01*
X170185448Y-128304354D01*
X170077554Y-128092602D01*
X169993752Y-127977258D01*
X169935033Y-127896437D01*
X169935029Y-127896432D01*
X169763567Y-127724970D01*
X169763562Y-127724966D01*
X169567401Y-127582448D01*
X169567400Y-127582447D01*
X169567398Y-127582446D01*
X169459372Y-127527404D01*
X169351344Y-127472360D01*
X169120736Y-127397432D01*
X168881245Y-127359500D01*
X168881240Y-127359500D01*
X167360097Y-127359500D01*
X167293058Y-127339815D01*
X167272416Y-127323181D01*
X157636819Y-117687584D01*
X157603334Y-117626261D01*
X157600500Y-117599903D01*
X157600500Y-114569097D01*
X157620185Y-114502058D01*
X157672989Y-114456303D01*
X157742147Y-114446359D01*
X157805703Y-114475384D01*
X157812181Y-114481416D01*
X166024685Y-122693921D01*
X166058170Y-122755244D01*
X166053186Y-122824936D01*
X166037322Y-122854487D01*
X165922448Y-123012598D01*
X165812360Y-123228655D01*
X165737432Y-123459263D01*
X165699500Y-123698754D01*
X165699500Y-123941245D01*
X165737432Y-124180736D01*
X165812360Y-124411344D01*
X165922448Y-124627401D01*
X166064966Y-124823562D01*
X166064970Y-124823567D01*
X166236432Y-124995029D01*
X166236437Y-124995033D01*
X166407539Y-125119345D01*
X166432602Y-125137554D01*
X166632721Y-125239520D01*
X166648655Y-125247639D01*
X166763959Y-125285103D01*
X166879265Y-125322568D01*
X166990186Y-125340136D01*
X167118755Y-125360500D01*
X167118760Y-125360500D01*
X168881245Y-125360500D01*
X168997347Y-125342110D01*
X169120735Y-125322568D01*
X169351347Y-125247638D01*
X169567398Y-125137554D01*
X169763569Y-124995028D01*
X169935028Y-124823569D01*
X170077554Y-124627398D01*
X170187638Y-124411347D01*
X170262568Y-124180735D01*
X170287700Y-124022057D01*
X170300500Y-123941245D01*
X170300500Y-123698754D01*
X170274183Y-123532598D01*
X170262568Y-123459265D01*
X170187638Y-123228653D01*
X170077554Y-123012602D01*
X170059345Y-122987539D01*
X169935033Y-122816437D01*
X169935029Y-122816432D01*
X169763567Y-122644970D01*
X169763562Y-122644966D01*
X169567401Y-122502448D01*
X169567400Y-122502447D01*
X169567398Y-122502446D01*
X169459372Y-122447404D01*
X169351344Y-122392360D01*
X169120736Y-122317432D01*
X168881245Y-122279500D01*
X168881240Y-122279500D01*
X167360098Y-122279500D01*
X167293059Y-122259815D01*
X167272417Y-122243181D01*
X158037819Y-113008583D01*
X158004334Y-112947260D01*
X158001500Y-112920902D01*
X158001500Y-109890097D01*
X158021185Y-109823058D01*
X158073989Y-109777303D01*
X158143147Y-109767359D01*
X158206703Y-109796384D01*
X158213181Y-109802416D01*
X166024685Y-117613920D01*
X166058170Y-117675243D01*
X166053186Y-117744935D01*
X166037322Y-117774486D01*
X165922448Y-117932598D01*
X165812360Y-118148655D01*
X165737432Y-118379263D01*
X165699500Y-118618754D01*
X165699500Y-118861245D01*
X165737432Y-119100736D01*
X165812360Y-119331344D01*
X165922448Y-119547401D01*
X166064966Y-119743562D01*
X166064970Y-119743567D01*
X166236432Y-119915029D01*
X166236437Y-119915033D01*
X166407539Y-120039345D01*
X166432602Y-120057554D01*
X166613244Y-120149596D01*
X166648655Y-120167639D01*
X166763959Y-120205103D01*
X166879265Y-120242568D01*
X166990186Y-120260136D01*
X167118755Y-120280500D01*
X167118760Y-120280500D01*
X168881245Y-120280500D01*
X168997347Y-120262110D01*
X169120735Y-120242568D01*
X169351347Y-120167638D01*
X169567398Y-120057554D01*
X169763569Y-119915028D01*
X169935028Y-119743569D01*
X170077554Y-119547398D01*
X170187638Y-119331347D01*
X170262568Y-119100735D01*
X170286642Y-118948735D01*
X170300500Y-118861245D01*
X170300500Y-118618754D01*
X170274183Y-118452598D01*
X170262568Y-118379265D01*
X170195635Y-118173266D01*
X170187639Y-118148655D01*
X170180131Y-118133920D01*
X170077554Y-117932602D01*
X170004724Y-117832360D01*
X169935033Y-117736437D01*
X169935029Y-117736432D01*
X169763567Y-117564970D01*
X169763562Y-117564966D01*
X169567401Y-117422448D01*
X169567400Y-117422447D01*
X169567398Y-117422446D01*
X169383803Y-117328899D01*
X169351344Y-117312360D01*
X169120736Y-117237432D01*
X168881245Y-117199500D01*
X168881240Y-117199500D01*
X167360097Y-117199500D01*
X167293058Y-117179815D01*
X167272416Y-117163181D01*
X158438819Y-108329584D01*
X158405334Y-108268261D01*
X158402500Y-108241903D01*
X158402500Y-105211097D01*
X158422185Y-105144058D01*
X158474989Y-105098303D01*
X158544147Y-105088359D01*
X158607703Y-105117384D01*
X158614181Y-105123416D01*
X166024685Y-112533920D01*
X166058170Y-112595243D01*
X166053186Y-112664935D01*
X166037322Y-112694486D01*
X165922448Y-112852598D01*
X165812360Y-113068655D01*
X165737432Y-113299263D01*
X165699500Y-113538754D01*
X165699500Y-113781245D01*
X165737432Y-114020736D01*
X165812360Y-114251344D01*
X165922448Y-114467401D01*
X166064966Y-114663562D01*
X166064970Y-114663567D01*
X166236432Y-114835029D01*
X166236437Y-114835033D01*
X166364347Y-114927964D01*
X166432602Y-114977554D01*
X166613244Y-115069596D01*
X166648655Y-115087639D01*
X166763959Y-115125103D01*
X166879265Y-115162568D01*
X166990186Y-115180136D01*
X167118755Y-115200500D01*
X167118760Y-115200500D01*
X168881245Y-115200500D01*
X168997347Y-115182110D01*
X169120735Y-115162568D01*
X169351347Y-115087638D01*
X169567398Y-114977554D01*
X169763569Y-114835028D01*
X169935028Y-114663569D01*
X170077554Y-114467398D01*
X170187638Y-114251347D01*
X170262568Y-114020735D01*
X170283647Y-113887647D01*
X170300500Y-113781245D01*
X170300500Y-113538754D01*
X170271914Y-113358273D01*
X170262568Y-113299265D01*
X170194479Y-113089707D01*
X170187639Y-113068655D01*
X170187638Y-113068653D01*
X170077554Y-112852602D01*
X169973948Y-112710000D01*
X169935033Y-112656437D01*
X169935029Y-112656432D01*
X169763567Y-112484970D01*
X169763562Y-112484966D01*
X169567401Y-112342448D01*
X169567400Y-112342447D01*
X169567398Y-112342446D01*
X169459372Y-112287404D01*
X169351344Y-112232360D01*
X169120736Y-112157432D01*
X168881245Y-112119500D01*
X168881240Y-112119500D01*
X167360097Y-112119500D01*
X167293058Y-112099815D01*
X167272416Y-112083181D01*
X158839819Y-103650584D01*
X158806334Y-103589261D01*
X158803500Y-103562903D01*
X158803500Y-100532097D01*
X158823185Y-100465058D01*
X158875989Y-100419303D01*
X158945147Y-100409359D01*
X159008703Y-100438384D01*
X159015180Y-100444415D01*
X162556343Y-103985579D01*
X166024685Y-107453921D01*
X166058170Y-107515244D01*
X166053186Y-107584936D01*
X166037322Y-107614487D01*
X165922448Y-107772598D01*
X165812360Y-107988655D01*
X165737432Y-108219263D01*
X165699500Y-108458754D01*
X165699500Y-108701245D01*
X165737432Y-108940736D01*
X165812360Y-109171344D01*
X165842916Y-109231312D01*
X165908160Y-109359361D01*
X165922448Y-109387401D01*
X166064966Y-109583562D01*
X166064970Y-109583567D01*
X166236432Y-109755029D01*
X166236437Y-109755033D01*
X166330171Y-109823134D01*
X166432602Y-109897554D01*
X166613246Y-109989597D01*
X166648655Y-110007639D01*
X166763959Y-110045103D01*
X166879265Y-110082568D01*
X166990186Y-110100136D01*
X167118755Y-110120500D01*
X167118760Y-110120500D01*
X168881245Y-110120500D01*
X168997347Y-110102110D01*
X169120735Y-110082568D01*
X169351347Y-110007638D01*
X169567398Y-109897554D01*
X169763569Y-109755028D01*
X169935028Y-109583569D01*
X170077554Y-109387398D01*
X170187638Y-109171347D01*
X170262568Y-108940735D01*
X170283647Y-108807647D01*
X170300500Y-108701245D01*
X170300500Y-108458754D01*
X170274056Y-108291801D01*
X170262568Y-108219265D01*
X170209299Y-108055319D01*
X170187639Y-107988655D01*
X170177711Y-107969170D01*
X170077554Y-107772602D01*
X169973948Y-107630000D01*
X169935033Y-107576437D01*
X169935029Y-107576432D01*
X169763567Y-107404970D01*
X169763562Y-107404966D01*
X169567401Y-107262448D01*
X169567400Y-107262447D01*
X169567398Y-107262446D01*
X169459372Y-107207404D01*
X169351344Y-107152360D01*
X169120736Y-107077432D01*
X168881245Y-107039500D01*
X168881240Y-107039500D01*
X167360098Y-107039500D01*
X167293059Y-107019815D01*
X167272417Y-107003181D01*
X159240819Y-98971583D01*
X159207334Y-98910260D01*
X159204500Y-98883902D01*
X159204500Y-95084945D01*
X159204500Y-95084943D01*
X159163577Y-94932216D01*
X159132982Y-94879223D01*
X159084524Y-94795290D01*
X159084521Y-94795286D01*
X159084520Y-94795284D01*
X158972716Y-94683480D01*
X158972715Y-94683479D01*
X158968385Y-94679149D01*
X158968374Y-94679139D01*
X156576257Y-92287022D01*
X156542772Y-92225699D01*
X156543368Y-92170378D01*
X156544332Y-92166358D01*
X156544339Y-92166339D01*
X156575500Y-91969597D01*
X156575500Y-91770403D01*
X156573912Y-91760379D01*
X156582865Y-91691089D01*
X156627860Y-91637636D01*
X156694611Y-91616995D01*
X156761926Y-91635718D01*
X156784066Y-91653301D01*
X166924066Y-101793301D01*
X166957551Y-101854624D01*
X166952567Y-101924316D01*
X166910695Y-101980249D01*
X166874703Y-101998913D01*
X166648655Y-102072360D01*
X166432598Y-102182448D01*
X166236437Y-102324966D01*
X166236432Y-102324970D01*
X166064970Y-102496432D01*
X166064966Y-102496437D01*
X165922448Y-102692598D01*
X165812360Y-102908655D01*
X165737432Y-103139263D01*
X165699500Y-103378754D01*
X165699500Y-103621245D01*
X165737432Y-103860736D01*
X165812360Y-104091344D01*
X165862534Y-104189815D01*
X165875009Y-104214299D01*
X165922448Y-104307401D01*
X166064966Y-104503562D01*
X166064970Y-104503567D01*
X166236432Y-104675029D01*
X166236437Y-104675033D01*
X166329790Y-104742857D01*
X166432602Y-104817554D01*
X166613179Y-104909563D01*
X166648655Y-104927639D01*
X166763959Y-104965103D01*
X166879265Y-105002568D01*
X166990186Y-105020136D01*
X167118755Y-105040500D01*
X167118760Y-105040500D01*
X168881245Y-105040500D01*
X168997347Y-105022110D01*
X169120735Y-105002568D01*
X169351347Y-104927638D01*
X169567398Y-104817554D01*
X169763569Y-104675028D01*
X169935028Y-104503569D01*
X170077554Y-104307398D01*
X170187638Y-104091347D01*
X170262568Y-103860735D01*
X170283647Y-103727647D01*
X170300500Y-103621245D01*
X170300500Y-103378754D01*
X170274056Y-103211801D01*
X170262568Y-103139265D01*
X170187638Y-102908653D01*
X170077554Y-102692602D01*
X169985819Y-102566339D01*
X169935033Y-102496437D01*
X169935029Y-102496432D01*
X169763567Y-102324970D01*
X169763562Y-102324966D01*
X169567401Y-102182448D01*
X169567400Y-102182447D01*
X169567398Y-102182446D01*
X169459372Y-102127404D01*
X169351344Y-102072360D01*
X169120736Y-101997432D01*
X168881245Y-101959500D01*
X168881240Y-101959500D01*
X168700621Y-101959500D01*
X168673902Y-101951654D01*
X168646442Y-101947037D01*
X168640842Y-101941946D01*
X168633582Y-101939815D01*
X168615348Y-101918772D01*
X168594741Y-101900040D01*
X168590465Y-101890055D01*
X168587827Y-101887011D01*
X168580847Y-101867596D01*
X168579126Y-101861176D01*
X168566160Y-101812785D01*
X168559577Y-101788215D01*
X168528080Y-101733661D01*
X168480520Y-101651284D01*
X168368716Y-101539480D01*
X168368715Y-101539479D01*
X168364385Y-101535149D01*
X168364374Y-101535139D01*
X167001416Y-100172181D01*
X166967931Y-100110858D01*
X166972915Y-100041166D01*
X167014787Y-99985233D01*
X167080251Y-99960816D01*
X167089097Y-99960500D01*
X169600005Y-99960500D01*
X169600010Y-99960500D01*
X169702798Y-99949999D01*
X169869335Y-99894814D01*
X170018656Y-99802712D01*
X170142712Y-99678656D01*
X170234814Y-99529335D01*
X170289999Y-99362798D01*
X170300500Y-99260010D01*
X170300500Y-97579990D01*
X170289999Y-97477202D01*
X170234814Y-97310665D01*
X170142712Y-97161344D01*
X170018656Y-97037288D01*
X169869335Y-96945186D01*
X169702798Y-96890001D01*
X169702796Y-96890000D01*
X169600017Y-96879500D01*
X169600010Y-96879500D01*
X166399990Y-96879500D01*
X166399980Y-96879500D01*
X166321373Y-96887531D01*
X166252680Y-96874761D01*
X166221090Y-96851854D01*
X156576257Y-87207022D01*
X156542772Y-87145699D01*
X156543368Y-87090378D01*
X156544332Y-87086358D01*
X156544339Y-87086339D01*
X156575500Y-86889597D01*
X156575500Y-86690403D01*
X156544339Y-86493661D01*
X156542115Y-86486819D01*
X156540119Y-86416979D01*
X156576199Y-86357146D01*
X156638899Y-86326316D01*
X156660046Y-86324500D01*
X161683903Y-86324500D01*
X161750942Y-86344185D01*
X161771584Y-86360819D01*
X166024685Y-90613921D01*
X166058170Y-90675244D01*
X166053186Y-90744936D01*
X166037322Y-90774487D01*
X165922448Y-90932598D01*
X165812360Y-91148655D01*
X165737432Y-91379263D01*
X165699500Y-91618754D01*
X165699500Y-91861245D01*
X165737432Y-92100736D01*
X165812360Y-92331344D01*
X165858260Y-92421427D01*
X165915245Y-92533266D01*
X165922448Y-92547401D01*
X166064966Y-92743562D01*
X166064970Y-92743567D01*
X166236432Y-92915029D01*
X166236437Y-92915033D01*
X166380996Y-93020060D01*
X166432602Y-93057554D01*
X166604834Y-93145311D01*
X166648655Y-93167639D01*
X166763959Y-93205103D01*
X166879265Y-93242568D01*
X166990186Y-93260136D01*
X167118755Y-93280500D01*
X167118760Y-93280500D01*
X168881245Y-93280500D01*
X168997347Y-93262110D01*
X169120735Y-93242568D01*
X169343030Y-93170340D01*
X169351344Y-93167639D01*
X169351344Y-93167638D01*
X169351347Y-93167638D01*
X169567398Y-93057554D01*
X169763569Y-92915028D01*
X169935028Y-92743569D01*
X170077554Y-92547398D01*
X170187638Y-92331347D01*
X170262568Y-92100735D01*
X170287653Y-91942352D01*
X170300500Y-91861245D01*
X170300500Y-91618754D01*
X170265849Y-91399982D01*
X170262568Y-91379265D01*
X170190802Y-91158390D01*
X170187639Y-91148655D01*
X170160496Y-91095384D01*
X170077554Y-90932602D01*
X170037321Y-90877226D01*
X169935033Y-90736437D01*
X169935029Y-90736432D01*
X169763567Y-90564970D01*
X169763562Y-90564966D01*
X169567401Y-90422448D01*
X169567400Y-90422447D01*
X169567398Y-90422446D01*
X169370151Y-90321943D01*
X169351344Y-90312360D01*
X169120736Y-90237432D01*
X168881245Y-90199500D01*
X168881240Y-90199500D01*
X167360098Y-90199500D01*
X167293059Y-90179815D01*
X167272417Y-90163181D01*
X165259814Y-88150578D01*
X163244415Y-86135180D01*
X163210931Y-86073858D01*
X163215915Y-86004166D01*
X163257787Y-85948233D01*
X163323251Y-85923816D01*
X163332097Y-85923500D01*
X165688853Y-85923500D01*
X165755892Y-85943185D01*
X165801647Y-85995989D01*
X165811591Y-86065147D01*
X165806784Y-86085818D01*
X165737432Y-86299263D01*
X165699500Y-86538754D01*
X165699500Y-86781245D01*
X165737432Y-87020736D01*
X165812360Y-87251344D01*
X165867404Y-87359372D01*
X165915245Y-87453266D01*
X165922448Y-87467401D01*
X166064966Y-87663562D01*
X166064970Y-87663567D01*
X166236432Y-87835029D01*
X166236437Y-87835033D01*
X166394009Y-87949515D01*
X166432602Y-87977554D01*
X166604834Y-88065311D01*
X166648655Y-88087639D01*
X166763959Y-88125103D01*
X166879265Y-88162568D01*
X166990186Y-88180136D01*
X167118755Y-88200500D01*
X167118760Y-88200500D01*
X168881245Y-88200500D01*
X168997347Y-88182110D01*
X169120735Y-88162568D01*
X169351347Y-88087638D01*
X169567398Y-87977554D01*
X169763569Y-87835028D01*
X169935028Y-87663569D01*
X170077554Y-87467398D01*
X170187638Y-87251347D01*
X170262568Y-87020735D01*
X170287653Y-86862352D01*
X170300500Y-86781245D01*
X170300500Y-86538754D01*
X170271735Y-86357146D01*
X170262568Y-86299265D01*
X170209254Y-86135181D01*
X170187639Y-86068655D01*
X170154780Y-86004166D01*
X170077554Y-85852602D01*
X170016108Y-85768028D01*
X169935033Y-85656437D01*
X169935029Y-85656432D01*
X169763567Y-85484970D01*
X169763562Y-85484966D01*
X169567401Y-85342448D01*
X169567400Y-85342447D01*
X169567398Y-85342446D01*
X169383481Y-85248735D01*
X169351344Y-85232360D01*
X169120736Y-85157432D01*
X168881245Y-85119500D01*
X168881240Y-85119500D01*
X167360097Y-85119500D01*
X167330656Y-85110855D01*
X167300670Y-85104332D01*
X167295654Y-85100577D01*
X167293058Y-85099815D01*
X167272416Y-85083181D01*
X167150590Y-84961355D01*
X167150588Y-84961352D01*
X167031717Y-84842481D01*
X167031716Y-84842480D01*
X166934476Y-84786339D01*
X166934475Y-84786338D01*
X166894783Y-84763422D01*
X166838881Y-84748443D01*
X166742057Y-84722499D01*
X166583943Y-84722499D01*
X166576347Y-84722499D01*
X166576331Y-84722500D01*
X138671445Y-84722500D01*
X138604406Y-84702815D01*
X138558651Y-84650011D01*
X138548707Y-84580853D01*
X138577732Y-84517297D01*
X138583764Y-84510819D01*
X140877764Y-82216819D01*
X140939087Y-82183334D01*
X140965445Y-82180500D01*
X165741039Y-82180500D01*
X165808078Y-82200185D01*
X165851522Y-82248203D01*
X165912923Y-82368709D01*
X165922448Y-82387402D01*
X166064966Y-82583562D01*
X166064970Y-82583567D01*
X166236432Y-82755029D01*
X166236437Y-82755033D01*
X166407539Y-82879345D01*
X166432602Y-82897554D01*
X166648653Y-83007638D01*
X166648655Y-83007639D01*
X166724715Y-83032352D01*
X166879265Y-83082568D01*
X166990186Y-83100136D01*
X167118755Y-83120500D01*
X167118760Y-83120500D01*
X168881245Y-83120500D01*
X168997347Y-83102110D01*
X169120735Y-83082568D01*
X169351347Y-83007638D01*
X169567398Y-82897554D01*
X169763569Y-82755028D01*
X169935028Y-82583569D01*
X170077554Y-82387398D01*
X170187638Y-82171347D01*
X170262568Y-81940735D01*
X170292577Y-81751264D01*
X170300500Y-81701245D01*
X170300500Y-81458754D01*
X170273254Y-81286733D01*
X170262568Y-81219265D01*
X170187638Y-80988653D01*
X170077554Y-80772602D01*
X169990195Y-80652362D01*
X169935033Y-80576437D01*
X169935029Y-80576432D01*
X169763567Y-80404970D01*
X169763562Y-80404966D01*
X169567401Y-80262448D01*
X169567400Y-80262447D01*
X169567398Y-80262446D01*
X169411222Y-80182870D01*
X169351344Y-80152360D01*
X169120736Y-80077432D01*
X168881245Y-80039500D01*
X168881240Y-80039500D01*
X167118760Y-80039500D01*
X167118755Y-80039500D01*
X166879263Y-80077432D01*
X166648655Y-80152360D01*
X166432598Y-80262448D01*
X166236437Y-80404966D01*
X166236432Y-80404970D01*
X166064970Y-80576432D01*
X166064966Y-80576437D01*
X165922448Y-80772597D01*
X165901530Y-80813652D01*
X165851522Y-80911796D01*
X165803550Y-80962591D01*
X165741039Y-80979500D01*
X141847345Y-80979500D01*
X141780306Y-80959815D01*
X141734551Y-80907011D01*
X141724607Y-80837853D01*
X141753632Y-80774297D01*
X141759664Y-80767819D01*
X145390664Y-77136819D01*
X145451987Y-77103334D01*
X145478345Y-77100500D01*
X165741039Y-77100500D01*
X165808078Y-77120185D01*
X165851522Y-77168203D01*
X165871107Y-77206640D01*
X165922448Y-77307402D01*
X166064966Y-77503562D01*
X166064970Y-77503567D01*
X166236432Y-77675029D01*
X166236437Y-77675033D01*
X166407539Y-77799345D01*
X166432602Y-77817554D01*
X166648653Y-77927638D01*
X166648655Y-77927639D01*
X166763959Y-77965103D01*
X166879265Y-78002568D01*
X166990186Y-78020136D01*
X167118755Y-78040500D01*
X167118760Y-78040500D01*
X168881245Y-78040500D01*
X168997347Y-78022110D01*
X169120735Y-78002568D01*
X169351347Y-77927638D01*
X169567398Y-77817554D01*
X169763569Y-77675028D01*
X169935028Y-77503569D01*
X170077554Y-77307398D01*
X170187638Y-77091347D01*
X170262568Y-76860735D01*
X170282110Y-76737347D01*
X170300500Y-76621245D01*
X170300500Y-76378754D01*
X170278432Y-76239431D01*
X170262568Y-76139265D01*
X170187638Y-75908653D01*
X170077554Y-75692602D01*
X170034058Y-75632735D01*
X169935033Y-75496437D01*
X169935029Y-75496432D01*
X169763567Y-75324970D01*
X169763562Y-75324966D01*
X169567401Y-75182448D01*
X169567400Y-75182447D01*
X169567398Y-75182446D01*
X169420527Y-75107611D01*
X169351344Y-75072360D01*
X169120736Y-74997432D01*
X168881245Y-74959500D01*
X168881240Y-74959500D01*
X167118760Y-74959500D01*
X167118755Y-74959500D01*
X166879263Y-74997432D01*
X166648655Y-75072360D01*
X166432598Y-75182448D01*
X166236437Y-75324966D01*
X166236432Y-75324970D01*
X166064970Y-75496432D01*
X166064966Y-75496437D01*
X165922448Y-75692597D01*
X165889199Y-75757853D01*
X165851522Y-75831796D01*
X165803550Y-75882591D01*
X165741039Y-75899500D01*
X164669097Y-75899500D01*
X164602058Y-75879815D01*
X164556303Y-75827011D01*
X164546359Y-75757853D01*
X164575384Y-75694297D01*
X164581416Y-75687819D01*
X167272416Y-72996819D01*
X167333739Y-72963334D01*
X167360097Y-72960500D01*
X168881245Y-72960500D01*
X168997347Y-72942110D01*
X169120735Y-72922568D01*
X169351347Y-72847638D01*
X169567398Y-72737554D01*
X169763569Y-72595028D01*
X169935028Y-72423569D01*
X170077554Y-72227398D01*
X170187638Y-72011347D01*
X170262568Y-71780735D01*
X170285666Y-71634901D01*
X170300500Y-71541245D01*
X170300500Y-71298754D01*
X170275238Y-71139260D01*
X170262568Y-71059265D01*
X170187638Y-70828653D01*
X170077554Y-70612602D01*
X169990195Y-70492362D01*
X169935033Y-70416437D01*
X169935029Y-70416432D01*
X169763567Y-70244970D01*
X169763562Y-70244966D01*
X169567401Y-70102448D01*
X169567400Y-70102447D01*
X169567398Y-70102446D01*
X169372302Y-70003039D01*
X169351344Y-69992360D01*
X169120736Y-69917432D01*
X168881245Y-69879500D01*
X168881240Y-69879500D01*
X167769098Y-69879500D01*
X167702059Y-69859815D01*
X167656304Y-69807011D01*
X167646360Y-69737853D01*
X167675385Y-69674297D01*
X167681417Y-69667819D01*
X168074198Y-69275038D01*
X168480520Y-68868716D01*
X168559577Y-68731784D01*
X168600501Y-68579057D01*
X168600501Y-68420942D01*
X168600501Y-68413347D01*
X168600500Y-68413329D01*
X168600500Y-68004500D01*
X168620185Y-67937461D01*
X168672989Y-67891706D01*
X168724500Y-67880500D01*
X168881245Y-67880500D01*
X168997347Y-67862110D01*
X169120735Y-67842568D01*
X169351347Y-67767638D01*
X169567398Y-67657554D01*
X169763569Y-67515028D01*
X169935028Y-67343569D01*
X170077554Y-67147398D01*
X170187638Y-66931347D01*
X170262568Y-66700735D01*
X170285036Y-66558875D01*
X170300500Y-66461245D01*
X170300500Y-66218754D01*
X170275302Y-66059665D01*
X170262568Y-65979265D01*
X170187638Y-65748653D01*
X170077554Y-65532602D01*
X169990195Y-65412362D01*
X169935033Y-65336437D01*
X169935029Y-65336432D01*
X169763567Y-65164970D01*
X169763562Y-65164966D01*
X169567401Y-65022448D01*
X169567400Y-65022447D01*
X169567398Y-65022446D01*
X169459372Y-64967404D01*
X169351344Y-64912360D01*
X169120736Y-64837432D01*
X168881245Y-64799500D01*
X168881240Y-64799500D01*
X167118760Y-64799500D01*
X167118755Y-64799500D01*
X166879263Y-64837432D01*
X166648655Y-64912360D01*
X166432598Y-65022448D01*
X166236437Y-65164966D01*
X166236432Y-65164970D01*
X166064970Y-65336432D01*
X166064966Y-65336437D01*
X165922448Y-65532598D01*
X165812360Y-65748655D01*
X165737432Y-65979263D01*
X165699500Y-66218754D01*
X165699500Y-66461245D01*
X165737432Y-66700736D01*
X165812360Y-66931344D01*
X165812362Y-66931347D01*
X165914926Y-67132640D01*
X165922448Y-67147401D01*
X166064966Y-67343562D01*
X166064970Y-67343567D01*
X166236432Y-67515029D01*
X166236437Y-67515033D01*
X166315654Y-67572587D01*
X166432602Y-67657554D01*
X166648653Y-67767638D01*
X166648655Y-67767639D01*
X166763959Y-67805103D01*
X166879265Y-67842568D01*
X166990186Y-67860136D01*
X167118755Y-67880500D01*
X167118760Y-67880500D01*
X167275500Y-67880500D01*
X167284185Y-67883050D01*
X167293147Y-67881762D01*
X167317187Y-67892740D01*
X167342539Y-67900185D01*
X167348466Y-67907025D01*
X167356703Y-67910787D01*
X167370992Y-67933021D01*
X167388294Y-67952989D01*
X167390581Y-67963503D01*
X167394477Y-67969565D01*
X167399500Y-68004500D01*
X167399500Y-68199902D01*
X167379815Y-68266941D01*
X167363181Y-68287583D01*
X160765560Y-74885205D01*
X160704237Y-74918690D01*
X160677879Y-74921524D01*
X146204021Y-74921524D01*
X146136982Y-74901839D01*
X146091227Y-74849035D01*
X146081283Y-74779877D01*
X146110308Y-74716321D01*
X146116340Y-74709843D01*
X150973697Y-69852486D01*
X155749500Y-69852486D01*
X155749500Y-70147513D01*
X155768482Y-70291690D01*
X155788007Y-70439993D01*
X155854804Y-70689283D01*
X155864361Y-70724951D01*
X155864364Y-70724961D01*
X155977254Y-70997500D01*
X155977258Y-70997510D01*
X156124761Y-71252993D01*
X156304352Y-71487040D01*
X156304358Y-71487047D01*
X156512952Y-71695641D01*
X156512959Y-71695647D01*
X156747006Y-71875238D01*
X157002489Y-72022741D01*
X157002490Y-72022741D01*
X157002493Y-72022743D01*
X157275048Y-72135639D01*
X157560007Y-72211993D01*
X157852494Y-72250500D01*
X157852501Y-72250500D01*
X158147499Y-72250500D01*
X158147506Y-72250500D01*
X158439993Y-72211993D01*
X158724952Y-72135639D01*
X158997507Y-72022743D01*
X159252994Y-71875238D01*
X159487042Y-71695646D01*
X159695646Y-71487042D01*
X159875238Y-71252994D01*
X160022743Y-70997507D01*
X160135639Y-70724952D01*
X160211993Y-70439993D01*
X160250500Y-70147506D01*
X160250500Y-69852494D01*
X160211993Y-69560007D01*
X160135639Y-69275048D01*
X160022743Y-69002493D01*
X159994892Y-68954254D01*
X159875238Y-68747006D01*
X159695647Y-68512959D01*
X159695641Y-68512952D01*
X159487047Y-68304358D01*
X159487040Y-68304352D01*
X159252993Y-68124761D01*
X158997510Y-67977258D01*
X158997500Y-67977254D01*
X158724961Y-67864364D01*
X158724954Y-67864362D01*
X158724952Y-67864361D01*
X158439993Y-67788007D01*
X158391113Y-67781571D01*
X158147513Y-67749500D01*
X158147506Y-67749500D01*
X157852494Y-67749500D01*
X157852486Y-67749500D01*
X157593200Y-67783637D01*
X157560007Y-67788007D01*
X157320385Y-67852213D01*
X157275048Y-67864361D01*
X157275038Y-67864364D01*
X157002499Y-67977254D01*
X157002489Y-67977258D01*
X156747006Y-68124761D01*
X156512959Y-68304352D01*
X156512952Y-68304358D01*
X156304358Y-68512952D01*
X156304352Y-68512959D01*
X156124761Y-68747006D01*
X155977258Y-69002489D01*
X155977254Y-69002499D01*
X155864364Y-69275038D01*
X155864361Y-69275048D01*
X155788008Y-69560004D01*
X155788006Y-69560015D01*
X155749500Y-69852486D01*
X150973697Y-69852486D01*
X158929364Y-61896819D01*
X158990687Y-61863334D01*
X159017045Y-61860500D01*
X165741039Y-61860500D01*
X165808078Y-61880185D01*
X165851522Y-61928203D01*
X165861071Y-61946943D01*
X165922448Y-62067402D01*
X166064966Y-62263562D01*
X166064970Y-62263567D01*
X166236432Y-62435029D01*
X166236437Y-62435033D01*
X166407539Y-62559345D01*
X166432602Y-62577554D01*
X166648653Y-62687638D01*
X166648655Y-62687639D01*
X166763959Y-62725103D01*
X166879265Y-62762568D01*
X166990186Y-62780136D01*
X167118755Y-62800500D01*
X167118760Y-62800500D01*
X168881245Y-62800500D01*
X168997347Y-62782110D01*
X169120735Y-62762568D01*
X169351347Y-62687638D01*
X169567398Y-62577554D01*
X169763569Y-62435028D01*
X169935028Y-62263569D01*
X170077554Y-62067398D01*
X170187638Y-61851347D01*
X170262568Y-61620735D01*
X170293637Y-61424573D01*
X170300500Y-61381245D01*
X170300500Y-61138754D01*
X170271399Y-60955022D01*
X170262568Y-60899265D01*
X170201433Y-60711109D01*
X170187639Y-60668655D01*
X170152659Y-60600004D01*
X170077554Y-60452602D01*
X170019753Y-60373045D01*
X169935033Y-60256437D01*
X169935029Y-60256432D01*
X169763567Y-60084970D01*
X169763562Y-60084966D01*
X169567401Y-59942448D01*
X169567400Y-59942447D01*
X169567398Y-59942446D01*
X169447197Y-59881200D01*
X169351344Y-59832360D01*
X169120736Y-59757432D01*
X168881245Y-59719500D01*
X168881240Y-59719500D01*
X167118760Y-59719500D01*
X167118755Y-59719500D01*
X166879263Y-59757432D01*
X166648655Y-59832360D01*
X166432598Y-59942448D01*
X166236437Y-60084966D01*
X166236432Y-60084970D01*
X166064970Y-60256432D01*
X166064966Y-60256437D01*
X165922448Y-60452597D01*
X165921582Y-60454297D01*
X165851522Y-60591796D01*
X165803550Y-60642591D01*
X165741039Y-60659500D01*
X159898945Y-60659500D01*
X159831906Y-60639815D01*
X159786151Y-60587011D01*
X159776207Y-60517853D01*
X159805232Y-60454297D01*
X159811264Y-60447819D01*
X163442264Y-56816819D01*
X163503587Y-56783334D01*
X163529945Y-56780500D01*
X165575500Y-56780500D01*
X165642539Y-56800185D01*
X165688294Y-56852989D01*
X165699500Y-56904500D01*
X165699500Y-57020017D01*
X165710000Y-57122796D01*
X165765185Y-57289332D01*
X165765187Y-57289337D01*
X165781528Y-57315830D01*
X165857288Y-57438656D01*
X165981344Y-57562712D01*
X166130665Y-57654814D01*
X166297202Y-57709999D01*
X166399990Y-57720500D01*
X166399995Y-57720500D01*
X169600005Y-57720500D01*
X169600010Y-57720500D01*
X169702798Y-57709999D01*
X169869335Y-57654814D01*
X170018656Y-57562712D01*
X170142712Y-57438656D01*
X170234814Y-57289335D01*
X170289999Y-57122798D01*
X170300500Y-57020010D01*
X170300500Y-55339990D01*
X170289999Y-55237202D01*
X170234814Y-55070665D01*
X170142712Y-54921344D01*
X170018656Y-54797288D01*
X169869335Y-54705186D01*
X169702798Y-54650001D01*
X169702796Y-54650000D01*
X169600017Y-54639500D01*
X169600010Y-54639500D01*
X166399990Y-54639500D01*
X166399982Y-54639500D01*
X166297203Y-54650000D01*
X166297202Y-54650001D01*
X166214669Y-54677349D01*
X166130667Y-54705185D01*
X166130662Y-54705187D01*
X165981342Y-54797289D01*
X165857289Y-54921342D01*
X165765187Y-55070662D01*
X165765186Y-55070665D01*
X165710001Y-55237202D01*
X165710001Y-55237203D01*
X165710000Y-55237203D01*
X165699500Y-55339982D01*
X165699500Y-55455500D01*
X165679815Y-55522539D01*
X165627011Y-55568294D01*
X165575500Y-55579500D01*
X163308905Y-55579500D01*
X163150791Y-55579500D01*
X162998063Y-55620423D01*
X162998062Y-55620423D01*
X162998060Y-55620424D01*
X162998057Y-55620425D01*
X162947944Y-55649359D01*
X162947943Y-55649360D01*
X162904537Y-55674420D01*
X162861133Y-55699479D01*
X162861130Y-55699481D01*
X159302987Y-59257625D01*
X159241664Y-59291110D01*
X159171972Y-59286126D01*
X159127625Y-59257625D01*
X159120000Y-59250000D01*
X158234121Y-59250000D01*
X158253099Y-59204182D01*
X158280000Y-59068944D01*
X158280000Y-58931056D01*
X158253099Y-58795818D01*
X158234121Y-58750000D01*
X159120000Y-58750000D01*
X159120000Y-58118799D01*
X159082079Y-57879381D01*
X159007172Y-57648840D01*
X158897125Y-57432863D01*
X158754643Y-57236754D01*
X158583245Y-57065356D01*
X158387136Y-56922874D01*
X158171157Y-56812827D01*
X157940614Y-56737919D01*
X157830000Y-56720399D01*
X157830000Y-58345879D01*
X157784182Y-58326901D01*
X157648944Y-58300000D01*
X157511056Y-58300000D01*
X157375818Y-58326901D01*
X157330000Y-58345879D01*
X157330000Y-56720399D01*
X157329999Y-56720399D01*
X157219385Y-56737919D01*
X156988842Y-56812827D01*
X156772863Y-56922874D01*
X156576754Y-57065356D01*
X156405356Y-57236754D01*
X156262874Y-57432863D01*
X156152827Y-57648840D01*
X156077920Y-57879381D01*
X156040000Y-58118799D01*
X156040000Y-58750000D01*
X156925879Y-58750000D01*
X156906901Y-58795818D01*
X156880000Y-58931056D01*
X156880000Y-59068944D01*
X156906901Y-59204182D01*
X156925879Y-59250000D01*
X156040000Y-59250000D01*
X156040000Y-59881200D01*
X156077920Y-60120618D01*
X156152827Y-60351159D01*
X156262874Y-60567136D01*
X156405356Y-60763245D01*
X156576754Y-60934643D01*
X156772863Y-61077125D01*
X156988840Y-61187172D01*
X157086676Y-61218961D01*
X157144351Y-61258399D01*
X157171549Y-61322758D01*
X157159634Y-61391604D01*
X157136038Y-61424573D01*
X134469181Y-84091431D01*
X134407858Y-84124916D01*
X134338166Y-84119932D01*
X134282233Y-84078060D01*
X134257816Y-84012596D01*
X134257500Y-84003750D01*
X134257500Y-73063097D01*
X134277185Y-72996058D01*
X134293819Y-72975416D01*
X140259333Y-67009902D01*
X146293922Y-60975312D01*
X146355243Y-60941829D01*
X146424935Y-60946813D01*
X146454486Y-60962677D01*
X146531537Y-61018657D01*
X146612602Y-61077554D01*
X146820298Y-61183381D01*
X146828655Y-61187639D01*
X146886615Y-61206471D01*
X147059265Y-61262568D01*
X147170186Y-61280136D01*
X147298755Y-61300500D01*
X147298760Y-61300500D01*
X147541245Y-61300500D01*
X147657347Y-61282110D01*
X147780735Y-61262568D01*
X148011347Y-61187638D01*
X148227398Y-61077554D01*
X148423569Y-60935028D01*
X148595028Y-60763569D01*
X148737554Y-60567398D01*
X148847638Y-60351347D01*
X148922568Y-60120735D01*
X148950806Y-59942446D01*
X148960500Y-59881245D01*
X148960500Y-58118754D01*
X150959500Y-58118754D01*
X150959500Y-59881245D01*
X150997432Y-60120736D01*
X151072360Y-60351344D01*
X151118779Y-60442446D01*
X151175318Y-60553409D01*
X151182448Y-60567401D01*
X151324966Y-60763562D01*
X151324970Y-60763567D01*
X151496432Y-60935029D01*
X151496437Y-60935033D01*
X151611537Y-61018657D01*
X151692602Y-61077554D01*
X151900298Y-61183381D01*
X151908655Y-61187639D01*
X151966615Y-61206471D01*
X152139265Y-61262568D01*
X152250186Y-61280136D01*
X152378755Y-61300500D01*
X152378760Y-61300500D01*
X152621245Y-61300500D01*
X152737347Y-61282110D01*
X152860735Y-61262568D01*
X153091347Y-61187638D01*
X153307398Y-61077554D01*
X153503569Y-60935028D01*
X153675028Y-60763569D01*
X153817554Y-60567398D01*
X153927638Y-60351347D01*
X154002568Y-60120735D01*
X154030806Y-59942446D01*
X154040500Y-59881245D01*
X154040500Y-58118754D01*
X154002586Y-57879381D01*
X154002568Y-57879265D01*
X153964985Y-57763597D01*
X153927639Y-57648655D01*
X153916626Y-57627041D01*
X153817554Y-57432602D01*
X153750666Y-57340538D01*
X153675033Y-57236437D01*
X153675029Y-57236432D01*
X153503567Y-57064970D01*
X153503562Y-57064966D01*
X153307401Y-56922448D01*
X153307400Y-56922447D01*
X153307398Y-56922446D01*
X153111409Y-56822584D01*
X153091344Y-56812360D01*
X152860736Y-56737432D01*
X152621245Y-56699500D01*
X152621240Y-56699500D01*
X152378760Y-56699500D01*
X152378755Y-56699500D01*
X152139263Y-56737432D01*
X151908655Y-56812360D01*
X151692598Y-56922448D01*
X151496437Y-57064966D01*
X151496432Y-57064970D01*
X151324970Y-57236432D01*
X151324966Y-57236437D01*
X151182448Y-57432598D01*
X151072360Y-57648655D01*
X150997432Y-57879263D01*
X150959500Y-58118754D01*
X148960500Y-58118754D01*
X148922586Y-57879381D01*
X148922568Y-57879265D01*
X148884985Y-57763597D01*
X148847639Y-57648655D01*
X148836626Y-57627041D01*
X148737554Y-57432602D01*
X148670666Y-57340538D01*
X148595033Y-57236437D01*
X148595029Y-57236432D01*
X148423567Y-57064970D01*
X148423562Y-57064966D01*
X148227401Y-56922448D01*
X148227400Y-56922447D01*
X148227398Y-56922446D01*
X148031409Y-56822584D01*
X148011344Y-56812360D01*
X147780736Y-56737432D01*
X147541245Y-56699500D01*
X147541240Y-56699500D01*
X147298760Y-56699500D01*
X147298755Y-56699500D01*
X147059263Y-56737432D01*
X146828655Y-56812360D01*
X146612598Y-56922448D01*
X146416437Y-57064966D01*
X146416432Y-57064970D01*
X146244970Y-57236432D01*
X146244966Y-57236437D01*
X146102448Y-57432598D01*
X145992360Y-57648655D01*
X145917432Y-57879263D01*
X145879500Y-58118754D01*
X145879500Y-59639903D01*
X145859815Y-59706942D01*
X145843181Y-59727584D01*
X134068181Y-71502584D01*
X134006858Y-71536069D01*
X133937166Y-71531085D01*
X133881233Y-71489213D01*
X133856816Y-71423749D01*
X133856500Y-71414903D01*
X133856500Y-68384096D01*
X133876185Y-68317057D01*
X133892814Y-68296420D01*
X140990479Y-61198754D01*
X141051800Y-61165271D01*
X141121492Y-61170255D01*
X141143255Y-61180899D01*
X141230656Y-61234809D01*
X141230659Y-61234810D01*
X141230665Y-61234814D01*
X141397202Y-61289999D01*
X141499990Y-61300500D01*
X141499995Y-61300500D01*
X143180005Y-61300500D01*
X143180010Y-61300500D01*
X143282798Y-61289999D01*
X143449335Y-61234814D01*
X143598656Y-61142712D01*
X143722712Y-61018656D01*
X143814814Y-60869335D01*
X143869999Y-60702798D01*
X143880500Y-60600010D01*
X143880500Y-57399990D01*
X143869999Y-57297202D01*
X143814814Y-57130665D01*
X143722712Y-56981344D01*
X143598656Y-56857288D01*
X143449335Y-56765186D01*
X143282798Y-56710001D01*
X143282796Y-56710000D01*
X143180017Y-56699500D01*
X143180010Y-56699500D01*
X141499990Y-56699500D01*
X141499982Y-56699500D01*
X141397203Y-56710000D01*
X141397202Y-56710001D01*
X141314669Y-56737349D01*
X141230667Y-56765185D01*
X141230662Y-56765187D01*
X141081342Y-56857289D01*
X140957289Y-56981342D01*
X140865187Y-57130662D01*
X140865185Y-57130667D01*
X140837349Y-57214669D01*
X140810001Y-57297202D01*
X140810001Y-57297203D01*
X140810000Y-57297203D01*
X140799500Y-57399982D01*
X140799500Y-59639902D01*
X140779815Y-59706941D01*
X140763181Y-59727583D01*
X132775481Y-67715282D01*
X132775480Y-67715284D01*
X132770748Y-67723481D01*
X132696423Y-67852215D01*
X132655499Y-68004943D01*
X132655499Y-68004945D01*
X132655499Y-68173046D01*
X132655500Y-68173059D01*
X132655500Y-86565813D01*
X132635815Y-86632852D01*
X132583011Y-86678607D01*
X132513853Y-86688551D01*
X132450297Y-86659526D01*
X132412523Y-86600748D01*
X132409027Y-86585211D01*
X132388477Y-86455465D01*
X132346844Y-86327333D01*
X132325220Y-86260781D01*
X132325218Y-86260778D01*
X132325218Y-86260776D01*
X132272051Y-86156431D01*
X132232287Y-86078390D01*
X132172420Y-85995989D01*
X132111971Y-85912786D01*
X131967213Y-85768028D01*
X131801613Y-85647715D01*
X131801612Y-85647714D01*
X131801610Y-85647713D01*
X131744653Y-85618691D01*
X131619223Y-85554781D01*
X131424534Y-85491522D01*
X131249995Y-85463878D01*
X131222352Y-85459500D01*
X131017648Y-85459500D01*
X130993329Y-85463351D01*
X130815465Y-85491522D01*
X130620776Y-85554781D01*
X130438386Y-85647715D01*
X130272786Y-85768028D01*
X130128028Y-85912786D01*
X130007715Y-86078386D01*
X129914781Y-86260776D01*
X129851522Y-86455465D01*
X129819500Y-86657648D01*
X129819500Y-86862351D01*
X129851522Y-87064534D01*
X129914781Y-87259223D01*
X130007715Y-87441613D01*
X130128028Y-87607213D01*
X130272786Y-87751971D01*
X130413798Y-87854420D01*
X130438390Y-87872287D01*
X130529840Y-87918883D01*
X130531080Y-87919515D01*
X130581876Y-87967490D01*
X130598671Y-88035311D01*
X130576134Y-88101446D01*
X130531080Y-88140485D01*
X130438386Y-88187715D01*
X130272786Y-88308028D01*
X130128028Y-88452786D01*
X130007715Y-88618386D01*
X129914781Y-88800776D01*
X129851522Y-88995465D01*
X129819500Y-89197648D01*
X129819500Y-89402351D01*
X129851522Y-89604534D01*
X129914781Y-89799223D01*
X130007715Y-89981613D01*
X130128028Y-90147213D01*
X130272786Y-90291971D01*
X130413798Y-90394420D01*
X130438390Y-90412287D01*
X130529840Y-90458883D01*
X130531080Y-90459515D01*
X130581876Y-90507490D01*
X130598671Y-90575311D01*
X130576134Y-90641446D01*
X130531080Y-90680485D01*
X130438386Y-90727715D01*
X130272786Y-90848028D01*
X130128028Y-90992786D01*
X130007715Y-91158386D01*
X129914781Y-91340776D01*
X129851522Y-91535465D01*
X129819500Y-91737648D01*
X129819500Y-91942351D01*
X129851522Y-92144534D01*
X129914781Y-92339223D01*
X130007715Y-92521613D01*
X130128028Y-92687213D01*
X130272786Y-92831971D01*
X130413798Y-92934420D01*
X130438390Y-92952287D01*
X130529840Y-92998883D01*
X130531080Y-92999515D01*
X130581876Y-93047490D01*
X130598671Y-93115311D01*
X130576134Y-93181446D01*
X130531080Y-93220485D01*
X130438386Y-93267715D01*
X130272786Y-93388028D01*
X130128028Y-93532786D01*
X130007715Y-93698386D01*
X129914781Y-93880776D01*
X129851522Y-94075465D01*
X129819500Y-94277648D01*
X129819500Y-94482351D01*
X129851522Y-94684534D01*
X129914781Y-94879223D01*
X130007715Y-95061613D01*
X130128028Y-95227213D01*
X130272786Y-95371971D01*
X130413798Y-95474420D01*
X130438390Y-95492287D01*
X130529840Y-95538883D01*
X130531080Y-95539515D01*
X130581876Y-95587490D01*
X130598671Y-95655311D01*
X130576134Y-95721446D01*
X130531080Y-95760485D01*
X130438386Y-95807715D01*
X130272786Y-95928028D01*
X130128028Y-96072786D01*
X130007715Y-96238386D01*
X129914781Y-96420776D01*
X129851522Y-96615465D01*
X129819500Y-96817648D01*
X129819500Y-97022351D01*
X129851522Y-97224534D01*
X129914781Y-97419223D01*
X129948981Y-97486343D01*
X130004569Y-97595440D01*
X130007715Y-97601613D01*
X130128028Y-97767213D01*
X130272786Y-97911971D01*
X130413798Y-98014420D01*
X130438390Y-98032287D01*
X130520767Y-98074260D01*
X130531080Y-98079515D01*
X130581876Y-98127490D01*
X130598671Y-98195311D01*
X130576134Y-98261446D01*
X130531080Y-98300485D01*
X130438386Y-98347715D01*
X130272786Y-98468028D01*
X130128028Y-98612786D01*
X130007715Y-98778386D01*
X129914781Y-98960776D01*
X129851522Y-99155465D01*
X129819500Y-99357648D01*
X129819500Y-99562351D01*
X129851522Y-99764534D01*
X129914781Y-99959223D01*
X129948981Y-100026343D01*
X129994171Y-100115033D01*
X130007715Y-100141613D01*
X130128028Y-100307213D01*
X130272786Y-100451971D01*
X130413798Y-100554420D01*
X130438390Y-100572287D01*
X130529840Y-100618883D01*
X130531080Y-100619515D01*
X130581876Y-100667490D01*
X130598671Y-100735311D01*
X130576134Y-100801446D01*
X130531080Y-100840485D01*
X130438386Y-100887715D01*
X130272786Y-101008028D01*
X130128028Y-101152786D01*
X130007715Y-101318386D01*
X129914781Y-101500776D01*
X129851522Y-101695465D01*
X129819500Y-101897648D01*
X129819500Y-102102351D01*
X129851522Y-102304534D01*
X129856173Y-102318848D01*
X129856606Y-102334059D01*
X129861924Y-102348315D01*
X129857582Y-102368271D01*
X129858165Y-102388690D01*
X129850076Y-102402775D01*
X129847072Y-102416588D01*
X129825921Y-102444842D01*
X129650286Y-102620478D01*
X129538481Y-102732282D01*
X129538475Y-102732290D01*
X129490779Y-102814904D01*
X129490779Y-102814905D01*
X129459423Y-102869214D01*
X129459423Y-102869215D01*
X129418499Y-103021943D01*
X129418499Y-103021945D01*
X129418499Y-103190046D01*
X129418500Y-103190059D01*
X129418500Y-124672330D01*
X129418499Y-124672348D01*
X129418499Y-124838054D01*
X129418498Y-124838054D01*
X94480500Y-124838054D01*
X94480500Y-121240258D01*
X94500185Y-121173219D01*
X94539727Y-121134520D01*
X94543249Y-121132361D01*
X94543266Y-121132353D01*
X94704418Y-121015269D01*
X94845269Y-120874418D01*
X94962353Y-120713266D01*
X95052785Y-120535783D01*
X95057933Y-120519939D01*
X95114338Y-120346343D01*
X95114338Y-120346342D01*
X95114339Y-120346339D01*
X95145500Y-120149597D01*
X95145500Y-119950403D01*
X95114339Y-119753661D01*
X95114338Y-119753657D01*
X95114338Y-119753656D01*
X95052786Y-119564219D01*
X94962352Y-119386733D01*
X94958361Y-119381240D01*
X94845269Y-119225582D01*
X94704418Y-119084731D01*
X94543266Y-118967647D01*
X94391827Y-118890485D01*
X94341031Y-118842510D01*
X94324236Y-118774689D01*
X94346773Y-118708554D01*
X94391827Y-118669515D01*
X94401116Y-118664781D01*
X94543266Y-118592353D01*
X94704418Y-118475269D01*
X94845269Y-118334418D01*
X94962353Y-118173266D01*
X95052785Y-117995783D01*
X95105884Y-117832362D01*
X95114338Y-117806343D01*
X95114338Y-117806342D01*
X95114339Y-117806339D01*
X95145500Y-117609597D01*
X95145500Y-117410403D01*
X95114339Y-117213661D01*
X95114338Y-117213657D01*
X95114338Y-117213656D01*
X95052786Y-117024219D01*
X95052785Y-117024217D01*
X94962353Y-116846734D01*
X94845269Y-116685582D01*
X94704418Y-116544731D01*
X94543266Y-116427647D01*
X94431425Y-116370661D01*
X94391827Y-116350485D01*
X94341031Y-116302510D01*
X94324236Y-116234689D01*
X94346773Y-116168554D01*
X94391827Y-116129515D01*
X94450544Y-116099597D01*
X94543266Y-116052353D01*
X94704418Y-115935269D01*
X94845269Y-115794418D01*
X94962353Y-115633266D01*
X95052785Y-115455783D01*
X95091466Y-115336735D01*
X95114338Y-115266343D01*
X95114338Y-115266342D01*
X95114339Y-115266339D01*
X95145500Y-115069597D01*
X95145500Y-114870403D01*
X95114339Y-114673661D01*
X95114338Y-114673657D01*
X95114338Y-114673656D01*
X95100509Y-114631094D01*
X95052786Y-114484219D01*
X95007564Y-114395466D01*
X94962353Y-114306734D01*
X94845269Y-114145582D01*
X94704418Y-114004731D01*
X94543266Y-113887647D01*
X94391827Y-113810485D01*
X94341031Y-113762510D01*
X94324236Y-113694689D01*
X94346773Y-113628554D01*
X94391827Y-113589515D01*
X94401116Y-113584781D01*
X94543266Y-113512353D01*
X94704418Y-113395269D01*
X94845269Y-113254418D01*
X94962353Y-113093266D01*
X95052785Y-112915783D01*
X95105884Y-112752362D01*
X95114338Y-112726343D01*
X95114338Y-112726342D01*
X95114339Y-112726339D01*
X95145500Y-112529597D01*
X95145500Y-112330403D01*
X95114339Y-112133661D01*
X95114338Y-112133657D01*
X95114338Y-112133656D01*
X95100522Y-112091134D01*
X95052786Y-111944219D01*
X95035749Y-111910782D01*
X94962353Y-111766734D01*
X94845269Y-111605582D01*
X94704418Y-111464731D01*
X94543266Y-111347647D01*
X94391827Y-111270485D01*
X94341031Y-111222510D01*
X94324236Y-111154689D01*
X94346773Y-111088554D01*
X94391827Y-111049515D01*
X94465081Y-111012190D01*
X94543266Y-110972353D01*
X94704418Y-110855269D01*
X94845269Y-110714418D01*
X94962353Y-110553266D01*
X95052785Y-110375783D01*
X95114339Y-110186339D01*
X95145500Y-109989597D01*
X95145500Y-109790403D01*
X95114339Y-109593661D01*
X95114338Y-109593657D01*
X95114338Y-109593656D01*
X95052786Y-109404219D01*
X95015186Y-109330425D01*
X94962353Y-109226734D01*
X94845269Y-109065582D01*
X94704418Y-108924731D01*
X94543266Y-108807647D01*
X94391827Y-108730485D01*
X94341031Y-108682510D01*
X94324236Y-108614689D01*
X94346773Y-108548554D01*
X94391827Y-108509515D01*
X94401116Y-108504781D01*
X94543266Y-108432353D01*
X94704418Y-108315269D01*
X94845269Y-108174418D01*
X94962353Y-108013266D01*
X95052785Y-107835783D01*
X95105884Y-107672362D01*
X95114338Y-107646343D01*
X95114338Y-107646342D01*
X95114339Y-107646339D01*
X95145500Y-107449597D01*
X95145500Y-107250403D01*
X95114339Y-107053661D01*
X95114338Y-107053657D01*
X95114338Y-107053656D01*
X95052786Y-106864219D01*
X95027023Y-106813656D01*
X94962353Y-106686734D01*
X94845269Y-106525582D01*
X94704418Y-106384731D01*
X94543266Y-106267647D01*
X94391827Y-106190485D01*
X94341031Y-106142510D01*
X94324236Y-106074689D01*
X94346773Y-106008554D01*
X94391827Y-105969515D01*
X94455219Y-105937215D01*
X94543266Y-105892353D01*
X94704418Y-105775269D01*
X94845269Y-105634418D01*
X94962353Y-105473266D01*
X95052785Y-105295783D01*
X95095749Y-105163554D01*
X95114338Y-105106343D01*
X95114338Y-105106342D01*
X95114339Y-105106339D01*
X95145500Y-104909597D01*
X95145500Y-104710403D01*
X95114339Y-104513661D01*
X95114338Y-104513657D01*
X95114338Y-104513656D01*
X95052786Y-104324219D01*
X95007564Y-104235466D01*
X94962353Y-104146734D01*
X94845269Y-103985582D01*
X94704418Y-103844731D01*
X94543266Y-103727647D01*
X94409055Y-103659263D01*
X94391827Y-103650485D01*
X94341031Y-103602510D01*
X94324236Y-103534689D01*
X94346773Y-103468554D01*
X94391827Y-103429515D01*
X94455219Y-103397215D01*
X94543266Y-103352353D01*
X94704418Y-103235269D01*
X94845269Y-103094418D01*
X94962353Y-102933266D01*
X95052785Y-102755783D01*
X95080247Y-102671265D01*
X95114338Y-102566343D01*
X95114338Y-102566342D01*
X95114339Y-102566339D01*
X95145500Y-102369597D01*
X95145500Y-102170403D01*
X95114339Y-101973661D01*
X95114338Y-101973657D01*
X95114338Y-101973656D01*
X95052786Y-101784219D01*
X95007564Y-101695466D01*
X94962353Y-101606734D01*
X94845269Y-101445582D01*
X94704418Y-101304731D01*
X94543266Y-101187647D01*
X94391827Y-101110485D01*
X94341031Y-101062510D01*
X94324236Y-100994689D01*
X94346773Y-100928554D01*
X94391827Y-100889515D01*
X94429175Y-100870485D01*
X94543266Y-100812353D01*
X94704418Y-100695269D01*
X94845269Y-100554418D01*
X94962353Y-100393266D01*
X95052785Y-100215783D01*
X95052786Y-100215780D01*
X95114338Y-100026343D01*
X95114338Y-100026342D01*
X95114339Y-100026339D01*
X95145500Y-99829597D01*
X95145500Y-99630403D01*
X95114339Y-99433661D01*
X95114338Y-99433657D01*
X95114338Y-99433656D01*
X95052786Y-99244219D01*
X95007564Y-99155466D01*
X94962353Y-99066734D01*
X94845269Y-98905582D01*
X94704418Y-98764731D01*
X94543266Y-98647647D01*
X94391827Y-98570485D01*
X94341031Y-98522510D01*
X94324236Y-98454689D01*
X94346773Y-98388554D01*
X94391827Y-98349515D01*
X94429175Y-98330485D01*
X94543266Y-98272353D01*
X94704418Y-98155269D01*
X94845269Y-98014418D01*
X94962353Y-97853266D01*
X95052785Y-97675783D01*
X95078890Y-97595440D01*
X95114338Y-97486343D01*
X95114338Y-97486342D01*
X95114339Y-97486339D01*
X95145500Y-97289597D01*
X95145500Y-97090403D01*
X95114339Y-96893661D01*
X95114338Y-96893657D01*
X95114338Y-96893656D01*
X95052786Y-96704219D01*
X95007564Y-96615466D01*
X94962353Y-96526734D01*
X94845269Y-96365582D01*
X94704418Y-96224731D01*
X94543266Y-96107647D01*
X94391827Y-96030485D01*
X94341031Y-95982510D01*
X94324236Y-95914689D01*
X94346773Y-95848554D01*
X94391827Y-95809515D01*
X94429175Y-95790485D01*
X94543266Y-95732353D01*
X94704418Y-95615269D01*
X94845269Y-95474418D01*
X94962353Y-95313266D01*
X95052785Y-95135783D01*
X95114339Y-94946339D01*
X95145500Y-94749597D01*
X95145500Y-94550403D01*
X95114339Y-94353661D01*
X95114338Y-94353657D01*
X95114338Y-94353656D01*
X95052786Y-94164219D01*
X95007564Y-94075466D01*
X94962353Y-93986734D01*
X94845269Y-93825582D01*
X94704418Y-93684731D01*
X94543266Y-93567647D01*
X94420202Y-93504943D01*
X94391827Y-93490485D01*
X94341031Y-93442510D01*
X94324236Y-93374689D01*
X94346773Y-93308554D01*
X94391827Y-93269515D01*
X94455219Y-93237215D01*
X94543266Y-93192353D01*
X94704418Y-93075269D01*
X94845269Y-92934418D01*
X94962353Y-92773266D01*
X95052785Y-92595783D01*
X95076885Y-92521610D01*
X95114338Y-92406343D01*
X95114338Y-92406342D01*
X95114339Y-92406339D01*
X95145500Y-92209597D01*
X95145500Y-92010403D01*
X95114339Y-91813661D01*
X95114338Y-91813657D01*
X95114338Y-91813656D01*
X95052786Y-91624219D01*
X95052785Y-91624217D01*
X94962353Y-91446734D01*
X94845269Y-91285582D01*
X94704418Y-91144731D01*
X94543266Y-91027647D01*
X94391827Y-90950485D01*
X94341031Y-90902510D01*
X94324236Y-90834689D01*
X94346773Y-90768554D01*
X94391827Y-90729515D01*
X94430127Y-90710000D01*
X94543266Y-90652353D01*
X94704418Y-90535269D01*
X94845269Y-90394418D01*
X94962353Y-90233266D01*
X95052785Y-90055783D01*
X95114339Y-89866339D01*
X95145500Y-89669597D01*
X95145500Y-89470403D01*
X95114339Y-89273661D01*
X95114338Y-89273657D01*
X95114338Y-89273656D01*
X95052786Y-89084219D01*
X95007564Y-88995466D01*
X94962353Y-88906734D01*
X94845269Y-88745582D01*
X94704418Y-88604731D01*
X94543266Y-88487647D01*
X94391827Y-88410485D01*
X94341031Y-88362510D01*
X94324236Y-88294689D01*
X94346773Y-88228554D01*
X94391827Y-88189515D01*
X94431428Y-88169337D01*
X94543266Y-88112353D01*
X94704418Y-87995269D01*
X94845269Y-87854418D01*
X94962353Y-87693266D01*
X95052785Y-87515783D01*
X95114339Y-87326339D01*
X95145500Y-87129597D01*
X95145500Y-86930403D01*
X95114339Y-86733661D01*
X95114338Y-86733657D01*
X95114338Y-86733656D01*
X95052786Y-86544219D01*
X95052785Y-86544217D01*
X94962353Y-86366734D01*
X94845269Y-86205582D01*
X94704418Y-86064731D01*
X94543266Y-85947647D01*
X94391827Y-85870485D01*
X94341031Y-85822510D01*
X94324236Y-85754689D01*
X94346773Y-85688554D01*
X94391827Y-85649515D01*
X94431428Y-85629337D01*
X94543266Y-85572353D01*
X94704418Y-85455269D01*
X94845269Y-85314418D01*
X94962353Y-85153266D01*
X95052785Y-84975783D01*
X95070604Y-84920943D01*
X95114339Y-84786340D01*
X95145500Y-84589596D01*
X95145500Y-84390403D01*
X95114339Y-84193661D01*
X95114338Y-84193657D01*
X95114338Y-84193656D01*
X95052786Y-84004219D01*
X94962352Y-83826733D01*
X94845269Y-83665582D01*
X94704418Y-83524731D01*
X94543266Y-83407647D01*
X94523451Y-83397551D01*
X94391827Y-83330485D01*
X94341031Y-83282510D01*
X94324236Y-83214689D01*
X94346773Y-83148554D01*
X94391827Y-83109515D01*
X94401116Y-83104781D01*
X94543266Y-83032353D01*
X94704418Y-82915269D01*
X94845269Y-82774418D01*
X94962353Y-82613266D01*
X95052785Y-82435783D01*
X95114339Y-82246339D01*
X95145500Y-82049597D01*
X95145500Y-81850403D01*
X95114339Y-81653661D01*
X95114338Y-81653657D01*
X95114338Y-81653656D01*
X95052786Y-81464219D01*
X95052785Y-81464217D01*
X94962353Y-81286734D01*
X94845269Y-81125582D01*
X94704418Y-80984731D01*
X94543266Y-80867647D01*
X94539707Y-80865466D01*
X94492833Y-80813652D01*
X94480500Y-80759740D01*
X94480500Y-69852486D01*
X95749500Y-69852486D01*
X95749500Y-70147513D01*
X95768482Y-70291690D01*
X95788007Y-70439993D01*
X95854804Y-70689283D01*
X95864361Y-70724951D01*
X95864364Y-70724961D01*
X95977254Y-70997500D01*
X95977258Y-70997510D01*
X96124761Y-71252993D01*
X96304352Y-71487040D01*
X96304358Y-71487047D01*
X96512952Y-71695641D01*
X96512959Y-71695647D01*
X96747006Y-71875238D01*
X97002489Y-72022741D01*
X97002490Y-72022741D01*
X97002493Y-72022743D01*
X97275048Y-72135639D01*
X97560007Y-72211993D01*
X97852494Y-72250500D01*
X97852501Y-72250500D01*
X98147499Y-72250500D01*
X98147506Y-72250500D01*
X98439993Y-72211993D01*
X98724952Y-72135639D01*
X98997507Y-72022743D01*
X99252994Y-71875238D01*
X99487042Y-71695646D01*
X99695646Y-71487042D01*
X99875238Y-71252994D01*
X100022743Y-70997507D01*
X100135639Y-70724952D01*
X100211993Y-70439993D01*
X100250500Y-70147506D01*
X100250500Y-69852494D01*
X100211993Y-69560007D01*
X100135639Y-69275048D01*
X100022743Y-69002493D01*
X99994892Y-68954254D01*
X99875238Y-68747006D01*
X99695647Y-68512959D01*
X99695641Y-68512952D01*
X99487047Y-68304358D01*
X99487040Y-68304352D01*
X99252993Y-68124761D01*
X98997510Y-67977258D01*
X98997500Y-67977254D01*
X98724961Y-67864364D01*
X98724954Y-67864362D01*
X98724952Y-67864361D01*
X98439993Y-67788007D01*
X98391113Y-67781571D01*
X98147513Y-67749500D01*
X98147506Y-67749500D01*
X97852494Y-67749500D01*
X97852486Y-67749500D01*
X97593200Y-67783637D01*
X97560007Y-67788007D01*
X97320385Y-67852213D01*
X97275048Y-67864361D01*
X97275038Y-67864364D01*
X97002499Y-67977254D01*
X97002489Y-67977258D01*
X96747006Y-68124761D01*
X96512959Y-68304352D01*
X96512952Y-68304358D01*
X96304358Y-68512952D01*
X96304352Y-68512959D01*
X96124761Y-68747006D01*
X95977258Y-69002489D01*
X95977254Y-69002499D01*
X95864364Y-69275038D01*
X95864361Y-69275048D01*
X95788008Y-69560004D01*
X95788006Y-69560015D01*
X95749500Y-69852486D01*
X94480500Y-69852486D01*
X94480500Y-67572600D01*
X94480501Y-67572587D01*
X94480501Y-67404484D01*
X94480501Y-67404483D01*
X94439577Y-67251756D01*
X94410121Y-67200736D01*
X94360524Y-67114830D01*
X94360518Y-67114822D01*
X86136819Y-58891123D01*
X86103334Y-58829800D01*
X86100500Y-58803442D01*
X86100500Y-58344500D01*
X86120185Y-58277461D01*
X86172989Y-58231706D01*
X86224500Y-58220500D01*
X86381245Y-58220500D01*
X86497347Y-58202110D01*
X86620735Y-58182568D01*
X86851347Y-58107638D01*
X87067398Y-57997554D01*
X87263569Y-57855028D01*
X87435028Y-57683569D01*
X87577554Y-57487398D01*
X87622095Y-57399982D01*
X94299500Y-57399982D01*
X94299500Y-60600017D01*
X94310000Y-60702796D01*
X94355364Y-60839695D01*
X94365186Y-60869335D01*
X94457288Y-61018656D01*
X94581344Y-61142712D01*
X94730665Y-61234814D01*
X94897202Y-61289999D01*
X94999990Y-61300500D01*
X94999995Y-61300500D01*
X96680005Y-61300500D01*
X96680010Y-61300500D01*
X96782798Y-61289999D01*
X96949335Y-61234814D01*
X97036745Y-61180898D01*
X97104136Y-61162459D01*
X97170800Y-61183381D01*
X97189522Y-61198757D01*
X104561181Y-68570416D01*
X104594666Y-68631739D01*
X104597500Y-68658097D01*
X104597500Y-98261330D01*
X104597499Y-98261348D01*
X104597499Y-98427054D01*
X104597498Y-98427054D01*
X104638424Y-98579789D01*
X104638425Y-98579790D01*
X104657473Y-98612781D01*
X104664195Y-98624423D01*
X104687957Y-98665580D01*
X104717479Y-98716714D01*
X104717481Y-98716717D01*
X104836349Y-98835585D01*
X104836355Y-98835590D01*
X107853741Y-101852977D01*
X107887226Y-101914300D01*
X107886637Y-101969592D01*
X107885661Y-101973657D01*
X107860963Y-102129596D01*
X107854500Y-102170403D01*
X107854500Y-102369597D01*
X107858260Y-102393335D01*
X107885661Y-102566340D01*
X107885661Y-102566343D01*
X107947213Y-102755780D01*
X108010772Y-102880521D01*
X108037647Y-102933266D01*
X108154731Y-103094418D01*
X108295582Y-103235269D01*
X108456734Y-103352353D01*
X108544781Y-103397215D01*
X108608722Y-103429795D01*
X108659518Y-103477770D01*
X108676313Y-103545591D01*
X108653776Y-103611726D01*
X108608723Y-103650764D01*
X108456993Y-103728075D01*
X108419135Y-103755580D01*
X108419135Y-103755581D01*
X108982425Y-104318871D01*
X108923147Y-104334755D01*
X108806853Y-104401898D01*
X108711898Y-104496853D01*
X108644755Y-104613147D01*
X108628871Y-104672425D01*
X108065581Y-104109135D01*
X108065580Y-104109135D01*
X108038077Y-104146990D01*
X107947679Y-104324405D01*
X107886147Y-104513777D01*
X107855000Y-104710436D01*
X107855000Y-104909563D01*
X107886147Y-105106222D01*
X107947679Y-105295594D01*
X108038077Y-105473008D01*
X108065580Y-105510863D01*
X108065581Y-105510864D01*
X108628871Y-104947574D01*
X108644755Y-105006853D01*
X108711898Y-105123147D01*
X108806853Y-105218102D01*
X108923147Y-105285245D01*
X108982425Y-105301128D01*
X108419134Y-105864417D01*
X108456994Y-105891924D01*
X108608722Y-105969234D01*
X108659518Y-106017209D01*
X108676313Y-106085030D01*
X108653776Y-106151165D01*
X108608723Y-106190203D01*
X108456735Y-106267645D01*
X108343997Y-106349555D01*
X108295582Y-106384731D01*
X108295580Y-106384733D01*
X108295579Y-106384733D01*
X108154733Y-106525579D01*
X108154733Y-106525580D01*
X108154731Y-106525582D01*
X108124289Y-106567482D01*
X108037647Y-106686733D01*
X107947213Y-106864219D01*
X107885661Y-107053656D01*
X107885661Y-107053659D01*
X107854500Y-107250403D01*
X107854500Y-107449596D01*
X107885661Y-107646340D01*
X107885661Y-107646343D01*
X107947213Y-107835780D01*
X107992656Y-107924966D01*
X108037647Y-108013266D01*
X108154731Y-108174418D01*
X108295582Y-108315269D01*
X108378483Y-108375500D01*
X108413143Y-108400682D01*
X108455808Y-108456012D01*
X108461787Y-108525626D01*
X108429181Y-108587421D01*
X108368342Y-108621778D01*
X108340257Y-108625000D01*
X108307155Y-108625000D01*
X108247627Y-108631401D01*
X108247620Y-108631403D01*
X108112913Y-108681645D01*
X108112906Y-108681649D01*
X107997812Y-108767809D01*
X107997809Y-108767812D01*
X107911649Y-108882906D01*
X107911645Y-108882913D01*
X107861403Y-109017620D01*
X107861401Y-109017627D01*
X107855000Y-109077155D01*
X107855000Y-109640000D01*
X108675440Y-109640000D01*
X108644755Y-109693147D01*
X108610000Y-109822857D01*
X108610000Y-109957143D01*
X108644755Y-110086853D01*
X108675440Y-110140000D01*
X107855000Y-110140000D01*
X107855000Y-110702844D01*
X107861401Y-110762372D01*
X107861403Y-110762379D01*
X107911645Y-110897086D01*
X107911649Y-110897093D01*
X107997809Y-111012187D01*
X107997812Y-111012190D01*
X108112906Y-111098350D01*
X108112913Y-111098354D01*
X108247620Y-111148596D01*
X108247627Y-111148598D01*
X108307155Y-111154999D01*
X108307172Y-111155000D01*
X108870000Y-111155000D01*
X108870000Y-110334560D01*
X108923147Y-110365245D01*
X109052857Y-110400000D01*
X109187143Y-110400000D01*
X109316853Y-110365245D01*
X109370000Y-110334560D01*
X109370000Y-111155000D01*
X109932828Y-111155000D01*
X109932844Y-111154999D01*
X109992372Y-111148598D01*
X109992379Y-111148596D01*
X110127086Y-111098354D01*
X110127093Y-111098350D01*
X110242187Y-111012190D01*
X110242190Y-111012187D01*
X110328350Y-110897093D01*
X110328354Y-110897086D01*
X110378596Y-110762379D01*
X110378598Y-110762372D01*
X110384999Y-110702844D01*
X110385000Y-110702827D01*
X110385000Y-110140000D01*
X109564560Y-110140000D01*
X109595245Y-110086853D01*
X109630000Y-109957143D01*
X109630000Y-109822857D01*
X109595245Y-109693147D01*
X109564560Y-109640000D01*
X110385000Y-109640000D01*
X110385000Y-109077172D01*
X110384999Y-109077155D01*
X110378598Y-109017627D01*
X110378596Y-109017620D01*
X110328354Y-108882913D01*
X110328350Y-108882906D01*
X110242190Y-108767812D01*
X110242187Y-108767809D01*
X110127093Y-108681649D01*
X110127086Y-108681645D01*
X109992379Y-108631403D01*
X109992372Y-108631401D01*
X109932844Y-108625000D01*
X109899743Y-108625000D01*
X109832704Y-108605315D01*
X109786949Y-108552511D01*
X109777005Y-108483353D01*
X109806030Y-108419797D01*
X109826857Y-108400682D01*
X109944418Y-108315269D01*
X110085269Y-108174418D01*
X110202353Y-108013266D01*
X110292785Y-107835783D01*
X110345884Y-107672362D01*
X110354338Y-107646343D01*
X110354338Y-107646342D01*
X110354339Y-107646339D01*
X110385500Y-107449597D01*
X110385500Y-107250403D01*
X110354339Y-107053661D01*
X110354338Y-107053657D01*
X110354338Y-107053656D01*
X110292786Y-106864219D01*
X110267023Y-106813656D01*
X110202353Y-106686734D01*
X110085269Y-106525582D01*
X109944418Y-106384731D01*
X109783266Y-106267647D01*
X109783262Y-106267645D01*
X109631277Y-106190204D01*
X109580481Y-106142229D01*
X109563686Y-106074408D01*
X109586224Y-106008273D01*
X109631277Y-105969234D01*
X109783005Y-105891924D01*
X109820863Y-105864418D01*
X109820863Y-105864417D01*
X109257574Y-105301128D01*
X109316853Y-105285245D01*
X109433147Y-105218102D01*
X109528102Y-105123147D01*
X109595245Y-105006853D01*
X109611128Y-104947574D01*
X110174417Y-105510863D01*
X110174418Y-105510863D01*
X110201924Y-105473005D01*
X110292320Y-105295594D01*
X110353852Y-105106222D01*
X110385000Y-104909563D01*
X110385000Y-104710436D01*
X110353852Y-104513777D01*
X110292320Y-104324405D01*
X110201924Y-104146994D01*
X110174417Y-104109135D01*
X110174417Y-104109134D01*
X109611128Y-104672424D01*
X109595245Y-104613147D01*
X109528102Y-104496853D01*
X109433147Y-104401898D01*
X109316853Y-104334755D01*
X109257574Y-104318871D01*
X109820864Y-103755581D01*
X109820863Y-103755580D01*
X109783008Y-103728077D01*
X109631277Y-103650765D01*
X109580481Y-103602790D01*
X109563686Y-103534969D01*
X109586224Y-103468834D01*
X109631277Y-103429795D01*
X109631827Y-103429515D01*
X109783266Y-103352353D01*
X109944418Y-103235269D01*
X110085269Y-103094418D01*
X110202353Y-102933266D01*
X110292785Y-102755783D01*
X110320247Y-102671265D01*
X110354338Y-102566343D01*
X110354338Y-102566342D01*
X110354339Y-102566339D01*
X110385500Y-102369597D01*
X110385500Y-102170403D01*
X110354339Y-101973661D01*
X110354333Y-101973644D01*
X110353366Y-101969614D01*
X110356851Y-101899831D01*
X110386255Y-101852978D01*
X114610311Y-97628923D01*
X114671632Y-97595440D01*
X114741324Y-97600424D01*
X114797257Y-97642296D01*
X114798257Y-97643651D01*
X114869295Y-97741427D01*
X114888034Y-97767219D01*
X115032786Y-97911971D01*
X115173798Y-98014420D01*
X115198390Y-98032287D01*
X115280767Y-98074260D01*
X115291080Y-98079515D01*
X115341876Y-98127490D01*
X115358671Y-98195311D01*
X115336134Y-98261446D01*
X115291080Y-98300485D01*
X115198386Y-98347715D01*
X115032786Y-98468028D01*
X114888028Y-98612786D01*
X114767715Y-98778386D01*
X114674781Y-98960776D01*
X114611522Y-99155465D01*
X114579500Y-99357648D01*
X114579500Y-99562351D01*
X114611522Y-99764534D01*
X114674781Y-99959223D01*
X114708981Y-100026343D01*
X114754171Y-100115033D01*
X114767715Y-100141613D01*
X114888028Y-100307213D01*
X115032786Y-100451971D01*
X115173798Y-100554420D01*
X115198390Y-100572287D01*
X115289840Y-100618883D01*
X115291080Y-100619515D01*
X115341876Y-100667490D01*
X115358671Y-100735311D01*
X115336134Y-100801446D01*
X115291080Y-100840485D01*
X115198386Y-100887715D01*
X115032786Y-101008028D01*
X114888028Y-101152786D01*
X114767715Y-101318386D01*
X114674781Y-101500776D01*
X114611522Y-101695465D01*
X114579500Y-101897648D01*
X114579500Y-102102351D01*
X114611522Y-102304534D01*
X114674781Y-102499223D01*
X114708981Y-102566343D01*
X114763914Y-102674155D01*
X114767715Y-102681613D01*
X114888028Y-102847213D01*
X115032786Y-102991971D01*
X115173798Y-103094420D01*
X115198390Y-103112287D01*
X115289840Y-103158883D01*
X115291080Y-103159515D01*
X115341876Y-103207490D01*
X115358671Y-103275311D01*
X115336134Y-103341446D01*
X115291080Y-103380485D01*
X115198386Y-103427715D01*
X115032786Y-103548028D01*
X114888028Y-103692786D01*
X114767715Y-103858386D01*
X114674781Y-104040776D01*
X114611522Y-104235465D01*
X114579500Y-104437648D01*
X114579500Y-104642351D01*
X114611522Y-104844534D01*
X114674781Y-105039223D01*
X114728198Y-105144058D01*
X114762356Y-105211097D01*
X114767715Y-105221613D01*
X114888028Y-105387213D01*
X115032786Y-105531971D01*
X115173798Y-105634420D01*
X115198390Y-105652287D01*
X115289840Y-105698883D01*
X115291080Y-105699515D01*
X115341876Y-105747490D01*
X115358671Y-105815311D01*
X115336134Y-105881446D01*
X115291080Y-105920485D01*
X115198386Y-105967715D01*
X115032786Y-106088028D01*
X114888028Y-106232786D01*
X114767715Y-106398386D01*
X114674781Y-106580776D01*
X114611522Y-106775465D01*
X114579500Y-106977648D01*
X114579500Y-107182351D01*
X114611522Y-107384534D01*
X114674781Y-107579223D01*
X114767715Y-107761613D01*
X114888028Y-107927213D01*
X115032786Y-108071971D01*
X115173798Y-108174420D01*
X115198390Y-108192287D01*
X115257396Y-108222352D01*
X115291080Y-108239515D01*
X115341876Y-108287490D01*
X115358671Y-108355311D01*
X115336134Y-108421446D01*
X115291080Y-108460485D01*
X115198386Y-108507715D01*
X115032786Y-108628028D01*
X114888028Y-108772786D01*
X114767715Y-108938386D01*
X114674781Y-109120776D01*
X114611522Y-109315465D01*
X114579500Y-109517648D01*
X114579500Y-109722351D01*
X114611522Y-109924534D01*
X114674781Y-110119223D01*
X114738691Y-110244653D01*
X114754171Y-110275033D01*
X114767715Y-110301613D01*
X114888028Y-110467213D01*
X115032786Y-110611971D01*
X115198385Y-110732284D01*
X115198387Y-110732285D01*
X115198390Y-110732287D01*
X115257449Y-110762379D01*
X115291630Y-110779795D01*
X115342426Y-110827770D01*
X115359221Y-110895591D01*
X115336684Y-110961725D01*
X115291630Y-111000765D01*
X115198644Y-111048143D01*
X115154077Y-111080523D01*
X115154077Y-111080524D01*
X115709766Y-111636212D01*
X115667708Y-111647482D01*
X115542292Y-111719890D01*
X115439890Y-111822292D01*
X115367482Y-111947708D01*
X115356212Y-111989765D01*
X114800524Y-111434077D01*
X114800523Y-111434077D01*
X114768143Y-111478644D01*
X114675244Y-111660968D01*
X114612009Y-111855582D01*
X114580000Y-112057682D01*
X114580000Y-112262317D01*
X114612009Y-112464417D01*
X114675244Y-112659031D01*
X114768141Y-112841350D01*
X114768147Y-112841359D01*
X114800523Y-112885921D01*
X114800524Y-112885922D01*
X115356212Y-112330233D01*
X115367482Y-112372292D01*
X115439890Y-112497708D01*
X115542292Y-112600110D01*
X115667708Y-112672518D01*
X115709765Y-112683787D01*
X115154076Y-113239474D01*
X115198652Y-113271861D01*
X115291628Y-113319234D01*
X115342425Y-113367208D01*
X115359220Y-113435029D01*
X115336683Y-113501164D01*
X115291630Y-113540203D01*
X115198388Y-113587713D01*
X115032786Y-113708028D01*
X114888028Y-113852786D01*
X114767715Y-114018386D01*
X114674781Y-114200776D01*
X114611522Y-114395465D01*
X114579500Y-114597648D01*
X114579500Y-114802351D01*
X114611522Y-115004534D01*
X114674781Y-115199223D01*
X114725689Y-115299134D01*
X114754171Y-115355033D01*
X114767715Y-115381613D01*
X114888028Y-115547213D01*
X115032786Y-115691971D01*
X115173798Y-115794420D01*
X115198390Y-115812287D01*
X115271582Y-115849580D01*
X115380776Y-115905218D01*
X115380778Y-115905218D01*
X115380781Y-115905220D01*
X115465839Y-115932857D01*
X115575465Y-115968477D01*
X115676557Y-115984488D01*
X115777648Y-116000500D01*
X115777649Y-116000500D01*
X115982351Y-116000500D01*
X115982352Y-116000500D01*
X116184534Y-115968477D01*
X116379219Y-115905220D01*
X116561610Y-115812287D01*
X116687945Y-115720500D01*
X116727213Y-115691971D01*
X116727215Y-115691968D01*
X116727219Y-115691966D01*
X116871966Y-115547219D01*
X116871968Y-115547215D01*
X116871971Y-115547213D01*
X116924732Y-115474590D01*
X116992287Y-115381610D01*
X117085220Y-115199219D01*
X117148477Y-115004534D01*
X117180500Y-114802352D01*
X117180500Y-114597648D01*
X117148477Y-114395466D01*
X117085220Y-114200781D01*
X117085218Y-114200778D01*
X117085218Y-114200776D01*
X117051503Y-114134607D01*
X116992287Y-114018390D01*
X116982363Y-114004731D01*
X116871971Y-113852786D01*
X116727213Y-113708028D01*
X116561611Y-113587713D01*
X116468369Y-113540203D01*
X116417574Y-113492229D01*
X116400779Y-113424407D01*
X116423317Y-113358273D01*
X116468371Y-113319234D01*
X116561346Y-113271861D01*
X116561347Y-113271861D01*
X116605921Y-113239474D01*
X116050234Y-112683787D01*
X116092292Y-112672518D01*
X116217708Y-112600110D01*
X116320110Y-112497708D01*
X116392518Y-112372292D01*
X116403787Y-112330235D01*
X116959474Y-112885922D01*
X116959474Y-112885921D01*
X116991859Y-112841349D01*
X117084755Y-112659031D01*
X117147990Y-112464417D01*
X117180000Y-112262317D01*
X117180000Y-112057682D01*
X117147990Y-111855582D01*
X117084755Y-111660968D01*
X116991859Y-111478650D01*
X116959474Y-111434077D01*
X116959474Y-111434076D01*
X116403787Y-111989764D01*
X116392518Y-111947708D01*
X116320110Y-111822292D01*
X116217708Y-111719890D01*
X116092292Y-111647482D01*
X116050233Y-111636212D01*
X116605922Y-111080524D01*
X116605921Y-111080523D01*
X116561359Y-111048147D01*
X116561350Y-111048141D01*
X116468369Y-111000765D01*
X116417573Y-110952790D01*
X116400778Y-110884969D01*
X116423315Y-110818835D01*
X116468370Y-110779795D01*
X116502551Y-110762379D01*
X116561610Y-110732287D01*
X116611144Y-110696298D01*
X116727213Y-110611971D01*
X116727215Y-110611968D01*
X116727219Y-110611966D01*
X116871966Y-110467219D01*
X116871968Y-110467215D01*
X116871971Y-110467213D01*
X116924732Y-110394590D01*
X116992287Y-110301610D01*
X117085220Y-110119219D01*
X117148477Y-109924534D01*
X117180500Y-109722352D01*
X117180500Y-109517648D01*
X117169163Y-109446070D01*
X117148478Y-109315472D01*
X117148477Y-109315471D01*
X117148477Y-109315466D01*
X117143825Y-109301151D01*
X117141832Y-109231312D01*
X117174075Y-109175158D01*
X123458506Y-102890728D01*
X123458511Y-102890724D01*
X123468714Y-102880520D01*
X123468716Y-102880520D01*
X123580520Y-102768716D01*
X123591025Y-102750520D01*
X123635114Y-102674157D01*
X123635115Y-102674155D01*
X123659574Y-102631790D01*
X123659575Y-102631789D01*
X123659575Y-102631787D01*
X123659577Y-102631785D01*
X123700501Y-102479057D01*
X123700501Y-102320943D01*
X123700501Y-102313348D01*
X123700500Y-102313330D01*
X123700500Y-82700096D01*
X123720185Y-82633057D01*
X123736814Y-82612420D01*
X126967286Y-79381947D01*
X129000000Y-79381947D01*
X129000000Y-79618052D01*
X129036934Y-79851247D01*
X129109897Y-80075802D01*
X129217087Y-80286174D01*
X129277338Y-80369104D01*
X129277340Y-80369105D01*
X129976212Y-79670233D01*
X129987482Y-79712292D01*
X130059890Y-79837708D01*
X130162292Y-79940110D01*
X130287708Y-80012518D01*
X130329765Y-80023787D01*
X129630893Y-80722658D01*
X129713828Y-80782914D01*
X129924197Y-80890102D01*
X130148752Y-80963065D01*
X130148751Y-80963065D01*
X130381948Y-81000000D01*
X130618052Y-81000000D01*
X130851247Y-80963065D01*
X131075802Y-80890102D01*
X131286163Y-80782918D01*
X131286169Y-80782914D01*
X131369104Y-80722658D01*
X131369105Y-80722658D01*
X130670233Y-80023787D01*
X130712292Y-80012518D01*
X130837708Y-79940110D01*
X130940110Y-79837708D01*
X131012518Y-79712292D01*
X131023787Y-79670233D01*
X131722658Y-80369105D01*
X131722658Y-80369104D01*
X131782914Y-80286169D01*
X131782918Y-80286163D01*
X131890102Y-80075802D01*
X131963065Y-79851247D01*
X132000000Y-79618052D01*
X132000000Y-79381947D01*
X131963065Y-79148752D01*
X131890102Y-78924197D01*
X131782914Y-78713828D01*
X131722658Y-78630894D01*
X131722658Y-78630893D01*
X131023787Y-79329765D01*
X131012518Y-79287708D01*
X130940110Y-79162292D01*
X130837708Y-79059890D01*
X130712292Y-78987482D01*
X130670234Y-78976212D01*
X131369105Y-78277340D01*
X131369104Y-78277338D01*
X131286174Y-78217087D01*
X131075802Y-78109897D01*
X130851247Y-78036934D01*
X130851248Y-78036934D01*
X130618052Y-78000000D01*
X130381948Y-78000000D01*
X130148752Y-78036934D01*
X129924197Y-78109897D01*
X129713830Y-78217084D01*
X129630894Y-78277340D01*
X130329766Y-78976212D01*
X130287708Y-78987482D01*
X130162292Y-79059890D01*
X130059890Y-79162292D01*
X129987482Y-79287708D01*
X129976212Y-79329766D01*
X129277340Y-78630894D01*
X129217084Y-78713830D01*
X129109897Y-78924197D01*
X129036934Y-79148752D01*
X129000000Y-79381947D01*
X126967286Y-79381947D01*
X129896437Y-76452796D01*
X129957758Y-76419313D01*
X130022433Y-76422547D01*
X130148632Y-76463553D01*
X130236110Y-76477408D01*
X130381903Y-76500500D01*
X130381908Y-76500500D01*
X130618097Y-76500500D01*
X130851368Y-76463553D01*
X130884468Y-76452798D01*
X131075992Y-76390568D01*
X131286433Y-76283343D01*
X131477510Y-76144517D01*
X131644517Y-75977510D01*
X131783343Y-75786433D01*
X131890568Y-75575992D01*
X131963553Y-75351368D01*
X131968037Y-75323057D01*
X132000500Y-75118097D01*
X132000500Y-74881902D01*
X131963553Y-74648631D01*
X131890566Y-74424003D01*
X131810415Y-74266699D01*
X131783343Y-74213567D01*
X131644517Y-74022490D01*
X131477510Y-73855483D01*
X131286433Y-73716657D01*
X131075996Y-73609433D01*
X130851368Y-73536446D01*
X130618097Y-73499500D01*
X130618092Y-73499500D01*
X130381908Y-73499500D01*
X130381903Y-73499500D01*
X130148631Y-73536446D01*
X129924003Y-73609433D01*
X129713566Y-73716657D01*
X129604550Y-73795862D01*
X129522490Y-73855483D01*
X129522488Y-73855485D01*
X129522487Y-73855485D01*
X129355485Y-74022487D01*
X129355485Y-74022488D01*
X129355483Y-74022490D01*
X129352396Y-74026739D01*
X129216657Y-74213566D01*
X129156417Y-74331795D01*
X129108442Y-74382591D01*
X129045932Y-74399500D01*
X125454068Y-74399500D01*
X125387029Y-74379815D01*
X125343583Y-74331795D01*
X125310415Y-74266699D01*
X125283343Y-74213567D01*
X125144517Y-74022490D01*
X124977510Y-73855483D01*
X124786433Y-73716657D01*
X124575996Y-73609433D01*
X124351368Y-73536446D01*
X124118097Y-73499500D01*
X124118092Y-73499500D01*
X123881908Y-73499500D01*
X123881903Y-73499500D01*
X123648631Y-73536446D01*
X123424000Y-73609434D01*
X123364342Y-73639832D01*
X123295673Y-73652728D01*
X123230932Y-73626451D01*
X123190676Y-73569344D01*
X123187684Y-73499539D01*
X123220365Y-73441668D01*
X131768713Y-64893321D01*
X131768716Y-64893320D01*
X131880520Y-64781516D01*
X131930639Y-64694704D01*
X131959577Y-64644585D01*
X132000501Y-64491857D01*
X132000501Y-64333743D01*
X132000501Y-64326148D01*
X132000500Y-64326130D01*
X132000500Y-61258961D01*
X132020185Y-61191922D01*
X132068203Y-61148477D01*
X132207398Y-61077554D01*
X132403569Y-60935028D01*
X132575028Y-60763569D01*
X132717554Y-60567398D01*
X132827638Y-60351347D01*
X132902568Y-60120735D01*
X132930806Y-59942446D01*
X132940500Y-59881245D01*
X132940500Y-58118754D01*
X132902568Y-57879264D01*
X132847570Y-57709998D01*
X132831914Y-57661816D01*
X132829920Y-57591977D01*
X132866000Y-57532144D01*
X132928701Y-57501316D01*
X132949846Y-57499500D01*
X135098903Y-57499500D01*
X135165942Y-57519185D01*
X135186584Y-57535819D01*
X135463181Y-57812416D01*
X135496666Y-57873739D01*
X135499500Y-57900097D01*
X135499500Y-60058028D01*
X135499501Y-60058034D01*
X135510113Y-60177415D01*
X135566089Y-60373045D01*
X135566090Y-60373048D01*
X135566091Y-60373049D01*
X135660302Y-60553407D01*
X135691603Y-60591795D01*
X135788890Y-60711109D01*
X135853228Y-60763569D01*
X135946593Y-60839698D01*
X136126951Y-60933909D01*
X136126953Y-60933909D01*
X136126954Y-60933910D01*
X136130865Y-60935029D01*
X136322582Y-60989886D01*
X136441963Y-61000500D01*
X137558036Y-61000499D01*
X137677418Y-60989886D01*
X137873049Y-60933909D01*
X138053407Y-60839698D01*
X138211109Y-60711109D01*
X138339698Y-60553407D01*
X138433909Y-60373049D01*
X138489886Y-60177418D01*
X138500500Y-60058037D01*
X138500499Y-56941964D01*
X138489886Y-56822582D01*
X138433909Y-56626951D01*
X138339698Y-56446593D01*
X138275908Y-56368361D01*
X138211109Y-56288890D01*
X138053409Y-56160304D01*
X138053410Y-56160304D01*
X138053407Y-56160302D01*
X137873049Y-56066091D01*
X137873048Y-56066090D01*
X137873045Y-56066089D01*
X137755829Y-56032550D01*
X137677418Y-56010114D01*
X137677415Y-56010113D01*
X137677413Y-56010113D01*
X137611102Y-56004217D01*
X137558037Y-55999500D01*
X137558032Y-55999500D01*
X136441971Y-55999500D01*
X136441965Y-55999500D01*
X136441964Y-55999501D01*
X136430316Y-56000536D01*
X136322584Y-56010113D01*
X136126954Y-56066089D01*
X136083758Y-56088653D01*
X135946593Y-56160302D01*
X135946591Y-56160303D01*
X135946590Y-56160304D01*
X135788890Y-56288891D01*
X135776480Y-56304111D01*
X135718859Y-56343627D01*
X135649021Y-56345718D01*
X135632924Y-56340309D01*
X135630787Y-56339424D01*
X135630786Y-56339423D01*
X135630785Y-56339423D01*
X135478057Y-56298499D01*
X135319943Y-56298499D01*
X135312347Y-56298499D01*
X135312331Y-56298500D01*
X115683597Y-56298500D01*
X115525482Y-56298500D01*
X115372755Y-56339423D01*
X115372754Y-56339423D01*
X115372752Y-56339424D01*
X115372749Y-56339425D01*
X115322636Y-56368359D01*
X115322635Y-56368360D01*
X115279229Y-56393420D01*
X115235825Y-56418479D01*
X115235822Y-56418481D01*
X114338481Y-57315822D01*
X114338475Y-57315830D01*
X114301140Y-57380498D01*
X114301140Y-57380500D01*
X114259423Y-57452754D01*
X114246411Y-57501316D01*
X114218499Y-57605483D01*
X114218499Y-57605485D01*
X114218499Y-57773586D01*
X114218500Y-57773599D01*
X114218500Y-69179130D01*
X114218499Y-69179148D01*
X114218499Y-69344854D01*
X114218498Y-69344854D01*
X114259424Y-69497587D01*
X114273424Y-69521835D01*
X114273425Y-69521837D01*
X114338477Y-69634512D01*
X114338481Y-69634517D01*
X114457349Y-69753385D01*
X114457355Y-69753390D01*
X114645681Y-69941716D01*
X114679166Y-70003039D01*
X114682000Y-70029397D01*
X114682000Y-70629670D01*
X114682001Y-70629676D01*
X114688408Y-70689283D01*
X114738702Y-70824128D01*
X114738706Y-70824135D01*
X114824951Y-70939343D01*
X114824952Y-70939344D01*
X114824954Y-70939346D01*
X114849812Y-70957955D01*
X114891682Y-71013887D01*
X114899500Y-71057220D01*
X114899500Y-72020778D01*
X114879815Y-72087817D01*
X114849813Y-72120043D01*
X114824959Y-72138649D01*
X114824951Y-72138657D01*
X114738706Y-72253864D01*
X114738702Y-72253871D01*
X114688408Y-72388717D01*
X114682001Y-72448316D01*
X114682000Y-72448335D01*
X114682000Y-73814070D01*
X114682001Y-73814076D01*
X114688408Y-73873683D01*
X114738702Y-74008528D01*
X114738706Y-74008535D01*
X114824951Y-74123743D01*
X114824952Y-74123744D01*
X114824954Y-74123746D01*
X114849812Y-74142355D01*
X114891682Y-74198287D01*
X114899500Y-74241620D01*
X114899500Y-75205178D01*
X114879815Y-75272217D01*
X114849813Y-75304443D01*
X114824959Y-75323049D01*
X114824951Y-75323057D01*
X114738706Y-75438264D01*
X114738702Y-75438271D01*
X114688408Y-75573117D01*
X114682001Y-75632716D01*
X114682000Y-75632735D01*
X114682000Y-76998470D01*
X114682001Y-76998476D01*
X114688408Y-77058083D01*
X114738702Y-77192928D01*
X114738706Y-77192935D01*
X114824951Y-77308143D01*
X114824952Y-77308144D01*
X114824954Y-77308146D01*
X114849812Y-77326755D01*
X114891682Y-77382687D01*
X114899500Y-77426020D01*
X114899500Y-78389578D01*
X114879815Y-78456617D01*
X114849813Y-78488843D01*
X114824959Y-78507449D01*
X114824951Y-78507457D01*
X114738706Y-78622664D01*
X114738702Y-78622671D01*
X114688408Y-78757517D01*
X114682001Y-78817116D01*
X114682000Y-78817135D01*
X114682000Y-80182870D01*
X114682001Y-80182876D01*
X114688408Y-80242483D01*
X114738702Y-80377328D01*
X114738706Y-80377335D01*
X114824951Y-80492543D01*
X114824952Y-80492544D01*
X114824954Y-80492546D01*
X114849812Y-80511155D01*
X114891682Y-80567087D01*
X114899500Y-80610420D01*
X114899500Y-81699902D01*
X114879815Y-81766941D01*
X114863181Y-81787583D01*
X112019481Y-84631282D01*
X112019479Y-84631285D01*
X111969361Y-84718094D01*
X111969359Y-84718096D01*
X111940425Y-84768209D01*
X111940424Y-84768210D01*
X111935566Y-84786340D01*
X111899499Y-84920943D01*
X111899499Y-84920945D01*
X111899499Y-85089046D01*
X111899500Y-85089059D01*
X111899500Y-88429902D01*
X111879815Y-88496941D01*
X111863181Y-88517583D01*
X109537022Y-90843741D01*
X109475699Y-90877226D01*
X109420404Y-90876636D01*
X109416344Y-90875661D01*
X109252387Y-90849693D01*
X109219597Y-90844500D01*
X109020403Y-90844500D01*
X108981054Y-90850732D01*
X108823657Y-90875661D01*
X108816817Y-90877884D01*
X108746976Y-90879879D01*
X108687143Y-90843798D01*
X108656316Y-90781097D01*
X108654500Y-90759953D01*
X108654500Y-62326097D01*
X108674185Y-62259058D01*
X108690819Y-62238416D01*
X109308500Y-61620735D01*
X109953922Y-60975312D01*
X110015243Y-60941829D01*
X110084935Y-60946813D01*
X110114486Y-60962677D01*
X110191537Y-61018657D01*
X110272602Y-61077554D01*
X110480298Y-61183381D01*
X110488655Y-61187639D01*
X110546615Y-61206471D01*
X110719265Y-61262568D01*
X110830186Y-61280136D01*
X110958755Y-61300500D01*
X110958760Y-61300500D01*
X111201245Y-61300500D01*
X111317347Y-61282110D01*
X111440735Y-61262568D01*
X111671347Y-61187638D01*
X111887398Y-61077554D01*
X112083569Y-60935028D01*
X112255028Y-60763569D01*
X112397554Y-60567398D01*
X112507638Y-60351347D01*
X112582568Y-60120735D01*
X112610806Y-59942446D01*
X112620500Y-59881245D01*
X112620500Y-58118754D01*
X112582586Y-57879381D01*
X112582568Y-57879265D01*
X112544985Y-57763597D01*
X112507639Y-57648655D01*
X112496626Y-57627041D01*
X112397554Y-57432602D01*
X112330666Y-57340538D01*
X112255033Y-57236437D01*
X112255029Y-57236432D01*
X112083567Y-57064970D01*
X112083562Y-57064966D01*
X111887401Y-56922448D01*
X111887400Y-56922447D01*
X111887398Y-56922446D01*
X111691409Y-56822584D01*
X111671344Y-56812360D01*
X111440736Y-56737432D01*
X111201245Y-56699500D01*
X111201240Y-56699500D01*
X110958760Y-56699500D01*
X110958755Y-56699500D01*
X110719263Y-56737432D01*
X110488655Y-56812360D01*
X110272598Y-56922448D01*
X110076437Y-57064966D01*
X110076432Y-57064970D01*
X109904970Y-57236432D01*
X109904966Y-57236437D01*
X109762448Y-57432598D01*
X109652360Y-57648655D01*
X109577432Y-57879263D01*
X109539500Y-58118754D01*
X109539500Y-59639902D01*
X109519815Y-59706941D01*
X109503181Y-59727583D01*
X107573480Y-61657283D01*
X107571017Y-61661549D01*
X107568726Y-61665519D01*
X107494423Y-61794215D01*
X107453499Y-61946943D01*
X107453499Y-61946945D01*
X107453499Y-62115046D01*
X107453500Y-62115059D01*
X107453500Y-93497330D01*
X107453499Y-93497348D01*
X107453499Y-93663054D01*
X107453498Y-93663054D01*
X107481447Y-93767359D01*
X107494423Y-93815785D01*
X107522892Y-93865094D01*
X107573479Y-93952714D01*
X107573481Y-93952717D01*
X107692349Y-94071585D01*
X107692355Y-94071590D01*
X107853741Y-94232976D01*
X107887226Y-94294299D01*
X107886638Y-94349588D01*
X107885661Y-94353659D01*
X107854500Y-94550403D01*
X107854500Y-94749594D01*
X107856088Y-94759623D01*
X107847131Y-94828916D01*
X107802133Y-94882367D01*
X107735381Y-94903004D01*
X107668068Y-94884277D01*
X107645933Y-94866698D01*
X106636819Y-93857584D01*
X106603334Y-93796261D01*
X106600500Y-93769903D01*
X106600500Y-61258961D01*
X106620185Y-61191922D01*
X106668203Y-61148477D01*
X106807398Y-61077554D01*
X107003569Y-60935028D01*
X107175028Y-60763569D01*
X107317554Y-60567398D01*
X107427638Y-60351347D01*
X107502568Y-60120735D01*
X107530806Y-59942446D01*
X107540500Y-59881245D01*
X107540500Y-58118754D01*
X107502586Y-57879381D01*
X107502568Y-57879265D01*
X107464985Y-57763597D01*
X107427639Y-57648655D01*
X107416626Y-57627041D01*
X107317554Y-57432602D01*
X107250666Y-57340538D01*
X107175033Y-57236437D01*
X107175029Y-57236432D01*
X107003567Y-57064970D01*
X107003562Y-57064966D01*
X106807401Y-56922448D01*
X106807400Y-56922447D01*
X106807398Y-56922446D01*
X106611409Y-56822584D01*
X106591344Y-56812360D01*
X106360736Y-56737432D01*
X106121245Y-56699500D01*
X106121240Y-56699500D01*
X105878760Y-56699500D01*
X105878755Y-56699500D01*
X105639263Y-56737432D01*
X105408655Y-56812360D01*
X105192598Y-56922448D01*
X104996437Y-57064966D01*
X104996432Y-57064970D01*
X104824970Y-57236432D01*
X104824966Y-57236437D01*
X104682448Y-57432598D01*
X104572360Y-57648655D01*
X104497432Y-57879263D01*
X104459500Y-58118754D01*
X104459500Y-59881245D01*
X104497432Y-60120736D01*
X104572360Y-60351344D01*
X104618779Y-60442446D01*
X104675318Y-60553409D01*
X104682448Y-60567401D01*
X104824966Y-60763562D01*
X104824970Y-60763567D01*
X104996432Y-60935029D01*
X104996437Y-60935033D01*
X105192597Y-61077551D01*
X105192599Y-61077552D01*
X105192602Y-61077554D01*
X105331796Y-61148477D01*
X105382591Y-61196450D01*
X105399500Y-61258961D01*
X105399500Y-62330903D01*
X105379815Y-62397942D01*
X105327011Y-62443697D01*
X105257853Y-62453641D01*
X105194297Y-62424616D01*
X105187819Y-62418584D01*
X102496819Y-59727584D01*
X102463334Y-59666261D01*
X102460500Y-59639903D01*
X102460500Y-58118754D01*
X102422586Y-57879381D01*
X102422568Y-57879265D01*
X102384985Y-57763597D01*
X102347639Y-57648655D01*
X102336626Y-57627041D01*
X102237554Y-57432602D01*
X102170666Y-57340538D01*
X102095033Y-57236437D01*
X102095029Y-57236432D01*
X101923567Y-57064970D01*
X101923562Y-57064966D01*
X101727401Y-56922448D01*
X101727400Y-56922447D01*
X101727398Y-56922446D01*
X101531409Y-56822584D01*
X101511344Y-56812360D01*
X101280736Y-56737432D01*
X101041245Y-56699500D01*
X101041240Y-56699500D01*
X100798760Y-56699500D01*
X100798755Y-56699500D01*
X100559263Y-56737432D01*
X100328655Y-56812360D01*
X100112598Y-56922448D01*
X99916437Y-57064966D01*
X99916432Y-57064970D01*
X99744970Y-57236432D01*
X99744966Y-57236437D01*
X99602448Y-57432598D01*
X99492360Y-57648655D01*
X99417432Y-57879263D01*
X99379500Y-58118754D01*
X99379500Y-59881245D01*
X99417432Y-60120736D01*
X99492360Y-60351344D01*
X99538779Y-60442446D01*
X99595318Y-60553409D01*
X99602448Y-60567401D01*
X99744966Y-60763562D01*
X99744970Y-60763567D01*
X99916432Y-60935029D01*
X99916437Y-60935033D01*
X100031537Y-61018657D01*
X100112602Y-61077554D01*
X100320298Y-61183381D01*
X100328655Y-61187639D01*
X100386615Y-61206471D01*
X100559265Y-61262568D01*
X100670186Y-61280136D01*
X100798755Y-61300500D01*
X100798760Y-61300500D01*
X101041245Y-61300500D01*
X101157347Y-61282110D01*
X101280735Y-61262568D01*
X101511347Y-61187638D01*
X101727398Y-61077554D01*
X101885514Y-60962676D01*
X101951319Y-60939197D01*
X102019373Y-60955022D01*
X102046079Y-60975314D01*
X104962181Y-63891416D01*
X104995666Y-63952739D01*
X104998500Y-63979097D01*
X104998500Y-67009902D01*
X104978815Y-67076941D01*
X104926011Y-67122696D01*
X104856853Y-67132640D01*
X104793297Y-67103615D01*
X104786819Y-67097583D01*
X97416819Y-59727583D01*
X97383334Y-59666260D01*
X97380500Y-59639902D01*
X97380500Y-57399995D01*
X97380499Y-57399982D01*
X97378508Y-57380498D01*
X97369999Y-57297202D01*
X97314814Y-57130665D01*
X97222712Y-56981344D01*
X97098656Y-56857288D01*
X96949335Y-56765186D01*
X96782798Y-56710001D01*
X96782796Y-56710000D01*
X96680017Y-56699500D01*
X96680010Y-56699500D01*
X94999990Y-56699500D01*
X94999982Y-56699500D01*
X94897203Y-56710000D01*
X94897202Y-56710001D01*
X94814669Y-56737349D01*
X94730667Y-56765185D01*
X94730662Y-56765187D01*
X94581342Y-56857289D01*
X94457289Y-56981342D01*
X94365187Y-57130662D01*
X94365185Y-57130667D01*
X94337349Y-57214669D01*
X94310001Y-57297202D01*
X94310001Y-57297203D01*
X94310000Y-57297203D01*
X94299500Y-57399982D01*
X87622095Y-57399982D01*
X87687638Y-57271347D01*
X87762568Y-57040735D01*
X87792304Y-56852989D01*
X87800500Y-56801245D01*
X87800500Y-56558754D01*
X87770344Y-56368361D01*
X87762568Y-56319265D01*
X87687638Y-56088653D01*
X87577554Y-55872602D01*
X87559345Y-55847539D01*
X87435033Y-55676437D01*
X87435029Y-55676432D01*
X87263567Y-55504970D01*
X87263562Y-55504966D01*
X87067401Y-55362448D01*
X87067400Y-55362447D01*
X87067398Y-55362446D01*
X86959372Y-55307404D01*
X86851344Y-55252360D01*
X86620736Y-55177432D01*
X86381245Y-55139500D01*
X86381240Y-55139500D01*
X84618760Y-55139500D01*
X84618755Y-55139500D01*
X84379263Y-55177432D01*
X84148655Y-55252360D01*
X83932598Y-55362448D01*
X83736437Y-55504966D01*
X83736432Y-55504970D01*
X83564970Y-55676432D01*
X83564966Y-55676437D01*
X83422448Y-55872598D01*
X83312360Y-56088655D01*
X83237432Y-56319263D01*
X83199500Y-56558754D01*
X79500500Y-56558754D01*
X79500500Y-53124500D01*
X79520185Y-53057461D01*
X79572989Y-53011706D01*
X79624500Y-53000500D01*
X173375500Y-53000500D01*
X173442539Y-53020185D01*
G37*
%TD.AperFunction*%
%TD*%
M02*
